<?xml version="1.0" encoding="utf-8" standalone="no"?>
<!DOCTYPE svg PUBLIC "-//W3C//DTD SVG 1.1//EN"
  "http://www.w3.org/Graphics/SVG/1.1/DTD/svg11.dtd">
<svg xmlns:xlink="http://www.w3.org/1999/xlink" width="1440pt" height="720pt" viewBox="0 0 1440 720" xmlns="http://www.w3.org/2000/svg" version="1.1">
 <metadata>
  <rdf:RDF xmlns:dc="http://purl.org/dc/elements/1.1/" xmlns:cc="http://creativecommons.org/ns#" xmlns:rdf="http://www.w3.org/1999/02/22-rdf-syntax-ns#">
   <cc:Work>
    <dc:type rdf:resource="http://purl.org/dc/dcmitype/StillImage"/>
    <dc:date>2025-06-25T11:58:35.611751</dc:date>
    <dc:format>image/svg+xml</dc:format>
    <dc:creator>
     <cc:Agent>
      <dc:title>Matplotlib v3.10.0, https://matplotlib.org/</dc:title>
     </cc:Agent>
    </dc:creator>
   </cc:Work>
  </rdf:RDF>
 </metadata>
 <defs>
  <style type="text/css">*{stroke-linejoin: round; stroke-linecap: butt}</style>
 </defs>
 <g id="figure_1">
  <g id="patch_1">
   <path d="M 0 720 
L 1440 720 
L 1440 0 
L 0 0 
z
" style="fill: #ffffff"/>
  </g>
  <g id="axes_1">
   <g id="patch_2">
    <path d="M 112.52 504.670143 
L 1424.88 504.670143 
L 1424.88 39.84 
L 112.52 39.84 
z
" style="fill: #ffffff"/>
   </g>
   <g id="patch_3">
    <path d="M 172.172727 272.255072 
L 197.02803 272.255072 
L 197.02803 268.43344 
L 172.172727 268.43344 
z
" clip-path="url(#pbfa194495a)" style="fill: #1f77b4; opacity: 0.8"/>
   </g>
   <g id="patch_4">
    <path d="M 296.449242 272.255072 
L 321.304545 272.255072 
L 321.304545 271.808991 
L 296.449242 271.808991 
z
" clip-path="url(#pbfa194495a)" style="fill: #1f77b4; opacity: 0.8"/>
   </g>
   <g id="patch_5">
    <path d="M 420.725758 272.255072 
L 445.581061 272.255072 
L 445.581061 277.427159 
L 420.725758 277.427159 
z
" clip-path="url(#pbfa194495a)" style="fill: #1f77b4; opacity: 0.8"/>
   </g>
   <g id="patch_6">
    <path d="M 545.002273 272.255072 
L 569.857576 272.255072 
L 569.857576 270.103225 
L 545.002273 270.103225 
z
" clip-path="url(#pbfa194495a)" style="fill: #1f77b4; opacity: 0.8"/>
   </g>
   <g id="patch_7">
    <path d="M 669.278788 272.255072 
L 694.134091 272.255072 
L 694.134091 270.390476 
L 669.278788 270.390476 
z
" clip-path="url(#pbfa194495a)" style="fill: #1f77b4; opacity: 0.8"/>
   </g>
   <g id="patch_8">
    <path d="M 793.555303 272.255072 
L 818.410606 272.255072 
L 818.410606 264.471463 
L 793.555303 264.471463 
z
" clip-path="url(#pbfa194495a)" style="fill: #1f77b4; opacity: 0.8"/>
   </g>
   <g id="patch_9">
    <path d="M 917.831818 272.255072 
L 942.687121 272.255072 
L 942.687121 271.609524 
L 917.831818 271.609524 
z
" clip-path="url(#pbfa194495a)" style="fill: #1f77b4; opacity: 0.8"/>
   </g>
   <g id="patch_10">
    <path d="M 1042.108333 272.255072 
L 1066.963636 272.255072 
L 1066.963636 271.947003 
L 1042.108333 271.947003 
z
" clip-path="url(#pbfa194495a)" style="fill: #1f77b4; opacity: 0.8"/>
   </g>
   <g id="patch_11">
    <path d="M 1166.384848 272.255072 
L 1191.240152 272.255072 
L 1191.240152 265.888182 
L 1166.384848 265.888182 
z
" clip-path="url(#pbfa194495a)" style="fill: #1f77b4; opacity: 0.8"/>
   </g>
   <g id="patch_12">
    <path d="M 1290.661364 272.255072 
L 1315.516667 272.255072 
L 1315.516667 265.358297 
L 1290.661364 265.358297 
z
" clip-path="url(#pbfa194495a)" style="fill: #1f77b4; opacity: 0.8"/>
   </g>
   <g id="patch_13">
    <path d="M 197.02803 272.255072 
L 221.883333 272.255072 
L 221.883333 287.539953 
L 197.02803 287.539953 
z
" clip-path="url(#pbfa194495a)" style="fill: #ff7f0e; opacity: 0.8"/>
   </g>
   <g id="patch_14">
    <path d="M 321.304545 272.255072 
L 346.159848 272.255072 
L 346.159848 267.162146 
L 321.304545 267.162146 
z
" clip-path="url(#pbfa194495a)" style="fill: #ff7f0e; opacity: 0.8"/>
   </g>
   <g id="patch_15">
    <path d="M 445.581061 272.255072 
L 470.436364 272.255072 
L 470.436364 263.804413 
L 445.581061 263.804413 
z
" clip-path="url(#pbfa194495a)" style="fill: #ff7f0e; opacity: 0.8"/>
   </g>
   <g id="patch_16">
    <path d="M 569.857576 272.255072 
L 594.712879 272.255072 
L 594.712879 279.863575 
L 569.857576 279.863575 
z
" clip-path="url(#pbfa194495a)" style="fill: #ff7f0e; opacity: 0.8"/>
   </g>
   <g id="patch_17">
    <path d="M 694.134091 272.255072 
L 718.989394 272.255072 
L 718.989394 279.54069 
L 694.134091 279.54069 
z
" clip-path="url(#pbfa194495a)" style="fill: #ff7f0e; opacity: 0.8"/>
   </g>
   <g id="patch_18">
    <path d="M 818.410606 272.255072 
L 843.265909 272.255072 
L 843.265909 273.104396 
L 818.410606 273.104396 
z
" clip-path="url(#pbfa194495a)" style="fill: #ff7f0e; opacity: 0.8"/>
   </g>
   <g id="patch_19">
    <path d="M 942.687121 272.255072 
L 967.542424 272.255072 
L 967.542424 279.609693 
L 942.687121 279.609693 
z
" clip-path="url(#pbfa194495a)" style="fill: #ff7f0e; opacity: 0.8"/>
   </g>
   <g id="patch_20">
    <path d="M 1066.963636 272.255072 
L 1091.818939 272.255072 
L 1091.818939 280.276935 
L 1066.963636 280.276935 
z
" clip-path="url(#pbfa194495a)" style="fill: #ff7f0e; opacity: 0.8"/>
   </g>
   <g id="patch_21">
    <path d="M 1191.240152 272.255072 
L 1216.095455 272.255072 
L 1216.095455 271.091369 
L 1191.240152 271.091369 
z
" clip-path="url(#pbfa194495a)" style="fill: #ff7f0e; opacity: 0.8"/>
   </g>
   <g id="patch_22">
    <path d="M 1315.516667 272.255072 
L 1340.37197 272.255072 
L 1340.37197 273.416027 
L 1315.516667 273.416027 
z
" clip-path="url(#pbfa194495a)" style="fill: #ff7f0e; opacity: 0.8"/>
   </g>
   <g id="patch_23">
    <path d="M 221.883333 272.255072 
L 246.738636 272.255072 
L 246.738636 268.295184 
L 221.883333 268.295184 
z
" clip-path="url(#pbfa194495a)" style="fill: #2ca02c; opacity: 0.8"/>
   </g>
   <g id="patch_24">
    <path d="M 346.159848 272.255072 
L 371.015152 272.255072 
L 371.015152 257.010722 
L 346.159848 257.010722 
z
" clip-path="url(#pbfa194495a)" style="fill: #2ca02c; opacity: 0.8"/>
   </g>
   <g id="patch_25">
    <path d="M 470.436364 272.255072 
L 495.291667 272.255072 
L 495.291667 279.268113 
L 470.436364 279.268113 
z
" clip-path="url(#pbfa194495a)" style="fill: #2ca02c; opacity: 0.8"/>
   </g>
   <g id="patch_26">
    <path d="M 594.712879 272.255072 
L 619.568182 272.255072 
L 619.568182 267.747883 
L 594.712879 267.747883 
z
" clip-path="url(#pbfa194495a)" style="fill: #2ca02c; opacity: 0.8"/>
   </g>
   <g id="patch_27">
    <path d="M 718.989394 272.255072 
L 743.844697 272.255072 
L 743.844697 267.164581 
L 718.989394 267.164581 
z
" clip-path="url(#pbfa194495a)" style="fill: #2ca02c; opacity: 0.8"/>
   </g>
   <g id="patch_28">
    <path d="M 843.265909 272.255072 
L 868.121212 272.255072 
L 868.121212 277.543125 
L 843.265909 277.543125 
z
" clip-path="url(#pbfa194495a)" style="fill: #2ca02c; opacity: 0.8"/>
   </g>
   <g id="patch_29">
    <path d="M 967.542424 272.255072 
L 992.397727 272.255072 
L 992.397727 266.540697 
L 967.542424 266.540697 
z
" clip-path="url(#pbfa194495a)" style="fill: #2ca02c; opacity: 0.8"/>
   </g>
   <g id="patch_30">
    <path d="M 1091.818939 272.255072 
L 1116.674242 272.255072 
L 1116.674242 266.944175 
L 1091.818939 266.944175 
z
" clip-path="url(#pbfa194495a)" style="fill: #2ca02c; opacity: 0.8"/>
   </g>
   <g id="patch_31">
    <path d="M 1216.095455 272.255072 
L 1240.950758 272.255072 
L 1240.950758 277.990857 
L 1216.095455 277.990857 
z
" clip-path="url(#pbfa194495a)" style="fill: #2ca02c; opacity: 0.8"/>
   </g>
   <g id="patch_32">
    <path d="M 1340.37197 272.255072 
L 1365.227273 272.255072 
L 1365.227273 277.172825 
L 1340.37197 277.172825 
z
" clip-path="url(#pbfa194495a)" style="fill: #2ca02c; opacity: 0.8"/>
   </g>
   <g id="matplotlib.axis_1">
    <g id="xtick_1">
     <g id="line2d_1">
      <path d="M 221.883333 504.670143 
L 221.883333 39.84 
" clip-path="url(#pbfa194495a)" style="fill: none; stroke: #b0b0b0; stroke-opacity: 0.4; stroke-width: 0.8; stroke-linecap: square"/>
     </g>
     <g id="line2d_2">
      <defs>
       <path id="me563706cc1" d="M 0 0 
L 0 3.5 
" style="stroke: #000000; stroke-width: 1.5"/>
      </defs>
      <g>
       <use xlink:href="#me563706cc1" x="221.883333" y="504.670143" style="stroke: #000000; stroke-width: 1.5"/>
      </g>
     </g>
     <g id="text_1">
      <!-- Skewness -->
      <g transform="translate(124.310552 618.608553) rotate(-45) scale(0.24 -0.24)">
       <defs>
        <path id="DejaVuSans-Bold-53" d="M 3834 4519 
L 3834 3531 
Q 3450 3703 3084 3790 
Q 2719 3878 2394 3878 
Q 1963 3878 1756 3759 
Q 1550 3641 1550 3391 
Q 1550 3203 1689 3098 
Q 1828 2994 2194 2919 
L 2706 2816 
Q 3484 2659 3812 2340 
Q 4141 2022 4141 1434 
Q 4141 663 3683 286 
Q 3225 -91 2284 -91 
Q 1841 -91 1394 -6 
Q 947 78 500 244 
L 500 1259 
Q 947 1022 1364 901 
Q 1781 781 2169 781 
Q 2563 781 2772 912 
Q 2981 1044 2981 1288 
Q 2981 1506 2839 1625 
Q 2697 1744 2272 1838 
L 1806 1941 
Q 1106 2091 782 2419 
Q 459 2747 459 3303 
Q 459 4000 909 4375 
Q 1359 4750 2203 4750 
Q 2588 4750 2994 4692 
Q 3400 4634 3834 4519 
z
" transform="scale(0.015625)"/>
        <path id="DejaVuSans-Bold-6b" d="M 538 4863 
L 1656 4863 
L 1656 2216 
L 2944 3500 
L 4244 3500 
L 2534 1894 
L 4378 0 
L 3022 0 
L 1656 1459 
L 1656 0 
L 538 0 
L 538 4863 
z
" transform="scale(0.015625)"/>
        <path id="DejaVuSans-Bold-65" d="M 4031 1759 
L 4031 1441 
L 1416 1441 
Q 1456 1047 1700 850 
Q 1944 653 2381 653 
Q 2734 653 3104 758 
Q 3475 863 3866 1075 
L 3866 213 
Q 3469 63 3072 -14 
Q 2675 -91 2278 -91 
Q 1328 -91 801 392 
Q 275 875 275 1747 
Q 275 2603 792 3093 
Q 1309 3584 2216 3584 
Q 3041 3584 3536 3087 
Q 4031 2591 4031 1759 
z
M 2881 2131 
Q 2881 2450 2695 2645 
Q 2509 2841 2209 2841 
Q 1884 2841 1681 2658 
Q 1478 2475 1428 2131 
L 2881 2131 
z
" transform="scale(0.015625)"/>
        <path id="DejaVuSans-Bold-77" d="M 225 3500 
L 1313 3500 
L 1900 1088 
L 2491 3500 
L 3425 3500 
L 4013 1113 
L 4603 3500 
L 5691 3500 
L 4769 0 
L 3547 0 
L 2956 2406 
L 2369 0 
L 1147 0 
L 225 3500 
z
" transform="scale(0.015625)"/>
        <path id="DejaVuSans-Bold-6e" d="M 4056 2131 
L 4056 0 
L 2931 0 
L 2931 347 
L 2931 1631 
Q 2931 2084 2911 2256 
Q 2891 2428 2841 2509 
Q 2775 2619 2662 2680 
Q 2550 2741 2406 2741 
Q 2056 2741 1856 2470 
Q 1656 2200 1656 1722 
L 1656 0 
L 538 0 
L 538 3500 
L 1656 3500 
L 1656 2988 
Q 1909 3294 2193 3439 
Q 2478 3584 2822 3584 
Q 3428 3584 3742 3212 
Q 4056 2841 4056 2131 
z
" transform="scale(0.015625)"/>
        <path id="DejaVuSans-Bold-73" d="M 3272 3391 
L 3272 2541 
Q 2913 2691 2578 2766 
Q 2244 2841 1947 2841 
Q 1628 2841 1473 2761 
Q 1319 2681 1319 2516 
Q 1319 2381 1436 2309 
Q 1553 2238 1856 2203 
L 2053 2175 
Q 2913 2066 3209 1816 
Q 3506 1566 3506 1031 
Q 3506 472 3093 190 
Q 2681 -91 1863 -91 
Q 1516 -91 1145 -36 
Q 775 19 384 128 
L 384 978 
Q 719 816 1070 734 
Q 1422 653 1784 653 
Q 2113 653 2278 743 
Q 2444 834 2444 1013 
Q 2444 1163 2330 1236 
Q 2216 1309 1875 1350 
L 1678 1375 
Q 931 1469 631 1722 
Q 331 1975 331 2491 
Q 331 3047 712 3315 
Q 1094 3584 1881 3584 
Q 2191 3584 2531 3537 
Q 2872 3491 3272 3391 
z
" transform="scale(0.015625)"/>
       </defs>
       <use xlink:href="#DejaVuSans-Bold-53"/>
       <use xlink:href="#DejaVuSans-Bold-6b" transform="translate(72.021484 0)"/>
       <use xlink:href="#DejaVuSans-Bold-65" transform="translate(135.900391 0)"/>
       <use xlink:href="#DejaVuSans-Bold-77" transform="translate(203.722656 0)"/>
       <use xlink:href="#DejaVuSans-Bold-6e" transform="translate(296.105469 0)"/>
       <use xlink:href="#DejaVuSans-Bold-65" transform="translate(367.296875 0)"/>
       <use xlink:href="#DejaVuSans-Bold-73" transform="translate(435.119141 0)"/>
       <use xlink:href="#DejaVuSans-Bold-73" transform="translate(494.640625 0)"/>
      </g>
     </g>
    </g>
    <g id="xtick_2">
     <g id="line2d_3">
      <path d="M 346.159848 504.670143 
L 346.159848 39.84 
" clip-path="url(#pbfa194495a)" style="fill: none; stroke: #b0b0b0; stroke-opacity: 0.4; stroke-width: 0.8; stroke-linecap: square"/>
     </g>
     <g id="line2d_4">
      <g>
       <use xlink:href="#me563706cc1" x="346.159848" y="504.670143" style="stroke: #000000; stroke-width: 1.5"/>
      </g>
     </g>
     <g id="text_2">
      <!-- Kurtosis -->
      <g transform="translate(263.539724 603.655897) rotate(-45) scale(0.24 -0.24)">
       <defs>
        <path id="DejaVuSans-Bold-4b" d="M 588 4666 
L 1791 4666 
L 1791 2963 
L 3525 4666 
L 4922 4666 
L 2675 2456 
L 5153 0 
L 3647 0 
L 1791 1838 
L 1791 0 
L 588 0 
L 588 4666 
z
" transform="scale(0.015625)"/>
        <path id="DejaVuSans-Bold-75" d="M 500 1363 
L 500 3500 
L 1625 3500 
L 1625 3150 
Q 1625 2866 1622 2436 
Q 1619 2006 1619 1863 
Q 1619 1441 1641 1255 
Q 1663 1069 1716 984 
Q 1784 875 1895 815 
Q 2006 756 2150 756 
Q 2500 756 2700 1025 
Q 2900 1294 2900 1772 
L 2900 3500 
L 4019 3500 
L 4019 0 
L 2900 0 
L 2900 506 
Q 2647 200 2364 54 
Q 2081 -91 1741 -91 
Q 1134 -91 817 281 
Q 500 653 500 1363 
z
" transform="scale(0.015625)"/>
        <path id="DejaVuSans-Bold-72" d="M 3138 2547 
Q 2991 2616 2845 2648 
Q 2700 2681 2553 2681 
Q 2122 2681 1889 2404 
Q 1656 2128 1656 1613 
L 1656 0 
L 538 0 
L 538 3500 
L 1656 3500 
L 1656 2925 
Q 1872 3269 2151 3426 
Q 2431 3584 2822 3584 
Q 2878 3584 2943 3579 
Q 3009 3575 3134 3559 
L 3138 2547 
z
" transform="scale(0.015625)"/>
        <path id="DejaVuSans-Bold-74" d="M 1759 4494 
L 1759 3500 
L 2913 3500 
L 2913 2700 
L 1759 2700 
L 1759 1216 
Q 1759 972 1856 886 
Q 1953 800 2241 800 
L 2816 800 
L 2816 0 
L 1856 0 
Q 1194 0 917 276 
Q 641 553 641 1216 
L 641 2700 
L 84 2700 
L 84 3500 
L 641 3500 
L 641 4494 
L 1759 4494 
z
" transform="scale(0.015625)"/>
        <path id="DejaVuSans-Bold-6f" d="M 2203 2784 
Q 1831 2784 1636 2517 
Q 1441 2250 1441 1747 
Q 1441 1244 1636 976 
Q 1831 709 2203 709 
Q 2569 709 2762 976 
Q 2956 1244 2956 1747 
Q 2956 2250 2762 2517 
Q 2569 2784 2203 2784 
z
M 2203 3584 
Q 3106 3584 3614 3096 
Q 4122 2609 4122 1747 
Q 4122 884 3614 396 
Q 3106 -91 2203 -91 
Q 1297 -91 786 396 
Q 275 884 275 1747 
Q 275 2609 786 3096 
Q 1297 3584 2203 3584 
z
" transform="scale(0.015625)"/>
        <path id="DejaVuSans-Bold-69" d="M 538 3500 
L 1656 3500 
L 1656 0 
L 538 0 
L 538 3500 
z
M 538 4863 
L 1656 4863 
L 1656 3950 
L 538 3950 
L 538 4863 
z
" transform="scale(0.015625)"/>
       </defs>
       <use xlink:href="#DejaVuSans-Bold-4b"/>
       <use xlink:href="#DejaVuSans-Bold-75" transform="translate(75.740234 0)"/>
       <use xlink:href="#DejaVuSans-Bold-72" transform="translate(146.931641 0)"/>
       <use xlink:href="#DejaVuSans-Bold-74" transform="translate(196.248047 0)"/>
       <use xlink:href="#DejaVuSans-Bold-6f" transform="translate(244.050781 0)"/>
       <use xlink:href="#DejaVuSans-Bold-73" transform="translate(312.751953 0)"/>
       <use xlink:href="#DejaVuSans-Bold-69" transform="translate(372.273438 0)"/>
       <use xlink:href="#DejaVuSans-Bold-73" transform="translate(406.550781 0)"/>
      </g>
     </g>
    </g>
    <g id="xtick_3">
     <g id="line2d_5">
      <path d="M 470.436364 504.670143 
L 470.436364 39.84 
" clip-path="url(#pbfa194495a)" style="fill: none; stroke: #b0b0b0; stroke-opacity: 0.4; stroke-width: 0.8; stroke-linecap: square"/>
     </g>
     <g id="line2d_6">
      <g>
       <use xlink:href="#me563706cc1" x="470.436364" y="504.670143" style="stroke: #000000; stroke-width: 1.5"/>
      </g>
     </g>
     <g id="text_3">
      <!-- Correlation (30, 1) -->
      <g transform="translate(290.407861 701.064275) rotate(-45) scale(0.24 -0.24)">
       <defs>
        <path id="DejaVuSans-Bold-43" d="M 4288 256 
Q 3956 84 3597 -3 
Q 3238 -91 2847 -91 
Q 1681 -91 1000 561 
Q 319 1213 319 2328 
Q 319 3447 1000 4098 
Q 1681 4750 2847 4750 
Q 3238 4750 3597 4662 
Q 3956 4575 4288 4403 
L 4288 3438 
Q 3953 3666 3628 3772 
Q 3303 3878 2944 3878 
Q 2300 3878 1931 3465 
Q 1563 3053 1563 2328 
Q 1563 1606 1931 1193 
Q 2300 781 2944 781 
Q 3303 781 3628 887 
Q 3953 994 4288 1222 
L 4288 256 
z
" transform="scale(0.015625)"/>
        <path id="DejaVuSans-Bold-6c" d="M 538 4863 
L 1656 4863 
L 1656 0 
L 538 0 
L 538 4863 
z
" transform="scale(0.015625)"/>
        <path id="DejaVuSans-Bold-61" d="M 2106 1575 
Q 1756 1575 1579 1456 
Q 1403 1338 1403 1106 
Q 1403 894 1545 773 
Q 1688 653 1941 653 
Q 2256 653 2472 879 
Q 2688 1106 2688 1447 
L 2688 1575 
L 2106 1575 
z
M 3816 1997 
L 3816 0 
L 2688 0 
L 2688 519 
Q 2463 200 2181 54 
Q 1900 -91 1497 -91 
Q 953 -91 614 226 
Q 275 544 275 1050 
Q 275 1666 698 1953 
Q 1122 2241 2028 2241 
L 2688 2241 
L 2688 2328 
Q 2688 2594 2478 2717 
Q 2269 2841 1825 2841 
Q 1466 2841 1156 2769 
Q 847 2697 581 2553 
L 581 3406 
Q 941 3494 1303 3539 
Q 1666 3584 2028 3584 
Q 2975 3584 3395 3211 
Q 3816 2838 3816 1997 
z
" transform="scale(0.015625)"/>
        <path id="DejaVuSans-Bold-20" transform="scale(0.015625)"/>
        <path id="DejaVuSans-Bold-28" d="M 2413 -844 
L 1484 -844 
Q 1006 -72 778 623 
Q 550 1319 550 2003 
Q 550 2688 779 3389 
Q 1009 4091 1484 4856 
L 2413 4856 
Q 2013 4116 1813 3408 
Q 1613 2700 1613 2009 
Q 1613 1319 1811 609 
Q 2009 -100 2413 -844 
z
" transform="scale(0.015625)"/>
        <path id="DejaVuSans-Bold-33" d="M 2981 2516 
Q 3453 2394 3698 2092 
Q 3944 1791 3944 1325 
Q 3944 631 3412 270 
Q 2881 -91 1863 -91 
Q 1503 -91 1142 -33 
Q 781 25 428 141 
L 428 1069 
Q 766 900 1098 814 
Q 1431 728 1753 728 
Q 2231 728 2486 893 
Q 2741 1059 2741 1369 
Q 2741 1688 2480 1852 
Q 2219 2016 1709 2016 
L 1228 2016 
L 1228 2791 
L 1734 2791 
Q 2188 2791 2409 2933 
Q 2631 3075 2631 3366 
Q 2631 3634 2415 3781 
Q 2200 3928 1806 3928 
Q 1516 3928 1219 3862 
Q 922 3797 628 3669 
L 628 4550 
Q 984 4650 1334 4700 
Q 1684 4750 2022 4750 
Q 2931 4750 3382 4451 
Q 3834 4153 3834 3553 
Q 3834 3144 3618 2883 
Q 3403 2622 2981 2516 
z
" transform="scale(0.015625)"/>
        <path id="DejaVuSans-Bold-30" d="M 2944 2338 
Q 2944 3213 2780 3570 
Q 2616 3928 2228 3928 
Q 1841 3928 1675 3570 
Q 1509 3213 1509 2338 
Q 1509 1453 1675 1090 
Q 1841 728 2228 728 
Q 2613 728 2778 1090 
Q 2944 1453 2944 2338 
z
M 4147 2328 
Q 4147 1169 3647 539 
Q 3147 -91 2228 -91 
Q 1306 -91 806 539 
Q 306 1169 306 2328 
Q 306 3491 806 4120 
Q 1306 4750 2228 4750 
Q 3147 4750 3647 4120 
Q 4147 3491 4147 2328 
z
" transform="scale(0.015625)"/>
        <path id="DejaVuSans-Bold-2c" d="M 653 1209 
L 1778 1209 
L 1778 256 
L 1006 -909 
L 341 -909 
L 653 256 
L 653 1209 
z
" transform="scale(0.015625)"/>
        <path id="DejaVuSans-Bold-31" d="M 750 831 
L 1813 831 
L 1813 3847 
L 722 3622 
L 722 4441 
L 1806 4666 
L 2950 4666 
L 2950 831 
L 4013 831 
L 4013 0 
L 750 0 
L 750 831 
z
" transform="scale(0.015625)"/>
        <path id="DejaVuSans-Bold-29" d="M 513 -844 
Q 913 -100 1113 609 
Q 1313 1319 1313 2009 
Q 1313 2700 1113 3408 
Q 913 4116 513 4856 
L 1441 4856 
Q 1916 4091 2145 3389 
Q 2375 2688 2375 2003 
Q 2375 1319 2147 623 
Q 1919 -72 1441 -844 
L 513 -844 
z
" transform="scale(0.015625)"/>
       </defs>
       <use xlink:href="#DejaVuSans-Bold-43"/>
       <use xlink:href="#DejaVuSans-Bold-6f" transform="translate(73.388672 0)"/>
       <use xlink:href="#DejaVuSans-Bold-72" transform="translate(142.089844 0)"/>
       <use xlink:href="#DejaVuSans-Bold-72" transform="translate(191.40625 0)"/>
       <use xlink:href="#DejaVuSans-Bold-65" transform="translate(240.722656 0)"/>
       <use xlink:href="#DejaVuSans-Bold-6c" transform="translate(308.544922 0)"/>
       <use xlink:href="#DejaVuSans-Bold-61" transform="translate(342.822266 0)"/>
       <use xlink:href="#DejaVuSans-Bold-74" transform="translate(410.302734 0)"/>
       <use xlink:href="#DejaVuSans-Bold-69" transform="translate(458.105469 0)"/>
       <use xlink:href="#DejaVuSans-Bold-6f" transform="translate(492.382812 0)"/>
       <use xlink:href="#DejaVuSans-Bold-6e" transform="translate(561.083984 0)"/>
       <use xlink:href="#DejaVuSans-Bold-20" transform="translate(632.275391 0)"/>
       <use xlink:href="#DejaVuSans-Bold-28" transform="translate(667.089844 0)"/>
       <use xlink:href="#DejaVuSans-Bold-33" transform="translate(712.792969 0)"/>
       <use xlink:href="#DejaVuSans-Bold-30" transform="translate(782.373047 0)"/>
       <use xlink:href="#DejaVuSans-Bold-2c" transform="translate(851.953125 0)"/>
       <use xlink:href="#DejaVuSans-Bold-20" transform="translate(889.941406 0)"/>
       <use xlink:href="#DejaVuSans-Bold-31" transform="translate(924.755859 0)"/>
       <use xlink:href="#DejaVuSans-Bold-29" transform="translate(994.335938 0)"/>
      </g>
     </g>
    </g>
    <g id="xtick_4">
     <g id="line2d_7">
      <path d="M 594.712879 504.670143 
L 594.712879 39.84 
" clip-path="url(#pbfa194495a)" style="fill: none; stroke: #b0b0b0; stroke-opacity: 0.4; stroke-width: 0.8; stroke-linecap: square"/>
     </g>
     <g id="line2d_8">
      <g>
       <use xlink:href="#me563706cc1" x="594.712879" y="504.670143" style="stroke: #000000; stroke-width: 1.5"/>
      </g>
     </g>
     <g id="text_4">
      <!-- L5R5_DIV_R5L5 -->
      <g transform="translate(445.212828 669.591836) rotate(-45) scale(0.24 -0.24)">
       <defs>
        <path id="DejaVuSans-Bold-4c" d="M 588 4666 
L 1791 4666 
L 1791 909 
L 3903 909 
L 3903 0 
L 588 0 
L 588 4666 
z
" transform="scale(0.015625)"/>
        <path id="DejaVuSans-Bold-35" d="M 678 4666 
L 3669 4666 
L 3669 3781 
L 1638 3781 
L 1638 3059 
Q 1775 3097 1914 3117 
Q 2053 3138 2203 3138 
Q 3056 3138 3531 2711 
Q 4006 2284 4006 1522 
Q 4006 766 3489 337 
Q 2972 -91 2053 -91 
Q 1656 -91 1267 -14 
Q 878 63 494 219 
L 494 1166 
Q 875 947 1217 837 
Q 1559 728 1863 728 
Q 2300 728 2551 942 
Q 2803 1156 2803 1522 
Q 2803 1891 2551 2103 
Q 2300 2316 1863 2316 
Q 1603 2316 1309 2248 
Q 1016 2181 678 2041 
L 678 4666 
z
" transform="scale(0.015625)"/>
        <path id="DejaVuSans-Bold-52" d="M 2297 2597 
Q 2675 2597 2839 2737 
Q 3003 2878 3003 3200 
Q 3003 3519 2839 3656 
Q 2675 3794 2297 3794 
L 1791 3794 
L 1791 2597 
L 2297 2597 
z
M 1791 1766 
L 1791 0 
L 588 0 
L 588 4666 
L 2425 4666 
Q 3347 4666 3776 4356 
Q 4206 4047 4206 3378 
Q 4206 2916 3982 2619 
Q 3759 2322 3309 2181 
Q 3556 2125 3751 1926 
Q 3947 1728 4147 1325 
L 4800 0 
L 3519 0 
L 2950 1159 
Q 2778 1509 2601 1637 
Q 2425 1766 2131 1766 
L 1791 1766 
z
" transform="scale(0.015625)"/>
        <path id="DejaVuSans-Bold-5f" d="M 3200 -916 
L 3200 -1509 
L 0 -1509 
L 0 -916 
L 3200 -916 
z
" transform="scale(0.015625)"/>
        <path id="DejaVuSans-Bold-44" d="M 1791 3756 
L 1791 909 
L 2222 909 
Q 2959 909 3348 1275 
Q 3738 1641 3738 2338 
Q 3738 3031 3350 3393 
Q 2963 3756 2222 3756 
L 1791 3756 
z
M 588 4666 
L 1856 4666 
Q 2919 4666 3439 4514 
Q 3959 4363 4331 4000 
Q 4659 3684 4818 3271 
Q 4978 2859 4978 2338 
Q 4978 1809 4818 1395 
Q 4659 981 4331 666 
Q 3956 303 3431 151 
Q 2906 0 1856 0 
L 588 0 
L 588 4666 
z
" transform="scale(0.015625)"/>
        <path id="DejaVuSans-Bold-49" d="M 588 4666 
L 1791 4666 
L 1791 0 
L 588 0 
L 588 4666 
z
" transform="scale(0.015625)"/>
        <path id="DejaVuSans-Bold-56" d="M 31 4666 
L 1241 4666 
L 2478 1222 
L 3713 4666 
L 4922 4666 
L 3194 0 
L 1759 0 
L 31 4666 
z
" transform="scale(0.015625)"/>
       </defs>
       <use xlink:href="#DejaVuSans-Bold-4c"/>
       <use xlink:href="#DejaVuSans-Bold-35" transform="translate(63.720703 0)"/>
       <use xlink:href="#DejaVuSans-Bold-52" transform="translate(133.300781 0)"/>
       <use xlink:href="#DejaVuSans-Bold-35" transform="translate(210.302734 0)"/>
       <use xlink:href="#DejaVuSans-Bold-5f" transform="translate(279.882812 0)"/>
       <use xlink:href="#DejaVuSans-Bold-44" transform="translate(329.882812 0)"/>
       <use xlink:href="#DejaVuSans-Bold-49" transform="translate(412.890625 0)"/>
       <use xlink:href="#DejaVuSans-Bold-56" transform="translate(450.097656 0)"/>
       <use xlink:href="#DejaVuSans-Bold-5f" transform="translate(527.490234 0)"/>
       <use xlink:href="#DejaVuSans-Bold-52" transform="translate(577.490234 0)"/>
       <use xlink:href="#DejaVuSans-Bold-35" transform="translate(654.492188 0)"/>
       <use xlink:href="#DejaVuSans-Bold-4c" transform="translate(724.072266 0)"/>
       <use xlink:href="#DejaVuSans-Bold-35" transform="translate(787.792969 0)"/>
      </g>
     </g>
    </g>
    <g id="xtick_5">
     <g id="line2d_9">
      <path d="M 718.989394 504.670143 
L 718.989394 39.84 
" clip-path="url(#pbfa194495a)" style="fill: none; stroke: #b0b0b0; stroke-opacity: 0.4; stroke-width: 0.8; stroke-linecap: square"/>
     </g>
     <g id="line2d_10">
      <g>
       <use xlink:href="#me563706cc1" x="718.989394" y="504.670143" style="stroke: #000000; stroke-width: 1.5"/>
      </g>
     </g>
     <g id="text_5">
      <!-- S5S5 -->
      <g transform="translate(667.401535 572.623632) rotate(-45) scale(0.24 -0.24)">
       <use xlink:href="#DejaVuSans-Bold-53"/>
       <use xlink:href="#DejaVuSans-Bold-35" transform="translate(72.021484 0)"/>
       <use xlink:href="#DejaVuSans-Bold-53" transform="translate(141.601562 0)"/>
       <use xlink:href="#DejaVuSans-Bold-35" transform="translate(213.623047 0)"/>
      </g>
     </g>
    </g>
    <g id="xtick_6">
     <g id="line2d_11">
      <path d="M 843.265909 504.670143 
L 843.265909 39.84 
" clip-path="url(#pbfa194495a)" style="fill: none; stroke: #b0b0b0; stroke-opacity: 0.4; stroke-width: 0.8; stroke-linecap: square"/>
     </g>
     <g id="line2d_12">
      <g>
       <use xlink:href="#me563706cc1" x="843.265909" y="504.670143" style="stroke: #000000; stroke-width: 1.5"/>
      </g>
     </g>
     <g id="text_6">
      <!-- ASM (40, 2) -->
      <g transform="translate(728.29565 636.006032) rotate(-45) scale(0.24 -0.24)">
       <defs>
        <path id="DejaVuSans-Bold-41" d="M 3419 850 
L 1538 850 
L 1241 0 
L 31 0 
L 1759 4666 
L 3194 4666 
L 4922 0 
L 3713 0 
L 3419 850 
z
M 1838 1716 
L 3116 1716 
L 2478 3572 
L 1838 1716 
z
" transform="scale(0.015625)"/>
        <path id="DejaVuSans-Bold-4d" d="M 588 4666 
L 2119 4666 
L 3181 2169 
L 4250 4666 
L 5778 4666 
L 5778 0 
L 4641 0 
L 4641 3413 
L 3566 897 
L 2803 897 
L 1728 3413 
L 1728 0 
L 588 0 
L 588 4666 
z
" transform="scale(0.015625)"/>
        <path id="DejaVuSans-Bold-34" d="M 2356 3675 
L 1038 1722 
L 2356 1722 
L 2356 3675 
z
M 2156 4666 
L 3494 4666 
L 3494 1722 
L 4159 1722 
L 4159 850 
L 3494 850 
L 3494 0 
L 2356 0 
L 2356 850 
L 288 850 
L 288 1881 
L 2156 4666 
z
" transform="scale(0.015625)"/>
        <path id="DejaVuSans-Bold-32" d="M 1844 884 
L 3897 884 
L 3897 0 
L 506 0 
L 506 884 
L 2209 2388 
Q 2438 2594 2547 2791 
Q 2656 2988 2656 3200 
Q 2656 3528 2436 3728 
Q 2216 3928 1850 3928 
Q 1569 3928 1234 3808 
Q 900 3688 519 3450 
L 519 4475 
Q 925 4609 1322 4679 
Q 1719 4750 2100 4750 
Q 2938 4750 3402 4381 
Q 3866 4013 3866 3353 
Q 3866 2972 3669 2642 
Q 3472 2313 2841 1759 
L 1844 884 
z
" transform="scale(0.015625)"/>
       </defs>
       <use xlink:href="#DejaVuSans-Bold-41"/>
       <use xlink:href="#DejaVuSans-Bold-53" transform="translate(77.392578 0)"/>
       <use xlink:href="#DejaVuSans-Bold-4d" transform="translate(149.414062 0)"/>
       <use xlink:href="#DejaVuSans-Bold-20" transform="translate(248.925781 0)"/>
       <use xlink:href="#DejaVuSans-Bold-28" transform="translate(283.740234 0)"/>
       <use xlink:href="#DejaVuSans-Bold-34" transform="translate(329.443359 0)"/>
       <use xlink:href="#DejaVuSans-Bold-30" transform="translate(399.023438 0)"/>
       <use xlink:href="#DejaVuSans-Bold-2c" transform="translate(468.603516 0)"/>
       <use xlink:href="#DejaVuSans-Bold-20" transform="translate(506.591797 0)"/>
       <use xlink:href="#DejaVuSans-Bold-32" transform="translate(541.40625 0)"/>
       <use xlink:href="#DejaVuSans-Bold-29" transform="translate(610.986328 0)"/>
      </g>
     </g>
    </g>
    <g id="xtick_7">
     <g id="line2d_13">
      <path d="M 967.542424 504.670143 
L 967.542424 39.84 
" clip-path="url(#pbfa194495a)" style="fill: none; stroke: #b0b0b0; stroke-opacity: 0.4; stroke-width: 0.8; stroke-linecap: square"/>
     </g>
     <g id="line2d_14">
      <g>
       <use xlink:href="#me563706cc1" x="967.542424" y="504.670143" style="stroke: #000000; stroke-width: 1.5"/>
      </g>
     </g>
     <g id="text_7">
      <!-- S5S5 -->
      <g transform="translate(915.954565 572.623632) rotate(-45) scale(0.24 -0.24)">
       <use xlink:href="#DejaVuSans-Bold-53"/>
       <use xlink:href="#DejaVuSans-Bold-35" transform="translate(72.021484 0)"/>
       <use xlink:href="#DejaVuSans-Bold-53" transform="translate(141.601562 0)"/>
       <use xlink:href="#DejaVuSans-Bold-35" transform="translate(213.623047 0)"/>
      </g>
     </g>
    </g>
    <g id="xtick_8">
     <g id="line2d_15">
      <path d="M 1091.818939 504.670143 
L 1091.818939 39.84 
" clip-path="url(#pbfa194495a)" style="fill: none; stroke: #b0b0b0; stroke-opacity: 0.4; stroke-width: 0.8; stroke-linecap: square"/>
     </g>
     <g id="line2d_16">
      <g>
       <use xlink:href="#me563706cc1" x="1091.818939" y="504.670143" style="stroke: #000000; stroke-width: 1.5"/>
      </g>
     </g>
     <g id="text_8">
      <!-- Mean -->
      <g transform="translate(1036.357019 576.497693) rotate(-45) scale(0.24 -0.24)">
       <use xlink:href="#DejaVuSans-Bold-4d"/>
       <use xlink:href="#DejaVuSans-Bold-65" transform="translate(99.511719 0)"/>
       <use xlink:href="#DejaVuSans-Bold-61" transform="translate(167.333984 0)"/>
       <use xlink:href="#DejaVuSans-Bold-6e" transform="translate(234.814453 0)"/>
      </g>
     </g>
    </g>
    <g id="xtick_9">
     <g id="line2d_17">
      <path d="M 1216.095455 504.670143 
L 1216.095455 39.84 
" clip-path="url(#pbfa194495a)" style="fill: none; stroke: #b0b0b0; stroke-opacity: 0.4; stroke-width: 0.8; stroke-linecap: square"/>
     </g>
     <g id="line2d_18">
      <g>
       <use xlink:href="#me563706cc1" x="1216.095455" y="504.670143" style="stroke: #000000; stroke-width: 1.5"/>
      </g>
     </g>
     <g id="text_9">
      <!-- ASM (20, 0) -->
      <g transform="translate(1101.125195 636.006032) rotate(-45) scale(0.24 -0.24)">
       <use xlink:href="#DejaVuSans-Bold-41"/>
       <use xlink:href="#DejaVuSans-Bold-53" transform="translate(77.392578 0)"/>
       <use xlink:href="#DejaVuSans-Bold-4d" transform="translate(149.414062 0)"/>
       <use xlink:href="#DejaVuSans-Bold-20" transform="translate(248.925781 0)"/>
       <use xlink:href="#DejaVuSans-Bold-28" transform="translate(283.740234 0)"/>
       <use xlink:href="#DejaVuSans-Bold-32" transform="translate(329.443359 0)"/>
       <use xlink:href="#DejaVuSans-Bold-30" transform="translate(399.023438 0)"/>
       <use xlink:href="#DejaVuSans-Bold-2c" transform="translate(468.603516 0)"/>
       <use xlink:href="#DejaVuSans-Bold-20" transform="translate(506.591797 0)"/>
       <use xlink:href="#DejaVuSans-Bold-30" transform="translate(541.40625 0)"/>
       <use xlink:href="#DejaVuSans-Bold-29" transform="translate(610.986328 0)"/>
      </g>
     </g>
    </g>
    <g id="xtick_10">
     <g id="line2d_19">
      <path d="M 1340.37197 504.670143 
L 1340.37197 39.84 
" clip-path="url(#pbfa194495a)" style="fill: none; stroke: #b0b0b0; stroke-opacity: 0.4; stroke-width: 0.8; stroke-linecap: square"/>
     </g>
     <g id="line2d_20">
      <g>
       <use xlink:href="#me563706cc1" x="1340.37197" y="504.670143" style="stroke: #000000; stroke-width: 1.5"/>
      </g>
     </g>
     <g id="text_10">
      <!-- ASM (30, 1) -->
      <g transform="translate(1225.40171 636.006032) rotate(-45) scale(0.24 -0.24)">
       <use xlink:href="#DejaVuSans-Bold-41"/>
       <use xlink:href="#DejaVuSans-Bold-53" transform="translate(77.392578 0)"/>
       <use xlink:href="#DejaVuSans-Bold-4d" transform="translate(149.414062 0)"/>
       <use xlink:href="#DejaVuSans-Bold-20" transform="translate(248.925781 0)"/>
       <use xlink:href="#DejaVuSans-Bold-28" transform="translate(283.740234 0)"/>
       <use xlink:href="#DejaVuSans-Bold-33" transform="translate(329.443359 0)"/>
       <use xlink:href="#DejaVuSans-Bold-30" transform="translate(399.023438 0)"/>
       <use xlink:href="#DejaVuSans-Bold-2c" transform="translate(468.603516 0)"/>
       <use xlink:href="#DejaVuSans-Bold-20" transform="translate(506.591797 0)"/>
       <use xlink:href="#DejaVuSans-Bold-31" transform="translate(541.40625 0)"/>
       <use xlink:href="#DejaVuSans-Bold-29" transform="translate(610.986328 0)"/>
      </g>
     </g>
    </g>
   </g>
   <g id="matplotlib.axis_2">
    <g id="ytick_1">
     <g id="line2d_21">
      <path d="M 112.52 458.187129 
L 1424.88 458.187129 
" clip-path="url(#pbfa194495a)" style="fill: none; stroke: #b0b0b0; stroke-opacity: 0.4; stroke-width: 0.8; stroke-linecap: square"/>
     </g>
     <g id="line2d_22">
      <defs>
       <path id="m43443378db" d="M 0 0 
L -3.5 0 
" style="stroke: #000000; stroke-width: 1.5"/>
      </defs>
      <g>
       <use xlink:href="#m43443378db" x="112.52" y="458.187129" style="stroke: #000000; stroke-width: 1.5"/>
      </g>
     </g>
     <g id="text_11">
      <!-- −0.4 -->
      <g transform="translate(42.895 467.305254) scale(0.24 -0.24)">
       <defs>
        <path id="DejaVuSans-Bold-2212" d="M 678 2375 
L 4684 2375 
L 4684 1638 
L 678 1638 
L 678 2375 
z
" transform="scale(0.015625)"/>
        <path id="DejaVuSans-Bold-2e" d="M 653 1209 
L 1778 1209 
L 1778 0 
L 653 0 
L 653 1209 
z
" transform="scale(0.015625)"/>
       </defs>
       <use xlink:href="#DejaVuSans-Bold-2212"/>
       <use xlink:href="#DejaVuSans-Bold-30" transform="translate(83.789062 0)"/>
       <use xlink:href="#DejaVuSans-Bold-2e" transform="translate(153.369141 0)"/>
       <use xlink:href="#DejaVuSans-Bold-34" transform="translate(191.357422 0)"/>
      </g>
     </g>
    </g>
    <g id="ytick_2">
     <g id="line2d_23">
      <path d="M 112.52 365.2211 
L 1424.88 365.2211 
" clip-path="url(#pbfa194495a)" style="fill: none; stroke: #b0b0b0; stroke-opacity: 0.4; stroke-width: 0.8; stroke-linecap: square"/>
     </g>
     <g id="line2d_24">
      <g>
       <use xlink:href="#m43443378db" x="112.52" y="365.2211" style="stroke: #000000; stroke-width: 1.5"/>
      </g>
     </g>
     <g id="text_12">
      <!-- −0.2 -->
      <g transform="translate(42.895 374.339225) scale(0.24 -0.24)">
       <use xlink:href="#DejaVuSans-Bold-2212"/>
       <use xlink:href="#DejaVuSans-Bold-30" transform="translate(83.789062 0)"/>
       <use xlink:href="#DejaVuSans-Bold-2e" transform="translate(153.369141 0)"/>
       <use xlink:href="#DejaVuSans-Bold-32" transform="translate(191.357422 0)"/>
      </g>
     </g>
    </g>
    <g id="ytick_3">
     <g id="line2d_25">
      <path d="M 112.52 272.255072 
L 1424.88 272.255072 
" clip-path="url(#pbfa194495a)" style="fill: none; stroke: #b0b0b0; stroke-opacity: 0.4; stroke-width: 0.8; stroke-linecap: square"/>
     </g>
     <g id="line2d_26">
      <g>
       <use xlink:href="#m43443378db" x="112.52" y="272.255072" style="stroke: #000000; stroke-width: 1.5"/>
      </g>
     </g>
     <g id="text_13">
      <!-- 0.0 -->
      <g transform="translate(63.00625 281.373197) scale(0.24 -0.24)">
       <use xlink:href="#DejaVuSans-Bold-30"/>
       <use xlink:href="#DejaVuSans-Bold-2e" transform="translate(69.580078 0)"/>
       <use xlink:href="#DejaVuSans-Bold-30" transform="translate(107.568359 0)"/>
      </g>
     </g>
    </g>
    <g id="ytick_4">
     <g id="line2d_27">
      <path d="M 112.52 179.289043 
L 1424.88 179.289043 
" clip-path="url(#pbfa194495a)" style="fill: none; stroke: #b0b0b0; stroke-opacity: 0.4; stroke-width: 0.8; stroke-linecap: square"/>
     </g>
     <g id="line2d_28">
      <g>
       <use xlink:href="#m43443378db" x="112.52" y="179.289043" style="stroke: #000000; stroke-width: 1.5"/>
      </g>
     </g>
     <g id="text_14">
      <!-- 0.2 -->
      <g transform="translate(63.00625 188.407168) scale(0.24 -0.24)">
       <use xlink:href="#DejaVuSans-Bold-30"/>
       <use xlink:href="#DejaVuSans-Bold-2e" transform="translate(69.580078 0)"/>
       <use xlink:href="#DejaVuSans-Bold-32" transform="translate(107.568359 0)"/>
      </g>
     </g>
    </g>
    <g id="ytick_5">
     <g id="line2d_29">
      <path d="M 112.52 86.323014 
L 1424.88 86.323014 
" clip-path="url(#pbfa194495a)" style="fill: none; stroke: #b0b0b0; stroke-opacity: 0.4; stroke-width: 0.8; stroke-linecap: square"/>
     </g>
     <g id="line2d_30">
      <g>
       <use xlink:href="#m43443378db" x="112.52" y="86.323014" style="stroke: #000000; stroke-width: 1.5"/>
      </g>
     </g>
     <g id="text_15">
      <!-- 0.4 -->
      <g transform="translate(63.00625 95.441139) scale(0.24 -0.24)">
       <use xlink:href="#DejaVuSans-Bold-30"/>
       <use xlink:href="#DejaVuSans-Bold-2e" transform="translate(69.580078 0)"/>
       <use xlink:href="#DejaVuSans-Bold-34" transform="translate(107.568359 0)"/>
      </g>
     </g>
    </g>
    <g id="text_16">
     <!-- Attributions -->
     <g transform="translate(33.90375 353.954447) rotate(-90) scale(0.24 -0.24)">
      <defs>
       <path id="DejaVuSans-Bold-62" d="M 2400 722 
Q 2759 722 2948 984 
Q 3138 1247 3138 1747 
Q 3138 2247 2948 2509 
Q 2759 2772 2400 2772 
Q 2041 2772 1848 2508 
Q 1656 2244 1656 1747 
Q 1656 1250 1848 986 
Q 2041 722 2400 722 
z
M 1656 2988 
Q 1888 3294 2169 3439 
Q 2450 3584 2816 3584 
Q 3463 3584 3878 3070 
Q 4294 2556 4294 1747 
Q 4294 938 3878 423 
Q 3463 -91 2816 -91 
Q 2450 -91 2169 54 
Q 1888 200 1656 506 
L 1656 0 
L 538 0 
L 538 4863 
L 1656 4863 
L 1656 2988 
z
" transform="scale(0.015625)"/>
      </defs>
      <use xlink:href="#DejaVuSans-Bold-41"/>
      <use xlink:href="#DejaVuSans-Bold-74" transform="translate(77.392578 0)"/>
      <use xlink:href="#DejaVuSans-Bold-74" transform="translate(125.195312 0)"/>
      <use xlink:href="#DejaVuSans-Bold-72" transform="translate(172.998047 0)"/>
      <use xlink:href="#DejaVuSans-Bold-69" transform="translate(222.314453 0)"/>
      <use xlink:href="#DejaVuSans-Bold-62" transform="translate(256.591797 0)"/>
      <use xlink:href="#DejaVuSans-Bold-75" transform="translate(328.173828 0)"/>
      <use xlink:href="#DejaVuSans-Bold-74" transform="translate(399.365234 0)"/>
      <use xlink:href="#DejaVuSans-Bold-69" transform="translate(447.167969 0)"/>
      <use xlink:href="#DejaVuSans-Bold-6f" transform="translate(481.445312 0)"/>
      <use xlink:href="#DejaVuSans-Bold-6e" transform="translate(550.146484 0)"/>
      <use xlink:href="#DejaVuSans-Bold-73" transform="translate(621.337891 0)"/>
     </g>
    </g>
   </g>
   <g id="patch_33">
    <path d="M 112.52 504.670143 
L 112.52 39.84 
" style="fill: none; stroke: #000000; stroke-width: 0.8; stroke-linejoin: miter; stroke-linecap: square"/>
   </g>
   <g id="patch_34">
    <path d="M 1424.88 504.670143 
L 1424.88 39.84 
" style="fill: none; stroke: #000000; stroke-width: 0.8; stroke-linejoin: miter; stroke-linecap: square"/>
   </g>
   <g id="patch_35">
    <path d="M 112.52 504.670143 
L 1424.88 504.670143 
" style="fill: none; stroke: #000000; stroke-width: 0.8; stroke-linejoin: miter; stroke-linecap: square"/>
   </g>
   <g id="patch_36">
    <path d="M 112.52 39.84 
L 1424.88 39.84 
" style="fill: none; stroke: #000000; stroke-width: 0.8; stroke-linejoin: miter; stroke-linecap: square"/>
   </g>
   <g id="text_17">
    <!-- Top 10 Input Feature Importances Across Multiple Algorithms, Full Base MLP -->
    <g transform="translate(249.979375 33.84) scale(0.24 -0.24)">
     <defs>
      <path id="DejaVuSans-Bold-54" d="M 31 4666 
L 4331 4666 
L 4331 3756 
L 2784 3756 
L 2784 0 
L 1581 0 
L 1581 3756 
L 31 3756 
L 31 4666 
z
" transform="scale(0.015625)"/>
      <path id="DejaVuSans-Bold-70" d="M 1656 506 
L 1656 -1331 
L 538 -1331 
L 538 3500 
L 1656 3500 
L 1656 2988 
Q 1888 3294 2169 3439 
Q 2450 3584 2816 3584 
Q 3463 3584 3878 3070 
Q 4294 2556 4294 1747 
Q 4294 938 3878 423 
Q 3463 -91 2816 -91 
Q 2450 -91 2169 54 
Q 1888 200 1656 506 
z
M 2400 2772 
Q 2041 2772 1848 2508 
Q 1656 2244 1656 1747 
Q 1656 1250 1848 986 
Q 2041 722 2400 722 
Q 2759 722 2948 984 
Q 3138 1247 3138 1747 
Q 3138 2247 2948 2509 
Q 2759 2772 2400 2772 
z
" transform="scale(0.015625)"/>
      <path id="DejaVuSans-Bold-46" d="M 588 4666 
L 3834 4666 
L 3834 3756 
L 1791 3756 
L 1791 2888 
L 3713 2888 
L 3713 1978 
L 1791 1978 
L 1791 0 
L 588 0 
L 588 4666 
z
" transform="scale(0.015625)"/>
      <path id="DejaVuSans-Bold-6d" d="M 3781 2919 
Q 3994 3244 4286 3414 
Q 4578 3584 4928 3584 
Q 5531 3584 5847 3212 
Q 6163 2841 6163 2131 
L 6163 0 
L 5038 0 
L 5038 1825 
Q 5041 1866 5042 1909 
Q 5044 1953 5044 2034 
Q 5044 2406 4934 2573 
Q 4825 2741 4581 2741 
Q 4263 2741 4089 2478 
Q 3916 2216 3909 1719 
L 3909 0 
L 2784 0 
L 2784 1825 
Q 2784 2406 2684 2573 
Q 2584 2741 2328 2741 
Q 2006 2741 1831 2477 
Q 1656 2213 1656 1722 
L 1656 0 
L 531 0 
L 531 3500 
L 1656 3500 
L 1656 2988 
Q 1863 3284 2130 3434 
Q 2397 3584 2719 3584 
Q 3081 3584 3359 3409 
Q 3638 3234 3781 2919 
z
" transform="scale(0.015625)"/>
      <path id="DejaVuSans-Bold-63" d="M 3366 3391 
L 3366 2478 
Q 3138 2634 2908 2709 
Q 2678 2784 2431 2784 
Q 1963 2784 1702 2511 
Q 1441 2238 1441 1747 
Q 1441 1256 1702 982 
Q 1963 709 2431 709 
Q 2694 709 2930 787 
Q 3166 866 3366 1019 
L 3366 103 
Q 3103 6 2833 -42 
Q 2563 -91 2291 -91 
Q 1344 -91 809 395 
Q 275 881 275 1747 
Q 275 2613 809 3098 
Q 1344 3584 2291 3584 
Q 2566 3584 2833 3536 
Q 3100 3488 3366 3391 
z
" transform="scale(0.015625)"/>
      <path id="DejaVuSans-Bold-67" d="M 2919 594 
Q 2688 288 2409 144 
Q 2131 0 1766 0 
Q 1125 0 706 504 
Q 288 1009 288 1791 
Q 288 2575 706 3076 
Q 1125 3578 1766 3578 
Q 2131 3578 2409 3434 
Q 2688 3291 2919 2981 
L 2919 3500 
L 4044 3500 
L 4044 353 
Q 4044 -491 3511 -936 
Q 2978 -1381 1966 -1381 
Q 1638 -1381 1331 -1331 
Q 1025 -1281 716 -1178 
L 716 -306 
Q 1009 -475 1290 -558 
Q 1572 -641 1856 -641 
Q 2406 -641 2662 -400 
Q 2919 -159 2919 353 
L 2919 594 
z
M 2181 2772 
Q 1834 2772 1640 2515 
Q 1447 2259 1447 1791 
Q 1447 1309 1634 1061 
Q 1822 813 2181 813 
Q 2531 813 2725 1069 
Q 2919 1325 2919 1791 
Q 2919 2259 2725 2515 
Q 2531 2772 2181 2772 
z
" transform="scale(0.015625)"/>
      <path id="DejaVuSans-Bold-68" d="M 4056 2131 
L 4056 0 
L 2931 0 
L 2931 347 
L 2931 1625 
Q 2931 2084 2911 2256 
Q 2891 2428 2841 2509 
Q 2775 2619 2662 2680 
Q 2550 2741 2406 2741 
Q 2056 2741 1856 2470 
Q 1656 2200 1656 1722 
L 1656 0 
L 538 0 
L 538 4863 
L 1656 4863 
L 1656 2988 
Q 1909 3294 2193 3439 
Q 2478 3584 2822 3584 
Q 3428 3584 3742 3212 
Q 4056 2841 4056 2131 
z
" transform="scale(0.015625)"/>
      <path id="DejaVuSans-Bold-42" d="M 2456 2859 
Q 2741 2859 2887 2984 
Q 3034 3109 3034 3353 
Q 3034 3594 2887 3720 
Q 2741 3847 2456 3847 
L 1791 3847 
L 1791 2859 
L 2456 2859 
z
M 2497 819 
Q 2859 819 3042 972 
Q 3225 1125 3225 1434 
Q 3225 1738 3044 1889 
Q 2863 2041 2497 2041 
L 1791 2041 
L 1791 819 
L 2497 819 
z
M 3616 2497 
Q 4003 2384 4215 2081 
Q 4428 1778 4428 1338 
Q 4428 663 3972 331 
Q 3516 0 2584 0 
L 588 0 
L 588 4666 
L 2394 4666 
Q 3366 4666 3802 4372 
Q 4238 4078 4238 3431 
Q 4238 3091 4078 2852 
Q 3919 2613 3616 2497 
z
" transform="scale(0.015625)"/>
      <path id="DejaVuSans-Bold-50" d="M 588 4666 
L 2584 4666 
Q 3475 4666 3951 4270 
Q 4428 3875 4428 3144 
Q 4428 2409 3951 2014 
Q 3475 1619 2584 1619 
L 1791 1619 
L 1791 0 
L 588 0 
L 588 4666 
z
M 1791 3794 
L 1791 2491 
L 2456 2491 
Q 2806 2491 2997 2661 
Q 3188 2831 3188 3144 
Q 3188 3456 2997 3625 
Q 2806 3794 2456 3794 
L 1791 3794 
z
" transform="scale(0.015625)"/>
     </defs>
     <use xlink:href="#DejaVuSans-Bold-54"/>
     <use xlink:href="#DejaVuSans-Bold-6f" transform="translate(54.962891 0)"/>
     <use xlink:href="#DejaVuSans-Bold-70" transform="translate(123.664062 0)"/>
     <use xlink:href="#DejaVuSans-Bold-20" transform="translate(195.246094 0)"/>
     <use xlink:href="#DejaVuSans-Bold-31" transform="translate(230.060547 0)"/>
     <use xlink:href="#DejaVuSans-Bold-30" transform="translate(299.640625 0)"/>
     <use xlink:href="#DejaVuSans-Bold-20" transform="translate(369.220703 0)"/>
     <use xlink:href="#DejaVuSans-Bold-49" transform="translate(404.035156 0)"/>
     <use xlink:href="#DejaVuSans-Bold-6e" transform="translate(441.242188 0)"/>
     <use xlink:href="#DejaVuSans-Bold-70" transform="translate(512.433594 0)"/>
     <use xlink:href="#DejaVuSans-Bold-75" transform="translate(584.015625 0)"/>
     <use xlink:href="#DejaVuSans-Bold-74" transform="translate(655.207031 0)"/>
     <use xlink:href="#DejaVuSans-Bold-20" transform="translate(703.009766 0)"/>
     <use xlink:href="#DejaVuSans-Bold-46" transform="translate(737.824219 0)"/>
     <use xlink:href="#DejaVuSans-Bold-65" transform="translate(802.134766 0)"/>
     <use xlink:href="#DejaVuSans-Bold-61" transform="translate(869.957031 0)"/>
     <use xlink:href="#DejaVuSans-Bold-74" transform="translate(937.4375 0)"/>
     <use xlink:href="#DejaVuSans-Bold-75" transform="translate(985.240234 0)"/>
     <use xlink:href="#DejaVuSans-Bold-72" transform="translate(1056.431641 0)"/>
     <use xlink:href="#DejaVuSans-Bold-65" transform="translate(1105.748047 0)"/>
     <use xlink:href="#DejaVuSans-Bold-20" transform="translate(1173.570312 0)"/>
     <use xlink:href="#DejaVuSans-Bold-49" transform="translate(1208.384766 0)"/>
     <use xlink:href="#DejaVuSans-Bold-6d" transform="translate(1245.591797 0)"/>
     <use xlink:href="#DejaVuSans-Bold-70" transform="translate(1349.791016 0)"/>
     <use xlink:href="#DejaVuSans-Bold-6f" transform="translate(1421.373047 0)"/>
     <use xlink:href="#DejaVuSans-Bold-72" transform="translate(1490.074219 0)"/>
     <use xlink:href="#DejaVuSans-Bold-74" transform="translate(1539.390625 0)"/>
     <use xlink:href="#DejaVuSans-Bold-61" transform="translate(1587.193359 0)"/>
     <use xlink:href="#DejaVuSans-Bold-6e" transform="translate(1654.673828 0)"/>
     <use xlink:href="#DejaVuSans-Bold-63" transform="translate(1725.865234 0)"/>
     <use xlink:href="#DejaVuSans-Bold-65" transform="translate(1785.142578 0)"/>
     <use xlink:href="#DejaVuSans-Bold-73" transform="translate(1852.964844 0)"/>
     <use xlink:href="#DejaVuSans-Bold-20" transform="translate(1912.486328 0)"/>
     <use xlink:href="#DejaVuSans-Bold-41" transform="translate(1947.300781 0)"/>
     <use xlink:href="#DejaVuSans-Bold-63" transform="translate(2024.693359 0)"/>
     <use xlink:href="#DejaVuSans-Bold-72" transform="translate(2083.970703 0)"/>
     <use xlink:href="#DejaVuSans-Bold-6f" transform="translate(2133.287109 0)"/>
     <use xlink:href="#DejaVuSans-Bold-73" transform="translate(2201.988281 0)"/>
     <use xlink:href="#DejaVuSans-Bold-73" transform="translate(2261.509766 0)"/>
     <use xlink:href="#DejaVuSans-Bold-20" transform="translate(2321.03125 0)"/>
     <use xlink:href="#DejaVuSans-Bold-4d" transform="translate(2355.845703 0)"/>
     <use xlink:href="#DejaVuSans-Bold-75" transform="translate(2455.357422 0)"/>
     <use xlink:href="#DejaVuSans-Bold-6c" transform="translate(2526.548828 0)"/>
     <use xlink:href="#DejaVuSans-Bold-74" transform="translate(2560.826172 0)"/>
     <use xlink:href="#DejaVuSans-Bold-69" transform="translate(2608.628906 0)"/>
     <use xlink:href="#DejaVuSans-Bold-70" transform="translate(2642.90625 0)"/>
     <use xlink:href="#DejaVuSans-Bold-6c" transform="translate(2714.488281 0)"/>
     <use xlink:href="#DejaVuSans-Bold-65" transform="translate(2748.765625 0)"/>
     <use xlink:href="#DejaVuSans-Bold-20" transform="translate(2816.587891 0)"/>
     <use xlink:href="#DejaVuSans-Bold-41" transform="translate(2851.402344 0)"/>
     <use xlink:href="#DejaVuSans-Bold-6c" transform="translate(2928.794922 0)"/>
     <use xlink:href="#DejaVuSans-Bold-67" transform="translate(2963.072266 0)"/>
     <use xlink:href="#DejaVuSans-Bold-6f" transform="translate(3034.654297 0)"/>
     <use xlink:href="#DejaVuSans-Bold-72" transform="translate(3103.355469 0)"/>
     <use xlink:href="#DejaVuSans-Bold-69" transform="translate(3152.671875 0)"/>
     <use xlink:href="#DejaVuSans-Bold-74" transform="translate(3186.949219 0)"/>
     <use xlink:href="#DejaVuSans-Bold-68" transform="translate(3234.751953 0)"/>
     <use xlink:href="#DejaVuSans-Bold-6d" transform="translate(3305.943359 0)"/>
     <use xlink:href="#DejaVuSans-Bold-73" transform="translate(3410.142578 0)"/>
     <use xlink:href="#DejaVuSans-Bold-2c" transform="translate(3469.664062 0)"/>
     <use xlink:href="#DejaVuSans-Bold-20" transform="translate(3507.652344 0)"/>
     <use xlink:href="#DejaVuSans-Bold-46" transform="translate(3542.466797 0)"/>
     <use xlink:href="#DejaVuSans-Bold-75" transform="translate(3605.777344 0)"/>
     <use xlink:href="#DejaVuSans-Bold-6c" transform="translate(3676.96875 0)"/>
     <use xlink:href="#DejaVuSans-Bold-6c" transform="translate(3711.246094 0)"/>
     <use xlink:href="#DejaVuSans-Bold-20" transform="translate(3745.523438 0)"/>
     <use xlink:href="#DejaVuSans-Bold-42" transform="translate(3780.337891 0)"/>
     <use xlink:href="#DejaVuSans-Bold-61" transform="translate(3856.558594 0)"/>
     <use xlink:href="#DejaVuSans-Bold-73" transform="translate(3924.039062 0)"/>
     <use xlink:href="#DejaVuSans-Bold-65" transform="translate(3983.560547 0)"/>
     <use xlink:href="#DejaVuSans-Bold-20" transform="translate(4051.382812 0)"/>
     <use xlink:href="#DejaVuSans-Bold-4d" transform="translate(4086.197266 0)"/>
     <use xlink:href="#DejaVuSans-Bold-4c" transform="translate(4185.708984 0)"/>
     <use xlink:href="#DejaVuSans-Bold-50" transform="translate(4249.429688 0)"/>
    </g>
   </g>
   <g id="legend_1">
    <g id="patch_37">
     <path d="M 1238.222812 112.688125 
L 1415.08 112.688125 
Q 1417.88 112.688125 1417.88 109.888125 
L 1417.88 49.64 
Q 1417.88 46.84 1415.08 46.84 
L 1238.222812 46.84 
Q 1235.422812 46.84 1235.422812 49.64 
L 1235.422812 109.888125 
Q 1235.422812 112.688125 1238.222812 112.688125 
z
" style="fill: #ffffff; opacity: 0.8; stroke: #cccccc; stroke-linejoin: miter"/>
    </g>
    <g id="patch_38">
     <path d="M 1241.022812 63.077813 
L 1269.022812 63.077813 
L 1269.022812 53.277813 
L 1241.022812 53.277813 
z
" style="fill: #1f77b4; opacity: 0.8"/>
    </g>
    <g id="text_18">
     <!-- DeepLIFT -->
     <g transform="translate(1280.222812 63.077813) scale(0.14 -0.14)">
      <use xlink:href="#DejaVuSans-Bold-44"/>
      <use xlink:href="#DejaVuSans-Bold-65" transform="translate(83.007812 0)"/>
      <use xlink:href="#DejaVuSans-Bold-65" transform="translate(150.830078 0)"/>
      <use xlink:href="#DejaVuSans-Bold-70" transform="translate(218.652344 0)"/>
      <use xlink:href="#DejaVuSans-Bold-4c" transform="translate(290.234375 0)"/>
      <use xlink:href="#DejaVuSans-Bold-49" transform="translate(353.955078 0)"/>
      <use xlink:href="#DejaVuSans-Bold-46" transform="translate(391.162109 0)"/>
      <use xlink:href="#DejaVuSans-Bold-54" transform="translate(459.472656 0)"/>
     </g>
    </g>
    <g id="patch_39">
     <path d="M 1241.022812 83.627188 
L 1269.022812 83.627188 
L 1269.022812 73.827188 
L 1241.022812 73.827188 
z
" style="fill: #ff7f0e; opacity: 0.8"/>
    </g>
    <g id="text_19">
     <!-- GradientSHAP -->
     <g transform="translate(1280.222812 83.627188) scale(0.14 -0.14)">
      <defs>
       <path id="DejaVuSans-Bold-47" d="M 4781 347 
Q 4331 128 3847 18 
Q 3363 -91 2847 -91 
Q 1681 -91 1000 561 
Q 319 1213 319 2328 
Q 319 3456 1012 4103 
Q 1706 4750 2913 4750 
Q 3378 4750 3804 4662 
Q 4231 4575 4609 4403 
L 4609 3438 
Q 4219 3659 3833 3768 
Q 3447 3878 3059 3878 
Q 2341 3878 1952 3476 
Q 1563 3075 1563 2328 
Q 1563 1588 1938 1184 
Q 2313 781 3003 781 
Q 3191 781 3352 804 
Q 3513 828 3641 878 
L 3641 1784 
L 2906 1784 
L 2906 2591 
L 4781 2591 
L 4781 347 
z
" transform="scale(0.015625)"/>
       <path id="DejaVuSans-Bold-64" d="M 2919 2988 
L 2919 4863 
L 4044 4863 
L 4044 0 
L 2919 0 
L 2919 506 
Q 2688 197 2409 53 
Q 2131 -91 1766 -91 
Q 1119 -91 703 423 
Q 288 938 288 1747 
Q 288 2556 703 3070 
Q 1119 3584 1766 3584 
Q 2128 3584 2408 3439 
Q 2688 3294 2919 2988 
z
M 2181 722 
Q 2541 722 2730 984 
Q 2919 1247 2919 1747 
Q 2919 2247 2730 2509 
Q 2541 2772 2181 2772 
Q 1825 2772 1636 2509 
Q 1447 2247 1447 1747 
Q 1447 1247 1636 984 
Q 1825 722 2181 722 
z
" transform="scale(0.015625)"/>
       <path id="DejaVuSans-Bold-48" d="M 588 4666 
L 1791 4666 
L 1791 2888 
L 3566 2888 
L 3566 4666 
L 4769 4666 
L 4769 0 
L 3566 0 
L 3566 1978 
L 1791 1978 
L 1791 0 
L 588 0 
L 588 4666 
z
" transform="scale(0.015625)"/>
      </defs>
      <use xlink:href="#DejaVuSans-Bold-47"/>
      <use xlink:href="#DejaVuSans-Bold-72" transform="translate(82.080078 0)"/>
      <use xlink:href="#DejaVuSans-Bold-61" transform="translate(131.396484 0)"/>
      <use xlink:href="#DejaVuSans-Bold-64" transform="translate(198.876953 0)"/>
      <use xlink:href="#DejaVuSans-Bold-69" transform="translate(270.458984 0)"/>
      <use xlink:href="#DejaVuSans-Bold-65" transform="translate(304.736328 0)"/>
      <use xlink:href="#DejaVuSans-Bold-6e" transform="translate(372.558594 0)"/>
      <use xlink:href="#DejaVuSans-Bold-74" transform="translate(443.75 0)"/>
      <use xlink:href="#DejaVuSans-Bold-53" transform="translate(491.552734 0)"/>
      <use xlink:href="#DejaVuSans-Bold-48" transform="translate(563.574219 0)"/>
      <use xlink:href="#DejaVuSans-Bold-41" transform="translate(647.265625 0)"/>
      <use xlink:href="#DejaVuSans-Bold-50" transform="translate(724.658203 0)"/>
     </g>
    </g>
    <g id="patch_40">
     <path d="M 1241.022812 104.176563 
L 1269.022812 104.176563 
L 1269.022812 94.376563 
L 1241.022812 94.376563 
z
" style="fill: #2ca02c; opacity: 0.8"/>
    </g>
    <g id="text_20">
     <!-- Feature Ablation -->
     <g transform="translate(1280.222812 104.176563) scale(0.14 -0.14)">
      <use xlink:href="#DejaVuSans-Bold-46"/>
      <use xlink:href="#DejaVuSans-Bold-65" transform="translate(64.310547 0)"/>
      <use xlink:href="#DejaVuSans-Bold-61" transform="translate(132.132812 0)"/>
      <use xlink:href="#DejaVuSans-Bold-74" transform="translate(199.613281 0)"/>
      <use xlink:href="#DejaVuSans-Bold-75" transform="translate(247.416016 0)"/>
      <use xlink:href="#DejaVuSans-Bold-72" transform="translate(318.607422 0)"/>
      <use xlink:href="#DejaVuSans-Bold-65" transform="translate(367.923828 0)"/>
      <use xlink:href="#DejaVuSans-Bold-20" transform="translate(435.746094 0)"/>
      <use xlink:href="#DejaVuSans-Bold-41" transform="translate(470.560547 0)"/>
      <use xlink:href="#DejaVuSans-Bold-62" transform="translate(547.953125 0)"/>
      <use xlink:href="#DejaVuSans-Bold-6c" transform="translate(619.535156 0)"/>
      <use xlink:href="#DejaVuSans-Bold-61" transform="translate(653.8125 0)"/>
      <use xlink:href="#DejaVuSans-Bold-74" transform="translate(721.292969 0)"/>
      <use xlink:href="#DejaVuSans-Bold-69" transform="translate(769.095703 0)"/>
      <use xlink:href="#DejaVuSans-Bold-6f" transform="translate(803.373047 0)"/>
      <use xlink:href="#DejaVuSans-Bold-6e" transform="translate(872.074219 0)"/>
     </g>
    </g>
   </g>
  </g>
 </g>
 <defs>
  <clipPath id="pbfa194495a">
   <rect x="112.52" y="39.84" width="1312.36" height="464.830143"/>
  </clipPath>
 </defs>
</svg>
