<?xml version="1.0" encoding="utf-8" standalone="no"?>
<!DOCTYPE svg PUBLIC "-//W3C//DTD SVG 1.1//EN"
  "http://www.w3.org/Graphics/SVG/1.1/DTD/svg11.dtd">
<svg xmlns:xlink="http://www.w3.org/1999/xlink" width="460.8pt" height="345.6pt" viewBox="0 0 460.8 345.6" xmlns="http://www.w3.org/2000/svg" version="1.1">
 <metadata>
  <rdf:RDF xmlns:dc="http://purl.org/dc/elements/1.1/" xmlns:cc="http://creativecommons.org/ns#" xmlns:rdf="http://www.w3.org/1999/02/22-rdf-syntax-ns#">
   <cc:Work>
    <dc:type rdf:resource="http://purl.org/dc/dcmitype/StillImage"/>
    <dc:date>2025-06-24T12:33:21.519606</dc:date>
    <dc:format>image/svg+xml</dc:format>
    <dc:creator>
     <cc:Agent>
      <dc:title>Matplotlib v3.10.0, https://matplotlib.org/</dc:title>
     </cc:Agent>
    </dc:creator>
   </cc:Work>
  </rdf:RDF>
 </metadata>
 <defs>
  <style type="text/css">*{stroke-linejoin: round; stroke-linecap: butt}</style>
 </defs>
 <g id="figure_1">
  <g id="patch_1">
   <path d="M 0 345.6 
L 460.8 345.6 
L 460.8 0 
L 0 0 
z
" style="fill: #ffffff"/>
  </g>
  <g id="axes_1">
   <g id="patch_2">
    <path d="M 71.098581 296.44 
L 435.42 296.44 
L 435.42 27.6 
L 71.098581 27.6 
z
" style="fill: #ffffff"/>
   </g>
   <g id="matplotlib.axis_1">
    <g id="xtick_1">
     <g id="line2d_1">
      <path d="M 81.21862 296.44 
L 81.21862 27.6 
" clip-path="url(#p0e815c49e6)" style="fill: none; stroke: #b0b0b0; stroke-width: 0.8; stroke-linecap: square"/>
     </g>
     <g id="line2d_2">
      <defs>
       <path id="md1d20cceaa" d="M 0 0 
L 0 3.5 
" style="stroke: #000000; stroke-width: 0.8"/>
      </defs>
      <g>
       <use xlink:href="#md1d20cceaa" x="81.21862" y="296.44" style="stroke: #000000; stroke-width: 0.8"/>
      </g>
     </g>
     <g id="text_1">
      <!-- 0 -->
      <g transform="translate(76.348152 314.077812) scale(0.14 -0.14)">
       <defs>
        <path id="DejaVuSans-Bold-30" d="M 2944 2338 
Q 2944 3213 2780 3570 
Q 2616 3928 2228 3928 
Q 1841 3928 1675 3570 
Q 1509 3213 1509 2338 
Q 1509 1453 1675 1090 
Q 1841 728 2228 728 
Q 2613 728 2778 1090 
Q 2944 1453 2944 2338 
z
M 4147 2328 
Q 4147 1169 3647 539 
Q 3147 -91 2228 -91 
Q 1306 -91 806 539 
Q 306 1169 306 2328 
Q 306 3491 806 4120 
Q 1306 4750 2228 4750 
Q 3147 4750 3647 4120 
Q 4147 3491 4147 2328 
z
" transform="scale(0.015625)"/>
       </defs>
       <use xlink:href="#DejaVuSans-Bold-30"/>
      </g>
     </g>
    </g>
    <g id="xtick_2">
     <g id="line2d_3">
      <path d="M 131.818817 296.44 
L 131.818817 27.6 
" clip-path="url(#p0e815c49e6)" style="fill: none; stroke: #b0b0b0; stroke-width: 0.8; stroke-linecap: square"/>
     </g>
     <g id="line2d_4">
      <g>
       <use xlink:href="#md1d20cceaa" x="131.818817" y="296.44" style="stroke: #000000; stroke-width: 0.8"/>
      </g>
     </g>
     <g id="text_2">
      <!-- 50 -->
      <g transform="translate(122.07788 314.077812) scale(0.14 -0.14)">
       <defs>
        <path id="DejaVuSans-Bold-35" d="M 678 4666 
L 3669 4666 
L 3669 3781 
L 1638 3781 
L 1638 3059 
Q 1775 3097 1914 3117 
Q 2053 3138 2203 3138 
Q 3056 3138 3531 2711 
Q 4006 2284 4006 1522 
Q 4006 766 3489 337 
Q 2972 -91 2053 -91 
Q 1656 -91 1267 -14 
Q 878 63 494 219 
L 494 1166 
Q 875 947 1217 837 
Q 1559 728 1863 728 
Q 2300 728 2551 942 
Q 2803 1156 2803 1522 
Q 2803 1891 2551 2103 
Q 2300 2316 1863 2316 
Q 1603 2316 1309 2248 
Q 1016 2181 678 2041 
L 678 4666 
z
" transform="scale(0.015625)"/>
       </defs>
       <use xlink:href="#DejaVuSans-Bold-35"/>
       <use xlink:href="#DejaVuSans-Bold-30" transform="translate(69.580078 0)"/>
      </g>
     </g>
    </g>
    <g id="xtick_3">
     <g id="line2d_5">
      <path d="M 182.419014 296.44 
L 182.419014 27.6 
" clip-path="url(#p0e815c49e6)" style="fill: none; stroke: #b0b0b0; stroke-width: 0.8; stroke-linecap: square"/>
     </g>
     <g id="line2d_6">
      <g>
       <use xlink:href="#md1d20cceaa" x="182.419014" y="296.44" style="stroke: #000000; stroke-width: 0.8"/>
      </g>
     </g>
     <g id="text_3">
      <!-- 100 -->
      <g transform="translate(167.807608 314.077812) scale(0.14 -0.14)">
       <defs>
        <path id="DejaVuSans-Bold-31" d="M 750 831 
L 1813 831 
L 1813 3847 
L 722 3622 
L 722 4441 
L 1806 4666 
L 2950 4666 
L 2950 831 
L 4013 831 
L 4013 0 
L 750 0 
L 750 831 
z
" transform="scale(0.015625)"/>
       </defs>
       <use xlink:href="#DejaVuSans-Bold-31"/>
       <use xlink:href="#DejaVuSans-Bold-30" transform="translate(69.580078 0)"/>
       <use xlink:href="#DejaVuSans-Bold-30" transform="translate(139.160156 0)"/>
      </g>
     </g>
    </g>
    <g id="xtick_4">
     <g id="line2d_7">
      <path d="M 233.019212 296.44 
L 233.019212 27.6 
" clip-path="url(#p0e815c49e6)" style="fill: none; stroke: #b0b0b0; stroke-width: 0.8; stroke-linecap: square"/>
     </g>
     <g id="line2d_8">
      <g>
       <use xlink:href="#md1d20cceaa" x="233.019212" y="296.44" style="stroke: #000000; stroke-width: 0.8"/>
      </g>
     </g>
     <g id="text_4">
      <!-- 150 -->
      <g transform="translate(218.407805 314.077812) scale(0.14 -0.14)">
       <use xlink:href="#DejaVuSans-Bold-31"/>
       <use xlink:href="#DejaVuSans-Bold-35" transform="translate(69.580078 0)"/>
       <use xlink:href="#DejaVuSans-Bold-30" transform="translate(139.160156 0)"/>
      </g>
     </g>
    </g>
    <g id="xtick_5">
     <g id="line2d_9">
      <path d="M 283.619409 296.44 
L 283.619409 27.6 
" clip-path="url(#p0e815c49e6)" style="fill: none; stroke: #b0b0b0; stroke-width: 0.8; stroke-linecap: square"/>
     </g>
     <g id="line2d_10">
      <g>
       <use xlink:href="#md1d20cceaa" x="283.619409" y="296.44" style="stroke: #000000; stroke-width: 0.8"/>
      </g>
     </g>
     <g id="text_5">
      <!-- 200 -->
      <g transform="translate(269.008002 314.077812) scale(0.14 -0.14)">
       <defs>
        <path id="DejaVuSans-Bold-32" d="M 1844 884 
L 3897 884 
L 3897 0 
L 506 0 
L 506 884 
L 2209 2388 
Q 2438 2594 2547 2791 
Q 2656 2988 2656 3200 
Q 2656 3528 2436 3728 
Q 2216 3928 1850 3928 
Q 1569 3928 1234 3808 
Q 900 3688 519 3450 
L 519 4475 
Q 925 4609 1322 4679 
Q 1719 4750 2100 4750 
Q 2938 4750 3402 4381 
Q 3866 4013 3866 3353 
Q 3866 2972 3669 2642 
Q 3472 2313 2841 1759 
L 1844 884 
z
" transform="scale(0.015625)"/>
       </defs>
       <use xlink:href="#DejaVuSans-Bold-32"/>
       <use xlink:href="#DejaVuSans-Bold-30" transform="translate(69.580078 0)"/>
       <use xlink:href="#DejaVuSans-Bold-30" transform="translate(139.160156 0)"/>
      </g>
     </g>
    </g>
    <g id="xtick_6">
     <g id="line2d_11">
      <path d="M 334.219606 296.44 
L 334.219606 27.6 
" clip-path="url(#p0e815c49e6)" style="fill: none; stroke: #b0b0b0; stroke-width: 0.8; stroke-linecap: square"/>
     </g>
     <g id="line2d_12">
      <g>
       <use xlink:href="#md1d20cceaa" x="334.219606" y="296.44" style="stroke: #000000; stroke-width: 0.8"/>
      </g>
     </g>
     <g id="text_6">
      <!-- 250 -->
      <g transform="translate(319.6082 314.077812) scale(0.14 -0.14)">
       <use xlink:href="#DejaVuSans-Bold-32"/>
       <use xlink:href="#DejaVuSans-Bold-35" transform="translate(69.580078 0)"/>
       <use xlink:href="#DejaVuSans-Bold-30" transform="translate(139.160156 0)"/>
      </g>
     </g>
    </g>
    <g id="xtick_7">
     <g id="line2d_13">
      <path d="M 384.819803 296.44 
L 384.819803 27.6 
" clip-path="url(#p0e815c49e6)" style="fill: none; stroke: #b0b0b0; stroke-width: 0.8; stroke-linecap: square"/>
     </g>
     <g id="line2d_14">
      <g>
       <use xlink:href="#md1d20cceaa" x="384.819803" y="296.44" style="stroke: #000000; stroke-width: 0.8"/>
      </g>
     </g>
     <g id="text_7">
      <!-- 300 -->
      <g transform="translate(370.208397 314.077812) scale(0.14 -0.14)">
       <defs>
        <path id="DejaVuSans-Bold-33" d="M 2981 2516 
Q 3453 2394 3698 2092 
Q 3944 1791 3944 1325 
Q 3944 631 3412 270 
Q 2881 -91 1863 -91 
Q 1503 -91 1142 -33 
Q 781 25 428 141 
L 428 1069 
Q 766 900 1098 814 
Q 1431 728 1753 728 
Q 2231 728 2486 893 
Q 2741 1059 2741 1369 
Q 2741 1688 2480 1852 
Q 2219 2016 1709 2016 
L 1228 2016 
L 1228 2791 
L 1734 2791 
Q 2188 2791 2409 2933 
Q 2631 3075 2631 3366 
Q 2631 3634 2415 3781 
Q 2200 3928 1806 3928 
Q 1516 3928 1219 3862 
Q 922 3797 628 3669 
L 628 4550 
Q 984 4650 1334 4700 
Q 1684 4750 2022 4750 
Q 2931 4750 3382 4451 
Q 3834 4153 3834 3553 
Q 3834 3144 3618 2883 
Q 3403 2622 2981 2516 
z
" transform="scale(0.015625)"/>
       </defs>
       <use xlink:href="#DejaVuSans-Bold-33"/>
       <use xlink:href="#DejaVuSans-Bold-30" transform="translate(69.580078 0)"/>
       <use xlink:href="#DejaVuSans-Bold-30" transform="translate(139.160156 0)"/>
      </g>
     </g>
    </g>
    <g id="xtick_8">
     <g id="line2d_15">
      <path d="M 435.42 296.44 
L 435.42 27.6 
" clip-path="url(#p0e815c49e6)" style="fill: none; stroke: #b0b0b0; stroke-width: 0.8; stroke-linecap: square"/>
     </g>
     <g id="line2d_16">
      <g>
       <use xlink:href="#md1d20cceaa" x="435.42" y="296.44" style="stroke: #000000; stroke-width: 0.8"/>
      </g>
     </g>
     <g id="text_8">
      <!-- 350 -->
      <g transform="translate(420.808594 314.077812) scale(0.14 -0.14)">
       <use xlink:href="#DejaVuSans-Bold-33"/>
       <use xlink:href="#DejaVuSans-Bold-35" transform="translate(69.580078 0)"/>
       <use xlink:href="#DejaVuSans-Bold-30" transform="translate(139.160156 0)"/>
      </g>
     </g>
    </g>
    <g id="text_9">
     <!-- Epoch -->
     <g transform="translate(229.524915 331.627187) scale(0.14 -0.14)">
      <defs>
       <path id="DejaVuSans-Bold-45" d="M 588 4666 
L 3834 4666 
L 3834 3756 
L 1791 3756 
L 1791 2888 
L 3713 2888 
L 3713 1978 
L 1791 1978 
L 1791 909 
L 3903 909 
L 3903 0 
L 588 0 
L 588 4666 
z
" transform="scale(0.015625)"/>
       <path id="DejaVuSans-Bold-70" d="M 1656 506 
L 1656 -1331 
L 538 -1331 
L 538 3500 
L 1656 3500 
L 1656 2988 
Q 1888 3294 2169 3439 
Q 2450 3584 2816 3584 
Q 3463 3584 3878 3070 
Q 4294 2556 4294 1747 
Q 4294 938 3878 423 
Q 3463 -91 2816 -91 
Q 2450 -91 2169 54 
Q 1888 200 1656 506 
z
M 2400 2772 
Q 2041 2772 1848 2508 
Q 1656 2244 1656 1747 
Q 1656 1250 1848 986 
Q 2041 722 2400 722 
Q 2759 722 2948 984 
Q 3138 1247 3138 1747 
Q 3138 2247 2948 2509 
Q 2759 2772 2400 2772 
z
" transform="scale(0.015625)"/>
       <path id="DejaVuSans-Bold-6f" d="M 2203 2784 
Q 1831 2784 1636 2517 
Q 1441 2250 1441 1747 
Q 1441 1244 1636 976 
Q 1831 709 2203 709 
Q 2569 709 2762 976 
Q 2956 1244 2956 1747 
Q 2956 2250 2762 2517 
Q 2569 2784 2203 2784 
z
M 2203 3584 
Q 3106 3584 3614 3096 
Q 4122 2609 4122 1747 
Q 4122 884 3614 396 
Q 3106 -91 2203 -91 
Q 1297 -91 786 396 
Q 275 884 275 1747 
Q 275 2609 786 3096 
Q 1297 3584 2203 3584 
z
" transform="scale(0.015625)"/>
       <path id="DejaVuSans-Bold-63" d="M 3366 3391 
L 3366 2478 
Q 3138 2634 2908 2709 
Q 2678 2784 2431 2784 
Q 1963 2784 1702 2511 
Q 1441 2238 1441 1747 
Q 1441 1256 1702 982 
Q 1963 709 2431 709 
Q 2694 709 2930 787 
Q 3166 866 3366 1019 
L 3366 103 
Q 3103 6 2833 -42 
Q 2563 -91 2291 -91 
Q 1344 -91 809 395 
Q 275 881 275 1747 
Q 275 2613 809 3098 
Q 1344 3584 2291 3584 
Q 2566 3584 2833 3536 
Q 3100 3488 3366 3391 
z
" transform="scale(0.015625)"/>
       <path id="DejaVuSans-Bold-68" d="M 4056 2131 
L 4056 0 
L 2931 0 
L 2931 347 
L 2931 1625 
Q 2931 2084 2911 2256 
Q 2891 2428 2841 2509 
Q 2775 2619 2662 2680 
Q 2550 2741 2406 2741 
Q 2056 2741 1856 2470 
Q 1656 2200 1656 1722 
L 1656 0 
L 538 0 
L 538 4863 
L 1656 4863 
L 1656 2988 
Q 1909 3294 2193 3439 
Q 2478 3584 2822 3584 
Q 3428 3584 3742 3212 
Q 4056 2841 4056 2131 
z
" transform="scale(0.015625)"/>
      </defs>
      <use xlink:href="#DejaVuSans-Bold-45"/>
      <use xlink:href="#DejaVuSans-Bold-70" transform="translate(68.310547 0)"/>
      <use xlink:href="#DejaVuSans-Bold-6f" transform="translate(139.892578 0)"/>
      <use xlink:href="#DejaVuSans-Bold-63" transform="translate(208.59375 0)"/>
      <use xlink:href="#DejaVuSans-Bold-68" transform="translate(267.871094 0)"/>
     </g>
    </g>
   </g>
   <g id="matplotlib.axis_2">
    <g id="ytick_1">
     <g id="line2d_17">
      <path d="M 71.098581 296.44 
L 435.42 296.44 
" clip-path="url(#p0e815c49e6)" style="fill: none; stroke: #b0b0b0; stroke-width: 0.8; stroke-linecap: square"/>
     </g>
     <g id="line2d_18">
      <defs>
       <path id="mf740d320b5" d="M 0 0 
L -3.5 0 
" style="stroke: #000000; stroke-width: 0.8"/>
      </defs>
      <g>
       <use xlink:href="#mf740d320b5" x="71.098581" y="296.44" style="stroke: #000000; stroke-width: 0.8"/>
      </g>
     </g>
     <g id="text_10">
      <!-- $\mathdefault{10^{-4}}$ -->
      <g transform="translate(28.958581 301.758906) scale(0.14 -0.14)">
       <defs>
        <path id="DejaVuSans-Bold-2212" d="M 678 2375 
L 4684 2375 
L 4684 1638 
L 678 1638 
L 678 2375 
z
" transform="scale(0.015625)"/>
        <path id="DejaVuSans-Bold-34" d="M 2356 3675 
L 1038 1722 
L 2356 1722 
L 2356 3675 
z
M 2156 4666 
L 3494 4666 
L 3494 1722 
L 4159 1722 
L 4159 850 
L 3494 850 
L 3494 0 
L 2356 0 
L 2356 850 
L 288 850 
L 288 1881 
L 2156 4666 
z
" transform="scale(0.015625)"/>
       </defs>
       <use xlink:href="#DejaVuSans-Bold-31" transform="translate(0 0.684375)"/>
       <use xlink:href="#DejaVuSans-Bold-30" transform="translate(69.580078 0.684375)"/>
       <use xlink:href="#DejaVuSans-Bold-2212" transform="translate(140.117188 38.965625) scale(0.7)"/>
       <use xlink:href="#DejaVuSans-Bold-34" transform="translate(198.769531 38.965625) scale(0.7)"/>
      </g>
     </g>
    </g>
    <g id="ytick_2">
     <g id="line2d_19">
      <path d="M 71.098581 242.672 
L 435.42 242.672 
" clip-path="url(#p0e815c49e6)" style="fill: none; stroke: #b0b0b0; stroke-width: 0.8; stroke-linecap: square"/>
     </g>
     <g id="line2d_20">
      <g>
       <use xlink:href="#mf740d320b5" x="71.098581" y="242.672" style="stroke: #000000; stroke-width: 0.8"/>
      </g>
     </g>
     <g id="text_11">
      <!-- $\mathdefault{10^{-3}}$ -->
      <g transform="translate(28.958581 247.990906) scale(0.14 -0.14)">
       <use xlink:href="#DejaVuSans-Bold-31" transform="translate(0 0.765625)"/>
       <use xlink:href="#DejaVuSans-Bold-30" transform="translate(69.580078 0.765625)"/>
       <use xlink:href="#DejaVuSans-Bold-2212" transform="translate(140.117188 39.046875) scale(0.7)"/>
       <use xlink:href="#DejaVuSans-Bold-33" transform="translate(198.769531 39.046875) scale(0.7)"/>
      </g>
     </g>
    </g>
    <g id="ytick_3">
     <g id="line2d_21">
      <path d="M 71.098581 188.904 
L 435.42 188.904 
" clip-path="url(#p0e815c49e6)" style="fill: none; stroke: #b0b0b0; stroke-width: 0.8; stroke-linecap: square"/>
     </g>
     <g id="line2d_22">
      <g>
       <use xlink:href="#mf740d320b5" x="71.098581" y="188.904" style="stroke: #000000; stroke-width: 0.8"/>
      </g>
     </g>
     <g id="text_12">
      <!-- $\mathdefault{10^{-2}}$ -->
      <g transform="translate(28.958581 194.222906) scale(0.14 -0.14)">
       <use xlink:href="#DejaVuSans-Bold-31" transform="translate(0 0.765625)"/>
       <use xlink:href="#DejaVuSans-Bold-30" transform="translate(69.580078 0.765625)"/>
       <use xlink:href="#DejaVuSans-Bold-2212" transform="translate(140.117188 39.046875) scale(0.7)"/>
       <use xlink:href="#DejaVuSans-Bold-32" transform="translate(198.769531 39.046875) scale(0.7)"/>
      </g>
     </g>
    </g>
    <g id="ytick_4">
     <g id="line2d_23">
      <path d="M 71.098581 135.136 
L 435.42 135.136 
" clip-path="url(#p0e815c49e6)" style="fill: none; stroke: #b0b0b0; stroke-width: 0.8; stroke-linecap: square"/>
     </g>
     <g id="line2d_24">
      <g>
       <use xlink:href="#mf740d320b5" x="71.098581" y="135.136" style="stroke: #000000; stroke-width: 0.8"/>
      </g>
     </g>
     <g id="text_13">
      <!-- $\mathdefault{10^{-1}}$ -->
      <g transform="translate(28.958581 140.454906) scale(0.14 -0.14)">
       <use xlink:href="#DejaVuSans-Bold-31" transform="translate(0 0.684375)"/>
       <use xlink:href="#DejaVuSans-Bold-30" transform="translate(69.580078 0.684375)"/>
       <use xlink:href="#DejaVuSans-Bold-2212" transform="translate(140.117188 38.965625) scale(0.7)"/>
       <use xlink:href="#DejaVuSans-Bold-31" transform="translate(198.769531 38.965625) scale(0.7)"/>
      </g>
     </g>
    </g>
    <g id="ytick_5">
     <g id="line2d_25">
      <path d="M 71.098581 81.368 
L 435.42 81.368 
" clip-path="url(#p0e815c49e6)" style="fill: none; stroke: #b0b0b0; stroke-width: 0.8; stroke-linecap: square"/>
     </g>
     <g id="line2d_26">
      <g>
       <use xlink:href="#mf740d320b5" x="71.098581" y="81.368" style="stroke: #000000; stroke-width: 0.8"/>
      </g>
     </g>
     <g id="text_14">
      <!-- $\mathdefault{10^{0}}$ -->
      <g transform="translate(37.218581 86.686906) scale(0.14 -0.14)">
       <use xlink:href="#DejaVuSans-Bold-31" transform="translate(0 0.765625)"/>
       <use xlink:href="#DejaVuSans-Bold-30" transform="translate(69.580078 0.765625)"/>
       <use xlink:href="#DejaVuSans-Bold-30" transform="translate(140.117188 39.046875) scale(0.7)"/>
      </g>
     </g>
    </g>
    <g id="ytick_6">
     <g id="line2d_27">
      <path d="M 71.098581 27.6 
L 435.42 27.6 
" clip-path="url(#p0e815c49e6)" style="fill: none; stroke: #b0b0b0; stroke-width: 0.8; stroke-linecap: square"/>
     </g>
     <g id="line2d_28">
      <g>
       <use xlink:href="#mf740d320b5" x="71.098581" y="27.6" style="stroke: #000000; stroke-width: 0.8"/>
      </g>
     </g>
     <g id="text_15">
      <!-- $\mathdefault{10^{1}}$ -->
      <g transform="translate(37.218581 32.918906) scale(0.14 -0.14)">
       <use xlink:href="#DejaVuSans-Bold-31" transform="translate(0 0.684375)"/>
       <use xlink:href="#DejaVuSans-Bold-30" transform="translate(69.580078 0.684375)"/>
       <use xlink:href="#DejaVuSans-Bold-31" transform="translate(140.117188 38.965625) scale(0.7)"/>
      </g>
     </g>
    </g>
    <g id="ytick_7">
     <g id="line2d_29">
      <defs>
       <path id="m9cbcaf73f0" d="M 0 0 
L -2 0 
" style="stroke: #000000; stroke-width: 0.6"/>
      </defs>
      <g>
       <use xlink:href="#m9cbcaf73f0" x="71.098581" y="280.254219" style="stroke: #000000; stroke-width: 0.6"/>
      </g>
     </g>
    </g>
    <g id="ytick_8">
     <g id="line2d_30">
      <g>
       <use xlink:href="#m9cbcaf73f0" x="71.098581" y="270.786144" style="stroke: #000000; stroke-width: 0.6"/>
      </g>
     </g>
    </g>
    <g id="ytick_9">
     <g id="line2d_31">
      <g>
       <use xlink:href="#m9cbcaf73f0" x="71.098581" y="264.068438" style="stroke: #000000; stroke-width: 0.6"/>
      </g>
     </g>
    </g>
    <g id="ytick_10">
     <g id="line2d_32">
      <g>
       <use xlink:href="#m9cbcaf73f0" x="71.098581" y="258.857781" style="stroke: #000000; stroke-width: 0.6"/>
      </g>
     </g>
    </g>
    <g id="ytick_11">
     <g id="line2d_33">
      <g>
       <use xlink:href="#m9cbcaf73f0" x="71.098581" y="254.600364" style="stroke: #000000; stroke-width: 0.6"/>
      </g>
     </g>
    </g>
    <g id="ytick_12">
     <g id="line2d_34">
      <g>
       <use xlink:href="#m9cbcaf73f0" x="71.098581" y="251.000769" style="stroke: #000000; stroke-width: 0.6"/>
      </g>
     </g>
    </g>
    <g id="ytick_13">
     <g id="line2d_35">
      <g>
       <use xlink:href="#m9cbcaf73f0" x="71.098581" y="247.882658" style="stroke: #000000; stroke-width: 0.6"/>
      </g>
     </g>
    </g>
    <g id="ytick_14">
     <g id="line2d_36">
      <g>
       <use xlink:href="#m9cbcaf73f0" x="71.098581" y="245.132289" style="stroke: #000000; stroke-width: 0.6"/>
      </g>
     </g>
    </g>
    <g id="ytick_15">
     <g id="line2d_37">
      <g>
       <use xlink:href="#m9cbcaf73f0" x="71.098581" y="226.486219" style="stroke: #000000; stroke-width: 0.6"/>
      </g>
     </g>
    </g>
    <g id="ytick_16">
     <g id="line2d_38">
      <g>
       <use xlink:href="#m9cbcaf73f0" x="71.098581" y="217.018144" style="stroke: #000000; stroke-width: 0.6"/>
      </g>
     </g>
    </g>
    <g id="ytick_17">
     <g id="line2d_39">
      <g>
       <use xlink:href="#m9cbcaf73f0" x="71.098581" y="210.300438" style="stroke: #000000; stroke-width: 0.6"/>
      </g>
     </g>
    </g>
    <g id="ytick_18">
     <g id="line2d_40">
      <g>
       <use xlink:href="#m9cbcaf73f0" x="71.098581" y="205.089781" style="stroke: #000000; stroke-width: 0.6"/>
      </g>
     </g>
    </g>
    <g id="ytick_19">
     <g id="line2d_41">
      <g>
       <use xlink:href="#m9cbcaf73f0" x="71.098581" y="200.832364" style="stroke: #000000; stroke-width: 0.6"/>
      </g>
     </g>
    </g>
    <g id="ytick_20">
     <g id="line2d_42">
      <g>
       <use xlink:href="#m9cbcaf73f0" x="71.098581" y="197.232769" style="stroke: #000000; stroke-width: 0.6"/>
      </g>
     </g>
    </g>
    <g id="ytick_21">
     <g id="line2d_43">
      <g>
       <use xlink:href="#m9cbcaf73f0" x="71.098581" y="194.114658" style="stroke: #000000; stroke-width: 0.6"/>
      </g>
     </g>
    </g>
    <g id="ytick_22">
     <g id="line2d_44">
      <g>
       <use xlink:href="#m9cbcaf73f0" x="71.098581" y="191.364289" style="stroke: #000000; stroke-width: 0.6"/>
      </g>
     </g>
    </g>
    <g id="ytick_23">
     <g id="line2d_45">
      <g>
       <use xlink:href="#m9cbcaf73f0" x="71.098581" y="172.718219" style="stroke: #000000; stroke-width: 0.6"/>
      </g>
     </g>
    </g>
    <g id="ytick_24">
     <g id="line2d_46">
      <g>
       <use xlink:href="#m9cbcaf73f0" x="71.098581" y="163.250144" style="stroke: #000000; stroke-width: 0.6"/>
      </g>
     </g>
    </g>
    <g id="ytick_25">
     <g id="line2d_47">
      <g>
       <use xlink:href="#m9cbcaf73f0" x="71.098581" y="156.532438" style="stroke: #000000; stroke-width: 0.6"/>
      </g>
     </g>
    </g>
    <g id="ytick_26">
     <g id="line2d_48">
      <g>
       <use xlink:href="#m9cbcaf73f0" x="71.098581" y="151.321781" style="stroke: #000000; stroke-width: 0.6"/>
      </g>
     </g>
    </g>
    <g id="ytick_27">
     <g id="line2d_49">
      <g>
       <use xlink:href="#m9cbcaf73f0" x="71.098581" y="147.064364" style="stroke: #000000; stroke-width: 0.6"/>
      </g>
     </g>
    </g>
    <g id="ytick_28">
     <g id="line2d_50">
      <g>
       <use xlink:href="#m9cbcaf73f0" x="71.098581" y="143.464769" style="stroke: #000000; stroke-width: 0.6"/>
      </g>
     </g>
    </g>
    <g id="ytick_29">
     <g id="line2d_51">
      <g>
       <use xlink:href="#m9cbcaf73f0" x="71.098581" y="140.346658" style="stroke: #000000; stroke-width: 0.6"/>
      </g>
     </g>
    </g>
    <g id="ytick_30">
     <g id="line2d_52">
      <g>
       <use xlink:href="#m9cbcaf73f0" x="71.098581" y="137.596289" style="stroke: #000000; stroke-width: 0.6"/>
      </g>
     </g>
    </g>
    <g id="ytick_31">
     <g id="line2d_53">
      <g>
       <use xlink:href="#m9cbcaf73f0" x="71.098581" y="118.950219" style="stroke: #000000; stroke-width: 0.6"/>
      </g>
     </g>
    </g>
    <g id="ytick_32">
     <g id="line2d_54">
      <g>
       <use xlink:href="#m9cbcaf73f0" x="71.098581" y="109.482144" style="stroke: #000000; stroke-width: 0.6"/>
      </g>
     </g>
    </g>
    <g id="ytick_33">
     <g id="line2d_55">
      <g>
       <use xlink:href="#m9cbcaf73f0" x="71.098581" y="102.764438" style="stroke: #000000; stroke-width: 0.6"/>
      </g>
     </g>
    </g>
    <g id="ytick_34">
     <g id="line2d_56">
      <g>
       <use xlink:href="#m9cbcaf73f0" x="71.098581" y="97.553781" style="stroke: #000000; stroke-width: 0.6"/>
      </g>
     </g>
    </g>
    <g id="ytick_35">
     <g id="line2d_57">
      <g>
       <use xlink:href="#m9cbcaf73f0" x="71.098581" y="93.296364" style="stroke: #000000; stroke-width: 0.6"/>
      </g>
     </g>
    </g>
    <g id="ytick_36">
     <g id="line2d_58">
      <g>
       <use xlink:href="#m9cbcaf73f0" x="71.098581" y="89.696769" style="stroke: #000000; stroke-width: 0.6"/>
      </g>
     </g>
    </g>
    <g id="ytick_37">
     <g id="line2d_59">
      <g>
       <use xlink:href="#m9cbcaf73f0" x="71.098581" y="86.578658" style="stroke: #000000; stroke-width: 0.6"/>
      </g>
     </g>
    </g>
    <g id="ytick_38">
     <g id="line2d_60">
      <g>
       <use xlink:href="#m9cbcaf73f0" x="71.098581" y="83.828289" style="stroke: #000000; stroke-width: 0.6"/>
      </g>
     </g>
    </g>
    <g id="ytick_39">
     <g id="line2d_61">
      <g>
       <use xlink:href="#m9cbcaf73f0" x="71.098581" y="65.182219" style="stroke: #000000; stroke-width: 0.6"/>
      </g>
     </g>
    </g>
    <g id="ytick_40">
     <g id="line2d_62">
      <g>
       <use xlink:href="#m9cbcaf73f0" x="71.098581" y="55.714144" style="stroke: #000000; stroke-width: 0.6"/>
      </g>
     </g>
    </g>
    <g id="ytick_41">
     <g id="line2d_63">
      <g>
       <use xlink:href="#m9cbcaf73f0" x="71.098581" y="48.996438" style="stroke: #000000; stroke-width: 0.6"/>
      </g>
     </g>
    </g>
    <g id="ytick_42">
     <g id="line2d_64">
      <g>
       <use xlink:href="#m9cbcaf73f0" x="71.098581" y="43.785781" style="stroke: #000000; stroke-width: 0.6"/>
      </g>
     </g>
    </g>
    <g id="ytick_43">
     <g id="line2d_65">
      <g>
       <use xlink:href="#m9cbcaf73f0" x="71.098581" y="39.528364" style="stroke: #000000; stroke-width: 0.6"/>
      </g>
     </g>
    </g>
    <g id="ytick_44">
     <g id="line2d_66">
      <g>
       <use xlink:href="#m9cbcaf73f0" x="71.098581" y="35.928769" style="stroke: #000000; stroke-width: 0.6"/>
      </g>
     </g>
    </g>
    <g id="ytick_45">
     <g id="line2d_67">
      <g>
       <use xlink:href="#m9cbcaf73f0" x="71.098581" y="32.810658" style="stroke: #000000; stroke-width: 0.6"/>
      </g>
     </g>
    </g>
    <g id="ytick_46">
     <g id="line2d_68">
      <g>
       <use xlink:href="#m9cbcaf73f0" x="71.098581" y="30.060289" style="stroke: #000000; stroke-width: 0.6"/>
      </g>
     </g>
    </g>
    <g id="text_16">
     <!-- MSE Loss -->
     <g transform="translate(22.047018 198.847656) rotate(-90) scale(0.14 -0.14)">
      <defs>
       <path id="DejaVuSans-Bold-4d" d="M 588 4666 
L 2119 4666 
L 3181 2169 
L 4250 4666 
L 5778 4666 
L 5778 0 
L 4641 0 
L 4641 3413 
L 3566 897 
L 2803 897 
L 1728 3413 
L 1728 0 
L 588 0 
L 588 4666 
z
" transform="scale(0.015625)"/>
       <path id="DejaVuSans-Bold-53" d="M 3834 4519 
L 3834 3531 
Q 3450 3703 3084 3790 
Q 2719 3878 2394 3878 
Q 1963 3878 1756 3759 
Q 1550 3641 1550 3391 
Q 1550 3203 1689 3098 
Q 1828 2994 2194 2919 
L 2706 2816 
Q 3484 2659 3812 2340 
Q 4141 2022 4141 1434 
Q 4141 663 3683 286 
Q 3225 -91 2284 -91 
Q 1841 -91 1394 -6 
Q 947 78 500 244 
L 500 1259 
Q 947 1022 1364 901 
Q 1781 781 2169 781 
Q 2563 781 2772 912 
Q 2981 1044 2981 1288 
Q 2981 1506 2839 1625 
Q 2697 1744 2272 1838 
L 1806 1941 
Q 1106 2091 782 2419 
Q 459 2747 459 3303 
Q 459 4000 909 4375 
Q 1359 4750 2203 4750 
Q 2588 4750 2994 4692 
Q 3400 4634 3834 4519 
z
" transform="scale(0.015625)"/>
       <path id="DejaVuSans-Bold-20" transform="scale(0.015625)"/>
       <path id="DejaVuSans-Bold-4c" d="M 588 4666 
L 1791 4666 
L 1791 909 
L 3903 909 
L 3903 0 
L 588 0 
L 588 4666 
z
" transform="scale(0.015625)"/>
       <path id="DejaVuSans-Bold-73" d="M 3272 3391 
L 3272 2541 
Q 2913 2691 2578 2766 
Q 2244 2841 1947 2841 
Q 1628 2841 1473 2761 
Q 1319 2681 1319 2516 
Q 1319 2381 1436 2309 
Q 1553 2238 1856 2203 
L 2053 2175 
Q 2913 2066 3209 1816 
Q 3506 1566 3506 1031 
Q 3506 472 3093 190 
Q 2681 -91 1863 -91 
Q 1516 -91 1145 -36 
Q 775 19 384 128 
L 384 978 
Q 719 816 1070 734 
Q 1422 653 1784 653 
Q 2113 653 2278 743 
Q 2444 834 2444 1013 
Q 2444 1163 2330 1236 
Q 2216 1309 1875 1350 
L 1678 1375 
Q 931 1469 631 1722 
Q 331 1975 331 2491 
Q 331 3047 712 3315 
Q 1094 3584 1881 3584 
Q 2191 3584 2531 3537 
Q 2872 3491 3272 3391 
z
" transform="scale(0.015625)"/>
      </defs>
      <use xlink:href="#DejaVuSans-Bold-4d"/>
      <use xlink:href="#DejaVuSans-Bold-53" transform="translate(99.511719 0)"/>
      <use xlink:href="#DejaVuSans-Bold-45" transform="translate(171.533203 0)"/>
      <use xlink:href="#DejaVuSans-Bold-20" transform="translate(239.84375 0)"/>
      <use xlink:href="#DejaVuSans-Bold-4c" transform="translate(274.658203 0)"/>
      <use xlink:href="#DejaVuSans-Bold-6f" transform="translate(338.378906 0)"/>
      <use xlink:href="#DejaVuSans-Bold-73" transform="translate(407.080078 0)"/>
      <use xlink:href="#DejaVuSans-Bold-73" transform="translate(466.601562 0)"/>
     </g>
    </g>
   </g>
   <g id="line2d_69">
    <path d="M 81.21862 6.06009 
L 82.230624 77.393385 
L 84.254632 91.005907 
L 85.266636 92.987826 
L 86.27864 94.654775 
L 87.290644 97.086087 
L 88.302648 103.538788 
L 89.314652 103.881426 
L 90.326656 102.567764 
L 91.33866 107.718035 
L 92.350664 110.804672 
L 93.362668 111.191061 
L 94.374672 115.667826 
L 95.386675 115.833338 
L 96.398679 116.67414 
L 97.410683 117.865408 
L 98.422687 124.296026 
L 99.434691 123.553844 
L 100.446695 125.831966 
L 101.458699 124.017548 
L 102.470703 131.253926 
L 103.482707 133.540641 
L 104.494711 132.111154 
L 105.506715 133.314839 
L 106.518719 138.542685 
L 107.530723 139.315619 
L 108.542727 140.248209 
L 109.554731 143.949841 
L 110.566735 142.125492 
L 111.578739 147.356192 
L 112.590742 146.000326 
L 113.602746 150.242559 
L 114.61475 147.656722 
L 115.626754 154.81609 
L 116.638758 154.480711 
L 117.650762 154.757309 
L 118.662766 158.368501 
L 119.67477 160.808897 
L 120.686774 158.422116 
L 121.698778 161.858844 
L 122.710782 162.782959 
L 123.722786 164.028144 
L 124.73479 170.512454 
L 125.746794 174.120123 
L 126.758798 173.738889 
L 127.770802 172.654515 
L 128.782806 173.67891 
L 129.794809 174.390738 
L 131.818817 174.752636 
L 132.830821 175.454172 
L 133.842825 175.111972 
L 134.854829 175.944035 
L 135.866833 177.105538 
L 136.878837 175.364573 
L 137.890841 175.250386 
L 138.902845 176.803043 
L 139.914849 176.347194 
L 140.926853 175.612705 
L 141.938857 176.231825 
L 142.950861 175.870813 
L 143.962865 176.749844 
L 144.974869 175.831854 
L 145.986873 177.483703 
L 146.998876 179.523472 
L 149.022884 176.139198 
L 150.034888 178.245423 
L 151.046892 178.459531 
L 152.058896 179.547706 
L 153.0709 177.127388 
L 154.082904 179.571966 
L 155.094908 178.089469 
L 156.106912 177.260209 
L 157.118916 179.699383 
L 158.13092 179.19383 
L 159.142924 178.21307 
L 160.154928 179.399841 
L 161.166932 179.896891 
L 162.178936 177.218863 
L 163.19094 178.409214 
L 164.202944 179.928764 
L 165.214947 178.668751 
L 166.226951 177.73046 
L 167.238955 179.084509 
L 168.250959 178.947879 
L 169.262963 180.468461 
L 170.274967 180.021733 
L 171.286971 177.803145 
L 172.298975 177.947866 
L 173.310979 178.663257 
L 174.322983 178.690739 
L 175.334987 178.952049 
L 176.346991 181.205475 
L 178.370999 178.00387 
L 179.383003 179.853498 
L 180.395007 179.794326 
L 181.407011 180.351546 
L 182.419014 181.882818 
L 183.431018 180.710059 
L 184.443022 179.872292 
L 185.455026 179.188211 
L 186.46703 181.783722 
L 187.479034 179.611978 
L 188.491038 180.989048 
L 189.503042 178.705867 
L 190.515046 178.37935 
L 192.539054 178.839701 
L 193.551058 178.549552 
L 194.563062 179.286733 
L 195.575066 178.619353 
L 196.58707 177.495457 
L 197.599074 179.245866 
L 198.611078 179.465128 
L 199.623081 178.428241 
L 200.635085 179.738177 
L 201.647089 179.158736 
L 202.659093 179.353118 
L 203.671097 179.820286 
L 204.683101 181.156528 
L 205.695105 180.043576 
L 206.707109 179.105492 
L 207.719113 179.963584 
L 208.731117 179.762635 
L 209.743121 178.407857 
L 210.755125 179.261359 
L 211.767129 180.425476 
L 212.779133 180.696571 
L 213.791137 180.014456 
L 214.803141 181.234586 
L 215.815145 180.084405 
L 216.827149 179.238828 
L 217.839152 178.8314 
L 218.851156 179.209288 
L 219.86316 180.582983 
L 220.875164 179.344633 
L 221.887168 180.855924 
L 223.911176 178.895115 
L 224.92318 179.742491 
L 225.935184 180.792654 
L 226.947188 178.945099 
L 227.959192 180.137004 
L 228.971196 179.749684 
L 229.9832 181.098536 
L 230.995204 182.147554 
L 232.007208 177.392488 
L 233.019212 179.018882 
L 234.031216 179.365852 
L 235.043219 178.534524 
L 236.055223 179.791442 
L 237.067227 179.368682 
L 238.079231 180.395875 
L 239.091235 180.081486 
L 240.103239 177.591011 
L 241.115243 180.06544 
L 242.127247 180.532346 
L 243.139251 178.726513 
L 244.151255 179.924415 
L 245.163259 179.5135 
L 246.175263 180.210255 
L 247.187267 178.1848 
L 248.199271 179.440979 
L 249.211275 179.857834 
L 250.223279 179.854943 
L 252.247286 178.604281 
L 253.25929 179.512076 
L 254.271294 180.979947 
L 255.283298 179.720927 
L 256.295302 180.169207 
L 257.307306 179.801533 
L 259.331314 179.419692 
L 260.343318 178.821719 
L 261.355322 180.185324 
L 262.367326 180.833308 
L 263.37933 178.428241 
L 264.391334 180.210255 
L 265.403338 179.007731 
L 266.415342 180.469945 
L 267.427346 177.563481 
L 268.43935 180.513013 
L 269.451353 180.486272 
L 270.463357 181.089391 
L 271.475361 179.908476 
L 272.487365 178.09349 
L 273.499369 179.479345 
L 274.511373 179.643463 
L 275.523377 180.176532 
L 276.535381 178.227893 
L 277.547385 178.039945 
L 278.559389 179.940365 
L 279.571393 177.864112 
L 280.583397 180.189723 
L 281.595401 180.663634 
L 282.607405 178.733399 
L 283.619409 179.091502 
L 284.631413 178.897889 
L 285.643417 181.719457 
L 286.655421 179.907027 
L 287.667424 180.286683 
L 288.679428 179.792883 
L 289.691432 178.700365 
L 290.703436 179.37576 
L 291.71544 178.812044 
L 292.727444 178.970131 
L 293.739448 178.460891 
L 294.751452 178.645411 
L 295.763456 179.752561 
L 296.77546 178.965957 
L 297.787464 179.214912 
L 299.811472 180.578511 
L 300.823476 180.361883 
L 301.83548 179.428205 
L 302.847484 179.453761 
L 303.859488 180.172137 
L 304.871491 176.37706 
L 305.883495 179.50211 
L 306.895499 179.279682 
L 307.907503 179.930213 
L 308.919507 179.113892 
L 309.931511 179.03004 
L 310.943515 182.256215 
L 311.955519 179.203666 
L 312.967523 178.655019 
L 313.979527 180.462528 
L 314.991531 178.908988 
L 316.003535 180.199987 
L 318.027543 179.412601 
L 319.039547 181.010297 
L 320.051551 180.449183 
L 321.063555 179.64776 
L 322.075558 179.927314 
L 323.087562 177.644849 
L 324.099566 178.918705 
L 326.123574 180.347118 
L 327.135578 179.223349 
L 328.147582 181.565005 
L 329.159586 181.661612 
L 330.17159 181.283698 
L 331.183594 178.530428 
L 332.195598 179.157333 
L 333.207602 180.283739 
L 334.219606 179.58339 
L 335.23161 181.213132 
L 336.243614 180.180928 
L 337.255618 181.228455 
L 338.267622 180.310249 
L 339.279625 180.600881 
L 340.291629 178.956222 
L 342.315637 180.955696 
L 343.327641 181.202413 
L 345.351649 179.38709 
L 346.363653 179.337565 
L 347.375657 179.405512 
L 348.387661 179.591963 
L 349.399665 179.262768 
L 351.423673 179.418273 
L 352.435677 178.574164 
L 353.447681 177.953194 
L 354.459685 179.446658 
L 355.471689 179.836163 
L 356.483693 180.077109 
L 357.495696 179.39559 
L 358.5077 176.782763 
L 359.519704 182.357341 
L 360.531708 180.18679 
L 361.543712 178.95483 
L 362.555716 180.166278 
L 363.56772 179.364437 
L 364.579724 176.495653 
L 366.603732 179.326259 
L 368.62774 179.426785 
L 369.639744 180.526396 
L 370.651748 179.2515 
L 371.663752 180.425476 
L 372.675756 181.99342 
L 373.68776 179.746806 
L 374.699763 179.151722 
L 375.711767 180.150173 
L 376.723771 179.856389 
L 377.735775 181.919101 
L 378.747779 179.38709 
L 379.759783 179.723801 
L 380.771787 178.39835 
L 381.783791 178.526332 
L 382.795795 179.91572 
L 383.807799 179.132098 
L 384.819803 178.977089 
L 385.831807 179.882418 
L 386.843811 178.19422 
L 387.855815 178.765101 
L 388.867819 178.877091 
L 389.879823 181.840298 
L 390.891827 180.47143 
L 391.90383 178.913153 
L 392.915834 179.361607 
L 394.939842 180.60685 
L 395.951846 178.776137 
L 396.96385 177.439354 
L 397.975854 178.486773 
L 398.987858 179.807301 
L 399.999862 180.571059 
L 401.011866 178.807898 
L 402.02387 179.738177 
L 403.035874 178.544087 
L 404.047878 180.116534 
L 405.059882 180.792654 
L 406.071886 176.820802 
L 407.08389 179.664956 
L 408.095894 179.283913 
L 410.119901 179.802975 
L 411.131905 179.751123 
L 412.143909 177.579209 
L 412.143909 177.579209 
" clip-path="url(#p0e815c49e6)" style="fill: none; stroke: #1f77b4; stroke-width: 1.75; stroke-linecap: square"/>
   </g>
   <g id="line2d_70">
    <path d="M 81.21862 101.231138 
L 82.230624 113.945059 
L 83.242628 99.193602 
L 84.254632 109.705995 
L 85.266636 137.068828 
L 86.27864 121.291276 
L 87.290644 128.822436 
L 88.302648 118.954482 
L 89.314652 141.143973 
L 90.326656 147.386541 
L 91.33866 147.142923 
L 92.350664 126.797346 
L 93.362668 156.856055 
L 94.374672 137.174637 
L 95.386675 134.874902 
L 96.398679 138.649086 
L 97.410683 156.51284 
L 98.422687 159.736442 
L 100.446695 138.16271 
L 101.458699 163.94697 
L 102.470703 148.252311 
L 103.482707 166.117596 
L 104.494711 161.869821 
L 105.506715 171.964973 
L 106.518719 153.176951 
L 107.530723 162.3242 
L 108.542727 175.727467 
L 109.554731 173.677073 
L 110.566735 167.358005 
L 111.578739 174.417009 
L 112.590742 184.997589 
L 113.602746 171.841486 
L 114.61475 184.441753 
L 115.626754 169.50716 
L 116.638758 181.594561 
L 117.650762 179.714925 
L 118.662766 179.520188 
L 119.67477 179.957747 
L 120.686774 171.940223 
L 121.698778 158.806682 
L 122.710782 170.656869 
L 123.722786 169.701133 
L 124.73479 202.966078 
L 125.746794 196.01602 
L 126.758798 207.448749 
L 127.770802 201.871293 
L 128.782806 202.412271 
L 129.794809 208.807888 
L 130.806813 205.426367 
L 131.818817 201.429859 
L 132.830821 195.220528 
L 133.842825 212.434154 
L 134.854829 204.377841 
L 135.866833 204.677432 
L 136.878837 203.37438 
L 137.890841 205.599982 
L 138.902845 209.746137 
L 139.914849 207.867444 
L 140.926853 192.343876 
L 141.938857 198.094123 
L 142.950861 210.985556 
L 143.962865 198.708661 
L 144.974869 201.75276 
L 145.986873 207.982949 
L 146.998876 209.211198 
L 148.01088 209.415496 
L 149.022884 211.383973 
L 150.034888 213.879014 
L 151.046892 202.442695 
L 152.058896 206.307647 
L 153.0709 198.322683 
L 154.082904 199.022105 
L 155.094908 207.29834 
L 156.106912 194.799775 
L 157.118916 205.634861 
L 158.13092 193.602018 
L 159.142924 202.230549 
L 160.154928 203.247987 
L 161.166932 211.698623 
L 162.178936 208.490178 
L 163.19094 210.941705 
L 164.202944 198.502013 
L 165.214947 206.093086 
L 166.226951 197.767878 
L 167.238955 204.477278 
L 168.250959 207.448749 
L 169.262963 209.374495 
L 170.274967 215.155351 
L 171.286971 203.88691 
L 172.298975 199.500301 
L 173.310979 198.246247 
L 174.322983 201.811951 
L 175.334987 214.179034 
L 176.346991 207.486505 
L 177.358995 205.288399 
L 178.370999 209.497717 
L 179.383003 206.379609 
L 180.395007 213.928752 
L 181.407011 200.125937 
L 182.419014 206.926498 
L 183.431018 210.897934 
L 184.443022 210.336269 
L 185.455026 211.698623 
L 186.46703 211.880345 
L 187.479034 209.251916 
L 188.491038 214.028542 
L 189.503042 212.90591 
L 190.515046 205.669792 
L 191.52705 202.47316 
L 192.539054 206.451791 
L 193.551058 183.114081 
L 194.563062 202.564794 
L 195.575066 202.351539 
L 196.58707 209.704551 
L 197.599074 204.245914 
L 198.611078 196.155154 
L 199.623081 200.487116 
L 200.635085 199.419918 
L 201.647089 194.777839 
L 202.659093 211.250412 
L 203.671097 207.000393 
L 204.683101 205.082962 
L 205.695105 210.593822 
L 206.707109 204.845547 
L 207.719113 204.879317 
L 208.731117 206.742774 
L 209.743121 200.319723 
L 210.755125 210.897934 
L 211.767129 207.867444 
L 212.779133 201.634824 
L 213.791137 205.460988 
L 214.803141 213.484893 
L 215.815145 201.605432 
L 216.827149 202.564794 
L 217.839152 204.477278 
L 218.851156 209.538938 
L 219.86316 208.490178 
L 220.875164 199.906419 
L 221.887168 215.632463 
L 222.899172 206.81609 
L 223.911176 210.854246 
L 224.92318 203.951774 
L 225.935184 209.415496 
L 226.947188 212.76338 
L 227.959192 200.236476 
L 228.971196 205.951135 
L 229.9832 198.043633 
L 230.995204 213.928752 
L 232.007208 205.669792 
L 233.019212 203.501462 
L 234.031216 210.941705 
L 235.043219 214.279904 
L 236.055223 200.599382 
L 237.067227 209.008672 
L 238.079231 206.742774 
L 239.091235 212.01757 
L 240.103239 200.375389 
L 241.115243 206.3436 
L 242.127247 203.37438 
L 243.139251 214.739284 
L 244.151255 215.739826 
L 245.163259 201.634824 
L 246.175263 205.185455 
L 247.187267 204.744533 
L 248.199271 196.039152 
L 249.211275 198.734622 
L 250.223279 214.894442 
L 251.235283 201.111363 
L 252.247286 205.357281 
L 253.25929 211.294847 
L 254.271294 204.278825 
L 255.283298 200.712189 
L 256.295302 199.233429 
L 257.307306 201.226679 
L 258.31931 202.749146 
L 259.331314 203.342718 
L 260.343318 205.704774 
L 261.355322 203.597229 
L 262.367326 205.774899 
L 263.37933 207.111678 
L 264.391334 204.913136 
L 265.403338 207.982949 
L 266.415342 212.621714 
L 267.427346 203.37438 
L 268.43935 198.917155 
L 269.451353 201.342566 
L 270.463357 205.774899 
L 271.475361 199.716017 
L 272.487365 202.321233 
L 273.499369 196.767833 
L 274.511373 206.852835 
L 275.523377 210.123792 
L 276.535381 205.048897 
L 277.547385 203.78995 
L 278.559389 200.070864 
L 279.571393 189.25789 
L 280.583397 209.292702 
L 281.595401 216.561169 
L 282.607405 208.767936 
L 284.631413 204.377841 
L 285.643417 193.415126 
L 286.655421 200.712189 
L 287.667424 205.014884 
L 288.679428 197.495342 
L 289.691432 205.254033 
L 290.703436 203.406086 
L 291.71544 206.852835 
L 292.727444 209.170551 
L 293.739448 210.03934 
L 294.751452 199.446682 
L 295.763456 201.226679 
L 296.77546 212.109505 
L 297.787464 205.880481 
L 298.799468 205.530381 
L 299.811472 195.17588 
L 300.823476 205.219718 
L 301.83548 213.387394 
L 302.847484 208.569202 
L 303.859488 211.563255 
L 304.871491 208.68824 
L 305.883495 203.661292 
L 306.895499 200.655717 
L 307.907503 212.90591 
L 308.919507 215.793692 
L 309.931511 205.810039 
L 310.943515 205.460988 
L 311.955519 202.626082 
L 312.967523 212.621714 
L 313.979527 209.746137 
L 314.991531 203.469626 
L 316.003535 207.752508 
L 317.015539 215.260537 
L 318.027543 205.810039 
L 319.039547 208.608812 
L 320.051551 204.811829 
L 321.063555 205.3918 
L 322.075558 207.335851 
L 323.087562 197.792813 
L 324.099566 206.12871 
L 325.11157 211.563255 
L 326.123574 206.379609 
L 327.135578 205.669792 
L 328.147582 205.810039 
L 329.159586 196.815634 
L 330.17159 211.473442 
L 331.183594 206.487965 
L 332.195598 205.530381 
L 333.207602 205.15124 
L 334.219606 206.307647 
L 335.23161 209.746137 
L 336.243614 193.664648 
L 337.255618 206.706202 
L 338.267622 208.847905 
L 339.279625 194.451245 
L 340.291629 204.016818 
L 341.303633 217.182397 
L 342.315637 208.490178 
L 343.327641 208.372146 
L 344.339645 204.049409 
L 345.351649 200.939454 
L 346.363653 203.342718 
L 347.375657 200.375389 
L 348.387661 201.371627 
L 349.399665 198.838751 
L 350.411669 202.903892 
L 351.423673 210.985556 
L 352.435677 206.779405 
L 353.447681 197.372506 
L 354.459685 201.693717 
L 355.471689 207.260888 
L 356.483693 201.605432 
L 357.495696 206.706202 
L 358.5077 202.997235 
L 359.519704 207.676198 
L 360.531708 196.672521 
L 361.543712 196.295121 
L 362.555716 203.693391 
L 363.56772 205.357281 
L 364.579724 203.311098 
L 365.591728 195.310082 
L 366.603732 203.342718 
L 367.615736 208.215687 
L 368.62774 202.718319 
L 369.639744 207.752508 
L 370.651748 208.807888 
L 371.663752 205.185455 
L 372.675756 201.990433 
L 373.68776 200.291942 
L 374.699763 205.810039 
L 375.711767 200.939454 
L 376.723771 201.053919 
L 377.735775 207.260888 
L 378.747779 207.074525 
L 379.759783 188.575558 
L 380.771787 209.829536 
L 381.783791 201.45903 
L 382.795795 210.421807 
L 383.807799 201.197796 
L 384.819803 214.381209 
L 385.831807 209.251916 
L 386.843811 201.488238 
L 387.855815 192.522356 
L 388.867819 201.342566 
L 389.879823 202.564794 
L 390.891827 201.371627 
L 391.90383 204.180229 
L 392.915834 210.29362 
L 393.927838 206.596828 
L 394.939842 193.874644 
L 395.951846 204.845547 
L 396.96385 204.643953 
L 397.975854 202.260737 
L 398.987858 206.926498 
L 399.999862 200.043376 
L 401.011866 209.746137 
L 402.02387 211.880345 
L 403.035874 204.913136 
L 404.047878 209.333563 
L 405.059882 209.008672 
L 406.071886 189.67707 
L 407.08389 213.978594 
L 408.095894 210.251047 
L 409.107898 193.229715 
L 410.119901 208.332932 
L 411.131905 202.05023 
L 412.143909 212.063493 
L 412.143909 212.063493 
" clip-path="url(#p0e815c49e6)" style="fill: none; stroke-dasharray: 5.55,2.4; stroke-dashoffset: 0; stroke: #ff7f0e; stroke-width: 1.5"/>
   </g>
   <g id="patch_3">
    <path d="M 71.098581 296.44 
L 71.098581 27.6 
" style="fill: none; stroke: #000000; stroke-width: 0.8; stroke-linejoin: miter; stroke-linecap: square"/>
   </g>
   <g id="patch_4">
    <path d="M 435.42 296.44 
L 435.42 27.6 
" style="fill: none; stroke: #000000; stroke-width: 0.8; stroke-linejoin: miter; stroke-linecap: square"/>
   </g>
   <g id="patch_5">
    <path d="M 71.098581 296.44 
L 435.42 296.44 
" style="fill: none; stroke: #000000; stroke-width: 0.8; stroke-linejoin: miter; stroke-linecap: square"/>
   </g>
   <g id="patch_6">
    <path d="M 71.098581 27.6 
L 435.42 27.6 
" style="fill: none; stroke: #000000; stroke-width: 0.8; stroke-linejoin: miter; stroke-linecap: square"/>
   </g>
   <g id="text_17">
    <!-- Dendrogram MLP Base Model -->
    <g transform="translate(137.19054 21.6) scale(0.14 -0.14)">
     <defs>
      <path id="DejaVuSans-Bold-44" d="M 1791 3756 
L 1791 909 
L 2222 909 
Q 2959 909 3348 1275 
Q 3738 1641 3738 2338 
Q 3738 3031 3350 3393 
Q 2963 3756 2222 3756 
L 1791 3756 
z
M 588 4666 
L 1856 4666 
Q 2919 4666 3439 4514 
Q 3959 4363 4331 4000 
Q 4659 3684 4818 3271 
Q 4978 2859 4978 2338 
Q 4978 1809 4818 1395 
Q 4659 981 4331 666 
Q 3956 303 3431 151 
Q 2906 0 1856 0 
L 588 0 
L 588 4666 
z
" transform="scale(0.015625)"/>
      <path id="DejaVuSans-Bold-65" d="M 4031 1759 
L 4031 1441 
L 1416 1441 
Q 1456 1047 1700 850 
Q 1944 653 2381 653 
Q 2734 653 3104 758 
Q 3475 863 3866 1075 
L 3866 213 
Q 3469 63 3072 -14 
Q 2675 -91 2278 -91 
Q 1328 -91 801 392 
Q 275 875 275 1747 
Q 275 2603 792 3093 
Q 1309 3584 2216 3584 
Q 3041 3584 3536 3087 
Q 4031 2591 4031 1759 
z
M 2881 2131 
Q 2881 2450 2695 2645 
Q 2509 2841 2209 2841 
Q 1884 2841 1681 2658 
Q 1478 2475 1428 2131 
L 2881 2131 
z
" transform="scale(0.015625)"/>
      <path id="DejaVuSans-Bold-6e" d="M 4056 2131 
L 4056 0 
L 2931 0 
L 2931 347 
L 2931 1631 
Q 2931 2084 2911 2256 
Q 2891 2428 2841 2509 
Q 2775 2619 2662 2680 
Q 2550 2741 2406 2741 
Q 2056 2741 1856 2470 
Q 1656 2200 1656 1722 
L 1656 0 
L 538 0 
L 538 3500 
L 1656 3500 
L 1656 2988 
Q 1909 3294 2193 3439 
Q 2478 3584 2822 3584 
Q 3428 3584 3742 3212 
Q 4056 2841 4056 2131 
z
" transform="scale(0.015625)"/>
      <path id="DejaVuSans-Bold-64" d="M 2919 2988 
L 2919 4863 
L 4044 4863 
L 4044 0 
L 2919 0 
L 2919 506 
Q 2688 197 2409 53 
Q 2131 -91 1766 -91 
Q 1119 -91 703 423 
Q 288 938 288 1747 
Q 288 2556 703 3070 
Q 1119 3584 1766 3584 
Q 2128 3584 2408 3439 
Q 2688 3294 2919 2988 
z
M 2181 722 
Q 2541 722 2730 984 
Q 2919 1247 2919 1747 
Q 2919 2247 2730 2509 
Q 2541 2772 2181 2772 
Q 1825 2772 1636 2509 
Q 1447 2247 1447 1747 
Q 1447 1247 1636 984 
Q 1825 722 2181 722 
z
" transform="scale(0.015625)"/>
      <path id="DejaVuSans-Bold-72" d="M 3138 2547 
Q 2991 2616 2845 2648 
Q 2700 2681 2553 2681 
Q 2122 2681 1889 2404 
Q 1656 2128 1656 1613 
L 1656 0 
L 538 0 
L 538 3500 
L 1656 3500 
L 1656 2925 
Q 1872 3269 2151 3426 
Q 2431 3584 2822 3584 
Q 2878 3584 2943 3579 
Q 3009 3575 3134 3559 
L 3138 2547 
z
" transform="scale(0.015625)"/>
      <path id="DejaVuSans-Bold-67" d="M 2919 594 
Q 2688 288 2409 144 
Q 2131 0 1766 0 
Q 1125 0 706 504 
Q 288 1009 288 1791 
Q 288 2575 706 3076 
Q 1125 3578 1766 3578 
Q 2131 3578 2409 3434 
Q 2688 3291 2919 2981 
L 2919 3500 
L 4044 3500 
L 4044 353 
Q 4044 -491 3511 -936 
Q 2978 -1381 1966 -1381 
Q 1638 -1381 1331 -1331 
Q 1025 -1281 716 -1178 
L 716 -306 
Q 1009 -475 1290 -558 
Q 1572 -641 1856 -641 
Q 2406 -641 2662 -400 
Q 2919 -159 2919 353 
L 2919 594 
z
M 2181 2772 
Q 1834 2772 1640 2515 
Q 1447 2259 1447 1791 
Q 1447 1309 1634 1061 
Q 1822 813 2181 813 
Q 2531 813 2725 1069 
Q 2919 1325 2919 1791 
Q 2919 2259 2725 2515 
Q 2531 2772 2181 2772 
z
" transform="scale(0.015625)"/>
      <path id="DejaVuSans-Bold-61" d="M 2106 1575 
Q 1756 1575 1579 1456 
Q 1403 1338 1403 1106 
Q 1403 894 1545 773 
Q 1688 653 1941 653 
Q 2256 653 2472 879 
Q 2688 1106 2688 1447 
L 2688 1575 
L 2106 1575 
z
M 3816 1997 
L 3816 0 
L 2688 0 
L 2688 519 
Q 2463 200 2181 54 
Q 1900 -91 1497 -91 
Q 953 -91 614 226 
Q 275 544 275 1050 
Q 275 1666 698 1953 
Q 1122 2241 2028 2241 
L 2688 2241 
L 2688 2328 
Q 2688 2594 2478 2717 
Q 2269 2841 1825 2841 
Q 1466 2841 1156 2769 
Q 847 2697 581 2553 
L 581 3406 
Q 941 3494 1303 3539 
Q 1666 3584 2028 3584 
Q 2975 3584 3395 3211 
Q 3816 2838 3816 1997 
z
" transform="scale(0.015625)"/>
      <path id="DejaVuSans-Bold-6d" d="M 3781 2919 
Q 3994 3244 4286 3414 
Q 4578 3584 4928 3584 
Q 5531 3584 5847 3212 
Q 6163 2841 6163 2131 
L 6163 0 
L 5038 0 
L 5038 1825 
Q 5041 1866 5042 1909 
Q 5044 1953 5044 2034 
Q 5044 2406 4934 2573 
Q 4825 2741 4581 2741 
Q 4263 2741 4089 2478 
Q 3916 2216 3909 1719 
L 3909 0 
L 2784 0 
L 2784 1825 
Q 2784 2406 2684 2573 
Q 2584 2741 2328 2741 
Q 2006 2741 1831 2477 
Q 1656 2213 1656 1722 
L 1656 0 
L 531 0 
L 531 3500 
L 1656 3500 
L 1656 2988 
Q 1863 3284 2130 3434 
Q 2397 3584 2719 3584 
Q 3081 3584 3359 3409 
Q 3638 3234 3781 2919 
z
" transform="scale(0.015625)"/>
      <path id="DejaVuSans-Bold-50" d="M 588 4666 
L 2584 4666 
Q 3475 4666 3951 4270 
Q 4428 3875 4428 3144 
Q 4428 2409 3951 2014 
Q 3475 1619 2584 1619 
L 1791 1619 
L 1791 0 
L 588 0 
L 588 4666 
z
M 1791 3794 
L 1791 2491 
L 2456 2491 
Q 2806 2491 2997 2661 
Q 3188 2831 3188 3144 
Q 3188 3456 2997 3625 
Q 2806 3794 2456 3794 
L 1791 3794 
z
" transform="scale(0.015625)"/>
      <path id="DejaVuSans-Bold-42" d="M 2456 2859 
Q 2741 2859 2887 2984 
Q 3034 3109 3034 3353 
Q 3034 3594 2887 3720 
Q 2741 3847 2456 3847 
L 1791 3847 
L 1791 2859 
L 2456 2859 
z
M 2497 819 
Q 2859 819 3042 972 
Q 3225 1125 3225 1434 
Q 3225 1738 3044 1889 
Q 2863 2041 2497 2041 
L 1791 2041 
L 1791 819 
L 2497 819 
z
M 3616 2497 
Q 4003 2384 4215 2081 
Q 4428 1778 4428 1338 
Q 4428 663 3972 331 
Q 3516 0 2584 0 
L 588 0 
L 588 4666 
L 2394 4666 
Q 3366 4666 3802 4372 
Q 4238 4078 4238 3431 
Q 4238 3091 4078 2852 
Q 3919 2613 3616 2497 
z
" transform="scale(0.015625)"/>
      <path id="DejaVuSans-Bold-6c" d="M 538 4863 
L 1656 4863 
L 1656 0 
L 538 0 
L 538 4863 
z
" transform="scale(0.015625)"/>
     </defs>
     <use xlink:href="#DejaVuSans-Bold-44"/>
     <use xlink:href="#DejaVuSans-Bold-65" transform="translate(83.007812 0)"/>
     <use xlink:href="#DejaVuSans-Bold-6e" transform="translate(150.830078 0)"/>
     <use xlink:href="#DejaVuSans-Bold-64" transform="translate(222.021484 0)"/>
     <use xlink:href="#DejaVuSans-Bold-72" transform="translate(293.603516 0)"/>
     <use xlink:href="#DejaVuSans-Bold-6f" transform="translate(342.919922 0)"/>
     <use xlink:href="#DejaVuSans-Bold-67" transform="translate(411.621094 0)"/>
     <use xlink:href="#DejaVuSans-Bold-72" transform="translate(483.203125 0)"/>
     <use xlink:href="#DejaVuSans-Bold-61" transform="translate(532.519531 0)"/>
     <use xlink:href="#DejaVuSans-Bold-6d" transform="translate(600 0)"/>
     <use xlink:href="#DejaVuSans-Bold-20" transform="translate(704.199219 0)"/>
     <use xlink:href="#DejaVuSans-Bold-4d" transform="translate(739.013672 0)"/>
     <use xlink:href="#DejaVuSans-Bold-4c" transform="translate(838.525391 0)"/>
     <use xlink:href="#DejaVuSans-Bold-50" transform="translate(902.246094 0)"/>
     <use xlink:href="#DejaVuSans-Bold-20" transform="translate(975.537109 0)"/>
     <use xlink:href="#DejaVuSans-Bold-42" transform="translate(1010.351562 0)"/>
     <use xlink:href="#DejaVuSans-Bold-61" transform="translate(1086.572266 0)"/>
     <use xlink:href="#DejaVuSans-Bold-73" transform="translate(1154.052734 0)"/>
     <use xlink:href="#DejaVuSans-Bold-65" transform="translate(1213.574219 0)"/>
     <use xlink:href="#DejaVuSans-Bold-20" transform="translate(1281.396484 0)"/>
     <use xlink:href="#DejaVuSans-Bold-4d" transform="translate(1316.210938 0)"/>
     <use xlink:href="#DejaVuSans-Bold-6f" transform="translate(1415.722656 0)"/>
     <use xlink:href="#DejaVuSans-Bold-64" transform="translate(1484.423828 0)"/>
     <use xlink:href="#DejaVuSans-Bold-65" transform="translate(1556.005859 0)"/>
     <use xlink:href="#DejaVuSans-Bold-6c" transform="translate(1623.828125 0)"/>
    </g>
   </g>
   <g id="legend_1">
    <g id="patch_7">
     <path d="M 301.164375 79.89875 
L 425.62 79.89875 
Q 428.42 79.89875 428.42 77.09875 
L 428.42 37.4 
Q 428.42 34.6 425.62 34.6 
L 301.164375 34.6 
Q 298.364375 34.6 298.364375 37.4 
L 298.364375 77.09875 
Q 298.364375 79.89875 301.164375 79.89875 
z
" style="fill: #ffffff; opacity: 0.8; stroke: #cccccc; stroke-linejoin: miter"/>
    </g>
    <g id="line2d_71">
     <path d="M 303.964375 45.937812 
L 317.964375 45.937812 
L 331.964375 45.937812 
" style="fill: none; stroke: #1f77b4; stroke-width: 1.75; stroke-linecap: square"/>
    </g>
    <g id="text_18">
     <!-- Train -->
     <g transform="translate(343.164375 50.837812) scale(0.14 -0.14)">
      <defs>
       <path id="DejaVuSans-Bold-54" d="M 31 4666 
L 4331 4666 
L 4331 3756 
L 2784 3756 
L 2784 0 
L 1581 0 
L 1581 3756 
L 31 3756 
L 31 4666 
z
" transform="scale(0.015625)"/>
       <path id="DejaVuSans-Bold-69" d="M 538 3500 
L 1656 3500 
L 1656 0 
L 538 0 
L 538 3500 
z
M 538 4863 
L 1656 4863 
L 1656 3950 
L 538 3950 
L 538 4863 
z
" transform="scale(0.015625)"/>
      </defs>
      <use xlink:href="#DejaVuSans-Bold-54"/>
      <use xlink:href="#DejaVuSans-Bold-72" transform="translate(57.212891 0)"/>
      <use xlink:href="#DejaVuSans-Bold-61" transform="translate(106.529297 0)"/>
      <use xlink:href="#DejaVuSans-Bold-69" transform="translate(174.009766 0)"/>
      <use xlink:href="#DejaVuSans-Bold-6e" transform="translate(208.287109 0)"/>
     </g>
    </g>
    <g id="line2d_72">
     <path d="M 303.964375 66.487187 
L 317.964375 66.487187 
L 331.964375 66.487187 
" style="fill: none; stroke-dasharray: 5.55,2.4; stroke-dashoffset: 0; stroke: #ff7f0e; stroke-width: 1.5"/>
    </g>
    <g id="text_19">
     <!-- Validation -->
     <g transform="translate(343.164375 71.387187) scale(0.14 -0.14)">
      <defs>
       <path id="DejaVuSans-Bold-56" d="M 31 4666 
L 1241 4666 
L 2478 1222 
L 3713 4666 
L 4922 4666 
L 3194 0 
L 1759 0 
L 31 4666 
z
" transform="scale(0.015625)"/>
       <path id="DejaVuSans-Bold-74" d="M 1759 4494 
L 1759 3500 
L 2913 3500 
L 2913 2700 
L 1759 2700 
L 1759 1216 
Q 1759 972 1856 886 
Q 1953 800 2241 800 
L 2816 800 
L 2816 0 
L 1856 0 
Q 1194 0 917 276 
Q 641 553 641 1216 
L 641 2700 
L 84 2700 
L 84 3500 
L 641 3500 
L 641 4494 
L 1759 4494 
z
" transform="scale(0.015625)"/>
      </defs>
      <use xlink:href="#DejaVuSans-Bold-56"/>
      <use xlink:href="#DejaVuSans-Bold-61" transform="translate(71.892578 0)"/>
      <use xlink:href="#DejaVuSans-Bold-6c" transform="translate(139.373047 0)"/>
      <use xlink:href="#DejaVuSans-Bold-69" transform="translate(173.650391 0)"/>
      <use xlink:href="#DejaVuSans-Bold-64" transform="translate(207.927734 0)"/>
      <use xlink:href="#DejaVuSans-Bold-61" transform="translate(279.509766 0)"/>
      <use xlink:href="#DejaVuSans-Bold-74" transform="translate(346.990234 0)"/>
      <use xlink:href="#DejaVuSans-Bold-69" transform="translate(394.792969 0)"/>
      <use xlink:href="#DejaVuSans-Bold-6f" transform="translate(429.070312 0)"/>
      <use xlink:href="#DejaVuSans-Bold-6e" transform="translate(497.771484 0)"/>
     </g>
    </g>
   </g>
  </g>
 </g>
 <defs>
  <clipPath id="p0e815c49e6">
   <rect x="71.098581" y="27.6" width="364.321419" height="268.84"/>
  </clipPath>
 </defs>
</svg>
