<?xml version="1.0" encoding="utf-8" standalone="no"?>
<!DOCTYPE svg PUBLIC "-//W3C//DTD SVG 1.1//EN"
  "http://www.w3.org/Graphics/SVG/1.1/DTD/svg11.dtd">
<svg xmlns:xlink="http://www.w3.org/1999/xlink" width="460.8pt" height="345.6pt" viewBox="0 0 460.8 345.6" xmlns="http://www.w3.org/2000/svg" version="1.1">
 <metadata>
  <rdf:RDF xmlns:dc="http://purl.org/dc/elements/1.1/" xmlns:cc="http://creativecommons.org/ns#" xmlns:rdf="http://www.w3.org/1999/02/22-rdf-syntax-ns#">
   <cc:Work>
    <dc:type rdf:resource="http://purl.org/dc/dcmitype/StillImage"/>
    <dc:date>2025-06-24T12:33:22.611967</dc:date>
    <dc:format>image/svg+xml</dc:format>
    <dc:creator>
     <cc:Agent>
      <dc:title>Matplotlib v3.10.0, https://matplotlib.org/</dc:title>
     </cc:Agent>
    </dc:creator>
   </cc:Work>
  </rdf:RDF>
 </metadata>
 <defs>
  <style type="text/css">*{stroke-linejoin: round; stroke-linecap: butt}</style>
 </defs>
 <g id="figure_1">
  <g id="patch_1">
   <path d="M 0 345.6 
L 460.8 345.6 
L 460.8 0 
L 0 0 
z
" style="fill: #ffffff"/>
  </g>
  <g id="axes_1">
   <g id="patch_2">
    <path d="M 71.098581 296.44 
L 435.42 296.44 
L 435.42 27.6 
L 71.098581 27.6 
z
" style="fill: #ffffff"/>
   </g>
   <g id="matplotlib.axis_1">
    <g id="xtick_1">
     <g id="line2d_1">
      <path d="M 81.21862 296.44 
L 81.21862 27.6 
" clip-path="url(#pc37013b9df)" style="fill: none; stroke: #b0b0b0; stroke-width: 0.8; stroke-linecap: square"/>
     </g>
     <g id="line2d_2">
      <defs>
       <path id="m67bf31a326" d="M 0 0 
L 0 3.5 
" style="stroke: #000000; stroke-width: 0.8"/>
      </defs>
      <g>
       <use xlink:href="#m67bf31a326" x="81.21862" y="296.44" style="stroke: #000000; stroke-width: 0.8"/>
      </g>
     </g>
     <g id="text_1">
      <!-- 0 -->
      <g transform="translate(76.348152 314.077812) scale(0.14 -0.14)">
       <defs>
        <path id="DejaVuSans-Bold-30" d="M 2944 2338 
Q 2944 3213 2780 3570 
Q 2616 3928 2228 3928 
Q 1841 3928 1675 3570 
Q 1509 3213 1509 2338 
Q 1509 1453 1675 1090 
Q 1841 728 2228 728 
Q 2613 728 2778 1090 
Q 2944 1453 2944 2338 
z
M 4147 2328 
Q 4147 1169 3647 539 
Q 3147 -91 2228 -91 
Q 1306 -91 806 539 
Q 306 1169 306 2328 
Q 306 3491 806 4120 
Q 1306 4750 2228 4750 
Q 3147 4750 3647 4120 
Q 4147 3491 4147 2328 
z
" transform="scale(0.015625)"/>
       </defs>
       <use xlink:href="#DejaVuSans-Bold-30"/>
      </g>
     </g>
    </g>
    <g id="xtick_2">
     <g id="line2d_3">
      <path d="M 131.818817 296.44 
L 131.818817 27.6 
" clip-path="url(#pc37013b9df)" style="fill: none; stroke: #b0b0b0; stroke-width: 0.8; stroke-linecap: square"/>
     </g>
     <g id="line2d_4">
      <g>
       <use xlink:href="#m67bf31a326" x="131.818817" y="296.44" style="stroke: #000000; stroke-width: 0.8"/>
      </g>
     </g>
     <g id="text_2">
      <!-- 50 -->
      <g transform="translate(122.07788 314.077812) scale(0.14 -0.14)">
       <defs>
        <path id="DejaVuSans-Bold-35" d="M 678 4666 
L 3669 4666 
L 3669 3781 
L 1638 3781 
L 1638 3059 
Q 1775 3097 1914 3117 
Q 2053 3138 2203 3138 
Q 3056 3138 3531 2711 
Q 4006 2284 4006 1522 
Q 4006 766 3489 337 
Q 2972 -91 2053 -91 
Q 1656 -91 1267 -14 
Q 878 63 494 219 
L 494 1166 
Q 875 947 1217 837 
Q 1559 728 1863 728 
Q 2300 728 2551 942 
Q 2803 1156 2803 1522 
Q 2803 1891 2551 2103 
Q 2300 2316 1863 2316 
Q 1603 2316 1309 2248 
Q 1016 2181 678 2041 
L 678 4666 
z
" transform="scale(0.015625)"/>
       </defs>
       <use xlink:href="#DejaVuSans-Bold-35"/>
       <use xlink:href="#DejaVuSans-Bold-30" transform="translate(69.580078 0)"/>
      </g>
     </g>
    </g>
    <g id="xtick_3">
     <g id="line2d_5">
      <path d="M 182.419014 296.44 
L 182.419014 27.6 
" clip-path="url(#pc37013b9df)" style="fill: none; stroke: #b0b0b0; stroke-width: 0.8; stroke-linecap: square"/>
     </g>
     <g id="line2d_6">
      <g>
       <use xlink:href="#m67bf31a326" x="182.419014" y="296.44" style="stroke: #000000; stroke-width: 0.8"/>
      </g>
     </g>
     <g id="text_3">
      <!-- 100 -->
      <g transform="translate(167.807608 314.077812) scale(0.14 -0.14)">
       <defs>
        <path id="DejaVuSans-Bold-31" d="M 750 831 
L 1813 831 
L 1813 3847 
L 722 3622 
L 722 4441 
L 1806 4666 
L 2950 4666 
L 2950 831 
L 4013 831 
L 4013 0 
L 750 0 
L 750 831 
z
" transform="scale(0.015625)"/>
       </defs>
       <use xlink:href="#DejaVuSans-Bold-31"/>
       <use xlink:href="#DejaVuSans-Bold-30" transform="translate(69.580078 0)"/>
       <use xlink:href="#DejaVuSans-Bold-30" transform="translate(139.160156 0)"/>
      </g>
     </g>
    </g>
    <g id="xtick_4">
     <g id="line2d_7">
      <path d="M 233.019212 296.44 
L 233.019212 27.6 
" clip-path="url(#pc37013b9df)" style="fill: none; stroke: #b0b0b0; stroke-width: 0.8; stroke-linecap: square"/>
     </g>
     <g id="line2d_8">
      <g>
       <use xlink:href="#m67bf31a326" x="233.019212" y="296.44" style="stroke: #000000; stroke-width: 0.8"/>
      </g>
     </g>
     <g id="text_4">
      <!-- 150 -->
      <g transform="translate(218.407805 314.077812) scale(0.14 -0.14)">
       <use xlink:href="#DejaVuSans-Bold-31"/>
       <use xlink:href="#DejaVuSans-Bold-35" transform="translate(69.580078 0)"/>
       <use xlink:href="#DejaVuSans-Bold-30" transform="translate(139.160156 0)"/>
      </g>
     </g>
    </g>
    <g id="xtick_5">
     <g id="line2d_9">
      <path d="M 283.619409 296.44 
L 283.619409 27.6 
" clip-path="url(#pc37013b9df)" style="fill: none; stroke: #b0b0b0; stroke-width: 0.8; stroke-linecap: square"/>
     </g>
     <g id="line2d_10">
      <g>
       <use xlink:href="#m67bf31a326" x="283.619409" y="296.44" style="stroke: #000000; stroke-width: 0.8"/>
      </g>
     </g>
     <g id="text_5">
      <!-- 200 -->
      <g transform="translate(269.008002 314.077812) scale(0.14 -0.14)">
       <defs>
        <path id="DejaVuSans-Bold-32" d="M 1844 884 
L 3897 884 
L 3897 0 
L 506 0 
L 506 884 
L 2209 2388 
Q 2438 2594 2547 2791 
Q 2656 2988 2656 3200 
Q 2656 3528 2436 3728 
Q 2216 3928 1850 3928 
Q 1569 3928 1234 3808 
Q 900 3688 519 3450 
L 519 4475 
Q 925 4609 1322 4679 
Q 1719 4750 2100 4750 
Q 2938 4750 3402 4381 
Q 3866 4013 3866 3353 
Q 3866 2972 3669 2642 
Q 3472 2313 2841 1759 
L 1844 884 
z
" transform="scale(0.015625)"/>
       </defs>
       <use xlink:href="#DejaVuSans-Bold-32"/>
       <use xlink:href="#DejaVuSans-Bold-30" transform="translate(69.580078 0)"/>
       <use xlink:href="#DejaVuSans-Bold-30" transform="translate(139.160156 0)"/>
      </g>
     </g>
    </g>
    <g id="xtick_6">
     <g id="line2d_11">
      <path d="M 334.219606 296.44 
L 334.219606 27.6 
" clip-path="url(#pc37013b9df)" style="fill: none; stroke: #b0b0b0; stroke-width: 0.8; stroke-linecap: square"/>
     </g>
     <g id="line2d_12">
      <g>
       <use xlink:href="#m67bf31a326" x="334.219606" y="296.44" style="stroke: #000000; stroke-width: 0.8"/>
      </g>
     </g>
     <g id="text_6">
      <!-- 250 -->
      <g transform="translate(319.6082 314.077812) scale(0.14 -0.14)">
       <use xlink:href="#DejaVuSans-Bold-32"/>
       <use xlink:href="#DejaVuSans-Bold-35" transform="translate(69.580078 0)"/>
       <use xlink:href="#DejaVuSans-Bold-30" transform="translate(139.160156 0)"/>
      </g>
     </g>
    </g>
    <g id="xtick_7">
     <g id="line2d_13">
      <path d="M 384.819803 296.44 
L 384.819803 27.6 
" clip-path="url(#pc37013b9df)" style="fill: none; stroke: #b0b0b0; stroke-width: 0.8; stroke-linecap: square"/>
     </g>
     <g id="line2d_14">
      <g>
       <use xlink:href="#m67bf31a326" x="384.819803" y="296.44" style="stroke: #000000; stroke-width: 0.8"/>
      </g>
     </g>
     <g id="text_7">
      <!-- 300 -->
      <g transform="translate(370.208397 314.077812) scale(0.14 -0.14)">
       <defs>
        <path id="DejaVuSans-Bold-33" d="M 2981 2516 
Q 3453 2394 3698 2092 
Q 3944 1791 3944 1325 
Q 3944 631 3412 270 
Q 2881 -91 1863 -91 
Q 1503 -91 1142 -33 
Q 781 25 428 141 
L 428 1069 
Q 766 900 1098 814 
Q 1431 728 1753 728 
Q 2231 728 2486 893 
Q 2741 1059 2741 1369 
Q 2741 1688 2480 1852 
Q 2219 2016 1709 2016 
L 1228 2016 
L 1228 2791 
L 1734 2791 
Q 2188 2791 2409 2933 
Q 2631 3075 2631 3366 
Q 2631 3634 2415 3781 
Q 2200 3928 1806 3928 
Q 1516 3928 1219 3862 
Q 922 3797 628 3669 
L 628 4550 
Q 984 4650 1334 4700 
Q 1684 4750 2022 4750 
Q 2931 4750 3382 4451 
Q 3834 4153 3834 3553 
Q 3834 3144 3618 2883 
Q 3403 2622 2981 2516 
z
" transform="scale(0.015625)"/>
       </defs>
       <use xlink:href="#DejaVuSans-Bold-33"/>
       <use xlink:href="#DejaVuSans-Bold-30" transform="translate(69.580078 0)"/>
       <use xlink:href="#DejaVuSans-Bold-30" transform="translate(139.160156 0)"/>
      </g>
     </g>
    </g>
    <g id="xtick_8">
     <g id="line2d_15">
      <path d="M 435.42 296.44 
L 435.42 27.6 
" clip-path="url(#pc37013b9df)" style="fill: none; stroke: #b0b0b0; stroke-width: 0.8; stroke-linecap: square"/>
     </g>
     <g id="line2d_16">
      <g>
       <use xlink:href="#m67bf31a326" x="435.42" y="296.44" style="stroke: #000000; stroke-width: 0.8"/>
      </g>
     </g>
     <g id="text_8">
      <!-- 350 -->
      <g transform="translate(420.808594 314.077812) scale(0.14 -0.14)">
       <use xlink:href="#DejaVuSans-Bold-33"/>
       <use xlink:href="#DejaVuSans-Bold-35" transform="translate(69.580078 0)"/>
       <use xlink:href="#DejaVuSans-Bold-30" transform="translate(139.160156 0)"/>
      </g>
     </g>
    </g>
    <g id="text_9">
     <!-- Epoch -->
     <g transform="translate(229.524915 331.627187) scale(0.14 -0.14)">
      <defs>
       <path id="DejaVuSans-Bold-45" d="M 588 4666 
L 3834 4666 
L 3834 3756 
L 1791 3756 
L 1791 2888 
L 3713 2888 
L 3713 1978 
L 1791 1978 
L 1791 909 
L 3903 909 
L 3903 0 
L 588 0 
L 588 4666 
z
" transform="scale(0.015625)"/>
       <path id="DejaVuSans-Bold-70" d="M 1656 506 
L 1656 -1331 
L 538 -1331 
L 538 3500 
L 1656 3500 
L 1656 2988 
Q 1888 3294 2169 3439 
Q 2450 3584 2816 3584 
Q 3463 3584 3878 3070 
Q 4294 2556 4294 1747 
Q 4294 938 3878 423 
Q 3463 -91 2816 -91 
Q 2450 -91 2169 54 
Q 1888 200 1656 506 
z
M 2400 2772 
Q 2041 2772 1848 2508 
Q 1656 2244 1656 1747 
Q 1656 1250 1848 986 
Q 2041 722 2400 722 
Q 2759 722 2948 984 
Q 3138 1247 3138 1747 
Q 3138 2247 2948 2509 
Q 2759 2772 2400 2772 
z
" transform="scale(0.015625)"/>
       <path id="DejaVuSans-Bold-6f" d="M 2203 2784 
Q 1831 2784 1636 2517 
Q 1441 2250 1441 1747 
Q 1441 1244 1636 976 
Q 1831 709 2203 709 
Q 2569 709 2762 976 
Q 2956 1244 2956 1747 
Q 2956 2250 2762 2517 
Q 2569 2784 2203 2784 
z
M 2203 3584 
Q 3106 3584 3614 3096 
Q 4122 2609 4122 1747 
Q 4122 884 3614 396 
Q 3106 -91 2203 -91 
Q 1297 -91 786 396 
Q 275 884 275 1747 
Q 275 2609 786 3096 
Q 1297 3584 2203 3584 
z
" transform="scale(0.015625)"/>
       <path id="DejaVuSans-Bold-63" d="M 3366 3391 
L 3366 2478 
Q 3138 2634 2908 2709 
Q 2678 2784 2431 2784 
Q 1963 2784 1702 2511 
Q 1441 2238 1441 1747 
Q 1441 1256 1702 982 
Q 1963 709 2431 709 
Q 2694 709 2930 787 
Q 3166 866 3366 1019 
L 3366 103 
Q 3103 6 2833 -42 
Q 2563 -91 2291 -91 
Q 1344 -91 809 395 
Q 275 881 275 1747 
Q 275 2613 809 3098 
Q 1344 3584 2291 3584 
Q 2566 3584 2833 3536 
Q 3100 3488 3366 3391 
z
" transform="scale(0.015625)"/>
       <path id="DejaVuSans-Bold-68" d="M 4056 2131 
L 4056 0 
L 2931 0 
L 2931 347 
L 2931 1625 
Q 2931 2084 2911 2256 
Q 2891 2428 2841 2509 
Q 2775 2619 2662 2680 
Q 2550 2741 2406 2741 
Q 2056 2741 1856 2470 
Q 1656 2200 1656 1722 
L 1656 0 
L 538 0 
L 538 4863 
L 1656 4863 
L 1656 2988 
Q 1909 3294 2193 3439 
Q 2478 3584 2822 3584 
Q 3428 3584 3742 3212 
Q 4056 2841 4056 2131 
z
" transform="scale(0.015625)"/>
      </defs>
      <use xlink:href="#DejaVuSans-Bold-45"/>
      <use xlink:href="#DejaVuSans-Bold-70" transform="translate(68.310547 0)"/>
      <use xlink:href="#DejaVuSans-Bold-6f" transform="translate(139.892578 0)"/>
      <use xlink:href="#DejaVuSans-Bold-63" transform="translate(208.59375 0)"/>
      <use xlink:href="#DejaVuSans-Bold-68" transform="translate(267.871094 0)"/>
     </g>
    </g>
   </g>
   <g id="matplotlib.axis_2">
    <g id="ytick_1">
     <g id="line2d_17">
      <path d="M 71.098581 296.44 
L 435.42 296.44 
" clip-path="url(#pc37013b9df)" style="fill: none; stroke: #b0b0b0; stroke-width: 0.8; stroke-linecap: square"/>
     </g>
     <g id="line2d_18">
      <defs>
       <path id="m705fbe05b2" d="M 0 0 
L -3.5 0 
" style="stroke: #000000; stroke-width: 0.8"/>
      </defs>
      <g>
       <use xlink:href="#m705fbe05b2" x="71.098581" y="296.44" style="stroke: #000000; stroke-width: 0.8"/>
      </g>
     </g>
     <g id="text_10">
      <!-- $\mathdefault{10^{-4}}$ -->
      <g transform="translate(28.958581 301.758906) scale(0.14 -0.14)">
       <defs>
        <path id="DejaVuSans-Bold-2212" d="M 678 2375 
L 4684 2375 
L 4684 1638 
L 678 1638 
L 678 2375 
z
" transform="scale(0.015625)"/>
        <path id="DejaVuSans-Bold-34" d="M 2356 3675 
L 1038 1722 
L 2356 1722 
L 2356 3675 
z
M 2156 4666 
L 3494 4666 
L 3494 1722 
L 4159 1722 
L 4159 850 
L 3494 850 
L 3494 0 
L 2356 0 
L 2356 850 
L 288 850 
L 288 1881 
L 2156 4666 
z
" transform="scale(0.015625)"/>
       </defs>
       <use xlink:href="#DejaVuSans-Bold-31" transform="translate(0 0.684375)"/>
       <use xlink:href="#DejaVuSans-Bold-30" transform="translate(69.580078 0.684375)"/>
       <use xlink:href="#DejaVuSans-Bold-2212" transform="translate(140.117188 38.965625) scale(0.7)"/>
       <use xlink:href="#DejaVuSans-Bold-34" transform="translate(198.769531 38.965625) scale(0.7)"/>
      </g>
     </g>
    </g>
    <g id="ytick_2">
     <g id="line2d_19">
      <path d="M 71.098581 242.672 
L 435.42 242.672 
" clip-path="url(#pc37013b9df)" style="fill: none; stroke: #b0b0b0; stroke-width: 0.8; stroke-linecap: square"/>
     </g>
     <g id="line2d_20">
      <g>
       <use xlink:href="#m705fbe05b2" x="71.098581" y="242.672" style="stroke: #000000; stroke-width: 0.8"/>
      </g>
     </g>
     <g id="text_11">
      <!-- $\mathdefault{10^{-3}}$ -->
      <g transform="translate(28.958581 247.990906) scale(0.14 -0.14)">
       <use xlink:href="#DejaVuSans-Bold-31" transform="translate(0 0.765625)"/>
       <use xlink:href="#DejaVuSans-Bold-30" transform="translate(69.580078 0.765625)"/>
       <use xlink:href="#DejaVuSans-Bold-2212" transform="translate(140.117188 39.046875) scale(0.7)"/>
       <use xlink:href="#DejaVuSans-Bold-33" transform="translate(198.769531 39.046875) scale(0.7)"/>
      </g>
     </g>
    </g>
    <g id="ytick_3">
     <g id="line2d_21">
      <path d="M 71.098581 188.904 
L 435.42 188.904 
" clip-path="url(#pc37013b9df)" style="fill: none; stroke: #b0b0b0; stroke-width: 0.8; stroke-linecap: square"/>
     </g>
     <g id="line2d_22">
      <g>
       <use xlink:href="#m705fbe05b2" x="71.098581" y="188.904" style="stroke: #000000; stroke-width: 0.8"/>
      </g>
     </g>
     <g id="text_12">
      <!-- $\mathdefault{10^{-2}}$ -->
      <g transform="translate(28.958581 194.222906) scale(0.14 -0.14)">
       <use xlink:href="#DejaVuSans-Bold-31" transform="translate(0 0.765625)"/>
       <use xlink:href="#DejaVuSans-Bold-30" transform="translate(69.580078 0.765625)"/>
       <use xlink:href="#DejaVuSans-Bold-2212" transform="translate(140.117188 39.046875) scale(0.7)"/>
       <use xlink:href="#DejaVuSans-Bold-32" transform="translate(198.769531 39.046875) scale(0.7)"/>
      </g>
     </g>
    </g>
    <g id="ytick_4">
     <g id="line2d_23">
      <path d="M 71.098581 135.136 
L 435.42 135.136 
" clip-path="url(#pc37013b9df)" style="fill: none; stroke: #b0b0b0; stroke-width: 0.8; stroke-linecap: square"/>
     </g>
     <g id="line2d_24">
      <g>
       <use xlink:href="#m705fbe05b2" x="71.098581" y="135.136" style="stroke: #000000; stroke-width: 0.8"/>
      </g>
     </g>
     <g id="text_13">
      <!-- $\mathdefault{10^{-1}}$ -->
      <g transform="translate(28.958581 140.454906) scale(0.14 -0.14)">
       <use xlink:href="#DejaVuSans-Bold-31" transform="translate(0 0.684375)"/>
       <use xlink:href="#DejaVuSans-Bold-30" transform="translate(69.580078 0.684375)"/>
       <use xlink:href="#DejaVuSans-Bold-2212" transform="translate(140.117188 38.965625) scale(0.7)"/>
       <use xlink:href="#DejaVuSans-Bold-31" transform="translate(198.769531 38.965625) scale(0.7)"/>
      </g>
     </g>
    </g>
    <g id="ytick_5">
     <g id="line2d_25">
      <path d="M 71.098581 81.368 
L 435.42 81.368 
" clip-path="url(#pc37013b9df)" style="fill: none; stroke: #b0b0b0; stroke-width: 0.8; stroke-linecap: square"/>
     </g>
     <g id="line2d_26">
      <g>
       <use xlink:href="#m705fbe05b2" x="71.098581" y="81.368" style="stroke: #000000; stroke-width: 0.8"/>
      </g>
     </g>
     <g id="text_14">
      <!-- $\mathdefault{10^{0}}$ -->
      <g transform="translate(37.218581 86.686906) scale(0.14 -0.14)">
       <use xlink:href="#DejaVuSans-Bold-31" transform="translate(0 0.765625)"/>
       <use xlink:href="#DejaVuSans-Bold-30" transform="translate(69.580078 0.765625)"/>
       <use xlink:href="#DejaVuSans-Bold-30" transform="translate(140.117188 39.046875) scale(0.7)"/>
      </g>
     </g>
    </g>
    <g id="ytick_6">
     <g id="line2d_27">
      <path d="M 71.098581 27.6 
L 435.42 27.6 
" clip-path="url(#pc37013b9df)" style="fill: none; stroke: #b0b0b0; stroke-width: 0.8; stroke-linecap: square"/>
     </g>
     <g id="line2d_28">
      <g>
       <use xlink:href="#m705fbe05b2" x="71.098581" y="27.6" style="stroke: #000000; stroke-width: 0.8"/>
      </g>
     </g>
     <g id="text_15">
      <!-- $\mathdefault{10^{1}}$ -->
      <g transform="translate(37.218581 32.918906) scale(0.14 -0.14)">
       <use xlink:href="#DejaVuSans-Bold-31" transform="translate(0 0.684375)"/>
       <use xlink:href="#DejaVuSans-Bold-30" transform="translate(69.580078 0.684375)"/>
       <use xlink:href="#DejaVuSans-Bold-31" transform="translate(140.117188 38.965625) scale(0.7)"/>
      </g>
     </g>
    </g>
    <g id="ytick_7">
     <g id="line2d_29">
      <defs>
       <path id="m21e3e48c25" d="M 0 0 
L -2 0 
" style="stroke: #000000; stroke-width: 0.6"/>
      </defs>
      <g>
       <use xlink:href="#m21e3e48c25" x="71.098581" y="280.254219" style="stroke: #000000; stroke-width: 0.6"/>
      </g>
     </g>
    </g>
    <g id="ytick_8">
     <g id="line2d_30">
      <g>
       <use xlink:href="#m21e3e48c25" x="71.098581" y="270.786144" style="stroke: #000000; stroke-width: 0.6"/>
      </g>
     </g>
    </g>
    <g id="ytick_9">
     <g id="line2d_31">
      <g>
       <use xlink:href="#m21e3e48c25" x="71.098581" y="264.068438" style="stroke: #000000; stroke-width: 0.6"/>
      </g>
     </g>
    </g>
    <g id="ytick_10">
     <g id="line2d_32">
      <g>
       <use xlink:href="#m21e3e48c25" x="71.098581" y="258.857781" style="stroke: #000000; stroke-width: 0.6"/>
      </g>
     </g>
    </g>
    <g id="ytick_11">
     <g id="line2d_33">
      <g>
       <use xlink:href="#m21e3e48c25" x="71.098581" y="254.600364" style="stroke: #000000; stroke-width: 0.6"/>
      </g>
     </g>
    </g>
    <g id="ytick_12">
     <g id="line2d_34">
      <g>
       <use xlink:href="#m21e3e48c25" x="71.098581" y="251.000769" style="stroke: #000000; stroke-width: 0.6"/>
      </g>
     </g>
    </g>
    <g id="ytick_13">
     <g id="line2d_35">
      <g>
       <use xlink:href="#m21e3e48c25" x="71.098581" y="247.882658" style="stroke: #000000; stroke-width: 0.6"/>
      </g>
     </g>
    </g>
    <g id="ytick_14">
     <g id="line2d_36">
      <g>
       <use xlink:href="#m21e3e48c25" x="71.098581" y="245.132289" style="stroke: #000000; stroke-width: 0.6"/>
      </g>
     </g>
    </g>
    <g id="ytick_15">
     <g id="line2d_37">
      <g>
       <use xlink:href="#m21e3e48c25" x="71.098581" y="226.486219" style="stroke: #000000; stroke-width: 0.6"/>
      </g>
     </g>
    </g>
    <g id="ytick_16">
     <g id="line2d_38">
      <g>
       <use xlink:href="#m21e3e48c25" x="71.098581" y="217.018144" style="stroke: #000000; stroke-width: 0.6"/>
      </g>
     </g>
    </g>
    <g id="ytick_17">
     <g id="line2d_39">
      <g>
       <use xlink:href="#m21e3e48c25" x="71.098581" y="210.300438" style="stroke: #000000; stroke-width: 0.6"/>
      </g>
     </g>
    </g>
    <g id="ytick_18">
     <g id="line2d_40">
      <g>
       <use xlink:href="#m21e3e48c25" x="71.098581" y="205.089781" style="stroke: #000000; stroke-width: 0.6"/>
      </g>
     </g>
    </g>
    <g id="ytick_19">
     <g id="line2d_41">
      <g>
       <use xlink:href="#m21e3e48c25" x="71.098581" y="200.832364" style="stroke: #000000; stroke-width: 0.6"/>
      </g>
     </g>
    </g>
    <g id="ytick_20">
     <g id="line2d_42">
      <g>
       <use xlink:href="#m21e3e48c25" x="71.098581" y="197.232769" style="stroke: #000000; stroke-width: 0.6"/>
      </g>
     </g>
    </g>
    <g id="ytick_21">
     <g id="line2d_43">
      <g>
       <use xlink:href="#m21e3e48c25" x="71.098581" y="194.114658" style="stroke: #000000; stroke-width: 0.6"/>
      </g>
     </g>
    </g>
    <g id="ytick_22">
     <g id="line2d_44">
      <g>
       <use xlink:href="#m21e3e48c25" x="71.098581" y="191.364289" style="stroke: #000000; stroke-width: 0.6"/>
      </g>
     </g>
    </g>
    <g id="ytick_23">
     <g id="line2d_45">
      <g>
       <use xlink:href="#m21e3e48c25" x="71.098581" y="172.718219" style="stroke: #000000; stroke-width: 0.6"/>
      </g>
     </g>
    </g>
    <g id="ytick_24">
     <g id="line2d_46">
      <g>
       <use xlink:href="#m21e3e48c25" x="71.098581" y="163.250144" style="stroke: #000000; stroke-width: 0.6"/>
      </g>
     </g>
    </g>
    <g id="ytick_25">
     <g id="line2d_47">
      <g>
       <use xlink:href="#m21e3e48c25" x="71.098581" y="156.532438" style="stroke: #000000; stroke-width: 0.6"/>
      </g>
     </g>
    </g>
    <g id="ytick_26">
     <g id="line2d_48">
      <g>
       <use xlink:href="#m21e3e48c25" x="71.098581" y="151.321781" style="stroke: #000000; stroke-width: 0.6"/>
      </g>
     </g>
    </g>
    <g id="ytick_27">
     <g id="line2d_49">
      <g>
       <use xlink:href="#m21e3e48c25" x="71.098581" y="147.064364" style="stroke: #000000; stroke-width: 0.6"/>
      </g>
     </g>
    </g>
    <g id="ytick_28">
     <g id="line2d_50">
      <g>
       <use xlink:href="#m21e3e48c25" x="71.098581" y="143.464769" style="stroke: #000000; stroke-width: 0.6"/>
      </g>
     </g>
    </g>
    <g id="ytick_29">
     <g id="line2d_51">
      <g>
       <use xlink:href="#m21e3e48c25" x="71.098581" y="140.346658" style="stroke: #000000; stroke-width: 0.6"/>
      </g>
     </g>
    </g>
    <g id="ytick_30">
     <g id="line2d_52">
      <g>
       <use xlink:href="#m21e3e48c25" x="71.098581" y="137.596289" style="stroke: #000000; stroke-width: 0.6"/>
      </g>
     </g>
    </g>
    <g id="ytick_31">
     <g id="line2d_53">
      <g>
       <use xlink:href="#m21e3e48c25" x="71.098581" y="118.950219" style="stroke: #000000; stroke-width: 0.6"/>
      </g>
     </g>
    </g>
    <g id="ytick_32">
     <g id="line2d_54">
      <g>
       <use xlink:href="#m21e3e48c25" x="71.098581" y="109.482144" style="stroke: #000000; stroke-width: 0.6"/>
      </g>
     </g>
    </g>
    <g id="ytick_33">
     <g id="line2d_55">
      <g>
       <use xlink:href="#m21e3e48c25" x="71.098581" y="102.764438" style="stroke: #000000; stroke-width: 0.6"/>
      </g>
     </g>
    </g>
    <g id="ytick_34">
     <g id="line2d_56">
      <g>
       <use xlink:href="#m21e3e48c25" x="71.098581" y="97.553781" style="stroke: #000000; stroke-width: 0.6"/>
      </g>
     </g>
    </g>
    <g id="ytick_35">
     <g id="line2d_57">
      <g>
       <use xlink:href="#m21e3e48c25" x="71.098581" y="93.296364" style="stroke: #000000; stroke-width: 0.6"/>
      </g>
     </g>
    </g>
    <g id="ytick_36">
     <g id="line2d_58">
      <g>
       <use xlink:href="#m21e3e48c25" x="71.098581" y="89.696769" style="stroke: #000000; stroke-width: 0.6"/>
      </g>
     </g>
    </g>
    <g id="ytick_37">
     <g id="line2d_59">
      <g>
       <use xlink:href="#m21e3e48c25" x="71.098581" y="86.578658" style="stroke: #000000; stroke-width: 0.6"/>
      </g>
     </g>
    </g>
    <g id="ytick_38">
     <g id="line2d_60">
      <g>
       <use xlink:href="#m21e3e48c25" x="71.098581" y="83.828289" style="stroke: #000000; stroke-width: 0.6"/>
      </g>
     </g>
    </g>
    <g id="ytick_39">
     <g id="line2d_61">
      <g>
       <use xlink:href="#m21e3e48c25" x="71.098581" y="65.182219" style="stroke: #000000; stroke-width: 0.6"/>
      </g>
     </g>
    </g>
    <g id="ytick_40">
     <g id="line2d_62">
      <g>
       <use xlink:href="#m21e3e48c25" x="71.098581" y="55.714144" style="stroke: #000000; stroke-width: 0.6"/>
      </g>
     </g>
    </g>
    <g id="ytick_41">
     <g id="line2d_63">
      <g>
       <use xlink:href="#m21e3e48c25" x="71.098581" y="48.996438" style="stroke: #000000; stroke-width: 0.6"/>
      </g>
     </g>
    </g>
    <g id="ytick_42">
     <g id="line2d_64">
      <g>
       <use xlink:href="#m21e3e48c25" x="71.098581" y="43.785781" style="stroke: #000000; stroke-width: 0.6"/>
      </g>
     </g>
    </g>
    <g id="ytick_43">
     <g id="line2d_65">
      <g>
       <use xlink:href="#m21e3e48c25" x="71.098581" y="39.528364" style="stroke: #000000; stroke-width: 0.6"/>
      </g>
     </g>
    </g>
    <g id="ytick_44">
     <g id="line2d_66">
      <g>
       <use xlink:href="#m21e3e48c25" x="71.098581" y="35.928769" style="stroke: #000000; stroke-width: 0.6"/>
      </g>
     </g>
    </g>
    <g id="ytick_45">
     <g id="line2d_67">
      <g>
       <use xlink:href="#m21e3e48c25" x="71.098581" y="32.810658" style="stroke: #000000; stroke-width: 0.6"/>
      </g>
     </g>
    </g>
    <g id="ytick_46">
     <g id="line2d_68">
      <g>
       <use xlink:href="#m21e3e48c25" x="71.098581" y="30.060289" style="stroke: #000000; stroke-width: 0.6"/>
      </g>
     </g>
    </g>
    <g id="text_16">
     <!-- MSE Loss -->
     <g transform="translate(22.047018 198.847656) rotate(-90) scale(0.14 -0.14)">
      <defs>
       <path id="DejaVuSans-Bold-4d" d="M 588 4666 
L 2119 4666 
L 3181 2169 
L 4250 4666 
L 5778 4666 
L 5778 0 
L 4641 0 
L 4641 3413 
L 3566 897 
L 2803 897 
L 1728 3413 
L 1728 0 
L 588 0 
L 588 4666 
z
" transform="scale(0.015625)"/>
       <path id="DejaVuSans-Bold-53" d="M 3834 4519 
L 3834 3531 
Q 3450 3703 3084 3790 
Q 2719 3878 2394 3878 
Q 1963 3878 1756 3759 
Q 1550 3641 1550 3391 
Q 1550 3203 1689 3098 
Q 1828 2994 2194 2919 
L 2706 2816 
Q 3484 2659 3812 2340 
Q 4141 2022 4141 1434 
Q 4141 663 3683 286 
Q 3225 -91 2284 -91 
Q 1841 -91 1394 -6 
Q 947 78 500 244 
L 500 1259 
Q 947 1022 1364 901 
Q 1781 781 2169 781 
Q 2563 781 2772 912 
Q 2981 1044 2981 1288 
Q 2981 1506 2839 1625 
Q 2697 1744 2272 1838 
L 1806 1941 
Q 1106 2091 782 2419 
Q 459 2747 459 3303 
Q 459 4000 909 4375 
Q 1359 4750 2203 4750 
Q 2588 4750 2994 4692 
Q 3400 4634 3834 4519 
z
" transform="scale(0.015625)"/>
       <path id="DejaVuSans-Bold-20" transform="scale(0.015625)"/>
       <path id="DejaVuSans-Bold-4c" d="M 588 4666 
L 1791 4666 
L 1791 909 
L 3903 909 
L 3903 0 
L 588 0 
L 588 4666 
z
" transform="scale(0.015625)"/>
       <path id="DejaVuSans-Bold-73" d="M 3272 3391 
L 3272 2541 
Q 2913 2691 2578 2766 
Q 2244 2841 1947 2841 
Q 1628 2841 1473 2761 
Q 1319 2681 1319 2516 
Q 1319 2381 1436 2309 
Q 1553 2238 1856 2203 
L 2053 2175 
Q 2913 2066 3209 1816 
Q 3506 1566 3506 1031 
Q 3506 472 3093 190 
Q 2681 -91 1863 -91 
Q 1516 -91 1145 -36 
Q 775 19 384 128 
L 384 978 
Q 719 816 1070 734 
Q 1422 653 1784 653 
Q 2113 653 2278 743 
Q 2444 834 2444 1013 
Q 2444 1163 2330 1236 
Q 2216 1309 1875 1350 
L 1678 1375 
Q 931 1469 631 1722 
Q 331 1975 331 2491 
Q 331 3047 712 3315 
Q 1094 3584 1881 3584 
Q 2191 3584 2531 3537 
Q 2872 3491 3272 3391 
z
" transform="scale(0.015625)"/>
      </defs>
      <use xlink:href="#DejaVuSans-Bold-4d"/>
      <use xlink:href="#DejaVuSans-Bold-53" transform="translate(99.511719 0)"/>
      <use xlink:href="#DejaVuSans-Bold-45" transform="translate(171.533203 0)"/>
      <use xlink:href="#DejaVuSans-Bold-20" transform="translate(239.84375 0)"/>
      <use xlink:href="#DejaVuSans-Bold-4c" transform="translate(274.658203 0)"/>
      <use xlink:href="#DejaVuSans-Bold-6f" transform="translate(338.378906 0)"/>
      <use xlink:href="#DejaVuSans-Bold-73" transform="translate(407.080078 0)"/>
      <use xlink:href="#DejaVuSans-Bold-73" transform="translate(466.601562 0)"/>
     </g>
    </g>
   </g>
   <g id="line2d_69">
    <path d="M 81.21862 63.371474 
L 82.230624 132.774994 
L 83.242628 133.292791 
L 84.254632 135.374708 
L 85.266636 137.073285 
L 86.27864 139.367115 
L 87.290644 142.502185 
L 88.302648 141.228719 
L 89.314652 143.224882 
L 90.326656 147.884226 
L 91.33866 148.34112 
L 92.350664 148.091337 
L 93.362668 145.970847 
L 94.374672 148.580347 
L 95.386675 150.438552 
L 96.398679 147.48555 
L 97.410683 148.891406 
L 98.422687 146.824024 
L 99.434691 149.20783 
L 100.446695 148.777328 
L 101.458699 148.19093 
L 102.470703 150.445524 
L 103.482707 148.497564 
L 104.494711 144.625676 
L 106.518719 154.808178 
L 107.530723 156.361747 
L 108.542727 155.386831 
L 109.554731 155.686757 
L 110.566735 157.243211 
L 111.578739 156.355936 
L 113.602746 157.249247 
L 114.61475 157.385772 
L 115.626754 157.075348 
L 116.638758 157.642253 
L 117.650762 157.929821 
L 119.67477 158.094856 
L 121.698778 157.506444 
L 122.710782 159.088944 
L 123.722786 157.873375 
L 124.73479 157.642253 
L 125.746794 156.727627 
L 126.758798 158.545378 
L 127.770802 158.994113 
L 128.782806 157.506444 
L 129.794809 159.689297 
L 130.806813 160.28298 
L 131.818817 158.87435 
L 132.830821 159.091319 
L 133.842825 159.745424 
L 134.854829 159.26181 
L 135.866833 160.480707 
L 136.878837 159.533214 
L 137.890841 158.749345 
L 138.902845 159.711243 
L 139.914849 159.909703 
L 140.926853 159.864226 
L 141.938857 159.000621 
L 142.950861 160.748884 
L 143.962865 159.710024 
L 144.974869 160.550782 
L 145.986873 159.267195 
L 146.998876 160.122273 
L 148.01088 160.10676 
L 149.022884 159.204442 
L 150.034888 160.283605 
L 151.046892 159.750922 
L 152.058896 159.892484 
L 153.0709 159.387191 
L 154.082904 159.6406 
L 155.094908 159.150195 
L 156.106912 159.593824 
L 157.118916 159.321117 
L 158.13092 160.067091 
L 160.154928 160.039238 
L 161.166932 160.432846 
L 162.178936 159.219367 
L 163.19094 159.422707 
L 164.202944 159.144836 
L 165.214947 160.14463 
L 167.238955 160.02378 
L 168.250959 159.730159 
L 169.262963 159.682596 
L 170.274967 160.098696 
L 171.286971 160.711929 
L 172.298975 158.641311 
L 173.310979 160.595714 
L 174.322983 160.125999 
L 175.334987 159.966363 
L 176.346991 160.095595 
L 177.358995 159.694782 
L 178.370999 159.819452 
L 179.383003 160.205605 
L 180.395007 159.630871 
L 181.407011 159.987338 
L 182.419014 159.031408 
L 183.431018 159.916469 
L 184.443022 161.0376 
L 185.455026 160.169498 
L 186.46703 160.044187 
L 187.479034 160.129101 
L 188.491038 159.722224 
L 189.503042 160.40644 
L 190.515046 160.40644 
L 191.52705 160.896005 
L 192.539054 159.78088 
L 193.551058 161.221666 
L 194.563062 160.229911 
L 195.575066 160.259865 
L 196.58707 159.733211 
L 197.599074 159.42572 
L 198.611078 160.029963 
L 199.623081 159.374562 
L 201.647089 160.835765 
L 202.659093 160.209965 
L 203.671097 159.445007 
L 204.683101 159.671633 
L 205.695105 160.469362 
L 206.707109 159.653373 
L 207.719113 159.788222 
L 208.731117 160.279231 
L 209.743121 159.331915 
L 211.767129 161.082188 
L 212.779133 159.663718 
L 213.791137 159.570774 
L 214.803141 159.616288 
L 215.815145 160.548253 
L 218.851156 159.973146 
L 219.86316 159.930011 
L 221.887168 160.224302 
L 222.899172 160.67694 
L 223.911176 160.517927 
L 224.92318 159.661891 
L 225.935184 159.975613 
L 226.947188 159.492091 
L 227.959192 160.509089 
L 228.971196 160.48764 
L 229.9832 160.162658 
L 233.019212 160.120412 
L 234.031216 159.348725 
L 235.043219 159.626009 
L 236.055223 161.13788 
L 237.067227 159.983019 
L 238.079231 159.290546 
L 240.103239 160.350583 
L 241.115243 160.766744 
L 242.127247 159.647897 
L 243.139251 160.02749 
L 244.151255 159.536242 
L 245.163259 159.596251 
L 246.175263 159.893099 
L 247.187267 159.741149 
L 248.199271 160.449208 
L 249.211275 161.419661 
L 250.223279 160.408954 
L 251.235283 160.398902 
L 254.271294 160.659782 
L 255.283298 159.783327 
L 256.295302 159.808424 
L 257.307306 160.344942 
L 258.31931 159.87098 
L 259.331314 160.368144 
L 260.343318 160.131585 
L 261.355322 160.609021 
L 262.367326 159.836003 
L 263.37933 159.907856 
L 264.391334 159.231316 
L 266.415342 160.328653 
L 267.427346 159.823129 
L 268.43935 159.510225 
L 269.451353 159.744204 
L 270.463357 160.536243 
L 271.475361 160.219936 
L 272.487365 160.762278 
L 273.499369 160.091874 
L 275.523377 159.946024 
L 276.535381 161.219715 
L 277.547385 160.234903 
L 278.559389 159.885725 
L 279.571393 160.070806 
L 280.583397 158.820861 
L 281.595401 159.274976 
L 282.607405 159.909703 
L 283.619409 159.355932 
L 284.631413 160.025017 
L 286.655421 160.025017 
L 287.667424 160.028109 
L 288.679428 159.828644 
L 289.691432 160.435992 
L 290.703436 159.43054 
L 291.71544 160.143388 
L 292.727444 160.584948 
L 293.739448 159.412468 
L 294.751452 159.325916 
L 296.77546 160.291733 
L 297.787464 159.719173 
L 298.799468 159.691734 
L 300.823476 160.26861 
L 301.83548 160.433476 
L 302.847484 160.094354 
L 303.859488 160.32928 
L 304.871491 160.778234 
L 305.883495 161.095127 
L 306.895499 160.164523 
L 307.907503 159.751534 
L 308.919507 160.692837 
L 309.931511 158.973422 
L 310.943515 159.181773 
L 311.955519 159.202055 
L 312.967523 159.62054 
L 313.979527 159.861771 
L 313.979527 159.861771 
" clip-path="url(#pc37013b9df)" style="fill: none; stroke: #1f77b4; stroke-width: 1.75; stroke-linecap: square"/>
   </g>
   <g id="line2d_70">
    <path d="M 81.21862 144.34129 
L 82.230624 159.780488 
L 83.242628 143.553106 
L 84.254632 104.633919 
L 85.266636 168.017764 
L 86.27864 170.844933 
L 87.290644 179.600178 
L 88.302648 182.432246 
L 89.314652 149.297923 
L 90.326656 178.471775 
L 91.33866 159.061786 
L 92.350664 130.662487 
L 93.362668 176.276931 
L 94.374672 193.560356 
L 95.386675 150.060685 
L 96.398679 154.604145 
L 97.410683 144.964025 
L 98.422687 188.374686 
L 99.434691 176.657285 
L 100.446695 131.455681 
L 101.458699 177.405815 
L 102.470703 136.809133 
L 103.482707 130.379847 
L 104.494711 193.332538 
L 105.506715 177.858227 
L 106.518719 193.832493 
L 107.530723 177.911408 
L 108.542727 187.863629 
L 109.554731 200.968017 
L 110.566735 204.980918 
L 111.578739 207.562197 
L 112.590742 210.46469 
L 113.602746 200.015919 
L 114.61475 197.842761 
L 115.626754 187.782237 
L 116.638758 207.223495 
L 117.650762 214.078598 
L 118.662766 190.139836 
L 119.67477 199.500301 
L 120.686774 202.626082 
L 121.698778 196.743968 
L 122.710782 209.008672 
L 123.722786 188.474906 
L 124.73479 176.466332 
L 125.746794 174.09831 
L 126.758798 213.097314 
L 127.770802 210.251047 
L 128.782806 212.480902 
L 129.794809 211.880345 
L 130.806813 213.145411 
L 132.830821 214.279904 
L 133.842825 214.078598 
L 134.854829 209.211198 
L 135.866833 212.387498 
L 136.878837 207.752508 
L 137.890841 214.533998 
L 138.902845 210.123792 
L 139.914849 210.897934 
L 141.938857 216.119526 
L 142.950861 215.050638 
L 143.962865 214.330501 
L 144.974869 215.366199 
L 145.986873 213.533796 
L 146.998876 213.582803 
L 148.01088 209.829536 
L 149.022884 215.739826 
L 150.034888 215.632463 
L 151.046892 213.928752 
L 152.058896 215.47234 
L 153.0709 215.260537 
L 154.082904 214.894442 
L 155.094908 215.578967 
L 156.106912 215.956041 
L 157.118916 216.010409 
L 158.13092 216.339304 
L 159.142924 215.207886 
L 161.166932 215.847682 
L 162.178936 215.525592 
L 163.19094 216.284165 
L 164.202944 215.419209 
L 165.214947 216.064904 
L 167.238955 216.339304 
L 168.250959 215.525592 
L 169.262963 216.95458 
L 170.274967 215.632463 
L 171.286971 216.561169 
L 172.298975 215.260537 
L 173.310979 216.394573 
L 174.322983 216.064904 
L 175.334987 215.525592 
L 176.346991 215.847682 
L 177.358995 215.155351 
L 178.370999 216.174278 
L 179.383003 215.739826 
L 181.407011 215.632463 
L 182.419014 216.785163 
L 184.443022 216.339304 
L 185.455026 215.313308 
L 186.46703 216.728963 
L 187.479034 215.313308 
L 188.491038 215.901798 
L 189.503042 215.739826 
L 190.515046 215.956041 
L 191.52705 214.894442 
L 192.539054 216.728963 
L 193.551058 216.339304 
L 194.563062 216.339304 
L 196.58707 216.616966 
L 197.599074 215.847682 
L 198.611078 216.229157 
L 199.623081 216.897969 
L 200.635085 216.672897 
L 201.647089 215.793692 
L 202.659093 215.739826 
L 203.671097 216.897969 
L 204.683101 216.95458 
L 205.695105 215.793692 
L 206.707109 216.284165 
L 207.719113 215.901798 
L 208.731117 215.956041 
L 209.743121 216.505504 
L 210.755125 216.449973 
L 211.767129 216.064904 
L 212.779133 216.449973 
L 213.791137 216.229157 
L 215.815145 216.897969 
L 216.827149 216.561169 
L 217.839152 216.449973 
L 218.851156 216.897969 
L 219.86316 215.901798 
L 220.875164 216.064904 
L 221.887168 215.901798 
L 222.899172 216.119526 
L 223.911176 216.505504 
L 224.92318 215.739826 
L 225.935184 216.449973 
L 226.947188 216.010409 
L 227.959192 216.505504 
L 228.971196 216.616966 
L 229.9832 216.119526 
L 230.995204 216.841498 
L 232.007208 217.125235 
L 233.019212 216.339304 
L 234.031216 215.847682 
L 235.043219 216.616966 
L 236.055223 216.284165 
L 237.067227 217.011326 
L 239.091235 215.632463 
L 240.103239 216.449973 
L 241.115243 215.632463 
L 242.127247 215.525592 
L 243.139251 217.412459 
L 244.151255 216.064904 
L 245.163259 215.739826 
L 246.175263 216.119526 
L 247.187267 216.284165 
L 248.199271 216.229157 
L 249.211275 216.95458 
L 250.223279 216.339304 
L 251.235283 216.339304 
L 254.271294 217.182397 
L 255.283298 216.229157 
L 256.295302 216.561169 
L 257.307306 216.064904 
L 258.31931 216.616966 
L 259.331314 217.297144 
L 260.343318 216.284165 
L 261.355322 215.793692 
L 262.367326 216.174278 
L 263.37933 217.125235 
L 264.391334 216.174278 
L 265.403338 216.561169 
L 266.415342 216.785163 
L 267.427346 216.174278 
L 268.43935 216.174278 
L 269.451353 216.449973 
L 270.463357 216.010409 
L 271.475361 217.2397 
L 272.487365 215.901798 
L 273.499369 215.847682 
L 276.535381 216.672897 
L 278.559389 215.686082 
L 281.595401 216.339304 
L 282.607405 216.95458 
L 283.619409 216.339304 
L 284.631413 216.229157 
L 285.643417 216.505504 
L 286.655421 216.561169 
L 287.667424 215.901798 
L 288.679428 214.946391 
L 289.691432 215.956041 
L 290.703436 216.394573 
L 291.71544 216.394573 
L 292.727444 215.793692 
L 293.739448 215.525592 
L 294.751452 216.339304 
L 295.763456 216.394573 
L 296.77546 215.847682 
L 297.787464 216.119526 
L 298.799468 216.785163 
L 299.811472 215.956041 
L 300.823476 216.672897 
L 301.83548 216.119526 
L 302.847484 216.785163 
L 303.859488 216.897969 
L 304.871491 215.525592 
L 305.883495 216.841498 
L 306.895499 216.284165 
L 307.907503 215.578967 
L 308.919507 216.897969 
L 309.931511 216.064904 
L 310.943515 215.578967 
L 311.955519 215.793692 
L 313.979527 217.125235 
L 313.979527 217.125235 
" clip-path="url(#pc37013b9df)" style="fill: none; stroke-dasharray: 5.55,2.4; stroke-dashoffset: 0; stroke: #ff7f0e; stroke-width: 1.5"/>
   </g>
   <g id="patch_3">
    <path d="M 71.098581 296.44 
L 71.098581 27.6 
" style="fill: none; stroke: #000000; stroke-width: 0.8; stroke-linejoin: miter; stroke-linecap: square"/>
   </g>
   <g id="patch_4">
    <path d="M 435.42 296.44 
L 435.42 27.6 
" style="fill: none; stroke: #000000; stroke-width: 0.8; stroke-linejoin: miter; stroke-linecap: square"/>
   </g>
   <g id="patch_5">
    <path d="M 71.098581 296.44 
L 435.42 296.44 
" style="fill: none; stroke: #000000; stroke-width: 0.8; stroke-linejoin: miter; stroke-linecap: square"/>
   </g>
   <g id="patch_6">
    <path d="M 71.098581 27.6 
L 435.42 27.6 
" style="fill: none; stroke: #000000; stroke-width: 0.8; stroke-linejoin: miter; stroke-linecap: square"/>
   </g>
   <g id="text_17">
    <!-- EfficientNet-B3 Base Model -->
    <g transform="translate(145.518353 21.6) scale(0.14 -0.14)">
     <defs>
      <path id="DejaVuSans-Bold-66" d="M 2841 4863 
L 2841 4128 
L 2222 4128 
Q 1984 4128 1890 4042 
Q 1797 3956 1797 3744 
L 1797 3500 
L 2753 3500 
L 2753 2700 
L 1797 2700 
L 1797 0 
L 678 0 
L 678 2700 
L 122 2700 
L 122 3500 
L 678 3500 
L 678 3744 
Q 678 4316 997 4589 
Q 1316 4863 1984 4863 
L 2841 4863 
z
" transform="scale(0.015625)"/>
      <path id="DejaVuSans-Bold-69" d="M 538 3500 
L 1656 3500 
L 1656 0 
L 538 0 
L 538 3500 
z
M 538 4863 
L 1656 4863 
L 1656 3950 
L 538 3950 
L 538 4863 
z
" transform="scale(0.015625)"/>
      <path id="DejaVuSans-Bold-65" d="M 4031 1759 
L 4031 1441 
L 1416 1441 
Q 1456 1047 1700 850 
Q 1944 653 2381 653 
Q 2734 653 3104 758 
Q 3475 863 3866 1075 
L 3866 213 
Q 3469 63 3072 -14 
Q 2675 -91 2278 -91 
Q 1328 -91 801 392 
Q 275 875 275 1747 
Q 275 2603 792 3093 
Q 1309 3584 2216 3584 
Q 3041 3584 3536 3087 
Q 4031 2591 4031 1759 
z
M 2881 2131 
Q 2881 2450 2695 2645 
Q 2509 2841 2209 2841 
Q 1884 2841 1681 2658 
Q 1478 2475 1428 2131 
L 2881 2131 
z
" transform="scale(0.015625)"/>
      <path id="DejaVuSans-Bold-6e" d="M 4056 2131 
L 4056 0 
L 2931 0 
L 2931 347 
L 2931 1631 
Q 2931 2084 2911 2256 
Q 2891 2428 2841 2509 
Q 2775 2619 2662 2680 
Q 2550 2741 2406 2741 
Q 2056 2741 1856 2470 
Q 1656 2200 1656 1722 
L 1656 0 
L 538 0 
L 538 3500 
L 1656 3500 
L 1656 2988 
Q 1909 3294 2193 3439 
Q 2478 3584 2822 3584 
Q 3428 3584 3742 3212 
Q 4056 2841 4056 2131 
z
" transform="scale(0.015625)"/>
      <path id="DejaVuSans-Bold-74" d="M 1759 4494 
L 1759 3500 
L 2913 3500 
L 2913 2700 
L 1759 2700 
L 1759 1216 
Q 1759 972 1856 886 
Q 1953 800 2241 800 
L 2816 800 
L 2816 0 
L 1856 0 
Q 1194 0 917 276 
Q 641 553 641 1216 
L 641 2700 
L 84 2700 
L 84 3500 
L 641 3500 
L 641 4494 
L 1759 4494 
z
" transform="scale(0.015625)"/>
      <path id="DejaVuSans-Bold-4e" d="M 588 4666 
L 1931 4666 
L 3628 1466 
L 3628 4666 
L 4769 4666 
L 4769 0 
L 3425 0 
L 1728 3200 
L 1728 0 
L 588 0 
L 588 4666 
z
" transform="scale(0.015625)"/>
      <path id="DejaVuSans-Bold-2d" d="M 347 2297 
L 2309 2297 
L 2309 1388 
L 347 1388 
L 347 2297 
z
" transform="scale(0.015625)"/>
      <path id="DejaVuSans-Bold-42" d="M 2456 2859 
Q 2741 2859 2887 2984 
Q 3034 3109 3034 3353 
Q 3034 3594 2887 3720 
Q 2741 3847 2456 3847 
L 1791 3847 
L 1791 2859 
L 2456 2859 
z
M 2497 819 
Q 2859 819 3042 972 
Q 3225 1125 3225 1434 
Q 3225 1738 3044 1889 
Q 2863 2041 2497 2041 
L 1791 2041 
L 1791 819 
L 2497 819 
z
M 3616 2497 
Q 4003 2384 4215 2081 
Q 4428 1778 4428 1338 
Q 4428 663 3972 331 
Q 3516 0 2584 0 
L 588 0 
L 588 4666 
L 2394 4666 
Q 3366 4666 3802 4372 
Q 4238 4078 4238 3431 
Q 4238 3091 4078 2852 
Q 3919 2613 3616 2497 
z
" transform="scale(0.015625)"/>
      <path id="DejaVuSans-Bold-61" d="M 2106 1575 
Q 1756 1575 1579 1456 
Q 1403 1338 1403 1106 
Q 1403 894 1545 773 
Q 1688 653 1941 653 
Q 2256 653 2472 879 
Q 2688 1106 2688 1447 
L 2688 1575 
L 2106 1575 
z
M 3816 1997 
L 3816 0 
L 2688 0 
L 2688 519 
Q 2463 200 2181 54 
Q 1900 -91 1497 -91 
Q 953 -91 614 226 
Q 275 544 275 1050 
Q 275 1666 698 1953 
Q 1122 2241 2028 2241 
L 2688 2241 
L 2688 2328 
Q 2688 2594 2478 2717 
Q 2269 2841 1825 2841 
Q 1466 2841 1156 2769 
Q 847 2697 581 2553 
L 581 3406 
Q 941 3494 1303 3539 
Q 1666 3584 2028 3584 
Q 2975 3584 3395 3211 
Q 3816 2838 3816 1997 
z
" transform="scale(0.015625)"/>
      <path id="DejaVuSans-Bold-64" d="M 2919 2988 
L 2919 4863 
L 4044 4863 
L 4044 0 
L 2919 0 
L 2919 506 
Q 2688 197 2409 53 
Q 2131 -91 1766 -91 
Q 1119 -91 703 423 
Q 288 938 288 1747 
Q 288 2556 703 3070 
Q 1119 3584 1766 3584 
Q 2128 3584 2408 3439 
Q 2688 3294 2919 2988 
z
M 2181 722 
Q 2541 722 2730 984 
Q 2919 1247 2919 1747 
Q 2919 2247 2730 2509 
Q 2541 2772 2181 2772 
Q 1825 2772 1636 2509 
Q 1447 2247 1447 1747 
Q 1447 1247 1636 984 
Q 1825 722 2181 722 
z
" transform="scale(0.015625)"/>
      <path id="DejaVuSans-Bold-6c" d="M 538 4863 
L 1656 4863 
L 1656 0 
L 538 0 
L 538 4863 
z
" transform="scale(0.015625)"/>
     </defs>
     <use xlink:href="#DejaVuSans-Bold-45"/>
     <use xlink:href="#DejaVuSans-Bold-66" transform="translate(68.310547 0)"/>
     <use xlink:href="#DejaVuSans-Bold-66" transform="translate(111.816406 0)"/>
     <use xlink:href="#DejaVuSans-Bold-69" transform="translate(155.322266 0)"/>
     <use xlink:href="#DejaVuSans-Bold-63" transform="translate(189.599609 0)"/>
     <use xlink:href="#DejaVuSans-Bold-69" transform="translate(248.876953 0)"/>
     <use xlink:href="#DejaVuSans-Bold-65" transform="translate(283.154297 0)"/>
     <use xlink:href="#DejaVuSans-Bold-6e" transform="translate(350.976562 0)"/>
     <use xlink:href="#DejaVuSans-Bold-74" transform="translate(422.167969 0)"/>
     <use xlink:href="#DejaVuSans-Bold-4e" transform="translate(469.970703 0)"/>
     <use xlink:href="#DejaVuSans-Bold-65" transform="translate(553.662109 0)"/>
     <use xlink:href="#DejaVuSans-Bold-74" transform="translate(621.484375 0)"/>
     <use xlink:href="#DejaVuSans-Bold-2d" transform="translate(669.287109 0)"/>
     <use xlink:href="#DejaVuSans-Bold-42" transform="translate(710.791016 0)"/>
     <use xlink:href="#DejaVuSans-Bold-33" transform="translate(787.011719 0)"/>
     <use xlink:href="#DejaVuSans-Bold-20" transform="translate(856.591797 0)"/>
     <use xlink:href="#DejaVuSans-Bold-42" transform="translate(891.40625 0)"/>
     <use xlink:href="#DejaVuSans-Bold-61" transform="translate(967.626953 0)"/>
     <use xlink:href="#DejaVuSans-Bold-73" transform="translate(1035.107422 0)"/>
     <use xlink:href="#DejaVuSans-Bold-65" transform="translate(1094.628906 0)"/>
     <use xlink:href="#DejaVuSans-Bold-20" transform="translate(1162.451172 0)"/>
     <use xlink:href="#DejaVuSans-Bold-4d" transform="translate(1197.265625 0)"/>
     <use xlink:href="#DejaVuSans-Bold-6f" transform="translate(1296.777344 0)"/>
     <use xlink:href="#DejaVuSans-Bold-64" transform="translate(1365.478516 0)"/>
     <use xlink:href="#DejaVuSans-Bold-65" transform="translate(1437.060547 0)"/>
     <use xlink:href="#DejaVuSans-Bold-6c" transform="translate(1504.882812 0)"/>
    </g>
   </g>
   <g id="legend_1">
    <g id="patch_7">
     <path d="M 301.164375 79.89875 
L 425.62 79.89875 
Q 428.42 79.89875 428.42 77.09875 
L 428.42 37.4 
Q 428.42 34.6 425.62 34.6 
L 301.164375 34.6 
Q 298.364375 34.6 298.364375 37.4 
L 298.364375 77.09875 
Q 298.364375 79.89875 301.164375 79.89875 
z
" style="fill: #ffffff; opacity: 0.8; stroke: #cccccc; stroke-linejoin: miter"/>
    </g>
    <g id="line2d_71">
     <path d="M 303.964375 45.937812 
L 317.964375 45.937812 
L 331.964375 45.937812 
" style="fill: none; stroke: #1f77b4; stroke-width: 1.75; stroke-linecap: square"/>
    </g>
    <g id="text_18">
     <!-- Train -->
     <g transform="translate(343.164375 50.837812) scale(0.14 -0.14)">
      <defs>
       <path id="DejaVuSans-Bold-54" d="M 31 4666 
L 4331 4666 
L 4331 3756 
L 2784 3756 
L 2784 0 
L 1581 0 
L 1581 3756 
L 31 3756 
L 31 4666 
z
" transform="scale(0.015625)"/>
       <path id="DejaVuSans-Bold-72" d="M 3138 2547 
Q 2991 2616 2845 2648 
Q 2700 2681 2553 2681 
Q 2122 2681 1889 2404 
Q 1656 2128 1656 1613 
L 1656 0 
L 538 0 
L 538 3500 
L 1656 3500 
L 1656 2925 
Q 1872 3269 2151 3426 
Q 2431 3584 2822 3584 
Q 2878 3584 2943 3579 
Q 3009 3575 3134 3559 
L 3138 2547 
z
" transform="scale(0.015625)"/>
      </defs>
      <use xlink:href="#DejaVuSans-Bold-54"/>
      <use xlink:href="#DejaVuSans-Bold-72" transform="translate(57.212891 0)"/>
      <use xlink:href="#DejaVuSans-Bold-61" transform="translate(106.529297 0)"/>
      <use xlink:href="#DejaVuSans-Bold-69" transform="translate(174.009766 0)"/>
      <use xlink:href="#DejaVuSans-Bold-6e" transform="translate(208.287109 0)"/>
     </g>
    </g>
    <g id="line2d_72">
     <path d="M 303.964375 66.487187 
L 317.964375 66.487187 
L 331.964375 66.487187 
" style="fill: none; stroke-dasharray: 5.55,2.4; stroke-dashoffset: 0; stroke: #ff7f0e; stroke-width: 1.5"/>
    </g>
    <g id="text_19">
     <!-- Validation -->
     <g transform="translate(343.164375 71.387187) scale(0.14 -0.14)">
      <defs>
       <path id="DejaVuSans-Bold-56" d="M 31 4666 
L 1241 4666 
L 2478 1222 
L 3713 4666 
L 4922 4666 
L 3194 0 
L 1759 0 
L 31 4666 
z
" transform="scale(0.015625)"/>
      </defs>
      <use xlink:href="#DejaVuSans-Bold-56"/>
      <use xlink:href="#DejaVuSans-Bold-61" transform="translate(71.892578 0)"/>
      <use xlink:href="#DejaVuSans-Bold-6c" transform="translate(139.373047 0)"/>
      <use xlink:href="#DejaVuSans-Bold-69" transform="translate(173.650391 0)"/>
      <use xlink:href="#DejaVuSans-Bold-64" transform="translate(207.927734 0)"/>
      <use xlink:href="#DejaVuSans-Bold-61" transform="translate(279.509766 0)"/>
      <use xlink:href="#DejaVuSans-Bold-74" transform="translate(346.990234 0)"/>
      <use xlink:href="#DejaVuSans-Bold-69" transform="translate(394.792969 0)"/>
      <use xlink:href="#DejaVuSans-Bold-6f" transform="translate(429.070312 0)"/>
      <use xlink:href="#DejaVuSans-Bold-6e" transform="translate(497.771484 0)"/>
     </g>
    </g>
   </g>
  </g>
 </g>
 <defs>
  <clipPath id="pc37013b9df">
   <rect x="71.098581" y="27.6" width="364.321419" height="268.84"/>
  </clipPath>
 </defs>
</svg>
