<?xml version="1.0" encoding="utf-8" standalone="no"?>
<!DOCTYPE svg PUBLIC "-//W3C//DTD SVG 1.1//EN"
  "http://www.w3.org/Graphics/SVG/1.1/DTD/svg11.dtd">
<svg xmlns:xlink="http://www.w3.org/1999/xlink" width="460.8pt" height="345.6pt" viewBox="0 0 460.8 345.6" xmlns="http://www.w3.org/2000/svg" version="1.1">
 <metadata>
  <rdf:RDF xmlns:dc="http://purl.org/dc/elements/1.1/" xmlns:cc="http://creativecommons.org/ns#" xmlns:rdf="http://www.w3.org/1999/02/22-rdf-syntax-ns#">
   <cc:Work>
    <dc:type rdf:resource="http://purl.org/dc/dcmitype/StillImage"/>
    <dc:date>2025-06-24T12:33:26.254931</dc:date>
    <dc:format>image/svg+xml</dc:format>
    <dc:creator>
     <cc:Agent>
      <dc:title>Matplotlib v3.10.0, https://matplotlib.org/</dc:title>
     </cc:Agent>
    </dc:creator>
   </cc:Work>
  </rdf:RDF>
 </metadata>
 <defs>
  <style type="text/css">*{stroke-linejoin: round; stroke-linecap: butt}</style>
 </defs>
 <g id="figure_1">
  <g id="patch_1">
   <path d="M 0 345.6 
L 460.8 345.6 
L 460.8 0 
L 0 0 
z
" style="fill: #ffffff"/>
  </g>
  <g id="axes_1">
   <g id="patch_2">
    <path d="M 71.098581 296.44 
L 435.42 296.44 
L 435.42 27.6 
L 71.098581 27.6 
z
" style="fill: #ffffff"/>
   </g>
   <g id="matplotlib.axis_1">
    <g id="xtick_1">
     <g id="line2d_1">
      <path d="M 81.21862 296.44 
L 81.21862 27.6 
" clip-path="url(#pd6633b9cdf)" style="fill: none; stroke: #b0b0b0; stroke-width: 0.8; stroke-linecap: square"/>
     </g>
     <g id="line2d_2">
      <defs>
       <path id="mb275dea7c5" d="M 0 0 
L 0 3.5 
" style="stroke: #000000; stroke-width: 0.8"/>
      </defs>
      <g>
       <use xlink:href="#mb275dea7c5" x="81.21862" y="296.44" style="stroke: #000000; stroke-width: 0.8"/>
      </g>
     </g>
     <g id="text_1">
      <!-- 0 -->
      <g transform="translate(76.348152 314.077812) scale(0.14 -0.14)">
       <defs>
        <path id="DejaVuSans-Bold-30" d="M 2944 2338 
Q 2944 3213 2780 3570 
Q 2616 3928 2228 3928 
Q 1841 3928 1675 3570 
Q 1509 3213 1509 2338 
Q 1509 1453 1675 1090 
Q 1841 728 2228 728 
Q 2613 728 2778 1090 
Q 2944 1453 2944 2338 
z
M 4147 2328 
Q 4147 1169 3647 539 
Q 3147 -91 2228 -91 
Q 1306 -91 806 539 
Q 306 1169 306 2328 
Q 306 3491 806 4120 
Q 1306 4750 2228 4750 
Q 3147 4750 3647 4120 
Q 4147 3491 4147 2328 
z
" transform="scale(0.015625)"/>
       </defs>
       <use xlink:href="#DejaVuSans-Bold-30"/>
      </g>
     </g>
    </g>
    <g id="xtick_2">
     <g id="line2d_3">
      <path d="M 131.818817 296.44 
L 131.818817 27.6 
" clip-path="url(#pd6633b9cdf)" style="fill: none; stroke: #b0b0b0; stroke-width: 0.8; stroke-linecap: square"/>
     </g>
     <g id="line2d_4">
      <g>
       <use xlink:href="#mb275dea7c5" x="131.818817" y="296.44" style="stroke: #000000; stroke-width: 0.8"/>
      </g>
     </g>
     <g id="text_2">
      <!-- 50 -->
      <g transform="translate(122.07788 314.077812) scale(0.14 -0.14)">
       <defs>
        <path id="DejaVuSans-Bold-35" d="M 678 4666 
L 3669 4666 
L 3669 3781 
L 1638 3781 
L 1638 3059 
Q 1775 3097 1914 3117 
Q 2053 3138 2203 3138 
Q 3056 3138 3531 2711 
Q 4006 2284 4006 1522 
Q 4006 766 3489 337 
Q 2972 -91 2053 -91 
Q 1656 -91 1267 -14 
Q 878 63 494 219 
L 494 1166 
Q 875 947 1217 837 
Q 1559 728 1863 728 
Q 2300 728 2551 942 
Q 2803 1156 2803 1522 
Q 2803 1891 2551 2103 
Q 2300 2316 1863 2316 
Q 1603 2316 1309 2248 
Q 1016 2181 678 2041 
L 678 4666 
z
" transform="scale(0.015625)"/>
       </defs>
       <use xlink:href="#DejaVuSans-Bold-35"/>
       <use xlink:href="#DejaVuSans-Bold-30" transform="translate(69.580078 0)"/>
      </g>
     </g>
    </g>
    <g id="xtick_3">
     <g id="line2d_5">
      <path d="M 182.419014 296.44 
L 182.419014 27.6 
" clip-path="url(#pd6633b9cdf)" style="fill: none; stroke: #b0b0b0; stroke-width: 0.8; stroke-linecap: square"/>
     </g>
     <g id="line2d_6">
      <g>
       <use xlink:href="#mb275dea7c5" x="182.419014" y="296.44" style="stroke: #000000; stroke-width: 0.8"/>
      </g>
     </g>
     <g id="text_3">
      <!-- 100 -->
      <g transform="translate(167.807608 314.077812) scale(0.14 -0.14)">
       <defs>
        <path id="DejaVuSans-Bold-31" d="M 750 831 
L 1813 831 
L 1813 3847 
L 722 3622 
L 722 4441 
L 1806 4666 
L 2950 4666 
L 2950 831 
L 4013 831 
L 4013 0 
L 750 0 
L 750 831 
z
" transform="scale(0.015625)"/>
       </defs>
       <use xlink:href="#DejaVuSans-Bold-31"/>
       <use xlink:href="#DejaVuSans-Bold-30" transform="translate(69.580078 0)"/>
       <use xlink:href="#DejaVuSans-Bold-30" transform="translate(139.160156 0)"/>
      </g>
     </g>
    </g>
    <g id="xtick_4">
     <g id="line2d_7">
      <path d="M 233.019212 296.44 
L 233.019212 27.6 
" clip-path="url(#pd6633b9cdf)" style="fill: none; stroke: #b0b0b0; stroke-width: 0.8; stroke-linecap: square"/>
     </g>
     <g id="line2d_8">
      <g>
       <use xlink:href="#mb275dea7c5" x="233.019212" y="296.44" style="stroke: #000000; stroke-width: 0.8"/>
      </g>
     </g>
     <g id="text_4">
      <!-- 150 -->
      <g transform="translate(218.407805 314.077812) scale(0.14 -0.14)">
       <use xlink:href="#DejaVuSans-Bold-31"/>
       <use xlink:href="#DejaVuSans-Bold-35" transform="translate(69.580078 0)"/>
       <use xlink:href="#DejaVuSans-Bold-30" transform="translate(139.160156 0)"/>
      </g>
     </g>
    </g>
    <g id="xtick_5">
     <g id="line2d_9">
      <path d="M 283.619409 296.44 
L 283.619409 27.6 
" clip-path="url(#pd6633b9cdf)" style="fill: none; stroke: #b0b0b0; stroke-width: 0.8; stroke-linecap: square"/>
     </g>
     <g id="line2d_10">
      <g>
       <use xlink:href="#mb275dea7c5" x="283.619409" y="296.44" style="stroke: #000000; stroke-width: 0.8"/>
      </g>
     </g>
     <g id="text_5">
      <!-- 200 -->
      <g transform="translate(269.008002 314.077812) scale(0.14 -0.14)">
       <defs>
        <path id="DejaVuSans-Bold-32" d="M 1844 884 
L 3897 884 
L 3897 0 
L 506 0 
L 506 884 
L 2209 2388 
Q 2438 2594 2547 2791 
Q 2656 2988 2656 3200 
Q 2656 3528 2436 3728 
Q 2216 3928 1850 3928 
Q 1569 3928 1234 3808 
Q 900 3688 519 3450 
L 519 4475 
Q 925 4609 1322 4679 
Q 1719 4750 2100 4750 
Q 2938 4750 3402 4381 
Q 3866 4013 3866 3353 
Q 3866 2972 3669 2642 
Q 3472 2313 2841 1759 
L 1844 884 
z
" transform="scale(0.015625)"/>
       </defs>
       <use xlink:href="#DejaVuSans-Bold-32"/>
       <use xlink:href="#DejaVuSans-Bold-30" transform="translate(69.580078 0)"/>
       <use xlink:href="#DejaVuSans-Bold-30" transform="translate(139.160156 0)"/>
      </g>
     </g>
    </g>
    <g id="xtick_6">
     <g id="line2d_11">
      <path d="M 334.219606 296.44 
L 334.219606 27.6 
" clip-path="url(#pd6633b9cdf)" style="fill: none; stroke: #b0b0b0; stroke-width: 0.8; stroke-linecap: square"/>
     </g>
     <g id="line2d_12">
      <g>
       <use xlink:href="#mb275dea7c5" x="334.219606" y="296.44" style="stroke: #000000; stroke-width: 0.8"/>
      </g>
     </g>
     <g id="text_6">
      <!-- 250 -->
      <g transform="translate(319.6082 314.077812) scale(0.14 -0.14)">
       <use xlink:href="#DejaVuSans-Bold-32"/>
       <use xlink:href="#DejaVuSans-Bold-35" transform="translate(69.580078 0)"/>
       <use xlink:href="#DejaVuSans-Bold-30" transform="translate(139.160156 0)"/>
      </g>
     </g>
    </g>
    <g id="xtick_7">
     <g id="line2d_13">
      <path d="M 384.819803 296.44 
L 384.819803 27.6 
" clip-path="url(#pd6633b9cdf)" style="fill: none; stroke: #b0b0b0; stroke-width: 0.8; stroke-linecap: square"/>
     </g>
     <g id="line2d_14">
      <g>
       <use xlink:href="#mb275dea7c5" x="384.819803" y="296.44" style="stroke: #000000; stroke-width: 0.8"/>
      </g>
     </g>
     <g id="text_7">
      <!-- 300 -->
      <g transform="translate(370.208397 314.077812) scale(0.14 -0.14)">
       <defs>
        <path id="DejaVuSans-Bold-33" d="M 2981 2516 
Q 3453 2394 3698 2092 
Q 3944 1791 3944 1325 
Q 3944 631 3412 270 
Q 2881 -91 1863 -91 
Q 1503 -91 1142 -33 
Q 781 25 428 141 
L 428 1069 
Q 766 900 1098 814 
Q 1431 728 1753 728 
Q 2231 728 2486 893 
Q 2741 1059 2741 1369 
Q 2741 1688 2480 1852 
Q 2219 2016 1709 2016 
L 1228 2016 
L 1228 2791 
L 1734 2791 
Q 2188 2791 2409 2933 
Q 2631 3075 2631 3366 
Q 2631 3634 2415 3781 
Q 2200 3928 1806 3928 
Q 1516 3928 1219 3862 
Q 922 3797 628 3669 
L 628 4550 
Q 984 4650 1334 4700 
Q 1684 4750 2022 4750 
Q 2931 4750 3382 4451 
Q 3834 4153 3834 3553 
Q 3834 3144 3618 2883 
Q 3403 2622 2981 2516 
z
" transform="scale(0.015625)"/>
       </defs>
       <use xlink:href="#DejaVuSans-Bold-33"/>
       <use xlink:href="#DejaVuSans-Bold-30" transform="translate(69.580078 0)"/>
       <use xlink:href="#DejaVuSans-Bold-30" transform="translate(139.160156 0)"/>
      </g>
     </g>
    </g>
    <g id="xtick_8">
     <g id="line2d_15">
      <path d="M 435.42 296.44 
L 435.42 27.6 
" clip-path="url(#pd6633b9cdf)" style="fill: none; stroke: #b0b0b0; stroke-width: 0.8; stroke-linecap: square"/>
     </g>
     <g id="line2d_16">
      <g>
       <use xlink:href="#mb275dea7c5" x="435.42" y="296.44" style="stroke: #000000; stroke-width: 0.8"/>
      </g>
     </g>
     <g id="text_8">
      <!-- 350 -->
      <g transform="translate(420.808594 314.077812) scale(0.14 -0.14)">
       <use xlink:href="#DejaVuSans-Bold-33"/>
       <use xlink:href="#DejaVuSans-Bold-35" transform="translate(69.580078 0)"/>
       <use xlink:href="#DejaVuSans-Bold-30" transform="translate(139.160156 0)"/>
      </g>
     </g>
    </g>
    <g id="text_9">
     <!-- Epoch -->
     <g transform="translate(229.524915 331.627187) scale(0.14 -0.14)">
      <defs>
       <path id="DejaVuSans-Bold-45" d="M 588 4666 
L 3834 4666 
L 3834 3756 
L 1791 3756 
L 1791 2888 
L 3713 2888 
L 3713 1978 
L 1791 1978 
L 1791 909 
L 3903 909 
L 3903 0 
L 588 0 
L 588 4666 
z
" transform="scale(0.015625)"/>
       <path id="DejaVuSans-Bold-70" d="M 1656 506 
L 1656 -1331 
L 538 -1331 
L 538 3500 
L 1656 3500 
L 1656 2988 
Q 1888 3294 2169 3439 
Q 2450 3584 2816 3584 
Q 3463 3584 3878 3070 
Q 4294 2556 4294 1747 
Q 4294 938 3878 423 
Q 3463 -91 2816 -91 
Q 2450 -91 2169 54 
Q 1888 200 1656 506 
z
M 2400 2772 
Q 2041 2772 1848 2508 
Q 1656 2244 1656 1747 
Q 1656 1250 1848 986 
Q 2041 722 2400 722 
Q 2759 722 2948 984 
Q 3138 1247 3138 1747 
Q 3138 2247 2948 2509 
Q 2759 2772 2400 2772 
z
" transform="scale(0.015625)"/>
       <path id="DejaVuSans-Bold-6f" d="M 2203 2784 
Q 1831 2784 1636 2517 
Q 1441 2250 1441 1747 
Q 1441 1244 1636 976 
Q 1831 709 2203 709 
Q 2569 709 2762 976 
Q 2956 1244 2956 1747 
Q 2956 2250 2762 2517 
Q 2569 2784 2203 2784 
z
M 2203 3584 
Q 3106 3584 3614 3096 
Q 4122 2609 4122 1747 
Q 4122 884 3614 396 
Q 3106 -91 2203 -91 
Q 1297 -91 786 396 
Q 275 884 275 1747 
Q 275 2609 786 3096 
Q 1297 3584 2203 3584 
z
" transform="scale(0.015625)"/>
       <path id="DejaVuSans-Bold-63" d="M 3366 3391 
L 3366 2478 
Q 3138 2634 2908 2709 
Q 2678 2784 2431 2784 
Q 1963 2784 1702 2511 
Q 1441 2238 1441 1747 
Q 1441 1256 1702 982 
Q 1963 709 2431 709 
Q 2694 709 2930 787 
Q 3166 866 3366 1019 
L 3366 103 
Q 3103 6 2833 -42 
Q 2563 -91 2291 -91 
Q 1344 -91 809 395 
Q 275 881 275 1747 
Q 275 2613 809 3098 
Q 1344 3584 2291 3584 
Q 2566 3584 2833 3536 
Q 3100 3488 3366 3391 
z
" transform="scale(0.015625)"/>
       <path id="DejaVuSans-Bold-68" d="M 4056 2131 
L 4056 0 
L 2931 0 
L 2931 347 
L 2931 1625 
Q 2931 2084 2911 2256 
Q 2891 2428 2841 2509 
Q 2775 2619 2662 2680 
Q 2550 2741 2406 2741 
Q 2056 2741 1856 2470 
Q 1656 2200 1656 1722 
L 1656 0 
L 538 0 
L 538 4863 
L 1656 4863 
L 1656 2988 
Q 1909 3294 2193 3439 
Q 2478 3584 2822 3584 
Q 3428 3584 3742 3212 
Q 4056 2841 4056 2131 
z
" transform="scale(0.015625)"/>
      </defs>
      <use xlink:href="#DejaVuSans-Bold-45"/>
      <use xlink:href="#DejaVuSans-Bold-70" transform="translate(68.310547 0)"/>
      <use xlink:href="#DejaVuSans-Bold-6f" transform="translate(139.892578 0)"/>
      <use xlink:href="#DejaVuSans-Bold-63" transform="translate(208.59375 0)"/>
      <use xlink:href="#DejaVuSans-Bold-68" transform="translate(267.871094 0)"/>
     </g>
    </g>
   </g>
   <g id="matplotlib.axis_2">
    <g id="ytick_1">
     <g id="line2d_17">
      <path d="M 71.098581 296.44 
L 435.42 296.44 
" clip-path="url(#pd6633b9cdf)" style="fill: none; stroke: #b0b0b0; stroke-width: 0.8; stroke-linecap: square"/>
     </g>
     <g id="line2d_18">
      <defs>
       <path id="mbd9472d94b" d="M 0 0 
L -3.5 0 
" style="stroke: #000000; stroke-width: 0.8"/>
      </defs>
      <g>
       <use xlink:href="#mbd9472d94b" x="71.098581" y="296.44" style="stroke: #000000; stroke-width: 0.8"/>
      </g>
     </g>
     <g id="text_10">
      <!-- $\mathdefault{10^{-4}}$ -->
      <g transform="translate(28.958581 301.758906) scale(0.14 -0.14)">
       <defs>
        <path id="DejaVuSans-Bold-2212" d="M 678 2375 
L 4684 2375 
L 4684 1638 
L 678 1638 
L 678 2375 
z
" transform="scale(0.015625)"/>
        <path id="DejaVuSans-Bold-34" d="M 2356 3675 
L 1038 1722 
L 2356 1722 
L 2356 3675 
z
M 2156 4666 
L 3494 4666 
L 3494 1722 
L 4159 1722 
L 4159 850 
L 3494 850 
L 3494 0 
L 2356 0 
L 2356 850 
L 288 850 
L 288 1881 
L 2156 4666 
z
" transform="scale(0.015625)"/>
       </defs>
       <use xlink:href="#DejaVuSans-Bold-31" transform="translate(0 0.684375)"/>
       <use xlink:href="#DejaVuSans-Bold-30" transform="translate(69.580078 0.684375)"/>
       <use xlink:href="#DejaVuSans-Bold-2212" transform="translate(140.117188 38.965625) scale(0.7)"/>
       <use xlink:href="#DejaVuSans-Bold-34" transform="translate(198.769531 38.965625) scale(0.7)"/>
      </g>
     </g>
    </g>
    <g id="ytick_2">
     <g id="line2d_19">
      <path d="M 71.098581 242.672 
L 435.42 242.672 
" clip-path="url(#pd6633b9cdf)" style="fill: none; stroke: #b0b0b0; stroke-width: 0.8; stroke-linecap: square"/>
     </g>
     <g id="line2d_20">
      <g>
       <use xlink:href="#mbd9472d94b" x="71.098581" y="242.672" style="stroke: #000000; stroke-width: 0.8"/>
      </g>
     </g>
     <g id="text_11">
      <!-- $\mathdefault{10^{-3}}$ -->
      <g transform="translate(28.958581 247.990906) scale(0.14 -0.14)">
       <use xlink:href="#DejaVuSans-Bold-31" transform="translate(0 0.765625)"/>
       <use xlink:href="#DejaVuSans-Bold-30" transform="translate(69.580078 0.765625)"/>
       <use xlink:href="#DejaVuSans-Bold-2212" transform="translate(140.117188 39.046875) scale(0.7)"/>
       <use xlink:href="#DejaVuSans-Bold-33" transform="translate(198.769531 39.046875) scale(0.7)"/>
      </g>
     </g>
    </g>
    <g id="ytick_3">
     <g id="line2d_21">
      <path d="M 71.098581 188.904 
L 435.42 188.904 
" clip-path="url(#pd6633b9cdf)" style="fill: none; stroke: #b0b0b0; stroke-width: 0.8; stroke-linecap: square"/>
     </g>
     <g id="line2d_22">
      <g>
       <use xlink:href="#mbd9472d94b" x="71.098581" y="188.904" style="stroke: #000000; stroke-width: 0.8"/>
      </g>
     </g>
     <g id="text_12">
      <!-- $\mathdefault{10^{-2}}$ -->
      <g transform="translate(28.958581 194.222906) scale(0.14 -0.14)">
       <use xlink:href="#DejaVuSans-Bold-31" transform="translate(0 0.765625)"/>
       <use xlink:href="#DejaVuSans-Bold-30" transform="translate(69.580078 0.765625)"/>
       <use xlink:href="#DejaVuSans-Bold-2212" transform="translate(140.117188 39.046875) scale(0.7)"/>
       <use xlink:href="#DejaVuSans-Bold-32" transform="translate(198.769531 39.046875) scale(0.7)"/>
      </g>
     </g>
    </g>
    <g id="ytick_4">
     <g id="line2d_23">
      <path d="M 71.098581 135.136 
L 435.42 135.136 
" clip-path="url(#pd6633b9cdf)" style="fill: none; stroke: #b0b0b0; stroke-width: 0.8; stroke-linecap: square"/>
     </g>
     <g id="line2d_24">
      <g>
       <use xlink:href="#mbd9472d94b" x="71.098581" y="135.136" style="stroke: #000000; stroke-width: 0.8"/>
      </g>
     </g>
     <g id="text_13">
      <!-- $\mathdefault{10^{-1}}$ -->
      <g transform="translate(28.958581 140.454906) scale(0.14 -0.14)">
       <use xlink:href="#DejaVuSans-Bold-31" transform="translate(0 0.684375)"/>
       <use xlink:href="#DejaVuSans-Bold-30" transform="translate(69.580078 0.684375)"/>
       <use xlink:href="#DejaVuSans-Bold-2212" transform="translate(140.117188 38.965625) scale(0.7)"/>
       <use xlink:href="#DejaVuSans-Bold-31" transform="translate(198.769531 38.965625) scale(0.7)"/>
      </g>
     </g>
    </g>
    <g id="ytick_5">
     <g id="line2d_25">
      <path d="M 71.098581 81.368 
L 435.42 81.368 
" clip-path="url(#pd6633b9cdf)" style="fill: none; stroke: #b0b0b0; stroke-width: 0.8; stroke-linecap: square"/>
     </g>
     <g id="line2d_26">
      <g>
       <use xlink:href="#mbd9472d94b" x="71.098581" y="81.368" style="stroke: #000000; stroke-width: 0.8"/>
      </g>
     </g>
     <g id="text_14">
      <!-- $\mathdefault{10^{0}}$ -->
      <g transform="translate(37.218581 86.686906) scale(0.14 -0.14)">
       <use xlink:href="#DejaVuSans-Bold-31" transform="translate(0 0.765625)"/>
       <use xlink:href="#DejaVuSans-Bold-30" transform="translate(69.580078 0.765625)"/>
       <use xlink:href="#DejaVuSans-Bold-30" transform="translate(140.117188 39.046875) scale(0.7)"/>
      </g>
     </g>
    </g>
    <g id="ytick_6">
     <g id="line2d_27">
      <path d="M 71.098581 27.6 
L 435.42 27.6 
" clip-path="url(#pd6633b9cdf)" style="fill: none; stroke: #b0b0b0; stroke-width: 0.8; stroke-linecap: square"/>
     </g>
     <g id="line2d_28">
      <g>
       <use xlink:href="#mbd9472d94b" x="71.098581" y="27.6" style="stroke: #000000; stroke-width: 0.8"/>
      </g>
     </g>
     <g id="text_15">
      <!-- $\mathdefault{10^{1}}$ -->
      <g transform="translate(37.218581 32.918906) scale(0.14 -0.14)">
       <use xlink:href="#DejaVuSans-Bold-31" transform="translate(0 0.684375)"/>
       <use xlink:href="#DejaVuSans-Bold-30" transform="translate(69.580078 0.684375)"/>
       <use xlink:href="#DejaVuSans-Bold-31" transform="translate(140.117188 38.965625) scale(0.7)"/>
      </g>
     </g>
    </g>
    <g id="ytick_7">
     <g id="line2d_29">
      <defs>
       <path id="m7f097fc63e" d="M 0 0 
L -2 0 
" style="stroke: #000000; stroke-width: 0.6"/>
      </defs>
      <g>
       <use xlink:href="#m7f097fc63e" x="71.098581" y="280.254219" style="stroke: #000000; stroke-width: 0.6"/>
      </g>
     </g>
    </g>
    <g id="ytick_8">
     <g id="line2d_30">
      <g>
       <use xlink:href="#m7f097fc63e" x="71.098581" y="270.786144" style="stroke: #000000; stroke-width: 0.6"/>
      </g>
     </g>
    </g>
    <g id="ytick_9">
     <g id="line2d_31">
      <g>
       <use xlink:href="#m7f097fc63e" x="71.098581" y="264.068438" style="stroke: #000000; stroke-width: 0.6"/>
      </g>
     </g>
    </g>
    <g id="ytick_10">
     <g id="line2d_32">
      <g>
       <use xlink:href="#m7f097fc63e" x="71.098581" y="258.857781" style="stroke: #000000; stroke-width: 0.6"/>
      </g>
     </g>
    </g>
    <g id="ytick_11">
     <g id="line2d_33">
      <g>
       <use xlink:href="#m7f097fc63e" x="71.098581" y="254.600364" style="stroke: #000000; stroke-width: 0.6"/>
      </g>
     </g>
    </g>
    <g id="ytick_12">
     <g id="line2d_34">
      <g>
       <use xlink:href="#m7f097fc63e" x="71.098581" y="251.000769" style="stroke: #000000; stroke-width: 0.6"/>
      </g>
     </g>
    </g>
    <g id="ytick_13">
     <g id="line2d_35">
      <g>
       <use xlink:href="#m7f097fc63e" x="71.098581" y="247.882658" style="stroke: #000000; stroke-width: 0.6"/>
      </g>
     </g>
    </g>
    <g id="ytick_14">
     <g id="line2d_36">
      <g>
       <use xlink:href="#m7f097fc63e" x="71.098581" y="245.132289" style="stroke: #000000; stroke-width: 0.6"/>
      </g>
     </g>
    </g>
    <g id="ytick_15">
     <g id="line2d_37">
      <g>
       <use xlink:href="#m7f097fc63e" x="71.098581" y="226.486219" style="stroke: #000000; stroke-width: 0.6"/>
      </g>
     </g>
    </g>
    <g id="ytick_16">
     <g id="line2d_38">
      <g>
       <use xlink:href="#m7f097fc63e" x="71.098581" y="217.018144" style="stroke: #000000; stroke-width: 0.6"/>
      </g>
     </g>
    </g>
    <g id="ytick_17">
     <g id="line2d_39">
      <g>
       <use xlink:href="#m7f097fc63e" x="71.098581" y="210.300438" style="stroke: #000000; stroke-width: 0.6"/>
      </g>
     </g>
    </g>
    <g id="ytick_18">
     <g id="line2d_40">
      <g>
       <use xlink:href="#m7f097fc63e" x="71.098581" y="205.089781" style="stroke: #000000; stroke-width: 0.6"/>
      </g>
     </g>
    </g>
    <g id="ytick_19">
     <g id="line2d_41">
      <g>
       <use xlink:href="#m7f097fc63e" x="71.098581" y="200.832364" style="stroke: #000000; stroke-width: 0.6"/>
      </g>
     </g>
    </g>
    <g id="ytick_20">
     <g id="line2d_42">
      <g>
       <use xlink:href="#m7f097fc63e" x="71.098581" y="197.232769" style="stroke: #000000; stroke-width: 0.6"/>
      </g>
     </g>
    </g>
    <g id="ytick_21">
     <g id="line2d_43">
      <g>
       <use xlink:href="#m7f097fc63e" x="71.098581" y="194.114658" style="stroke: #000000; stroke-width: 0.6"/>
      </g>
     </g>
    </g>
    <g id="ytick_22">
     <g id="line2d_44">
      <g>
       <use xlink:href="#m7f097fc63e" x="71.098581" y="191.364289" style="stroke: #000000; stroke-width: 0.6"/>
      </g>
     </g>
    </g>
    <g id="ytick_23">
     <g id="line2d_45">
      <g>
       <use xlink:href="#m7f097fc63e" x="71.098581" y="172.718219" style="stroke: #000000; stroke-width: 0.6"/>
      </g>
     </g>
    </g>
    <g id="ytick_24">
     <g id="line2d_46">
      <g>
       <use xlink:href="#m7f097fc63e" x="71.098581" y="163.250144" style="stroke: #000000; stroke-width: 0.6"/>
      </g>
     </g>
    </g>
    <g id="ytick_25">
     <g id="line2d_47">
      <g>
       <use xlink:href="#m7f097fc63e" x="71.098581" y="156.532438" style="stroke: #000000; stroke-width: 0.6"/>
      </g>
     </g>
    </g>
    <g id="ytick_26">
     <g id="line2d_48">
      <g>
       <use xlink:href="#m7f097fc63e" x="71.098581" y="151.321781" style="stroke: #000000; stroke-width: 0.6"/>
      </g>
     </g>
    </g>
    <g id="ytick_27">
     <g id="line2d_49">
      <g>
       <use xlink:href="#m7f097fc63e" x="71.098581" y="147.064364" style="stroke: #000000; stroke-width: 0.6"/>
      </g>
     </g>
    </g>
    <g id="ytick_28">
     <g id="line2d_50">
      <g>
       <use xlink:href="#m7f097fc63e" x="71.098581" y="143.464769" style="stroke: #000000; stroke-width: 0.6"/>
      </g>
     </g>
    </g>
    <g id="ytick_29">
     <g id="line2d_51">
      <g>
       <use xlink:href="#m7f097fc63e" x="71.098581" y="140.346658" style="stroke: #000000; stroke-width: 0.6"/>
      </g>
     </g>
    </g>
    <g id="ytick_30">
     <g id="line2d_52">
      <g>
       <use xlink:href="#m7f097fc63e" x="71.098581" y="137.596289" style="stroke: #000000; stroke-width: 0.6"/>
      </g>
     </g>
    </g>
    <g id="ytick_31">
     <g id="line2d_53">
      <g>
       <use xlink:href="#m7f097fc63e" x="71.098581" y="118.950219" style="stroke: #000000; stroke-width: 0.6"/>
      </g>
     </g>
    </g>
    <g id="ytick_32">
     <g id="line2d_54">
      <g>
       <use xlink:href="#m7f097fc63e" x="71.098581" y="109.482144" style="stroke: #000000; stroke-width: 0.6"/>
      </g>
     </g>
    </g>
    <g id="ytick_33">
     <g id="line2d_55">
      <g>
       <use xlink:href="#m7f097fc63e" x="71.098581" y="102.764438" style="stroke: #000000; stroke-width: 0.6"/>
      </g>
     </g>
    </g>
    <g id="ytick_34">
     <g id="line2d_56">
      <g>
       <use xlink:href="#m7f097fc63e" x="71.098581" y="97.553781" style="stroke: #000000; stroke-width: 0.6"/>
      </g>
     </g>
    </g>
    <g id="ytick_35">
     <g id="line2d_57">
      <g>
       <use xlink:href="#m7f097fc63e" x="71.098581" y="93.296364" style="stroke: #000000; stroke-width: 0.6"/>
      </g>
     </g>
    </g>
    <g id="ytick_36">
     <g id="line2d_58">
      <g>
       <use xlink:href="#m7f097fc63e" x="71.098581" y="89.696769" style="stroke: #000000; stroke-width: 0.6"/>
      </g>
     </g>
    </g>
    <g id="ytick_37">
     <g id="line2d_59">
      <g>
       <use xlink:href="#m7f097fc63e" x="71.098581" y="86.578658" style="stroke: #000000; stroke-width: 0.6"/>
      </g>
     </g>
    </g>
    <g id="ytick_38">
     <g id="line2d_60">
      <g>
       <use xlink:href="#m7f097fc63e" x="71.098581" y="83.828289" style="stroke: #000000; stroke-width: 0.6"/>
      </g>
     </g>
    </g>
    <g id="ytick_39">
     <g id="line2d_61">
      <g>
       <use xlink:href="#m7f097fc63e" x="71.098581" y="65.182219" style="stroke: #000000; stroke-width: 0.6"/>
      </g>
     </g>
    </g>
    <g id="ytick_40">
     <g id="line2d_62">
      <g>
       <use xlink:href="#m7f097fc63e" x="71.098581" y="55.714144" style="stroke: #000000; stroke-width: 0.6"/>
      </g>
     </g>
    </g>
    <g id="ytick_41">
     <g id="line2d_63">
      <g>
       <use xlink:href="#m7f097fc63e" x="71.098581" y="48.996438" style="stroke: #000000; stroke-width: 0.6"/>
      </g>
     </g>
    </g>
    <g id="ytick_42">
     <g id="line2d_64">
      <g>
       <use xlink:href="#m7f097fc63e" x="71.098581" y="43.785781" style="stroke: #000000; stroke-width: 0.6"/>
      </g>
     </g>
    </g>
    <g id="ytick_43">
     <g id="line2d_65">
      <g>
       <use xlink:href="#m7f097fc63e" x="71.098581" y="39.528364" style="stroke: #000000; stroke-width: 0.6"/>
      </g>
     </g>
    </g>
    <g id="ytick_44">
     <g id="line2d_66">
      <g>
       <use xlink:href="#m7f097fc63e" x="71.098581" y="35.928769" style="stroke: #000000; stroke-width: 0.6"/>
      </g>
     </g>
    </g>
    <g id="ytick_45">
     <g id="line2d_67">
      <g>
       <use xlink:href="#m7f097fc63e" x="71.098581" y="32.810658" style="stroke: #000000; stroke-width: 0.6"/>
      </g>
     </g>
    </g>
    <g id="ytick_46">
     <g id="line2d_68">
      <g>
       <use xlink:href="#m7f097fc63e" x="71.098581" y="30.060289" style="stroke: #000000; stroke-width: 0.6"/>
      </g>
     </g>
    </g>
    <g id="text_16">
     <!-- MSE Loss -->
     <g transform="translate(22.047018 198.847656) rotate(-90) scale(0.14 -0.14)">
      <defs>
       <path id="DejaVuSans-Bold-4d" d="M 588 4666 
L 2119 4666 
L 3181 2169 
L 4250 4666 
L 5778 4666 
L 5778 0 
L 4641 0 
L 4641 3413 
L 3566 897 
L 2803 897 
L 1728 3413 
L 1728 0 
L 588 0 
L 588 4666 
z
" transform="scale(0.015625)"/>
       <path id="DejaVuSans-Bold-53" d="M 3834 4519 
L 3834 3531 
Q 3450 3703 3084 3790 
Q 2719 3878 2394 3878 
Q 1963 3878 1756 3759 
Q 1550 3641 1550 3391 
Q 1550 3203 1689 3098 
Q 1828 2994 2194 2919 
L 2706 2816 
Q 3484 2659 3812 2340 
Q 4141 2022 4141 1434 
Q 4141 663 3683 286 
Q 3225 -91 2284 -91 
Q 1841 -91 1394 -6 
Q 947 78 500 244 
L 500 1259 
Q 947 1022 1364 901 
Q 1781 781 2169 781 
Q 2563 781 2772 912 
Q 2981 1044 2981 1288 
Q 2981 1506 2839 1625 
Q 2697 1744 2272 1838 
L 1806 1941 
Q 1106 2091 782 2419 
Q 459 2747 459 3303 
Q 459 4000 909 4375 
Q 1359 4750 2203 4750 
Q 2588 4750 2994 4692 
Q 3400 4634 3834 4519 
z
" transform="scale(0.015625)"/>
       <path id="DejaVuSans-Bold-20" transform="scale(0.015625)"/>
       <path id="DejaVuSans-Bold-4c" d="M 588 4666 
L 1791 4666 
L 1791 909 
L 3903 909 
L 3903 0 
L 588 0 
L 588 4666 
z
" transform="scale(0.015625)"/>
       <path id="DejaVuSans-Bold-73" d="M 3272 3391 
L 3272 2541 
Q 2913 2691 2578 2766 
Q 2244 2841 1947 2841 
Q 1628 2841 1473 2761 
Q 1319 2681 1319 2516 
Q 1319 2381 1436 2309 
Q 1553 2238 1856 2203 
L 2053 2175 
Q 2913 2066 3209 1816 
Q 3506 1566 3506 1031 
Q 3506 472 3093 190 
Q 2681 -91 1863 -91 
Q 1516 -91 1145 -36 
Q 775 19 384 128 
L 384 978 
Q 719 816 1070 734 
Q 1422 653 1784 653 
Q 2113 653 2278 743 
Q 2444 834 2444 1013 
Q 2444 1163 2330 1236 
Q 2216 1309 1875 1350 
L 1678 1375 
Q 931 1469 631 1722 
Q 331 1975 331 2491 
Q 331 3047 712 3315 
Q 1094 3584 1881 3584 
Q 2191 3584 2531 3537 
Q 2872 3491 3272 3391 
z
" transform="scale(0.015625)"/>
      </defs>
      <use xlink:href="#DejaVuSans-Bold-4d"/>
      <use xlink:href="#DejaVuSans-Bold-53" transform="translate(99.511719 0)"/>
      <use xlink:href="#DejaVuSans-Bold-45" transform="translate(171.533203 0)"/>
      <use xlink:href="#DejaVuSans-Bold-20" transform="translate(239.84375 0)"/>
      <use xlink:href="#DejaVuSans-Bold-4c" transform="translate(274.658203 0)"/>
      <use xlink:href="#DejaVuSans-Bold-6f" transform="translate(338.378906 0)"/>
      <use xlink:href="#DejaVuSans-Bold-73" transform="translate(407.080078 0)"/>
      <use xlink:href="#DejaVuSans-Bold-73" transform="translate(466.601562 0)"/>
     </g>
    </g>
   </g>
   <g id="line2d_69">
    <path d="M 81.21862 37.449763 
L 82.230624 135.452708 
L 83.242628 141.303744 
L 84.254632 141.74404 
L 85.266636 144.979996 
L 86.27864 143.560866 
L 87.290644 145.652009 
L 88.302648 146.352542 
L 89.314652 145.982364 
L 90.326656 147.664367 
L 91.33866 147.004198 
L 92.350664 144.395685 
L 93.362668 147.635621 
L 94.374672 145.980584 
L 95.386675 143.410166 
L 96.398679 150.72528 
L 97.410683 150.787629 
L 98.422687 147.703359 
L 99.434691 146.191319 
L 100.446695 151.785064 
L 101.458699 149.342809 
L 102.470703 150.393083 
L 103.482707 148.922125 
L 104.494711 150.932083 
L 105.506715 149.907889 
L 106.518719 152.808851 
L 107.530723 151.69532 
L 108.542727 152.946772 
L 109.554731 142.626277 
L 111.578739 155.223196 
L 112.590742 152.008969 
L 113.602746 150.757265 
L 114.61475 148.089112 
L 116.638758 154.30876 
L 117.650762 154.0484 
L 118.662766 150.873525 
L 119.67477 149.923527 
L 120.686774 154.222293 
L 121.698778 148.332501 
L 122.710782 152.542608 
L 123.722786 152.968239 
L 124.73479 156.851952 
L 125.746794 152.051108 
L 126.758798 145.441844 
L 127.770802 152.230613 
L 128.782806 150.205182 
L 129.794809 152.254089 
L 130.806813 141.964346 
L 131.818817 150.861414 
L 132.830821 157.29155 
L 133.842825 159.737484 
L 134.854829 158.050505 
L 135.866833 161.702229 
L 136.878837 157.811444 
L 137.890841 160.67694 
L 138.902845 158.955109 
L 139.914849 159.040295 
L 140.926853 160.498362 
L 141.938857 159.782715 
L 142.950861 159.894943 
L 143.962865 159.010682 
L 144.974869 157.776048 
L 145.986873 160.883815 
L 146.998876 161.027274 
L 148.01088 160.292359 
L 149.022884 160.44858 
L 150.034888 159.516876 
L 151.046892 159.211607 
L 152.058896 159.936783 
L 153.0709 159.567136 
L 154.082904 159.551987 
L 155.094908 161.788071 
L 156.106912 161.294657 
L 157.118916 161.589585 
L 158.13092 160.379436 
L 159.142924 160.526136 
L 160.154928 158.702567 
L 161.166932 160.362498 
L 162.178936 161.719505 
L 163.19094 160.708745 
L 164.202944 159.142455 
L 166.226951 160.378182 
L 167.238955 158.580217 
L 168.250959 158.731206 
L 169.262963 160.894078 
L 170.274967 161.363296 
L 171.286971 161.486694 
L 172.298975 160.002154 
L 173.310979 162.483657 
L 174.322983 163.050936 
L 175.334987 162.293497 
L 176.346991 163.285032 
L 177.358995 162.322128 
L 179.383003 164.103109 
L 180.395007 161.491301 
L 182.419014 163.198477 
L 183.431018 162.135304 
L 184.443022 162.685074 
L 185.455026 162.862402 
L 186.46703 164.661848 
L 187.479034 163.409754 
L 188.491038 164.621169 
L 190.515046 163.023508 
L 191.52705 163.687234 
L 192.539054 164.62945 
L 193.551058 161.268565 
L 194.563062 163.851969 
L 195.575066 165.461783 
L 198.611078 163.352657 
L 199.623081 165.172551 
L 200.635085 165.228103 
L 201.647089 164.472617 
L 202.659093 165.631712 
L 203.671097 164.252286 
L 204.683101 164.006874 
L 205.695105 164.836666 
L 206.707109 164.17241 
L 207.719113 164.450191 
L 208.731117 164.454674 
L 209.743121 162.75237 
L 212.779133 165.52585 
L 213.791137 164.570795 
L 214.803141 163.863624 
L 215.815145 164.036217 
L 216.827149 165.27527 
L 217.839152 165.650583 
L 218.851156 164.379317 
L 219.86316 163.795959 
L 220.875164 165.43527 
L 221.887168 164.569293 
L 222.899172 166.499605 
L 223.911176 165.20957 
L 224.92318 165.511772 
L 225.935184 165.409564 
L 226.947188 164.953182 
L 227.959192 164.644514 
L 228.971196 165.749903 
L 229.9832 165.5509 
L 230.995204 166.298181 
L 232.007208 164.635473 
L 233.019212 164.519032 
L 234.031216 164.847304 
L 235.043219 164.215272 
L 236.055223 165.247422 
L 237.067227 165.084095 
L 238.079231 165.708862 
L 239.091235 164.959289 
L 240.103239 165.018164 
L 241.115243 165.731742 
L 242.127247 164.788859 
L 243.139251 166.235189 
L 244.151255 165.895705 
L 245.163259 164.666372 
L 246.175263 165.769659 
L 247.187267 166.159499 
L 248.199271 165.081792 
L 249.211275 165.712806 
L 250.223279 165.465685 
L 251.235283 164.75477 
L 252.247286 164.666372 
L 253.25929 166.095273 
L 254.271294 166.043222 
L 255.283298 164.745689 
L 256.295302 165.385444 
L 257.307306 164.319802 
L 258.31931 165.68128 
L 259.331314 165.734899 
L 260.343318 164.710907 
L 261.355322 164.90361 
L 263.37933 165.091005 
L 266.415342 166.040822 
L 267.427346 165.339604 
L 268.43935 166.463742 
L 269.451353 165.757014 
L 270.463357 165.985699 
L 271.475361 165.088702 
L 272.487365 165.376891 
L 273.499369 164.76007 
L 274.511373 164.441227 
L 275.523377 165.450861 
L 276.535381 165.78785 
L 277.547385 165.430594 
L 278.559389 165.303928 
L 279.571393 166.040822 
L 280.583397 164.626438 
L 281.595401 165.561868 
L 282.607405 163.117884 
L 283.619409 165.464904 
L 284.631413 165.634071 
L 285.643417 165.40723 
L 286.655421 166.258589 
L 287.667424 165.183342 
L 288.679428 165.135589 
L 289.691432 165.688368 
L 290.703436 164.763855 
L 291.71544 165.571273 
L 292.727444 164.979153 
L 293.739448 164.89904 
L 294.751452 165.751483 
L 296.77546 165.073349 
L 297.787464 165.217291 
L 298.799468 165.18103 
L 299.811472 164.90361 
L 300.823476 164.330205 
L 301.83548 164.388259 
L 302.847484 165.439166 
L 303.859488 166.011247 
L 304.871491 165.471147 
L 304.871491 165.471147 
" clip-path="url(#pd6633b9cdf)" style="fill: none; stroke: #1f77b4; stroke-width: 1.75; stroke-linecap: square"/>
   </g>
   <g id="line2d_70">
    <path d="M 81.21862 104.207468 
L 82.230624 169.843907 
L 83.242628 159.444914 
L 84.254632 175.18116 
L 85.266636 172.75405 
L 86.27864 145.468081 
L 87.290644 145.638549 
L 88.302648 172.959864 
L 89.314652 192.582155 
L 90.326656 141.358864 
L 91.33866 184.653972 
L 92.350664 189.361982 
L 93.362668 194.624858 
L 94.374672 60.52228 
L 95.386675 146.460167 
L 96.398679 171.217672 
L 97.410683 146.607388 
L 98.422687 194.646652 
L 99.434691 167.00827 
L 100.446695 191.281839 
L 101.458699 175.834382 
L 102.470703 157.186851 
L 103.482707 195.086838 
L 104.494711 152.70549 
L 105.506715 189.44908 
L 106.518719 150.99334 
L 107.530723 188.575558 
L 108.542727 122.406894 
L 109.554731 171.297751 
L 110.566735 190.722279 
L 111.578739 160.694573 
L 112.590742 182.226395 
L 113.602746 157.064433 
L 114.61475 159.790287 
L 115.626754 135.420752 
L 116.638758 204.845547 
L 117.650762 200.85397 
L 118.662766 180.332686 
L 119.67477 169.641276 
L 120.686774 183.220767 
L 121.698778 155.581926 
L 122.710782 166.441115 
L 123.722786 147.097349 
L 124.73479 202.020311 
L 125.746794 167.507561 
L 126.758798 199.933745 
L 127.770802 135.235098 
L 128.782806 133.121525 
L 129.794809 163.976264 
L 130.806813 145.748411 
L 131.818817 204.744533 
L 132.830821 147.682275 
L 133.842825 175.980969 
L 134.854829 209.170551 
L 135.866833 209.211198 
L 136.878837 208.887994 
L 137.890841 209.538938 
L 138.902845 207.074525 
L 139.914849 209.787799 
L 140.926853 183.021127 
L 141.938857 211.02949 
L 142.950861 168.432687 
L 143.962865 208.648492 
L 144.974869 201.226679 
L 145.986873 188.241727 
L 146.998876 203.951774 
L 148.01088 184.753673 
L 149.022884 211.473442 
L 150.034888 195.131315 
L 151.046892 192.843066 
L 152.058896 208.648492 
L 153.0709 212.716063 
L 154.082904 206.415671 
L 155.094908 206.235908 
L 156.106912 209.415496 
L 157.118916 213.193607 
L 158.13092 198.682729 
L 159.142924 197.643604 
L 160.154928 190.575301 
L 161.166932 211.698623 
L 162.178936 200.939454 
L 163.19094 199.607911 
L 164.202944 189.102618 
L 165.214947 176.10876 
L 166.226951 212.621714 
L 167.238955 190.630309 
L 168.250959 211.206059 
L 169.262963 209.374495 
L 170.274967 159.570797 
L 171.286971 195.377474 
L 172.298975 208.254704 
L 173.310979 190.611958 
L 174.322983 209.456572 
L 175.334987 215.47234 
L 176.346991 212.621714 
L 177.358995 207.03743 
L 179.383003 214.330501 
L 180.395007 214.790889 
L 181.407011 214.687794 
L 182.419014 213.001415 
L 183.431018 208.569202 
L 184.443022 214.636417 
L 185.455026 210.854246 
L 186.46703 214.179034 
L 187.479034 215.366199 
L 188.491038 214.482958 
L 189.503042 215.901798 
L 190.515046 214.842609 
L 191.52705 211.073507 
L 192.539054 209.211198 
L 193.551058 214.128763 
L 194.563062 208.847905 
L 195.575066 214.894442 
L 196.58707 214.179034 
L 197.599074 211.250412 
L 198.611078 199.022105 
L 199.623081 216.449973 
L 200.635085 215.260537 
L 201.647089 203.279522 
L 202.659093 213.582803 
L 203.671097 212.201801 
L 204.683101 214.432027 
L 205.695105 214.432027 
L 206.707109 212.810793 
L 207.719113 209.415496 
L 209.743121 197.718089 
L 210.755125 216.064904 
L 211.767129 211.60829 
L 212.779133 212.434154 
L 213.791137 215.260537 
L 214.803141 214.330501 
L 215.815145 204.947001 
L 216.827149 215.793692 
L 217.839152 214.58515 
L 218.851156 216.284165 
L 219.86316 216.119526 
L 220.875164 213.582803 
L 221.887168 216.449973 
L 222.899172 214.432027 
L 223.911176 211.161792 
L 224.92318 216.785163 
L 225.935184 211.518304 
L 226.947188 216.394573 
L 227.959192 213.879014 
L 228.971196 217.354731 
L 229.9832 213.681122 
L 230.995204 214.533998 
L 232.007208 207.524319 
L 233.019212 215.956041 
L 234.031216 215.632463 
L 235.043219 208.807888 
L 236.055223 207.714323 
L 237.067227 215.793692 
L 238.079231 216.672897 
L 239.091235 209.787799 
L 240.103239 214.790889 
L 241.115243 215.260537 
L 242.127247 204.510519 
L 243.139251 215.632463 
L 244.151255 214.533998 
L 245.163259 214.739284 
L 246.175263 212.90591 
L 247.187267 210.767116 
L 248.199271 214.687794 
L 249.211275 215.578967 
L 250.223279 215.050638 
L 251.235283 205.704774 
L 252.247286 212.248088 
L 253.25929 214.790889 
L 254.271294 212.340935 
L 255.283298 200.571264 
L 256.295302 209.129977 
L 257.307306 209.829536 
L 258.31931 215.686082 
L 259.331314 215.050638 
L 260.343318 211.834782 
L 261.355322 213.730438 
L 262.367326 216.95458 
L 263.37933 205.880481 
L 264.391334 213.533796 
L 265.403338 207.638135 
L 266.415342 215.155351 
L 267.427346 213.829384 
L 268.43935 216.505504 
L 269.451353 213.730438 
L 270.463357 210.166134 
L 271.475361 214.179034 
L 272.487365 211.294847 
L 273.499369 211.653413 
L 274.511373 211.743922 
L 275.523377 213.681122 
L 276.535381 207.411057 
L 277.547385 214.946391 
L 278.559389 217.297144 
L 279.571393 216.010409 
L 280.583397 216.394573 
L 281.595401 215.050638 
L 282.607405 215.102936 
L 283.619409 214.842609 
L 284.631413 208.332932 
L 285.643417 216.119526 
L 286.655421 206.963417 
L 287.667424 216.284165 
L 288.679428 214.687794 
L 289.691432 214.636417 
L 291.71544 215.578967 
L 292.727444 212.76338 
L 293.739448 216.897969 
L 294.751452 214.998457 
L 295.763456 215.578967 
L 296.77546 214.028542 
L 297.787464 213.928752 
L 298.799468 213.582803 
L 299.811472 213.928752 
L 300.823476 214.128763 
L 301.83548 216.505504 
L 302.847484 213.533796 
L 303.859488 211.834782 
L 304.871491 212.66884 
L 304.871491 212.66884 
" clip-path="url(#pd6633b9cdf)" style="fill: none; stroke-dasharray: 5.55,2.4; stroke-dashoffset: 0; stroke: #ff7f0e; stroke-width: 1.5"/>
   </g>
   <g id="patch_3">
    <path d="M 71.098581 296.44 
L 71.098581 27.6 
" style="fill: none; stroke: #000000; stroke-width: 0.8; stroke-linejoin: miter; stroke-linecap: square"/>
   </g>
   <g id="patch_4">
    <path d="M 435.42 296.44 
L 435.42 27.6 
" style="fill: none; stroke: #000000; stroke-width: 0.8; stroke-linejoin: miter; stroke-linecap: square"/>
   </g>
   <g id="patch_5">
    <path d="M 71.098581 296.44 
L 435.42 296.44 
" style="fill: none; stroke: #000000; stroke-width: 0.8; stroke-linejoin: miter; stroke-linecap: square"/>
   </g>
   <g id="patch_6">
    <path d="M 71.098581 27.6 
L 435.42 27.6 
" style="fill: none; stroke: #000000; stroke-width: 0.8; stroke-linejoin: miter; stroke-linecap: square"/>
   </g>
   <g id="text_17">
    <!-- EfficientNet-B0 Tuned Model -->
    <g transform="translate(140.761634 21.6) scale(0.14 -0.14)">
     <defs>
      <path id="DejaVuSans-Bold-66" d="M 2841 4863 
L 2841 4128 
L 2222 4128 
Q 1984 4128 1890 4042 
Q 1797 3956 1797 3744 
L 1797 3500 
L 2753 3500 
L 2753 2700 
L 1797 2700 
L 1797 0 
L 678 0 
L 678 2700 
L 122 2700 
L 122 3500 
L 678 3500 
L 678 3744 
Q 678 4316 997 4589 
Q 1316 4863 1984 4863 
L 2841 4863 
z
" transform="scale(0.015625)"/>
      <path id="DejaVuSans-Bold-69" d="M 538 3500 
L 1656 3500 
L 1656 0 
L 538 0 
L 538 3500 
z
M 538 4863 
L 1656 4863 
L 1656 3950 
L 538 3950 
L 538 4863 
z
" transform="scale(0.015625)"/>
      <path id="DejaVuSans-Bold-65" d="M 4031 1759 
L 4031 1441 
L 1416 1441 
Q 1456 1047 1700 850 
Q 1944 653 2381 653 
Q 2734 653 3104 758 
Q 3475 863 3866 1075 
L 3866 213 
Q 3469 63 3072 -14 
Q 2675 -91 2278 -91 
Q 1328 -91 801 392 
Q 275 875 275 1747 
Q 275 2603 792 3093 
Q 1309 3584 2216 3584 
Q 3041 3584 3536 3087 
Q 4031 2591 4031 1759 
z
M 2881 2131 
Q 2881 2450 2695 2645 
Q 2509 2841 2209 2841 
Q 1884 2841 1681 2658 
Q 1478 2475 1428 2131 
L 2881 2131 
z
" transform="scale(0.015625)"/>
      <path id="DejaVuSans-Bold-6e" d="M 4056 2131 
L 4056 0 
L 2931 0 
L 2931 347 
L 2931 1631 
Q 2931 2084 2911 2256 
Q 2891 2428 2841 2509 
Q 2775 2619 2662 2680 
Q 2550 2741 2406 2741 
Q 2056 2741 1856 2470 
Q 1656 2200 1656 1722 
L 1656 0 
L 538 0 
L 538 3500 
L 1656 3500 
L 1656 2988 
Q 1909 3294 2193 3439 
Q 2478 3584 2822 3584 
Q 3428 3584 3742 3212 
Q 4056 2841 4056 2131 
z
" transform="scale(0.015625)"/>
      <path id="DejaVuSans-Bold-74" d="M 1759 4494 
L 1759 3500 
L 2913 3500 
L 2913 2700 
L 1759 2700 
L 1759 1216 
Q 1759 972 1856 886 
Q 1953 800 2241 800 
L 2816 800 
L 2816 0 
L 1856 0 
Q 1194 0 917 276 
Q 641 553 641 1216 
L 641 2700 
L 84 2700 
L 84 3500 
L 641 3500 
L 641 4494 
L 1759 4494 
z
" transform="scale(0.015625)"/>
      <path id="DejaVuSans-Bold-4e" d="M 588 4666 
L 1931 4666 
L 3628 1466 
L 3628 4666 
L 4769 4666 
L 4769 0 
L 3425 0 
L 1728 3200 
L 1728 0 
L 588 0 
L 588 4666 
z
" transform="scale(0.015625)"/>
      <path id="DejaVuSans-Bold-2d" d="M 347 2297 
L 2309 2297 
L 2309 1388 
L 347 1388 
L 347 2297 
z
" transform="scale(0.015625)"/>
      <path id="DejaVuSans-Bold-42" d="M 2456 2859 
Q 2741 2859 2887 2984 
Q 3034 3109 3034 3353 
Q 3034 3594 2887 3720 
Q 2741 3847 2456 3847 
L 1791 3847 
L 1791 2859 
L 2456 2859 
z
M 2497 819 
Q 2859 819 3042 972 
Q 3225 1125 3225 1434 
Q 3225 1738 3044 1889 
Q 2863 2041 2497 2041 
L 1791 2041 
L 1791 819 
L 2497 819 
z
M 3616 2497 
Q 4003 2384 4215 2081 
Q 4428 1778 4428 1338 
Q 4428 663 3972 331 
Q 3516 0 2584 0 
L 588 0 
L 588 4666 
L 2394 4666 
Q 3366 4666 3802 4372 
Q 4238 4078 4238 3431 
Q 4238 3091 4078 2852 
Q 3919 2613 3616 2497 
z
" transform="scale(0.015625)"/>
      <path id="DejaVuSans-Bold-54" d="M 31 4666 
L 4331 4666 
L 4331 3756 
L 2784 3756 
L 2784 0 
L 1581 0 
L 1581 3756 
L 31 3756 
L 31 4666 
z
" transform="scale(0.015625)"/>
      <path id="DejaVuSans-Bold-75" d="M 500 1363 
L 500 3500 
L 1625 3500 
L 1625 3150 
Q 1625 2866 1622 2436 
Q 1619 2006 1619 1863 
Q 1619 1441 1641 1255 
Q 1663 1069 1716 984 
Q 1784 875 1895 815 
Q 2006 756 2150 756 
Q 2500 756 2700 1025 
Q 2900 1294 2900 1772 
L 2900 3500 
L 4019 3500 
L 4019 0 
L 2900 0 
L 2900 506 
Q 2647 200 2364 54 
Q 2081 -91 1741 -91 
Q 1134 -91 817 281 
Q 500 653 500 1363 
z
" transform="scale(0.015625)"/>
      <path id="DejaVuSans-Bold-64" d="M 2919 2988 
L 2919 4863 
L 4044 4863 
L 4044 0 
L 2919 0 
L 2919 506 
Q 2688 197 2409 53 
Q 2131 -91 1766 -91 
Q 1119 -91 703 423 
Q 288 938 288 1747 
Q 288 2556 703 3070 
Q 1119 3584 1766 3584 
Q 2128 3584 2408 3439 
Q 2688 3294 2919 2988 
z
M 2181 722 
Q 2541 722 2730 984 
Q 2919 1247 2919 1747 
Q 2919 2247 2730 2509 
Q 2541 2772 2181 2772 
Q 1825 2772 1636 2509 
Q 1447 2247 1447 1747 
Q 1447 1247 1636 984 
Q 1825 722 2181 722 
z
" transform="scale(0.015625)"/>
      <path id="DejaVuSans-Bold-6c" d="M 538 4863 
L 1656 4863 
L 1656 0 
L 538 0 
L 538 4863 
z
" transform="scale(0.015625)"/>
     </defs>
     <use xlink:href="#DejaVuSans-Bold-45"/>
     <use xlink:href="#DejaVuSans-Bold-66" transform="translate(68.310547 0)"/>
     <use xlink:href="#DejaVuSans-Bold-66" transform="translate(111.816406 0)"/>
     <use xlink:href="#DejaVuSans-Bold-69" transform="translate(155.322266 0)"/>
     <use xlink:href="#DejaVuSans-Bold-63" transform="translate(189.599609 0)"/>
     <use xlink:href="#DejaVuSans-Bold-69" transform="translate(248.876953 0)"/>
     <use xlink:href="#DejaVuSans-Bold-65" transform="translate(283.154297 0)"/>
     <use xlink:href="#DejaVuSans-Bold-6e" transform="translate(350.976562 0)"/>
     <use xlink:href="#DejaVuSans-Bold-74" transform="translate(422.167969 0)"/>
     <use xlink:href="#DejaVuSans-Bold-4e" transform="translate(469.970703 0)"/>
     <use xlink:href="#DejaVuSans-Bold-65" transform="translate(553.662109 0)"/>
     <use xlink:href="#DejaVuSans-Bold-74" transform="translate(621.484375 0)"/>
     <use xlink:href="#DejaVuSans-Bold-2d" transform="translate(669.287109 0)"/>
     <use xlink:href="#DejaVuSans-Bold-42" transform="translate(710.791016 0)"/>
     <use xlink:href="#DejaVuSans-Bold-30" transform="translate(787.011719 0)"/>
     <use xlink:href="#DejaVuSans-Bold-20" transform="translate(856.591797 0)"/>
     <use xlink:href="#DejaVuSans-Bold-54" transform="translate(891.40625 0)"/>
     <use xlink:href="#DejaVuSans-Bold-75" transform="translate(948.619141 0)"/>
     <use xlink:href="#DejaVuSans-Bold-6e" transform="translate(1019.810547 0)"/>
     <use xlink:href="#DejaVuSans-Bold-65" transform="translate(1091.001953 0)"/>
     <use xlink:href="#DejaVuSans-Bold-64" transform="translate(1158.824219 0)"/>
     <use xlink:href="#DejaVuSans-Bold-20" transform="translate(1230.40625 0)"/>
     <use xlink:href="#DejaVuSans-Bold-4d" transform="translate(1265.220703 0)"/>
     <use xlink:href="#DejaVuSans-Bold-6f" transform="translate(1364.732422 0)"/>
     <use xlink:href="#DejaVuSans-Bold-64" transform="translate(1433.433594 0)"/>
     <use xlink:href="#DejaVuSans-Bold-65" transform="translate(1505.015625 0)"/>
     <use xlink:href="#DejaVuSans-Bold-6c" transform="translate(1572.837891 0)"/>
    </g>
   </g>
   <g id="legend_1">
    <g id="patch_7">
     <path d="M 301.164375 79.89875 
L 425.62 79.89875 
Q 428.42 79.89875 428.42 77.09875 
L 428.42 37.4 
Q 428.42 34.6 425.62 34.6 
L 301.164375 34.6 
Q 298.364375 34.6 298.364375 37.4 
L 298.364375 77.09875 
Q 298.364375 79.89875 301.164375 79.89875 
z
" style="fill: #ffffff; opacity: 0.8; stroke: #cccccc; stroke-linejoin: miter"/>
    </g>
    <g id="line2d_71">
     <path d="M 303.964375 45.937812 
L 317.964375 45.937812 
L 331.964375 45.937812 
" style="fill: none; stroke: #1f77b4; stroke-width: 1.75; stroke-linecap: square"/>
    </g>
    <g id="text_18">
     <!-- Train -->
     <g transform="translate(343.164375 50.837812) scale(0.14 -0.14)">
      <defs>
       <path id="DejaVuSans-Bold-72" d="M 3138 2547 
Q 2991 2616 2845 2648 
Q 2700 2681 2553 2681 
Q 2122 2681 1889 2404 
Q 1656 2128 1656 1613 
L 1656 0 
L 538 0 
L 538 3500 
L 1656 3500 
L 1656 2925 
Q 1872 3269 2151 3426 
Q 2431 3584 2822 3584 
Q 2878 3584 2943 3579 
Q 3009 3575 3134 3559 
L 3138 2547 
z
" transform="scale(0.015625)"/>
       <path id="DejaVuSans-Bold-61" d="M 2106 1575 
Q 1756 1575 1579 1456 
Q 1403 1338 1403 1106 
Q 1403 894 1545 773 
Q 1688 653 1941 653 
Q 2256 653 2472 879 
Q 2688 1106 2688 1447 
L 2688 1575 
L 2106 1575 
z
M 3816 1997 
L 3816 0 
L 2688 0 
L 2688 519 
Q 2463 200 2181 54 
Q 1900 -91 1497 -91 
Q 953 -91 614 226 
Q 275 544 275 1050 
Q 275 1666 698 1953 
Q 1122 2241 2028 2241 
L 2688 2241 
L 2688 2328 
Q 2688 2594 2478 2717 
Q 2269 2841 1825 2841 
Q 1466 2841 1156 2769 
Q 847 2697 581 2553 
L 581 3406 
Q 941 3494 1303 3539 
Q 1666 3584 2028 3584 
Q 2975 3584 3395 3211 
Q 3816 2838 3816 1997 
z
" transform="scale(0.015625)"/>
      </defs>
      <use xlink:href="#DejaVuSans-Bold-54"/>
      <use xlink:href="#DejaVuSans-Bold-72" transform="translate(57.212891 0)"/>
      <use xlink:href="#DejaVuSans-Bold-61" transform="translate(106.529297 0)"/>
      <use xlink:href="#DejaVuSans-Bold-69" transform="translate(174.009766 0)"/>
      <use xlink:href="#DejaVuSans-Bold-6e" transform="translate(208.287109 0)"/>
     </g>
    </g>
    <g id="line2d_72">
     <path d="M 303.964375 66.487187 
L 317.964375 66.487187 
L 331.964375 66.487187 
" style="fill: none; stroke-dasharray: 5.55,2.4; stroke-dashoffset: 0; stroke: #ff7f0e; stroke-width: 1.5"/>
    </g>
    <g id="text_19">
     <!-- Validation -->
     <g transform="translate(343.164375 71.387187) scale(0.14 -0.14)">
      <defs>
       <path id="DejaVuSans-Bold-56" d="M 31 4666 
L 1241 4666 
L 2478 1222 
L 3713 4666 
L 4922 4666 
L 3194 0 
L 1759 0 
L 31 4666 
z
" transform="scale(0.015625)"/>
      </defs>
      <use xlink:href="#DejaVuSans-Bold-56"/>
      <use xlink:href="#DejaVuSans-Bold-61" transform="translate(71.892578 0)"/>
      <use xlink:href="#DejaVuSans-Bold-6c" transform="translate(139.373047 0)"/>
      <use xlink:href="#DejaVuSans-Bold-69" transform="translate(173.650391 0)"/>
      <use xlink:href="#DejaVuSans-Bold-64" transform="translate(207.927734 0)"/>
      <use xlink:href="#DejaVuSans-Bold-61" transform="translate(279.509766 0)"/>
      <use xlink:href="#DejaVuSans-Bold-74" transform="translate(346.990234 0)"/>
      <use xlink:href="#DejaVuSans-Bold-69" transform="translate(394.792969 0)"/>
      <use xlink:href="#DejaVuSans-Bold-6f" transform="translate(429.070312 0)"/>
      <use xlink:href="#DejaVuSans-Bold-6e" transform="translate(497.771484 0)"/>
     </g>
    </g>
   </g>
  </g>
 </g>
 <defs>
  <clipPath id="pd6633b9cdf">
   <rect x="71.098581" y="27.6" width="364.321419" height="268.84"/>
  </clipPath>
 </defs>
</svg>
