<?xml version="1.0" encoding="utf-8" standalone="no"?>
<!DOCTYPE svg PUBLIC "-//W3C//DTD SVG 1.1//EN"
  "http://www.w3.org/Graphics/SVG/1.1/DTD/svg11.dtd">
<svg xmlns:xlink="http://www.w3.org/1999/xlink" width="460.8pt" height="345.6pt" viewBox="0 0 460.8 345.6" xmlns="http://www.w3.org/2000/svg" version="1.1">
 <metadata>
  <rdf:RDF xmlns:dc="http://purl.org/dc/elements/1.1/" xmlns:cc="http://creativecommons.org/ns#" xmlns:rdf="http://www.w3.org/1999/02/22-rdf-syntax-ns#">
   <cc:Work>
    <dc:type rdf:resource="http://purl.org/dc/dcmitype/StillImage"/>
    <dc:date>2025-06-24T12:33:27.900661</dc:date>
    <dc:format>image/svg+xml</dc:format>
    <dc:creator>
     <cc:Agent>
      <dc:title>Matplotlib v3.10.0, https://matplotlib.org/</dc:title>
     </cc:Agent>
    </dc:creator>
   </cc:Work>
  </rdf:RDF>
 </metadata>
 <defs>
  <style type="text/css">*{stroke-linejoin: round; stroke-linecap: butt}</style>
 </defs>
 <g id="figure_1">
  <g id="patch_1">
   <path d="M 0 345.6 
L 460.8 345.6 
L 460.8 0 
L 0 0 
z
" style="fill: #ffffff"/>
  </g>
  <g id="axes_1">
   <g id="patch_2">
    <path d="M 71.098581 296.44 
L 435.42 296.44 
L 435.42 27.6 
L 71.098581 27.6 
z
" style="fill: #ffffff"/>
   </g>
   <g id="matplotlib.axis_1">
    <g id="xtick_1">
     <g id="line2d_1">
      <path d="M 81.21862 296.44 
L 81.21862 27.6 
" clip-path="url(#pd64fa2b787)" style="fill: none; stroke: #b0b0b0; stroke-width: 0.8; stroke-linecap: square"/>
     </g>
     <g id="line2d_2">
      <defs>
       <path id="m3f5144c6af" d="M 0 0 
L 0 3.5 
" style="stroke: #000000; stroke-width: 0.8"/>
      </defs>
      <g>
       <use xlink:href="#m3f5144c6af" x="81.21862" y="296.44" style="stroke: #000000; stroke-width: 0.8"/>
      </g>
     </g>
     <g id="text_1">
      <!-- 0 -->
      <g transform="translate(76.348152 314.077812) scale(0.14 -0.14)">
       <defs>
        <path id="DejaVuSans-Bold-30" d="M 2944 2338 
Q 2944 3213 2780 3570 
Q 2616 3928 2228 3928 
Q 1841 3928 1675 3570 
Q 1509 3213 1509 2338 
Q 1509 1453 1675 1090 
Q 1841 728 2228 728 
Q 2613 728 2778 1090 
Q 2944 1453 2944 2338 
z
M 4147 2328 
Q 4147 1169 3647 539 
Q 3147 -91 2228 -91 
Q 1306 -91 806 539 
Q 306 1169 306 2328 
Q 306 3491 806 4120 
Q 1306 4750 2228 4750 
Q 3147 4750 3647 4120 
Q 4147 3491 4147 2328 
z
" transform="scale(0.015625)"/>
       </defs>
       <use xlink:href="#DejaVuSans-Bold-30"/>
      </g>
     </g>
    </g>
    <g id="xtick_2">
     <g id="line2d_3">
      <path d="M 131.818817 296.44 
L 131.818817 27.6 
" clip-path="url(#pd64fa2b787)" style="fill: none; stroke: #b0b0b0; stroke-width: 0.8; stroke-linecap: square"/>
     </g>
     <g id="line2d_4">
      <g>
       <use xlink:href="#m3f5144c6af" x="131.818817" y="296.44" style="stroke: #000000; stroke-width: 0.8"/>
      </g>
     </g>
     <g id="text_2">
      <!-- 50 -->
      <g transform="translate(122.07788 314.077812) scale(0.14 -0.14)">
       <defs>
        <path id="DejaVuSans-Bold-35" d="M 678 4666 
L 3669 4666 
L 3669 3781 
L 1638 3781 
L 1638 3059 
Q 1775 3097 1914 3117 
Q 2053 3138 2203 3138 
Q 3056 3138 3531 2711 
Q 4006 2284 4006 1522 
Q 4006 766 3489 337 
Q 2972 -91 2053 -91 
Q 1656 -91 1267 -14 
Q 878 63 494 219 
L 494 1166 
Q 875 947 1217 837 
Q 1559 728 1863 728 
Q 2300 728 2551 942 
Q 2803 1156 2803 1522 
Q 2803 1891 2551 2103 
Q 2300 2316 1863 2316 
Q 1603 2316 1309 2248 
Q 1016 2181 678 2041 
L 678 4666 
z
" transform="scale(0.015625)"/>
       </defs>
       <use xlink:href="#DejaVuSans-Bold-35"/>
       <use xlink:href="#DejaVuSans-Bold-30" transform="translate(69.580078 0)"/>
      </g>
     </g>
    </g>
    <g id="xtick_3">
     <g id="line2d_5">
      <path d="M 182.419014 296.44 
L 182.419014 27.6 
" clip-path="url(#pd64fa2b787)" style="fill: none; stroke: #b0b0b0; stroke-width: 0.8; stroke-linecap: square"/>
     </g>
     <g id="line2d_6">
      <g>
       <use xlink:href="#m3f5144c6af" x="182.419014" y="296.44" style="stroke: #000000; stroke-width: 0.8"/>
      </g>
     </g>
     <g id="text_3">
      <!-- 100 -->
      <g transform="translate(167.807608 314.077812) scale(0.14 -0.14)">
       <defs>
        <path id="DejaVuSans-Bold-31" d="M 750 831 
L 1813 831 
L 1813 3847 
L 722 3622 
L 722 4441 
L 1806 4666 
L 2950 4666 
L 2950 831 
L 4013 831 
L 4013 0 
L 750 0 
L 750 831 
z
" transform="scale(0.015625)"/>
       </defs>
       <use xlink:href="#DejaVuSans-Bold-31"/>
       <use xlink:href="#DejaVuSans-Bold-30" transform="translate(69.580078 0)"/>
       <use xlink:href="#DejaVuSans-Bold-30" transform="translate(139.160156 0)"/>
      </g>
     </g>
    </g>
    <g id="xtick_4">
     <g id="line2d_7">
      <path d="M 233.019212 296.44 
L 233.019212 27.6 
" clip-path="url(#pd64fa2b787)" style="fill: none; stroke: #b0b0b0; stroke-width: 0.8; stroke-linecap: square"/>
     </g>
     <g id="line2d_8">
      <g>
       <use xlink:href="#m3f5144c6af" x="233.019212" y="296.44" style="stroke: #000000; stroke-width: 0.8"/>
      </g>
     </g>
     <g id="text_4">
      <!-- 150 -->
      <g transform="translate(218.407805 314.077812) scale(0.14 -0.14)">
       <use xlink:href="#DejaVuSans-Bold-31"/>
       <use xlink:href="#DejaVuSans-Bold-35" transform="translate(69.580078 0)"/>
       <use xlink:href="#DejaVuSans-Bold-30" transform="translate(139.160156 0)"/>
      </g>
     </g>
    </g>
    <g id="xtick_5">
     <g id="line2d_9">
      <path d="M 283.619409 296.44 
L 283.619409 27.6 
" clip-path="url(#pd64fa2b787)" style="fill: none; stroke: #b0b0b0; stroke-width: 0.8; stroke-linecap: square"/>
     </g>
     <g id="line2d_10">
      <g>
       <use xlink:href="#m3f5144c6af" x="283.619409" y="296.44" style="stroke: #000000; stroke-width: 0.8"/>
      </g>
     </g>
     <g id="text_5">
      <!-- 200 -->
      <g transform="translate(269.008002 314.077812) scale(0.14 -0.14)">
       <defs>
        <path id="DejaVuSans-Bold-32" d="M 1844 884 
L 3897 884 
L 3897 0 
L 506 0 
L 506 884 
L 2209 2388 
Q 2438 2594 2547 2791 
Q 2656 2988 2656 3200 
Q 2656 3528 2436 3728 
Q 2216 3928 1850 3928 
Q 1569 3928 1234 3808 
Q 900 3688 519 3450 
L 519 4475 
Q 925 4609 1322 4679 
Q 1719 4750 2100 4750 
Q 2938 4750 3402 4381 
Q 3866 4013 3866 3353 
Q 3866 2972 3669 2642 
Q 3472 2313 2841 1759 
L 1844 884 
z
" transform="scale(0.015625)"/>
       </defs>
       <use xlink:href="#DejaVuSans-Bold-32"/>
       <use xlink:href="#DejaVuSans-Bold-30" transform="translate(69.580078 0)"/>
       <use xlink:href="#DejaVuSans-Bold-30" transform="translate(139.160156 0)"/>
      </g>
     </g>
    </g>
    <g id="xtick_6">
     <g id="line2d_11">
      <path d="M 334.219606 296.44 
L 334.219606 27.6 
" clip-path="url(#pd64fa2b787)" style="fill: none; stroke: #b0b0b0; stroke-width: 0.8; stroke-linecap: square"/>
     </g>
     <g id="line2d_12">
      <g>
       <use xlink:href="#m3f5144c6af" x="334.219606" y="296.44" style="stroke: #000000; stroke-width: 0.8"/>
      </g>
     </g>
     <g id="text_6">
      <!-- 250 -->
      <g transform="translate(319.6082 314.077812) scale(0.14 -0.14)">
       <use xlink:href="#DejaVuSans-Bold-32"/>
       <use xlink:href="#DejaVuSans-Bold-35" transform="translate(69.580078 0)"/>
       <use xlink:href="#DejaVuSans-Bold-30" transform="translate(139.160156 0)"/>
      </g>
     </g>
    </g>
    <g id="xtick_7">
     <g id="line2d_13">
      <path d="M 384.819803 296.44 
L 384.819803 27.6 
" clip-path="url(#pd64fa2b787)" style="fill: none; stroke: #b0b0b0; stroke-width: 0.8; stroke-linecap: square"/>
     </g>
     <g id="line2d_14">
      <g>
       <use xlink:href="#m3f5144c6af" x="384.819803" y="296.44" style="stroke: #000000; stroke-width: 0.8"/>
      </g>
     </g>
     <g id="text_7">
      <!-- 300 -->
      <g transform="translate(370.208397 314.077812) scale(0.14 -0.14)">
       <defs>
        <path id="DejaVuSans-Bold-33" d="M 2981 2516 
Q 3453 2394 3698 2092 
Q 3944 1791 3944 1325 
Q 3944 631 3412 270 
Q 2881 -91 1863 -91 
Q 1503 -91 1142 -33 
Q 781 25 428 141 
L 428 1069 
Q 766 900 1098 814 
Q 1431 728 1753 728 
Q 2231 728 2486 893 
Q 2741 1059 2741 1369 
Q 2741 1688 2480 1852 
Q 2219 2016 1709 2016 
L 1228 2016 
L 1228 2791 
L 1734 2791 
Q 2188 2791 2409 2933 
Q 2631 3075 2631 3366 
Q 2631 3634 2415 3781 
Q 2200 3928 1806 3928 
Q 1516 3928 1219 3862 
Q 922 3797 628 3669 
L 628 4550 
Q 984 4650 1334 4700 
Q 1684 4750 2022 4750 
Q 2931 4750 3382 4451 
Q 3834 4153 3834 3553 
Q 3834 3144 3618 2883 
Q 3403 2622 2981 2516 
z
" transform="scale(0.015625)"/>
       </defs>
       <use xlink:href="#DejaVuSans-Bold-33"/>
       <use xlink:href="#DejaVuSans-Bold-30" transform="translate(69.580078 0)"/>
       <use xlink:href="#DejaVuSans-Bold-30" transform="translate(139.160156 0)"/>
      </g>
     </g>
    </g>
    <g id="xtick_8">
     <g id="line2d_15">
      <path d="M 435.42 296.44 
L 435.42 27.6 
" clip-path="url(#pd64fa2b787)" style="fill: none; stroke: #b0b0b0; stroke-width: 0.8; stroke-linecap: square"/>
     </g>
     <g id="line2d_16">
      <g>
       <use xlink:href="#m3f5144c6af" x="435.42" y="296.44" style="stroke: #000000; stroke-width: 0.8"/>
      </g>
     </g>
     <g id="text_8">
      <!-- 350 -->
      <g transform="translate(420.808594 314.077812) scale(0.14 -0.14)">
       <use xlink:href="#DejaVuSans-Bold-33"/>
       <use xlink:href="#DejaVuSans-Bold-35" transform="translate(69.580078 0)"/>
       <use xlink:href="#DejaVuSans-Bold-30" transform="translate(139.160156 0)"/>
      </g>
     </g>
    </g>
    <g id="text_9">
     <!-- Epoch -->
     <g transform="translate(229.524915 331.627187) scale(0.14 -0.14)">
      <defs>
       <path id="DejaVuSans-Bold-45" d="M 588 4666 
L 3834 4666 
L 3834 3756 
L 1791 3756 
L 1791 2888 
L 3713 2888 
L 3713 1978 
L 1791 1978 
L 1791 909 
L 3903 909 
L 3903 0 
L 588 0 
L 588 4666 
z
" transform="scale(0.015625)"/>
       <path id="DejaVuSans-Bold-70" d="M 1656 506 
L 1656 -1331 
L 538 -1331 
L 538 3500 
L 1656 3500 
L 1656 2988 
Q 1888 3294 2169 3439 
Q 2450 3584 2816 3584 
Q 3463 3584 3878 3070 
Q 4294 2556 4294 1747 
Q 4294 938 3878 423 
Q 3463 -91 2816 -91 
Q 2450 -91 2169 54 
Q 1888 200 1656 506 
z
M 2400 2772 
Q 2041 2772 1848 2508 
Q 1656 2244 1656 1747 
Q 1656 1250 1848 986 
Q 2041 722 2400 722 
Q 2759 722 2948 984 
Q 3138 1247 3138 1747 
Q 3138 2247 2948 2509 
Q 2759 2772 2400 2772 
z
" transform="scale(0.015625)"/>
       <path id="DejaVuSans-Bold-6f" d="M 2203 2784 
Q 1831 2784 1636 2517 
Q 1441 2250 1441 1747 
Q 1441 1244 1636 976 
Q 1831 709 2203 709 
Q 2569 709 2762 976 
Q 2956 1244 2956 1747 
Q 2956 2250 2762 2517 
Q 2569 2784 2203 2784 
z
M 2203 3584 
Q 3106 3584 3614 3096 
Q 4122 2609 4122 1747 
Q 4122 884 3614 396 
Q 3106 -91 2203 -91 
Q 1297 -91 786 396 
Q 275 884 275 1747 
Q 275 2609 786 3096 
Q 1297 3584 2203 3584 
z
" transform="scale(0.015625)"/>
       <path id="DejaVuSans-Bold-63" d="M 3366 3391 
L 3366 2478 
Q 3138 2634 2908 2709 
Q 2678 2784 2431 2784 
Q 1963 2784 1702 2511 
Q 1441 2238 1441 1747 
Q 1441 1256 1702 982 
Q 1963 709 2431 709 
Q 2694 709 2930 787 
Q 3166 866 3366 1019 
L 3366 103 
Q 3103 6 2833 -42 
Q 2563 -91 2291 -91 
Q 1344 -91 809 395 
Q 275 881 275 1747 
Q 275 2613 809 3098 
Q 1344 3584 2291 3584 
Q 2566 3584 2833 3536 
Q 3100 3488 3366 3391 
z
" transform="scale(0.015625)"/>
       <path id="DejaVuSans-Bold-68" d="M 4056 2131 
L 4056 0 
L 2931 0 
L 2931 347 
L 2931 1625 
Q 2931 2084 2911 2256 
Q 2891 2428 2841 2509 
Q 2775 2619 2662 2680 
Q 2550 2741 2406 2741 
Q 2056 2741 1856 2470 
Q 1656 2200 1656 1722 
L 1656 0 
L 538 0 
L 538 4863 
L 1656 4863 
L 1656 2988 
Q 1909 3294 2193 3439 
Q 2478 3584 2822 3584 
Q 3428 3584 3742 3212 
Q 4056 2841 4056 2131 
z
" transform="scale(0.015625)"/>
      </defs>
      <use xlink:href="#DejaVuSans-Bold-45"/>
      <use xlink:href="#DejaVuSans-Bold-70" transform="translate(68.310547 0)"/>
      <use xlink:href="#DejaVuSans-Bold-6f" transform="translate(139.892578 0)"/>
      <use xlink:href="#DejaVuSans-Bold-63" transform="translate(208.59375 0)"/>
      <use xlink:href="#DejaVuSans-Bold-68" transform="translate(267.871094 0)"/>
     </g>
    </g>
   </g>
   <g id="matplotlib.axis_2">
    <g id="ytick_1">
     <g id="line2d_17">
      <path d="M 71.098581 296.44 
L 435.42 296.44 
" clip-path="url(#pd64fa2b787)" style="fill: none; stroke: #b0b0b0; stroke-width: 0.8; stroke-linecap: square"/>
     </g>
     <g id="line2d_18">
      <defs>
       <path id="mfa01d17bbf" d="M 0 0 
L -3.5 0 
" style="stroke: #000000; stroke-width: 0.8"/>
      </defs>
      <g>
       <use xlink:href="#mfa01d17bbf" x="71.098581" y="296.44" style="stroke: #000000; stroke-width: 0.8"/>
      </g>
     </g>
     <g id="text_10">
      <!-- $\mathdefault{10^{-4}}$ -->
      <g transform="translate(28.958581 301.758906) scale(0.14 -0.14)">
       <defs>
        <path id="DejaVuSans-Bold-2212" d="M 678 2375 
L 4684 2375 
L 4684 1638 
L 678 1638 
L 678 2375 
z
" transform="scale(0.015625)"/>
        <path id="DejaVuSans-Bold-34" d="M 2356 3675 
L 1038 1722 
L 2356 1722 
L 2356 3675 
z
M 2156 4666 
L 3494 4666 
L 3494 1722 
L 4159 1722 
L 4159 850 
L 3494 850 
L 3494 0 
L 2356 0 
L 2356 850 
L 288 850 
L 288 1881 
L 2156 4666 
z
" transform="scale(0.015625)"/>
       </defs>
       <use xlink:href="#DejaVuSans-Bold-31" transform="translate(0 0.684375)"/>
       <use xlink:href="#DejaVuSans-Bold-30" transform="translate(69.580078 0.684375)"/>
       <use xlink:href="#DejaVuSans-Bold-2212" transform="translate(140.117188 38.965625) scale(0.7)"/>
       <use xlink:href="#DejaVuSans-Bold-34" transform="translate(198.769531 38.965625) scale(0.7)"/>
      </g>
     </g>
    </g>
    <g id="ytick_2">
     <g id="line2d_19">
      <path d="M 71.098581 242.672 
L 435.42 242.672 
" clip-path="url(#pd64fa2b787)" style="fill: none; stroke: #b0b0b0; stroke-width: 0.8; stroke-linecap: square"/>
     </g>
     <g id="line2d_20">
      <g>
       <use xlink:href="#mfa01d17bbf" x="71.098581" y="242.672" style="stroke: #000000; stroke-width: 0.8"/>
      </g>
     </g>
     <g id="text_11">
      <!-- $\mathdefault{10^{-3}}$ -->
      <g transform="translate(28.958581 247.990906) scale(0.14 -0.14)">
       <use xlink:href="#DejaVuSans-Bold-31" transform="translate(0 0.765625)"/>
       <use xlink:href="#DejaVuSans-Bold-30" transform="translate(69.580078 0.765625)"/>
       <use xlink:href="#DejaVuSans-Bold-2212" transform="translate(140.117188 39.046875) scale(0.7)"/>
       <use xlink:href="#DejaVuSans-Bold-33" transform="translate(198.769531 39.046875) scale(0.7)"/>
      </g>
     </g>
    </g>
    <g id="ytick_3">
     <g id="line2d_21">
      <path d="M 71.098581 188.904 
L 435.42 188.904 
" clip-path="url(#pd64fa2b787)" style="fill: none; stroke: #b0b0b0; stroke-width: 0.8; stroke-linecap: square"/>
     </g>
     <g id="line2d_22">
      <g>
       <use xlink:href="#mfa01d17bbf" x="71.098581" y="188.904" style="stroke: #000000; stroke-width: 0.8"/>
      </g>
     </g>
     <g id="text_12">
      <!-- $\mathdefault{10^{-2}}$ -->
      <g transform="translate(28.958581 194.222906) scale(0.14 -0.14)">
       <use xlink:href="#DejaVuSans-Bold-31" transform="translate(0 0.765625)"/>
       <use xlink:href="#DejaVuSans-Bold-30" transform="translate(69.580078 0.765625)"/>
       <use xlink:href="#DejaVuSans-Bold-2212" transform="translate(140.117188 39.046875) scale(0.7)"/>
       <use xlink:href="#DejaVuSans-Bold-32" transform="translate(198.769531 39.046875) scale(0.7)"/>
      </g>
     </g>
    </g>
    <g id="ytick_4">
     <g id="line2d_23">
      <path d="M 71.098581 135.136 
L 435.42 135.136 
" clip-path="url(#pd64fa2b787)" style="fill: none; stroke: #b0b0b0; stroke-width: 0.8; stroke-linecap: square"/>
     </g>
     <g id="line2d_24">
      <g>
       <use xlink:href="#mfa01d17bbf" x="71.098581" y="135.136" style="stroke: #000000; stroke-width: 0.8"/>
      </g>
     </g>
     <g id="text_13">
      <!-- $\mathdefault{10^{-1}}$ -->
      <g transform="translate(28.958581 140.454906) scale(0.14 -0.14)">
       <use xlink:href="#DejaVuSans-Bold-31" transform="translate(0 0.684375)"/>
       <use xlink:href="#DejaVuSans-Bold-30" transform="translate(69.580078 0.684375)"/>
       <use xlink:href="#DejaVuSans-Bold-2212" transform="translate(140.117188 38.965625) scale(0.7)"/>
       <use xlink:href="#DejaVuSans-Bold-31" transform="translate(198.769531 38.965625) scale(0.7)"/>
      </g>
     </g>
    </g>
    <g id="ytick_5">
     <g id="line2d_25">
      <path d="M 71.098581 81.368 
L 435.42 81.368 
" clip-path="url(#pd64fa2b787)" style="fill: none; stroke: #b0b0b0; stroke-width: 0.8; stroke-linecap: square"/>
     </g>
     <g id="line2d_26">
      <g>
       <use xlink:href="#mfa01d17bbf" x="71.098581" y="81.368" style="stroke: #000000; stroke-width: 0.8"/>
      </g>
     </g>
     <g id="text_14">
      <!-- $\mathdefault{10^{0}}$ -->
      <g transform="translate(37.218581 86.686906) scale(0.14 -0.14)">
       <use xlink:href="#DejaVuSans-Bold-31" transform="translate(0 0.765625)"/>
       <use xlink:href="#DejaVuSans-Bold-30" transform="translate(69.580078 0.765625)"/>
       <use xlink:href="#DejaVuSans-Bold-30" transform="translate(140.117188 39.046875) scale(0.7)"/>
      </g>
     </g>
    </g>
    <g id="ytick_6">
     <g id="line2d_27">
      <path d="M 71.098581 27.6 
L 435.42 27.6 
" clip-path="url(#pd64fa2b787)" style="fill: none; stroke: #b0b0b0; stroke-width: 0.8; stroke-linecap: square"/>
     </g>
     <g id="line2d_28">
      <g>
       <use xlink:href="#mfa01d17bbf" x="71.098581" y="27.6" style="stroke: #000000; stroke-width: 0.8"/>
      </g>
     </g>
     <g id="text_15">
      <!-- $\mathdefault{10^{1}}$ -->
      <g transform="translate(37.218581 32.918906) scale(0.14 -0.14)">
       <use xlink:href="#DejaVuSans-Bold-31" transform="translate(0 0.684375)"/>
       <use xlink:href="#DejaVuSans-Bold-30" transform="translate(69.580078 0.684375)"/>
       <use xlink:href="#DejaVuSans-Bold-31" transform="translate(140.117188 38.965625) scale(0.7)"/>
      </g>
     </g>
    </g>
    <g id="ytick_7">
     <g id="line2d_29">
      <defs>
       <path id="m42d90058d8" d="M 0 0 
L -2 0 
" style="stroke: #000000; stroke-width: 0.6"/>
      </defs>
      <g>
       <use xlink:href="#m42d90058d8" x="71.098581" y="280.254219" style="stroke: #000000; stroke-width: 0.6"/>
      </g>
     </g>
    </g>
    <g id="ytick_8">
     <g id="line2d_30">
      <g>
       <use xlink:href="#m42d90058d8" x="71.098581" y="270.786144" style="stroke: #000000; stroke-width: 0.6"/>
      </g>
     </g>
    </g>
    <g id="ytick_9">
     <g id="line2d_31">
      <g>
       <use xlink:href="#m42d90058d8" x="71.098581" y="264.068438" style="stroke: #000000; stroke-width: 0.6"/>
      </g>
     </g>
    </g>
    <g id="ytick_10">
     <g id="line2d_32">
      <g>
       <use xlink:href="#m42d90058d8" x="71.098581" y="258.857781" style="stroke: #000000; stroke-width: 0.6"/>
      </g>
     </g>
    </g>
    <g id="ytick_11">
     <g id="line2d_33">
      <g>
       <use xlink:href="#m42d90058d8" x="71.098581" y="254.600364" style="stroke: #000000; stroke-width: 0.6"/>
      </g>
     </g>
    </g>
    <g id="ytick_12">
     <g id="line2d_34">
      <g>
       <use xlink:href="#m42d90058d8" x="71.098581" y="251.000769" style="stroke: #000000; stroke-width: 0.6"/>
      </g>
     </g>
    </g>
    <g id="ytick_13">
     <g id="line2d_35">
      <g>
       <use xlink:href="#m42d90058d8" x="71.098581" y="247.882658" style="stroke: #000000; stroke-width: 0.6"/>
      </g>
     </g>
    </g>
    <g id="ytick_14">
     <g id="line2d_36">
      <g>
       <use xlink:href="#m42d90058d8" x="71.098581" y="245.132289" style="stroke: #000000; stroke-width: 0.6"/>
      </g>
     </g>
    </g>
    <g id="ytick_15">
     <g id="line2d_37">
      <g>
       <use xlink:href="#m42d90058d8" x="71.098581" y="226.486219" style="stroke: #000000; stroke-width: 0.6"/>
      </g>
     </g>
    </g>
    <g id="ytick_16">
     <g id="line2d_38">
      <g>
       <use xlink:href="#m42d90058d8" x="71.098581" y="217.018144" style="stroke: #000000; stroke-width: 0.6"/>
      </g>
     </g>
    </g>
    <g id="ytick_17">
     <g id="line2d_39">
      <g>
       <use xlink:href="#m42d90058d8" x="71.098581" y="210.300438" style="stroke: #000000; stroke-width: 0.6"/>
      </g>
     </g>
    </g>
    <g id="ytick_18">
     <g id="line2d_40">
      <g>
       <use xlink:href="#m42d90058d8" x="71.098581" y="205.089781" style="stroke: #000000; stroke-width: 0.6"/>
      </g>
     </g>
    </g>
    <g id="ytick_19">
     <g id="line2d_41">
      <g>
       <use xlink:href="#m42d90058d8" x="71.098581" y="200.832364" style="stroke: #000000; stroke-width: 0.6"/>
      </g>
     </g>
    </g>
    <g id="ytick_20">
     <g id="line2d_42">
      <g>
       <use xlink:href="#m42d90058d8" x="71.098581" y="197.232769" style="stroke: #000000; stroke-width: 0.6"/>
      </g>
     </g>
    </g>
    <g id="ytick_21">
     <g id="line2d_43">
      <g>
       <use xlink:href="#m42d90058d8" x="71.098581" y="194.114658" style="stroke: #000000; stroke-width: 0.6"/>
      </g>
     </g>
    </g>
    <g id="ytick_22">
     <g id="line2d_44">
      <g>
       <use xlink:href="#m42d90058d8" x="71.098581" y="191.364289" style="stroke: #000000; stroke-width: 0.6"/>
      </g>
     </g>
    </g>
    <g id="ytick_23">
     <g id="line2d_45">
      <g>
       <use xlink:href="#m42d90058d8" x="71.098581" y="172.718219" style="stroke: #000000; stroke-width: 0.6"/>
      </g>
     </g>
    </g>
    <g id="ytick_24">
     <g id="line2d_46">
      <g>
       <use xlink:href="#m42d90058d8" x="71.098581" y="163.250144" style="stroke: #000000; stroke-width: 0.6"/>
      </g>
     </g>
    </g>
    <g id="ytick_25">
     <g id="line2d_47">
      <g>
       <use xlink:href="#m42d90058d8" x="71.098581" y="156.532438" style="stroke: #000000; stroke-width: 0.6"/>
      </g>
     </g>
    </g>
    <g id="ytick_26">
     <g id="line2d_48">
      <g>
       <use xlink:href="#m42d90058d8" x="71.098581" y="151.321781" style="stroke: #000000; stroke-width: 0.6"/>
      </g>
     </g>
    </g>
    <g id="ytick_27">
     <g id="line2d_49">
      <g>
       <use xlink:href="#m42d90058d8" x="71.098581" y="147.064364" style="stroke: #000000; stroke-width: 0.6"/>
      </g>
     </g>
    </g>
    <g id="ytick_28">
     <g id="line2d_50">
      <g>
       <use xlink:href="#m42d90058d8" x="71.098581" y="143.464769" style="stroke: #000000; stroke-width: 0.6"/>
      </g>
     </g>
    </g>
    <g id="ytick_29">
     <g id="line2d_51">
      <g>
       <use xlink:href="#m42d90058d8" x="71.098581" y="140.346658" style="stroke: #000000; stroke-width: 0.6"/>
      </g>
     </g>
    </g>
    <g id="ytick_30">
     <g id="line2d_52">
      <g>
       <use xlink:href="#m42d90058d8" x="71.098581" y="137.596289" style="stroke: #000000; stroke-width: 0.6"/>
      </g>
     </g>
    </g>
    <g id="ytick_31">
     <g id="line2d_53">
      <g>
       <use xlink:href="#m42d90058d8" x="71.098581" y="118.950219" style="stroke: #000000; stroke-width: 0.6"/>
      </g>
     </g>
    </g>
    <g id="ytick_32">
     <g id="line2d_54">
      <g>
       <use xlink:href="#m42d90058d8" x="71.098581" y="109.482144" style="stroke: #000000; stroke-width: 0.6"/>
      </g>
     </g>
    </g>
    <g id="ytick_33">
     <g id="line2d_55">
      <g>
       <use xlink:href="#m42d90058d8" x="71.098581" y="102.764438" style="stroke: #000000; stroke-width: 0.6"/>
      </g>
     </g>
    </g>
    <g id="ytick_34">
     <g id="line2d_56">
      <g>
       <use xlink:href="#m42d90058d8" x="71.098581" y="97.553781" style="stroke: #000000; stroke-width: 0.6"/>
      </g>
     </g>
    </g>
    <g id="ytick_35">
     <g id="line2d_57">
      <g>
       <use xlink:href="#m42d90058d8" x="71.098581" y="93.296364" style="stroke: #000000; stroke-width: 0.6"/>
      </g>
     </g>
    </g>
    <g id="ytick_36">
     <g id="line2d_58">
      <g>
       <use xlink:href="#m42d90058d8" x="71.098581" y="89.696769" style="stroke: #000000; stroke-width: 0.6"/>
      </g>
     </g>
    </g>
    <g id="ytick_37">
     <g id="line2d_59">
      <g>
       <use xlink:href="#m42d90058d8" x="71.098581" y="86.578658" style="stroke: #000000; stroke-width: 0.6"/>
      </g>
     </g>
    </g>
    <g id="ytick_38">
     <g id="line2d_60">
      <g>
       <use xlink:href="#m42d90058d8" x="71.098581" y="83.828289" style="stroke: #000000; stroke-width: 0.6"/>
      </g>
     </g>
    </g>
    <g id="ytick_39">
     <g id="line2d_61">
      <g>
       <use xlink:href="#m42d90058d8" x="71.098581" y="65.182219" style="stroke: #000000; stroke-width: 0.6"/>
      </g>
     </g>
    </g>
    <g id="ytick_40">
     <g id="line2d_62">
      <g>
       <use xlink:href="#m42d90058d8" x="71.098581" y="55.714144" style="stroke: #000000; stroke-width: 0.6"/>
      </g>
     </g>
    </g>
    <g id="ytick_41">
     <g id="line2d_63">
      <g>
       <use xlink:href="#m42d90058d8" x="71.098581" y="48.996438" style="stroke: #000000; stroke-width: 0.6"/>
      </g>
     </g>
    </g>
    <g id="ytick_42">
     <g id="line2d_64">
      <g>
       <use xlink:href="#m42d90058d8" x="71.098581" y="43.785781" style="stroke: #000000; stroke-width: 0.6"/>
      </g>
     </g>
    </g>
    <g id="ytick_43">
     <g id="line2d_65">
      <g>
       <use xlink:href="#m42d90058d8" x="71.098581" y="39.528364" style="stroke: #000000; stroke-width: 0.6"/>
      </g>
     </g>
    </g>
    <g id="ytick_44">
     <g id="line2d_66">
      <g>
       <use xlink:href="#m42d90058d8" x="71.098581" y="35.928769" style="stroke: #000000; stroke-width: 0.6"/>
      </g>
     </g>
    </g>
    <g id="ytick_45">
     <g id="line2d_67">
      <g>
       <use xlink:href="#m42d90058d8" x="71.098581" y="32.810658" style="stroke: #000000; stroke-width: 0.6"/>
      </g>
     </g>
    </g>
    <g id="ytick_46">
     <g id="line2d_68">
      <g>
       <use xlink:href="#m42d90058d8" x="71.098581" y="30.060289" style="stroke: #000000; stroke-width: 0.6"/>
      </g>
     </g>
    </g>
    <g id="text_16">
     <!-- MSE Loss -->
     <g transform="translate(22.047018 198.847656) rotate(-90) scale(0.14 -0.14)">
      <defs>
       <path id="DejaVuSans-Bold-4d" d="M 588 4666 
L 2119 4666 
L 3181 2169 
L 4250 4666 
L 5778 4666 
L 5778 0 
L 4641 0 
L 4641 3413 
L 3566 897 
L 2803 897 
L 1728 3413 
L 1728 0 
L 588 0 
L 588 4666 
z
" transform="scale(0.015625)"/>
       <path id="DejaVuSans-Bold-53" d="M 3834 4519 
L 3834 3531 
Q 3450 3703 3084 3790 
Q 2719 3878 2394 3878 
Q 1963 3878 1756 3759 
Q 1550 3641 1550 3391 
Q 1550 3203 1689 3098 
Q 1828 2994 2194 2919 
L 2706 2816 
Q 3484 2659 3812 2340 
Q 4141 2022 4141 1434 
Q 4141 663 3683 286 
Q 3225 -91 2284 -91 
Q 1841 -91 1394 -6 
Q 947 78 500 244 
L 500 1259 
Q 947 1022 1364 901 
Q 1781 781 2169 781 
Q 2563 781 2772 912 
Q 2981 1044 2981 1288 
Q 2981 1506 2839 1625 
Q 2697 1744 2272 1838 
L 1806 1941 
Q 1106 2091 782 2419 
Q 459 2747 459 3303 
Q 459 4000 909 4375 
Q 1359 4750 2203 4750 
Q 2588 4750 2994 4692 
Q 3400 4634 3834 4519 
z
" transform="scale(0.015625)"/>
       <path id="DejaVuSans-Bold-20" transform="scale(0.015625)"/>
       <path id="DejaVuSans-Bold-4c" d="M 588 4666 
L 1791 4666 
L 1791 909 
L 3903 909 
L 3903 0 
L 588 0 
L 588 4666 
z
" transform="scale(0.015625)"/>
       <path id="DejaVuSans-Bold-73" d="M 3272 3391 
L 3272 2541 
Q 2913 2691 2578 2766 
Q 2244 2841 1947 2841 
Q 1628 2841 1473 2761 
Q 1319 2681 1319 2516 
Q 1319 2381 1436 2309 
Q 1553 2238 1856 2203 
L 2053 2175 
Q 2913 2066 3209 1816 
Q 3506 1566 3506 1031 
Q 3506 472 3093 190 
Q 2681 -91 1863 -91 
Q 1516 -91 1145 -36 
Q 775 19 384 128 
L 384 978 
Q 719 816 1070 734 
Q 1422 653 1784 653 
Q 2113 653 2278 743 
Q 2444 834 2444 1013 
Q 2444 1163 2330 1236 
Q 2216 1309 1875 1350 
L 1678 1375 
Q 931 1469 631 1722 
Q 331 1975 331 2491 
Q 331 3047 712 3315 
Q 1094 3584 1881 3584 
Q 2191 3584 2531 3537 
Q 2872 3491 3272 3391 
z
" transform="scale(0.015625)"/>
      </defs>
      <use xlink:href="#DejaVuSans-Bold-4d"/>
      <use xlink:href="#DejaVuSans-Bold-53" transform="translate(99.511719 0)"/>
      <use xlink:href="#DejaVuSans-Bold-45" transform="translate(171.533203 0)"/>
      <use xlink:href="#DejaVuSans-Bold-20" transform="translate(239.84375 0)"/>
      <use xlink:href="#DejaVuSans-Bold-4c" transform="translate(274.658203 0)"/>
      <use xlink:href="#DejaVuSans-Bold-6f" transform="translate(338.378906 0)"/>
      <use xlink:href="#DejaVuSans-Bold-73" transform="translate(407.080078 0)"/>
      <use xlink:href="#DejaVuSans-Bold-73" transform="translate(466.601562 0)"/>
     </g>
    </g>
   </g>
   <g id="line2d_69">
    <path d="M 81.21862 56.329717 
L 82.230624 138.599666 
L 84.254632 152.276259 
L 85.266636 156.138763 
L 86.27864 155.787595 
L 87.290644 160.968625 
L 88.302648 169.266703 
L 89.314652 172.252425 
L 90.326656 167.963027 
L 91.33866 174.403322 
L 92.350664 178.963175 
L 93.362668 180.013002 
L 94.374672 171.920845 
L 95.386675 159.168065 
L 96.398679 177.797851 
L 97.410683 172.136874 
L 98.422687 165.054173 
L 99.434691 181.783722 
L 100.446695 188.191146 
L 101.458699 179.738177 
L 102.470703 184.730925 
L 103.482707 170.995937 
L 104.494711 185.72776 
L 105.506715 173.500989 
L 106.518719 185.575864 
L 107.530723 183.314536 
L 108.542727 187.601806 
L 109.554731 173.27966 
L 111.578739 192.631427 
L 112.590742 182.455676 
L 113.602746 181.182518 
L 114.61475 188.70268 
L 115.626754 192.252371 
L 116.638758 191.983599 
L 118.662766 183.304483 
L 119.67477 180.211724 
L 120.686774 188.783033 
L 121.698778 182.10773 
L 122.710782 190.613144 
L 123.722786 182.318765 
L 124.73479 198.344496 
L 125.746794 206.186201 
L 126.758798 208.067567 
L 127.770802 208.349847 
L 128.782806 209.998013 
L 129.794809 209.830471 
L 130.806813 208.019242 
L 131.818817 211.155981 
L 132.830821 209.64341 
L 133.842825 208.91984 
L 134.854829 210.507977 
L 135.866833 209.365602 
L 136.878837 209.283919 
L 137.890841 209.747148 
L 138.902845 208.949962 
L 139.914849 211.227873 
L 140.926853 209.76795 
L 141.938857 210.320761 
L 142.950861 208.033728 
L 143.962865 208.724975 
L 144.974869 208.149951 
L 145.986873 209.468108 
L 146.998876 207.409342 
L 148.01088 210.235674 
L 150.034888 212.53784 
L 151.046892 208.174238 
L 152.058896 209.268634 
L 153.0709 208.286282 
L 154.082904 209.447572 
L 155.094908 211.720437 
L 156.106912 206.177277 
L 157.118916 211.500858 
L 158.13092 212.53784 
L 159.142924 210.67506 
L 160.154928 213.053154 
L 161.166932 209.468108 
L 162.178936 208.965041 
L 163.19094 212.661189 
L 164.202944 207.05461 
L 165.214947 209.468108 
L 166.226951 210.470413 
L 167.238955 210.278179 
L 168.250959 212.761522 
L 169.262963 210.187945 
L 170.274967 211.697821 
L 171.286971 211.618837 
L 172.298975 211.067801 
L 173.310979 213.752252 
L 174.322983 211.38905 
L 175.334987 211.439298 
L 176.346991 209.126466 
L 177.358995 213.239556 
L 178.370999 218.551553 
L 179.383003 221.070021 
L 180.395007 221.590758 
L 181.407011 221.401611 
L 182.419014 222.686511 
L 183.431018 221.877385 
L 184.443022 221.842454 
L 185.455026 221.146124 
L 186.46703 222.008843 
L 187.479034 223.47784 
L 188.491038 222.596213 
L 189.503042 222.740859 
L 190.515046 222.677466 
L 191.52705 223.051237 
L 193.551058 222.560191 
L 194.563062 223.646914 
L 195.575066 223.628069 
L 196.58707 223.468481 
L 197.599074 224.20985 
L 198.611078 225.418791 
L 199.623081 225.055499 
L 200.635085 223.628069 
L 201.647089 224.472062 
L 202.659093 224.287236 
L 203.671097 223.712999 
L 204.683101 223.85524 
L 205.695105 224.335732 
L 206.707109 224.59937 
L 207.719113 224.73725 
L 208.731117 225.01548 
L 209.743121 224.384329 
L 210.755125 224.42328 
L 211.767129 223.912379 
L 212.779133 224.658361 
L 213.791137 224.394063 
L 214.803141 224.747132 
L 215.815145 224.816406 
L 216.827149 225.075535 
L 217.839152 224.935647 
L 218.851156 224.995497 
L 219.86316 223.4872 
L 220.875164 224.530732 
L 221.887168 224.472062 
L 222.899172 224.180896 
L 223.911176 224.569929 
L 224.92318 224.27755 
L 225.935184 225.266734 
L 226.947188 225.196109 
L 228.971196 224.065439 
L 229.9832 223.988784 
L 230.995204 224.697772 
L 232.007208 223.902846 
L 233.019212 223.836223 
L 234.031216 224.472062 
L 235.043219 224.766903 
L 237.067227 224.638681 
L 238.079231 223.226499 
L 239.091235 224.413537 
L 240.103239 224.915732 
L 241.115243 224.219509 
L 242.127247 224.345443 
L 243.139251 224.73725 
L 244.151255 223.524682 
L 245.163259 223.703547 
L 246.175263 223.134091 
L 247.187267 224.364879 
L 249.211275 224.687914 
L 250.223279 224.161615 
L 251.235283 224.786693 
L 252.247286 225.01548 
L 253.25929 224.055844 
L 254.271294 224.658361 
L 255.283298 224.530732 
L 256.295302 224.658361 
L 257.307306 225.39846 
L 258.31931 224.866018 
L 258.31931 224.866018 
" clip-path="url(#pd64fa2b787)" style="fill: none; stroke: #1f77b4; stroke-width: 1.75; stroke-linecap: square"/>
   </g>
   <g id="line2d_70">
    <path d="M 81.21862 157.917052 
L 82.230624 138.942239 
L 83.242628 177.105575 
L 84.254632 146.626903 
L 85.266636 160.557437 
L 86.27864 177.219006 
L 87.290644 189.978608 
L 88.302648 187.411448 
L 89.314652 187.50761 
L 90.326656 169.896729 
L 91.33866 201.75276 
L 92.350664 202.780012 
L 93.362668 192.502459 
L 94.374672 193.748421 
L 95.386675 168.305317 
L 96.398679 167.885698 
L 97.410683 176.566638 
L 98.422687 193.959173 
L 99.434691 174.749414 
L 100.446695 204.245914 
L 101.458699 184.853799 
L 102.470703 195.445059 
L 103.482707 181.971607 
L 104.494711 205.3918 
L 105.506715 208.372146 
L 106.518719 192.423032 
L 107.530723 205.951135 
L 108.542727 170.20854 
L 109.554731 174.435351 
L 110.566735 181.832649 
L 111.578739 198.01843 
L 112.590742 209.787799 
L 113.602746 204.082046 
L 114.61475 208.648492 
L 115.626754 165.105313 
L 116.638758 197.056123 
L 117.650762 201.96059 
L 118.662766 203.88691 
L 119.67477 172.280757 
L 120.686774 181.532308 
L 121.698778 205.014884 
L 122.710782 185.493198 
L 123.722786 207.000393 
L 124.73479 204.811829 
L 125.746794 209.621597 
L 126.758798 192.562205 
L 127.770802 203.185047 
L 128.782806 216.064904 
L 129.794809 214.028542 
L 130.806813 205.117075 
L 131.818817 201.197796 
L 132.830821 212.810793 
L 134.854829 206.057518 
L 135.866833 197.153015 
L 136.878837 184.696648 
L 137.890841 217.879497 
L 138.902845 214.58515 
L 139.914849 201.546762 
L 140.926853 211.518304 
L 141.938857 217.354731 
L 142.950861 216.785163 
L 143.962865 212.527745 
L 144.974869 212.621714 
L 145.986873 200.319723 
L 146.998876 218.658941 
L 148.01088 217.412459 
L 149.022884 217.354731 
L 150.034888 215.419209 
L 151.046892 215.901798 
L 152.058896 217.586506 
L 153.0709 207.714323 
L 154.082904 204.845547 
L 155.094908 211.743922 
L 156.106912 215.207886 
L 157.118916 215.366199 
L 158.13092 219.975731 
L 159.142924 216.785163 
L 160.154928 219.719122 
L 161.166932 179.853371 
L 162.178936 213.730438 
L 163.19094 203.185047 
L 164.202944 181.794894 
L 165.214947 213.533796 
L 166.226951 223.371945 
L 167.238955 195.153587 
L 168.250959 219.465303 
L 169.262963 205.951135 
L 170.274967 220.497565 
L 171.286971 217.182397 
L 172.298975 214.946391 
L 173.310979 219.78301 
L 174.322983 202.321233 
L 175.334987 202.05023 
L 176.346991 222.855469 
L 177.358995 214.687794 
L 178.370999 220.563621 
L 179.383003 222.136915 
L 180.395007 221.508595 
L 181.407011 225.234816 
L 182.419014 226.822806 
L 183.431018 219.089673 
L 184.443022 224.518713 
L 185.455026 223.446669 
L 186.46703 224.20736 
L 187.479034 215.901798 
L 188.491038 223.900104 
L 189.503042 225.073775 
L 190.515046 225.724719 
L 191.52705 220.629867 
L 192.539054 222.637572 
L 193.551058 221.716162 
L 194.563062 224.754983 
L 195.575066 223.149198 
L 196.58707 222.493427 
L 197.599074 222.709978 
L 198.611078 223.747978 
L 199.623081 223.149198 
L 200.635085 226.057125 
L 201.647089 223.747978 
L 202.659093 223.976539 
L 203.671097 225.642353 
L 204.683101 224.053225 
L 205.695105 225.315758 
L 206.707109 223.149198 
L 208.731117 225.315758 
L 209.743121 223.149198 
L 210.755125 223.149198 
L 211.767129 224.130164 
L 212.779133 223.001871 
L 213.791137 224.130164 
L 214.803141 224.053225 
L 215.815145 223.672286 
L 216.827149 223.976539 
L 217.839152 223.446669 
L 218.851156 222.709978 
L 219.86316 225.234816 
L 220.875164 223.823916 
L 221.887168 223.297458 
L 222.899172 223.823916 
L 223.911176 223.823916 
L 224.92318 223.596838 
L 225.935184 222.35017 
L 227.959192 224.053225 
L 228.971196 223.371945 
L 229.9832 224.834273 
L 230.995204 222.928555 
L 232.007208 223.900104 
L 233.019212 224.440485 
L 234.031216 223.823916 
L 235.043219 224.20736 
L 236.055223 222.782609 
L 237.067227 224.675959 
L 238.079231 224.597203 
L 239.091235 224.053225 
L 240.103239 223.371945 
L 242.127247 223.976539 
L 243.139251 224.518713 
L 244.151255 224.053225 
L 245.163259 222.278867 
L 246.175263 224.284809 
L 247.187267 223.823916 
L 248.199271 222.928555 
L 249.211275 224.518713 
L 250.223279 224.20736 
L 251.235283 224.284809 
L 252.247286 223.900104 
L 253.25929 224.053225 
L 254.271294 222.928555 
L 255.283298 224.440485 
L 256.295302 222.35017 
L 257.307306 222.56539 
L 258.31931 223.672286 
L 258.31931 223.672286 
" clip-path="url(#pd64fa2b787)" style="fill: none; stroke-dasharray: 5.55,2.4; stroke-dashoffset: 0; stroke: #ff7f0e; stroke-width: 1.5"/>
   </g>
   <g id="patch_3">
    <path d="M 71.098581 296.44 
L 71.098581 27.6 
" style="fill: none; stroke: #000000; stroke-width: 0.8; stroke-linejoin: miter; stroke-linecap: square"/>
   </g>
   <g id="patch_4">
    <path d="M 435.42 296.44 
L 435.42 27.6 
" style="fill: none; stroke: #000000; stroke-width: 0.8; stroke-linejoin: miter; stroke-linecap: square"/>
   </g>
   <g id="patch_5">
    <path d="M 71.098581 296.44 
L 435.42 296.44 
" style="fill: none; stroke: #000000; stroke-width: 0.8; stroke-linejoin: miter; stroke-linecap: square"/>
   </g>
   <g id="patch_6">
    <path d="M 71.098581 27.6 
L 435.42 27.6 
" style="fill: none; stroke: #000000; stroke-width: 0.8; stroke-linejoin: miter; stroke-linecap: square"/>
   </g>
   <g id="text_17">
    <!-- ResNet-50 Tuned Model -->
    <g transform="translate(159.820228 21.6) scale(0.14 -0.14)">
     <defs>
      <path id="DejaVuSans-Bold-52" d="M 2297 2597 
Q 2675 2597 2839 2737 
Q 3003 2878 3003 3200 
Q 3003 3519 2839 3656 
Q 2675 3794 2297 3794 
L 1791 3794 
L 1791 2597 
L 2297 2597 
z
M 1791 1766 
L 1791 0 
L 588 0 
L 588 4666 
L 2425 4666 
Q 3347 4666 3776 4356 
Q 4206 4047 4206 3378 
Q 4206 2916 3982 2619 
Q 3759 2322 3309 2181 
Q 3556 2125 3751 1926 
Q 3947 1728 4147 1325 
L 4800 0 
L 3519 0 
L 2950 1159 
Q 2778 1509 2601 1637 
Q 2425 1766 2131 1766 
L 1791 1766 
z
" transform="scale(0.015625)"/>
      <path id="DejaVuSans-Bold-65" d="M 4031 1759 
L 4031 1441 
L 1416 1441 
Q 1456 1047 1700 850 
Q 1944 653 2381 653 
Q 2734 653 3104 758 
Q 3475 863 3866 1075 
L 3866 213 
Q 3469 63 3072 -14 
Q 2675 -91 2278 -91 
Q 1328 -91 801 392 
Q 275 875 275 1747 
Q 275 2603 792 3093 
Q 1309 3584 2216 3584 
Q 3041 3584 3536 3087 
Q 4031 2591 4031 1759 
z
M 2881 2131 
Q 2881 2450 2695 2645 
Q 2509 2841 2209 2841 
Q 1884 2841 1681 2658 
Q 1478 2475 1428 2131 
L 2881 2131 
z
" transform="scale(0.015625)"/>
      <path id="DejaVuSans-Bold-4e" d="M 588 4666 
L 1931 4666 
L 3628 1466 
L 3628 4666 
L 4769 4666 
L 4769 0 
L 3425 0 
L 1728 3200 
L 1728 0 
L 588 0 
L 588 4666 
z
" transform="scale(0.015625)"/>
      <path id="DejaVuSans-Bold-74" d="M 1759 4494 
L 1759 3500 
L 2913 3500 
L 2913 2700 
L 1759 2700 
L 1759 1216 
Q 1759 972 1856 886 
Q 1953 800 2241 800 
L 2816 800 
L 2816 0 
L 1856 0 
Q 1194 0 917 276 
Q 641 553 641 1216 
L 641 2700 
L 84 2700 
L 84 3500 
L 641 3500 
L 641 4494 
L 1759 4494 
z
" transform="scale(0.015625)"/>
      <path id="DejaVuSans-Bold-2d" d="M 347 2297 
L 2309 2297 
L 2309 1388 
L 347 1388 
L 347 2297 
z
" transform="scale(0.015625)"/>
      <path id="DejaVuSans-Bold-54" d="M 31 4666 
L 4331 4666 
L 4331 3756 
L 2784 3756 
L 2784 0 
L 1581 0 
L 1581 3756 
L 31 3756 
L 31 4666 
z
" transform="scale(0.015625)"/>
      <path id="DejaVuSans-Bold-75" d="M 500 1363 
L 500 3500 
L 1625 3500 
L 1625 3150 
Q 1625 2866 1622 2436 
Q 1619 2006 1619 1863 
Q 1619 1441 1641 1255 
Q 1663 1069 1716 984 
Q 1784 875 1895 815 
Q 2006 756 2150 756 
Q 2500 756 2700 1025 
Q 2900 1294 2900 1772 
L 2900 3500 
L 4019 3500 
L 4019 0 
L 2900 0 
L 2900 506 
Q 2647 200 2364 54 
Q 2081 -91 1741 -91 
Q 1134 -91 817 281 
Q 500 653 500 1363 
z
" transform="scale(0.015625)"/>
      <path id="DejaVuSans-Bold-6e" d="M 4056 2131 
L 4056 0 
L 2931 0 
L 2931 347 
L 2931 1631 
Q 2931 2084 2911 2256 
Q 2891 2428 2841 2509 
Q 2775 2619 2662 2680 
Q 2550 2741 2406 2741 
Q 2056 2741 1856 2470 
Q 1656 2200 1656 1722 
L 1656 0 
L 538 0 
L 538 3500 
L 1656 3500 
L 1656 2988 
Q 1909 3294 2193 3439 
Q 2478 3584 2822 3584 
Q 3428 3584 3742 3212 
Q 4056 2841 4056 2131 
z
" transform="scale(0.015625)"/>
      <path id="DejaVuSans-Bold-64" d="M 2919 2988 
L 2919 4863 
L 4044 4863 
L 4044 0 
L 2919 0 
L 2919 506 
Q 2688 197 2409 53 
Q 2131 -91 1766 -91 
Q 1119 -91 703 423 
Q 288 938 288 1747 
Q 288 2556 703 3070 
Q 1119 3584 1766 3584 
Q 2128 3584 2408 3439 
Q 2688 3294 2919 2988 
z
M 2181 722 
Q 2541 722 2730 984 
Q 2919 1247 2919 1747 
Q 2919 2247 2730 2509 
Q 2541 2772 2181 2772 
Q 1825 2772 1636 2509 
Q 1447 2247 1447 1747 
Q 1447 1247 1636 984 
Q 1825 722 2181 722 
z
" transform="scale(0.015625)"/>
      <path id="DejaVuSans-Bold-6c" d="M 538 4863 
L 1656 4863 
L 1656 0 
L 538 0 
L 538 4863 
z
" transform="scale(0.015625)"/>
     </defs>
     <use xlink:href="#DejaVuSans-Bold-52"/>
     <use xlink:href="#DejaVuSans-Bold-65" transform="translate(77.001953 0)"/>
     <use xlink:href="#DejaVuSans-Bold-73" transform="translate(144.824219 0)"/>
     <use xlink:href="#DejaVuSans-Bold-4e" transform="translate(204.345703 0)"/>
     <use xlink:href="#DejaVuSans-Bold-65" transform="translate(288.037109 0)"/>
     <use xlink:href="#DejaVuSans-Bold-74" transform="translate(355.859375 0)"/>
     <use xlink:href="#DejaVuSans-Bold-2d" transform="translate(403.662109 0)"/>
     <use xlink:href="#DejaVuSans-Bold-35" transform="translate(445.166016 0)"/>
     <use xlink:href="#DejaVuSans-Bold-30" transform="translate(514.746094 0)"/>
     <use xlink:href="#DejaVuSans-Bold-20" transform="translate(584.326172 0)"/>
     <use xlink:href="#DejaVuSans-Bold-54" transform="translate(619.140625 0)"/>
     <use xlink:href="#DejaVuSans-Bold-75" transform="translate(676.353516 0)"/>
     <use xlink:href="#DejaVuSans-Bold-6e" transform="translate(747.544922 0)"/>
     <use xlink:href="#DejaVuSans-Bold-65" transform="translate(818.736328 0)"/>
     <use xlink:href="#DejaVuSans-Bold-64" transform="translate(886.558594 0)"/>
     <use xlink:href="#DejaVuSans-Bold-20" transform="translate(958.140625 0)"/>
     <use xlink:href="#DejaVuSans-Bold-4d" transform="translate(992.955078 0)"/>
     <use xlink:href="#DejaVuSans-Bold-6f" transform="translate(1092.466797 0)"/>
     <use xlink:href="#DejaVuSans-Bold-64" transform="translate(1161.167969 0)"/>
     <use xlink:href="#DejaVuSans-Bold-65" transform="translate(1232.75 0)"/>
     <use xlink:href="#DejaVuSans-Bold-6c" transform="translate(1300.572266 0)"/>
    </g>
   </g>
   <g id="legend_1">
    <g id="patch_7">
     <path d="M 301.164375 79.89875 
L 425.62 79.89875 
Q 428.42 79.89875 428.42 77.09875 
L 428.42 37.4 
Q 428.42 34.6 425.62 34.6 
L 301.164375 34.6 
Q 298.364375 34.6 298.364375 37.4 
L 298.364375 77.09875 
Q 298.364375 79.89875 301.164375 79.89875 
z
" style="fill: #ffffff; opacity: 0.8; stroke: #cccccc; stroke-linejoin: miter"/>
    </g>
    <g id="line2d_71">
     <path d="M 303.964375 45.937812 
L 317.964375 45.937812 
L 331.964375 45.937812 
" style="fill: none; stroke: #1f77b4; stroke-width: 1.75; stroke-linecap: square"/>
    </g>
    <g id="text_18">
     <!-- Train -->
     <g transform="translate(343.164375 50.837812) scale(0.14 -0.14)">
      <defs>
       <path id="DejaVuSans-Bold-72" d="M 3138 2547 
Q 2991 2616 2845 2648 
Q 2700 2681 2553 2681 
Q 2122 2681 1889 2404 
Q 1656 2128 1656 1613 
L 1656 0 
L 538 0 
L 538 3500 
L 1656 3500 
L 1656 2925 
Q 1872 3269 2151 3426 
Q 2431 3584 2822 3584 
Q 2878 3584 2943 3579 
Q 3009 3575 3134 3559 
L 3138 2547 
z
" transform="scale(0.015625)"/>
       <path id="DejaVuSans-Bold-61" d="M 2106 1575 
Q 1756 1575 1579 1456 
Q 1403 1338 1403 1106 
Q 1403 894 1545 773 
Q 1688 653 1941 653 
Q 2256 653 2472 879 
Q 2688 1106 2688 1447 
L 2688 1575 
L 2106 1575 
z
M 3816 1997 
L 3816 0 
L 2688 0 
L 2688 519 
Q 2463 200 2181 54 
Q 1900 -91 1497 -91 
Q 953 -91 614 226 
Q 275 544 275 1050 
Q 275 1666 698 1953 
Q 1122 2241 2028 2241 
L 2688 2241 
L 2688 2328 
Q 2688 2594 2478 2717 
Q 2269 2841 1825 2841 
Q 1466 2841 1156 2769 
Q 847 2697 581 2553 
L 581 3406 
Q 941 3494 1303 3539 
Q 1666 3584 2028 3584 
Q 2975 3584 3395 3211 
Q 3816 2838 3816 1997 
z
" transform="scale(0.015625)"/>
       <path id="DejaVuSans-Bold-69" d="M 538 3500 
L 1656 3500 
L 1656 0 
L 538 0 
L 538 3500 
z
M 538 4863 
L 1656 4863 
L 1656 3950 
L 538 3950 
L 538 4863 
z
" transform="scale(0.015625)"/>
      </defs>
      <use xlink:href="#DejaVuSans-Bold-54"/>
      <use xlink:href="#DejaVuSans-Bold-72" transform="translate(57.212891 0)"/>
      <use xlink:href="#DejaVuSans-Bold-61" transform="translate(106.529297 0)"/>
      <use xlink:href="#DejaVuSans-Bold-69" transform="translate(174.009766 0)"/>
      <use xlink:href="#DejaVuSans-Bold-6e" transform="translate(208.287109 0)"/>
     </g>
    </g>
    <g id="line2d_72">
     <path d="M 303.964375 66.487187 
L 317.964375 66.487187 
L 331.964375 66.487187 
" style="fill: none; stroke-dasharray: 5.55,2.4; stroke-dashoffset: 0; stroke: #ff7f0e; stroke-width: 1.5"/>
    </g>
    <g id="text_19">
     <!-- Validation -->
     <g transform="translate(343.164375 71.387187) scale(0.14 -0.14)">
      <defs>
       <path id="DejaVuSans-Bold-56" d="M 31 4666 
L 1241 4666 
L 2478 1222 
L 3713 4666 
L 4922 4666 
L 3194 0 
L 1759 0 
L 31 4666 
z
" transform="scale(0.015625)"/>
      </defs>
      <use xlink:href="#DejaVuSans-Bold-56"/>
      <use xlink:href="#DejaVuSans-Bold-61" transform="translate(71.892578 0)"/>
      <use xlink:href="#DejaVuSans-Bold-6c" transform="translate(139.373047 0)"/>
      <use xlink:href="#DejaVuSans-Bold-69" transform="translate(173.650391 0)"/>
      <use xlink:href="#DejaVuSans-Bold-64" transform="translate(207.927734 0)"/>
      <use xlink:href="#DejaVuSans-Bold-61" transform="translate(279.509766 0)"/>
      <use xlink:href="#DejaVuSans-Bold-74" transform="translate(346.990234 0)"/>
      <use xlink:href="#DejaVuSans-Bold-69" transform="translate(394.792969 0)"/>
      <use xlink:href="#DejaVuSans-Bold-6f" transform="translate(429.070312 0)"/>
      <use xlink:href="#DejaVuSans-Bold-6e" transform="translate(497.771484 0)"/>
     </g>
    </g>
   </g>
  </g>
 </g>
 <defs>
  <clipPath id="pd64fa2b787">
   <rect x="71.098581" y="27.6" width="364.321419" height="268.84"/>
  </clipPath>
 </defs>
</svg>
