<?xml version="1.0" encoding="utf-8" standalone="no"?>
<!DOCTYPE svg PUBLIC "-//W3C//DTD SVG 1.1//EN"
  "http://www.w3.org/Graphics/SVG/1.1/DTD/svg11.dtd">
<svg xmlns:xlink="http://www.w3.org/1999/xlink" width="864pt" height="576pt" viewBox="0 0 864 576" xmlns="http://www.w3.org/2000/svg" version="1.1">
 <metadata>
  <rdf:RDF xmlns:dc="http://purl.org/dc/elements/1.1/" xmlns:cc="http://creativecommons.org/ns#" xmlns:rdf="http://www.w3.org/1999/02/22-rdf-syntax-ns#">
   <cc:Work>
    <dc:type rdf:resource="http://purl.org/dc/dcmitype/StillImage"/>
    <dc:date>2025-04-15T12:42:44.881315</dc:date>
    <dc:format>image/svg+xml</dc:format>
    <dc:creator>
     <cc:Agent>
      <dc:title>Matplotlib v3.10.0, https://matplotlib.org/</dc:title>
     </cc:Agent>
    </dc:creator>
   </cc:Work>
  </rdf:RDF>
 </metadata>
 <defs>
  <style type="text/css">*{stroke-linejoin: round; stroke-linecap: butt}</style>
 </defs>
 <g id="figure_1">
  <g id="patch_1">
   <path d="M 0 576 
L 864 576 
L 864 0 
L 0 0 
z
" style="fill: #ffffff"/>
  </g>
  <g id="axes_1">
   <g id="patch_2">
    <path d="M 68.213363 435.75739 
L 690.264 435.75739 
L 690.264 29.76 
L 68.213363 29.76 
z
" style="fill: #ffffff"/>
   </g>
   <g id="patch_3">
    <path d="M 96.488392 435.75739 
L 111.369986 435.75739 
L 111.369986 63.61974 
L 96.488392 63.61974 
z
" clip-path="url(#pd058864a40)" style="fill: #1f77b4"/>
   </g>
   <g id="patch_4">
    <path d="M 170.896363 435.75739 
L 185.777957 435.75739 
L 185.777957 217.289832 
L 170.896363 217.289832 
z
" clip-path="url(#pd058864a40)" style="fill: #1f77b4"/>
   </g>
   <g id="patch_5">
    <path d="M 245.304334 435.75739 
L 260.185928 435.75739 
L 260.185928 263.691327 
L 245.304334 263.691327 
z
" clip-path="url(#pd058864a40)" style="fill: #1f77b4"/>
   </g>
   <g id="patch_6">
    <path d="M 319.712305 435.75739 
L 334.593899 435.75739 
L 334.593899 399.369657 
L 319.712305 399.369657 
z
" clip-path="url(#pd058864a40)" style="fill: #1f77b4"/>
   </g>
   <g id="patch_7">
    <path d="M 394.120276 435.75739 
L 409.00187 435.75739 
L 409.00187 88.296362 
L 394.120276 88.296362 
z
" clip-path="url(#pd058864a40)" style="fill: #1f77b4"/>
   </g>
   <g id="patch_8">
    <path d="M 468.528247 435.75739 
L 483.409841 435.75739 
L 483.409841 241.850302 
L 468.528247 241.850302 
z
" clip-path="url(#pd058864a40)" style="fill: #1f77b4"/>
   </g>
   <g id="patch_9">
    <path d="M 542.936218 435.75739 
L 557.817812 435.75739 
L 557.817812 259.682597 
L 542.936218 259.682597 
z
" clip-path="url(#pd058864a40)" style="fill: #1f77b4"/>
   </g>
   <g id="patch_10">
    <path d="M 617.344189 435.75739 
L 632.225783 435.75739 
L 632.225783 435.75739 
L 617.344189 435.75739 
z
" clip-path="url(#pd058864a40)" style="fill: #1f77b4"/>
   </g>
   <g id="patch_11">
    <path d="M 111.369986 435.75739 
L 126.25158 435.75739 
L 126.25158 188.758008 
L 111.369986 188.758008 
z
" clip-path="url(#pd058864a40)" style="fill: #ff7f0e"/>
   </g>
   <g id="patch_12">
    <path d="M 185.777957 435.75739 
L 200.659551 435.75739 
L 200.659551 296.974927 
L 185.777957 296.974927 
z
" clip-path="url(#pd058864a40)" style="fill: #ff7f0e"/>
   </g>
   <g id="patch_13">
    <path d="M 260.185928 435.75739 
L 275.067522 435.75739 
L 275.067522 65.952065 
L 260.185928 65.952065 
z
" clip-path="url(#pd058864a40)" style="fill: #ff7f0e"/>
   </g>
   <g id="patch_14">
    <path d="M 334.593899 435.75739 
L 349.475493 435.75739 
L 349.475493 49.093209 
L 334.593899 49.093209 
z
" clip-path="url(#pd058864a40)" style="fill: #ff7f0e"/>
   </g>
   <g id="patch_15">
    <path d="M 409.00187 435.75739 
L 423.883464 435.75739 
L 423.883464 289.381182 
L 409.00187 289.381182 
z
" clip-path="url(#pd058864a40)" style="fill: #ff7f0e"/>
   </g>
   <g id="patch_16">
    <path d="M 483.409841 435.75739 
L 498.291435 435.75739 
L 498.291435 420.160419 
L 483.409841 420.160419 
z
" clip-path="url(#pd058864a40)" style="fill: #ff7f0e"/>
   </g>
   <g id="patch_17">
    <path d="M 557.817812 435.75739 
L 572.699406 435.75739 
L 572.699406 223.480049 
L 557.817812 223.480049 
z
" clip-path="url(#pd058864a40)" style="fill: #ff7f0e"/>
   </g>
   <g id="patch_18">
    <path d="M 632.225783 435.75739 
L 647.107377 435.75739 
L 647.107377 435.75739 
L 632.225783 435.75739 
z
" clip-path="url(#pd058864a40)" style="fill: #ff7f0e"/>
   </g>
   <g id="patch_19">
    <path d="M 126.25158 435.75739 
L 141.133175 435.75739 
L 141.133175 142.237401 
L 126.25158 142.237401 
z
" clip-path="url(#pd058864a40)" style="fill: #2ca02c"/>
   </g>
   <g id="patch_20">
    <path d="M 200.659551 435.75739 
L 215.541146 435.75739 
L 215.541146 119.292685 
L 200.659551 119.292685 
z
" clip-path="url(#pd058864a40)" style="fill: #2ca02c"/>
   </g>
   <g id="patch_21">
    <path d="M 275.067522 435.75739 
L 289.949116 435.75739 
L 289.949116 318.234594 
L 275.067522 318.234594 
z
" clip-path="url(#pd058864a40)" style="fill: #2ca02c"/>
   </g>
   <g id="patch_22">
    <path d="M 349.475493 435.75739 
L 364.357087 435.75739 
L 364.357087 201.403692 
L 349.475493 201.403692 
z
" clip-path="url(#pd058864a40)" style="fill: #2ca02c"/>
   </g>
   <g id="patch_23">
    <path d="M 423.883464 435.75739 
L 438.765058 435.75739 
L 438.765058 283.32297 
L 423.883464 283.32297 
z
" clip-path="url(#pd058864a40)" style="fill: #2ca02c"/>
   </g>
   <g id="patch_24">
    <path d="M 498.291435 435.75739 
L 513.173029 435.75739 
L 513.173029 95.317403 
L 498.291435 95.317403 
z
" clip-path="url(#pd058864a40)" style="fill: #2ca02c"/>
   </g>
   <g id="patch_25">
    <path d="M 572.699406 435.75739 
L 587.581 435.75739 
L 587.581 373.991031 
L 572.699406 373.991031 
z
" clip-path="url(#pd058864a40)" style="fill: #2ca02c"/>
   </g>
   <g id="patch_26">
    <path d="M 647.107377 435.75739 
L 661.988971 435.75739 
L 661.988971 435.75739 
L 647.107377 435.75739 
z
" clip-path="url(#pd058864a40)" style="fill: #2ca02c"/>
   </g>
   <g id="matplotlib.axis_1">
    <g id="xtick_1">
     <g id="line2d_1">
      <defs>
       <path id="ma7f27650e3" d="M 0 0 
L 0 3.5 
" style="stroke: #000000; stroke-width: 0.8"/>
      </defs>
      <g>
       <use xlink:href="#ma7f27650e3" x="118.810783" y="435.75739" style="stroke: #000000; stroke-width: 0.8"/>
      </g>
     </g>
     <g id="text_1">
      <!-- img_median_intensity -->
      <g transform="translate(12.80708 553.207911) rotate(-45) scale(0.12 -0.12)">
       <defs>
        <path id="DejaVuSans-Bold-69" d="M 538 3500 
L 1656 3500 
L 1656 0 
L 538 0 
L 538 3500 
z
M 538 4863 
L 1656 4863 
L 1656 3950 
L 538 3950 
L 538 4863 
z
" transform="scale(0.015625)"/>
        <path id="DejaVuSans-Bold-6d" d="M 3781 2919 
Q 3994 3244 4286 3414 
Q 4578 3584 4928 3584 
Q 5531 3584 5847 3212 
Q 6163 2841 6163 2131 
L 6163 0 
L 5038 0 
L 5038 1825 
Q 5041 1866 5042 1909 
Q 5044 1953 5044 2034 
Q 5044 2406 4934 2573 
Q 4825 2741 4581 2741 
Q 4263 2741 4089 2478 
Q 3916 2216 3909 1719 
L 3909 0 
L 2784 0 
L 2784 1825 
Q 2784 2406 2684 2573 
Q 2584 2741 2328 2741 
Q 2006 2741 1831 2477 
Q 1656 2213 1656 1722 
L 1656 0 
L 531 0 
L 531 3500 
L 1656 3500 
L 1656 2988 
Q 1863 3284 2130 3434 
Q 2397 3584 2719 3584 
Q 3081 3584 3359 3409 
Q 3638 3234 3781 2919 
z
" transform="scale(0.015625)"/>
        <path id="DejaVuSans-Bold-67" d="M 2919 594 
Q 2688 288 2409 144 
Q 2131 0 1766 0 
Q 1125 0 706 504 
Q 288 1009 288 1791 
Q 288 2575 706 3076 
Q 1125 3578 1766 3578 
Q 2131 3578 2409 3434 
Q 2688 3291 2919 2981 
L 2919 3500 
L 4044 3500 
L 4044 353 
Q 4044 -491 3511 -936 
Q 2978 -1381 1966 -1381 
Q 1638 -1381 1331 -1331 
Q 1025 -1281 716 -1178 
L 716 -306 
Q 1009 -475 1290 -558 
Q 1572 -641 1856 -641 
Q 2406 -641 2662 -400 
Q 2919 -159 2919 353 
L 2919 594 
z
M 2181 2772 
Q 1834 2772 1640 2515 
Q 1447 2259 1447 1791 
Q 1447 1309 1634 1061 
Q 1822 813 2181 813 
Q 2531 813 2725 1069 
Q 2919 1325 2919 1791 
Q 2919 2259 2725 2515 
Q 2531 2772 2181 2772 
z
" transform="scale(0.015625)"/>
        <path id="DejaVuSans-Bold-5f" d="M 3200 -916 
L 3200 -1509 
L 0 -1509 
L 0 -916 
L 3200 -916 
z
" transform="scale(0.015625)"/>
        <path id="DejaVuSans-Bold-65" d="M 4031 1759 
L 4031 1441 
L 1416 1441 
Q 1456 1047 1700 850 
Q 1944 653 2381 653 
Q 2734 653 3104 758 
Q 3475 863 3866 1075 
L 3866 213 
Q 3469 63 3072 -14 
Q 2675 -91 2278 -91 
Q 1328 -91 801 392 
Q 275 875 275 1747 
Q 275 2603 792 3093 
Q 1309 3584 2216 3584 
Q 3041 3584 3536 3087 
Q 4031 2591 4031 1759 
z
M 2881 2131 
Q 2881 2450 2695 2645 
Q 2509 2841 2209 2841 
Q 1884 2841 1681 2658 
Q 1478 2475 1428 2131 
L 2881 2131 
z
" transform="scale(0.015625)"/>
        <path id="DejaVuSans-Bold-64" d="M 2919 2988 
L 2919 4863 
L 4044 4863 
L 4044 0 
L 2919 0 
L 2919 506 
Q 2688 197 2409 53 
Q 2131 -91 1766 -91 
Q 1119 -91 703 423 
Q 288 938 288 1747 
Q 288 2556 703 3070 
Q 1119 3584 1766 3584 
Q 2128 3584 2408 3439 
Q 2688 3294 2919 2988 
z
M 2181 722 
Q 2541 722 2730 984 
Q 2919 1247 2919 1747 
Q 2919 2247 2730 2509 
Q 2541 2772 2181 2772 
Q 1825 2772 1636 2509 
Q 1447 2247 1447 1747 
Q 1447 1247 1636 984 
Q 1825 722 2181 722 
z
" transform="scale(0.015625)"/>
        <path id="DejaVuSans-Bold-61" d="M 2106 1575 
Q 1756 1575 1579 1456 
Q 1403 1338 1403 1106 
Q 1403 894 1545 773 
Q 1688 653 1941 653 
Q 2256 653 2472 879 
Q 2688 1106 2688 1447 
L 2688 1575 
L 2106 1575 
z
M 3816 1997 
L 3816 0 
L 2688 0 
L 2688 519 
Q 2463 200 2181 54 
Q 1900 -91 1497 -91 
Q 953 -91 614 226 
Q 275 544 275 1050 
Q 275 1666 698 1953 
Q 1122 2241 2028 2241 
L 2688 2241 
L 2688 2328 
Q 2688 2594 2478 2717 
Q 2269 2841 1825 2841 
Q 1466 2841 1156 2769 
Q 847 2697 581 2553 
L 581 3406 
Q 941 3494 1303 3539 
Q 1666 3584 2028 3584 
Q 2975 3584 3395 3211 
Q 3816 2838 3816 1997 
z
" transform="scale(0.015625)"/>
        <path id="DejaVuSans-Bold-6e" d="M 4056 2131 
L 4056 0 
L 2931 0 
L 2931 347 
L 2931 1631 
Q 2931 2084 2911 2256 
Q 2891 2428 2841 2509 
Q 2775 2619 2662 2680 
Q 2550 2741 2406 2741 
Q 2056 2741 1856 2470 
Q 1656 2200 1656 1722 
L 1656 0 
L 538 0 
L 538 3500 
L 1656 3500 
L 1656 2988 
Q 1909 3294 2193 3439 
Q 2478 3584 2822 3584 
Q 3428 3584 3742 3212 
Q 4056 2841 4056 2131 
z
" transform="scale(0.015625)"/>
        <path id="DejaVuSans-Bold-74" d="M 1759 4494 
L 1759 3500 
L 2913 3500 
L 2913 2700 
L 1759 2700 
L 1759 1216 
Q 1759 972 1856 886 
Q 1953 800 2241 800 
L 2816 800 
L 2816 0 
L 1856 0 
Q 1194 0 917 276 
Q 641 553 641 1216 
L 641 2700 
L 84 2700 
L 84 3500 
L 641 3500 
L 641 4494 
L 1759 4494 
z
" transform="scale(0.015625)"/>
        <path id="DejaVuSans-Bold-73" d="M 3272 3391 
L 3272 2541 
Q 2913 2691 2578 2766 
Q 2244 2841 1947 2841 
Q 1628 2841 1473 2761 
Q 1319 2681 1319 2516 
Q 1319 2381 1436 2309 
Q 1553 2238 1856 2203 
L 2053 2175 
Q 2913 2066 3209 1816 
Q 3506 1566 3506 1031 
Q 3506 472 3093 190 
Q 2681 -91 1863 -91 
Q 1516 -91 1145 -36 
Q 775 19 384 128 
L 384 978 
Q 719 816 1070 734 
Q 1422 653 1784 653 
Q 2113 653 2278 743 
Q 2444 834 2444 1013 
Q 2444 1163 2330 1236 
Q 2216 1309 1875 1350 
L 1678 1375 
Q 931 1469 631 1722 
Q 331 1975 331 2491 
Q 331 3047 712 3315 
Q 1094 3584 1881 3584 
Q 2191 3584 2531 3537 
Q 2872 3491 3272 3391 
z
" transform="scale(0.015625)"/>
        <path id="DejaVuSans-Bold-79" d="M 78 3500 
L 1197 3500 
L 2138 1125 
L 2938 3500 
L 4056 3500 
L 2584 -331 
Q 2363 -916 2067 -1148 
Q 1772 -1381 1288 -1381 
L 641 -1381 
L 641 -647 
L 991 -647 
Q 1275 -647 1404 -556 
Q 1534 -466 1606 -231 
L 1638 -134 
L 78 3500 
z
" transform="scale(0.015625)"/>
       </defs>
       <use xlink:href="#DejaVuSans-Bold-69"/>
       <use xlink:href="#DejaVuSans-Bold-6d" transform="translate(34.277344 0)"/>
       <use xlink:href="#DejaVuSans-Bold-67" transform="translate(138.476562 0)"/>
       <use xlink:href="#DejaVuSans-Bold-5f" transform="translate(210.058594 0)"/>
       <use xlink:href="#DejaVuSans-Bold-6d" transform="translate(260.058594 0)"/>
       <use xlink:href="#DejaVuSans-Bold-65" transform="translate(364.257812 0)"/>
       <use xlink:href="#DejaVuSans-Bold-64" transform="translate(432.080078 0)"/>
       <use xlink:href="#DejaVuSans-Bold-69" transform="translate(503.662109 0)"/>
       <use xlink:href="#DejaVuSans-Bold-61" transform="translate(537.939453 0)"/>
       <use xlink:href="#DejaVuSans-Bold-6e" transform="translate(605.419922 0)"/>
       <use xlink:href="#DejaVuSans-Bold-5f" transform="translate(676.611328 0)"/>
       <use xlink:href="#DejaVuSans-Bold-69" transform="translate(726.611328 0)"/>
       <use xlink:href="#DejaVuSans-Bold-6e" transform="translate(760.888672 0)"/>
       <use xlink:href="#DejaVuSans-Bold-74" transform="translate(832.080078 0)"/>
       <use xlink:href="#DejaVuSans-Bold-65" transform="translate(879.882812 0)"/>
       <use xlink:href="#DejaVuSans-Bold-6e" transform="translate(947.705078 0)"/>
       <use xlink:href="#DejaVuSans-Bold-73" transform="translate(1018.896484 0)"/>
       <use xlink:href="#DejaVuSans-Bold-69" transform="translate(1078.417969 0)"/>
       <use xlink:href="#DejaVuSans-Bold-74" transform="translate(1112.695312 0)"/>
       <use xlink:href="#DejaVuSans-Bold-79" transform="translate(1160.498047 0)"/>
      </g>
     </g>
    </g>
    <g id="xtick_2">
     <g id="line2d_2">
      <g>
       <use xlink:href="#ma7f27650e3" x="193.218754" y="435.75739" style="stroke: #000000; stroke-width: 0.8"/>
      </g>
     </g>
     <g id="text_2">
      <!-- img_std_intensity -->
      <g transform="translate(107.382178 533.040784) rotate(-45) scale(0.12 -0.12)">
       <use xlink:href="#DejaVuSans-Bold-69"/>
       <use xlink:href="#DejaVuSans-Bold-6d" transform="translate(34.277344 0)"/>
       <use xlink:href="#DejaVuSans-Bold-67" transform="translate(138.476562 0)"/>
       <use xlink:href="#DejaVuSans-Bold-5f" transform="translate(210.058594 0)"/>
       <use xlink:href="#DejaVuSans-Bold-73" transform="translate(260.058594 0)"/>
       <use xlink:href="#DejaVuSans-Bold-74" transform="translate(319.580078 0)"/>
       <use xlink:href="#DejaVuSans-Bold-64" transform="translate(367.382812 0)"/>
       <use xlink:href="#DejaVuSans-Bold-5f" transform="translate(438.964844 0)"/>
       <use xlink:href="#DejaVuSans-Bold-69" transform="translate(488.964844 0)"/>
       <use xlink:href="#DejaVuSans-Bold-6e" transform="translate(523.242188 0)"/>
       <use xlink:href="#DejaVuSans-Bold-74" transform="translate(594.433594 0)"/>
       <use xlink:href="#DejaVuSans-Bold-65" transform="translate(642.236328 0)"/>
       <use xlink:href="#DejaVuSans-Bold-6e" transform="translate(710.058594 0)"/>
       <use xlink:href="#DejaVuSans-Bold-73" transform="translate(781.25 0)"/>
       <use xlink:href="#DejaVuSans-Bold-69" transform="translate(840.771484 0)"/>
       <use xlink:href="#DejaVuSans-Bold-74" transform="translate(875.048828 0)"/>
       <use xlink:href="#DejaVuSans-Bold-79" transform="translate(922.851562 0)"/>
      </g>
     </g>
    </g>
    <g id="xtick_3">
     <g id="line2d_3">
      <g>
       <use xlink:href="#ma7f27650e3" x="267.626725" y="435.75739" style="stroke: #000000; stroke-width: 0.8"/>
      </g>
     </g>
     <g id="text_3">
      <!-- img_kurtosis_intensity -->
      <g transform="translate(158.207696 556.623237) rotate(-45) scale(0.12 -0.12)">
       <defs>
        <path id="DejaVuSans-Bold-6b" d="M 538 4863 
L 1656 4863 
L 1656 2216 
L 2944 3500 
L 4244 3500 
L 2534 1894 
L 4378 0 
L 3022 0 
L 1656 1459 
L 1656 0 
L 538 0 
L 538 4863 
z
" transform="scale(0.015625)"/>
        <path id="DejaVuSans-Bold-75" d="M 500 1363 
L 500 3500 
L 1625 3500 
L 1625 3150 
Q 1625 2866 1622 2436 
Q 1619 2006 1619 1863 
Q 1619 1441 1641 1255 
Q 1663 1069 1716 984 
Q 1784 875 1895 815 
Q 2006 756 2150 756 
Q 2500 756 2700 1025 
Q 2900 1294 2900 1772 
L 2900 3500 
L 4019 3500 
L 4019 0 
L 2900 0 
L 2900 506 
Q 2647 200 2364 54 
Q 2081 -91 1741 -91 
Q 1134 -91 817 281 
Q 500 653 500 1363 
z
" transform="scale(0.015625)"/>
        <path id="DejaVuSans-Bold-72" d="M 3138 2547 
Q 2991 2616 2845 2648 
Q 2700 2681 2553 2681 
Q 2122 2681 1889 2404 
Q 1656 2128 1656 1613 
L 1656 0 
L 538 0 
L 538 3500 
L 1656 3500 
L 1656 2925 
Q 1872 3269 2151 3426 
Q 2431 3584 2822 3584 
Q 2878 3584 2943 3579 
Q 3009 3575 3134 3559 
L 3138 2547 
z
" transform="scale(0.015625)"/>
        <path id="DejaVuSans-Bold-6f" d="M 2203 2784 
Q 1831 2784 1636 2517 
Q 1441 2250 1441 1747 
Q 1441 1244 1636 976 
Q 1831 709 2203 709 
Q 2569 709 2762 976 
Q 2956 1244 2956 1747 
Q 2956 2250 2762 2517 
Q 2569 2784 2203 2784 
z
M 2203 3584 
Q 3106 3584 3614 3096 
Q 4122 2609 4122 1747 
Q 4122 884 3614 396 
Q 3106 -91 2203 -91 
Q 1297 -91 786 396 
Q 275 884 275 1747 
Q 275 2609 786 3096 
Q 1297 3584 2203 3584 
z
" transform="scale(0.015625)"/>
       </defs>
       <use xlink:href="#DejaVuSans-Bold-69"/>
       <use xlink:href="#DejaVuSans-Bold-6d" transform="translate(34.277344 0)"/>
       <use xlink:href="#DejaVuSans-Bold-67" transform="translate(138.476562 0)"/>
       <use xlink:href="#DejaVuSans-Bold-5f" transform="translate(210.058594 0)"/>
       <use xlink:href="#DejaVuSans-Bold-6b" transform="translate(260.058594 0)"/>
       <use xlink:href="#DejaVuSans-Bold-75" transform="translate(326.5625 0)"/>
       <use xlink:href="#DejaVuSans-Bold-72" transform="translate(397.753906 0)"/>
       <use xlink:href="#DejaVuSans-Bold-74" transform="translate(447.070312 0)"/>
       <use xlink:href="#DejaVuSans-Bold-6f" transform="translate(494.873047 0)"/>
       <use xlink:href="#DejaVuSans-Bold-73" transform="translate(563.574219 0)"/>
       <use xlink:href="#DejaVuSans-Bold-69" transform="translate(623.095703 0)"/>
       <use xlink:href="#DejaVuSans-Bold-73" transform="translate(657.373047 0)"/>
       <use xlink:href="#DejaVuSans-Bold-5f" transform="translate(716.894531 0)"/>
       <use xlink:href="#DejaVuSans-Bold-69" transform="translate(766.894531 0)"/>
       <use xlink:href="#DejaVuSans-Bold-6e" transform="translate(801.171875 0)"/>
       <use xlink:href="#DejaVuSans-Bold-74" transform="translate(872.363281 0)"/>
       <use xlink:href="#DejaVuSans-Bold-65" transform="translate(920.166016 0)"/>
       <use xlink:href="#DejaVuSans-Bold-6e" transform="translate(987.988281 0)"/>
       <use xlink:href="#DejaVuSans-Bold-73" transform="translate(1059.179688 0)"/>
       <use xlink:href="#DejaVuSans-Bold-69" transform="translate(1118.701172 0)"/>
       <use xlink:href="#DejaVuSans-Bold-74" transform="translate(1152.978516 0)"/>
       <use xlink:href="#DejaVuSans-Bold-79" transform="translate(1200.78125 0)"/>
      </g>
     </g>
    </g>
    <g id="xtick_4">
     <g id="line2d_4">
      <g>
       <use xlink:href="#ma7f27650e3" x="342.034696" y="435.75739" style="stroke: #000000; stroke-width: 0.8"/>
      </g>
     </g>
     <g id="text_4">
      <!-- img_skewness_intensity -->
      <g transform="translate(225.416436 563.822468) rotate(-45) scale(0.12 -0.12)">
       <defs>
        <path id="DejaVuSans-Bold-77" d="M 225 3500 
L 1313 3500 
L 1900 1088 
L 2491 3500 
L 3425 3500 
L 4013 1113 
L 4603 3500 
L 5691 3500 
L 4769 0 
L 3547 0 
L 2956 2406 
L 2369 0 
L 1147 0 
L 225 3500 
z
" transform="scale(0.015625)"/>
       </defs>
       <use xlink:href="#DejaVuSans-Bold-69"/>
       <use xlink:href="#DejaVuSans-Bold-6d" transform="translate(34.277344 0)"/>
       <use xlink:href="#DejaVuSans-Bold-67" transform="translate(138.476562 0)"/>
       <use xlink:href="#DejaVuSans-Bold-5f" transform="translate(210.058594 0)"/>
       <use xlink:href="#DejaVuSans-Bold-73" transform="translate(260.058594 0)"/>
       <use xlink:href="#DejaVuSans-Bold-6b" transform="translate(319.580078 0)"/>
       <use xlink:href="#DejaVuSans-Bold-65" transform="translate(383.458984 0)"/>
       <use xlink:href="#DejaVuSans-Bold-77" transform="translate(451.28125 0)"/>
       <use xlink:href="#DejaVuSans-Bold-6e" transform="translate(543.664062 0)"/>
       <use xlink:href="#DejaVuSans-Bold-65" transform="translate(614.855469 0)"/>
       <use xlink:href="#DejaVuSans-Bold-73" transform="translate(682.677734 0)"/>
       <use xlink:href="#DejaVuSans-Bold-73" transform="translate(742.199219 0)"/>
       <use xlink:href="#DejaVuSans-Bold-5f" transform="translate(801.720703 0)"/>
       <use xlink:href="#DejaVuSans-Bold-69" transform="translate(851.720703 0)"/>
       <use xlink:href="#DejaVuSans-Bold-6e" transform="translate(885.998047 0)"/>
       <use xlink:href="#DejaVuSans-Bold-74" transform="translate(957.189453 0)"/>
       <use xlink:href="#DejaVuSans-Bold-65" transform="translate(1004.992188 0)"/>
       <use xlink:href="#DejaVuSans-Bold-6e" transform="translate(1072.814453 0)"/>
       <use xlink:href="#DejaVuSans-Bold-73" transform="translate(1144.005859 0)"/>
       <use xlink:href="#DejaVuSans-Bold-69" transform="translate(1203.527344 0)"/>
       <use xlink:href="#DejaVuSans-Bold-74" transform="translate(1237.804688 0)"/>
       <use xlink:href="#DejaVuSans-Bold-79" transform="translate(1285.607422 0)"/>
      </g>
     </g>
    </g>
    <g id="xtick_5">
     <g id="line2d_5">
      <g>
       <use xlink:href="#ma7f27650e3" x="416.442667" y="435.75739" style="stroke: #000000; stroke-width: 0.8"/>
      </g>
     </g>
     <g id="text_5">
      <!-- img_variance_intensity -->
      <g transform="translate(304.88243 558.764444) rotate(-45) scale(0.12 -0.12)">
       <defs>
        <path id="DejaVuSans-Bold-76" d="M 97 3500 
L 1216 3500 
L 2088 1081 
L 2956 3500 
L 4078 3500 
L 2700 0 
L 1472 0 
L 97 3500 
z
" transform="scale(0.015625)"/>
        <path id="DejaVuSans-Bold-63" d="M 3366 3391 
L 3366 2478 
Q 3138 2634 2908 2709 
Q 2678 2784 2431 2784 
Q 1963 2784 1702 2511 
Q 1441 2238 1441 1747 
Q 1441 1256 1702 982 
Q 1963 709 2431 709 
Q 2694 709 2930 787 
Q 3166 866 3366 1019 
L 3366 103 
Q 3103 6 2833 -42 
Q 2563 -91 2291 -91 
Q 1344 -91 809 395 
Q 275 881 275 1747 
Q 275 2613 809 3098 
Q 1344 3584 2291 3584 
Q 2566 3584 2833 3536 
Q 3100 3488 3366 3391 
z
" transform="scale(0.015625)"/>
       </defs>
       <use xlink:href="#DejaVuSans-Bold-69"/>
       <use xlink:href="#DejaVuSans-Bold-6d" transform="translate(34.277344 0)"/>
       <use xlink:href="#DejaVuSans-Bold-67" transform="translate(138.476562 0)"/>
       <use xlink:href="#DejaVuSans-Bold-5f" transform="translate(210.058594 0)"/>
       <use xlink:href="#DejaVuSans-Bold-76" transform="translate(260.058594 0)"/>
       <use xlink:href="#DejaVuSans-Bold-61" transform="translate(325.244141 0)"/>
       <use xlink:href="#DejaVuSans-Bold-72" transform="translate(392.724609 0)"/>
       <use xlink:href="#DejaVuSans-Bold-69" transform="translate(442.041016 0)"/>
       <use xlink:href="#DejaVuSans-Bold-61" transform="translate(476.318359 0)"/>
       <use xlink:href="#DejaVuSans-Bold-6e" transform="translate(543.798828 0)"/>
       <use xlink:href="#DejaVuSans-Bold-63" transform="translate(614.990234 0)"/>
       <use xlink:href="#DejaVuSans-Bold-65" transform="translate(674.267578 0)"/>
       <use xlink:href="#DejaVuSans-Bold-5f" transform="translate(742.089844 0)"/>
       <use xlink:href="#DejaVuSans-Bold-69" transform="translate(792.089844 0)"/>
       <use xlink:href="#DejaVuSans-Bold-6e" transform="translate(826.367188 0)"/>
       <use xlink:href="#DejaVuSans-Bold-74" transform="translate(897.558594 0)"/>
       <use xlink:href="#DejaVuSans-Bold-65" transform="translate(945.361328 0)"/>
       <use xlink:href="#DejaVuSans-Bold-6e" transform="translate(1013.183594 0)"/>
       <use xlink:href="#DejaVuSans-Bold-73" transform="translate(1084.375 0)"/>
       <use xlink:href="#DejaVuSans-Bold-69" transform="translate(1143.896484 0)"/>
       <use xlink:href="#DejaVuSans-Bold-74" transform="translate(1178.173828 0)"/>
       <use xlink:href="#DejaVuSans-Bold-79" transform="translate(1225.976562 0)"/>
      </g>
     </g>
    </g>
    <g id="xtick_6">
     <g id="line2d_6">
      <g>
       <use xlink:href="#ma7f27650e3" x="490.850638" y="435.75739" style="stroke: #000000; stroke-width: 0.8"/>
      </g>
     </g>
     <g id="text_6">
      <!-- img_min_intensity -->
      <g transform="translate(402.402186 535.652659) rotate(-45) scale(0.12 -0.12)">
       <use xlink:href="#DejaVuSans-Bold-69"/>
       <use xlink:href="#DejaVuSans-Bold-6d" transform="translate(34.277344 0)"/>
       <use xlink:href="#DejaVuSans-Bold-67" transform="translate(138.476562 0)"/>
       <use xlink:href="#DejaVuSans-Bold-5f" transform="translate(210.058594 0)"/>
       <use xlink:href="#DejaVuSans-Bold-6d" transform="translate(260.058594 0)"/>
       <use xlink:href="#DejaVuSans-Bold-69" transform="translate(364.257812 0)"/>
       <use xlink:href="#DejaVuSans-Bold-6e" transform="translate(398.535156 0)"/>
       <use xlink:href="#DejaVuSans-Bold-5f" transform="translate(469.726562 0)"/>
       <use xlink:href="#DejaVuSans-Bold-69" transform="translate(519.726562 0)"/>
       <use xlink:href="#DejaVuSans-Bold-6e" transform="translate(554.003906 0)"/>
       <use xlink:href="#DejaVuSans-Bold-74" transform="translate(625.195312 0)"/>
       <use xlink:href="#DejaVuSans-Bold-65" transform="translate(672.998047 0)"/>
       <use xlink:href="#DejaVuSans-Bold-6e" transform="translate(740.820312 0)"/>
       <use xlink:href="#DejaVuSans-Bold-73" transform="translate(812.011719 0)"/>
       <use xlink:href="#DejaVuSans-Bold-69" transform="translate(871.533203 0)"/>
       <use xlink:href="#DejaVuSans-Bold-74" transform="translate(905.810547 0)"/>
       <use xlink:href="#DejaVuSans-Bold-79" transform="translate(953.613281 0)"/>
      </g>
     </g>
    </g>
    <g id="xtick_7">
     <g id="line2d_7">
      <g>
       <use xlink:href="#ma7f27650e3" x="565.258609" y="435.75739" style="stroke: #000000; stroke-width: 0.8"/>
      </g>
     </g>
     <g id="text_7">
      <!-- img_mean_intensity -->
      <g transform="translate(468.237371 544.225445) rotate(-45) scale(0.12 -0.12)">
       <use xlink:href="#DejaVuSans-Bold-69"/>
       <use xlink:href="#DejaVuSans-Bold-6d" transform="translate(34.277344 0)"/>
       <use xlink:href="#DejaVuSans-Bold-67" transform="translate(138.476562 0)"/>
       <use xlink:href="#DejaVuSans-Bold-5f" transform="translate(210.058594 0)"/>
       <use xlink:href="#DejaVuSans-Bold-6d" transform="translate(260.058594 0)"/>
       <use xlink:href="#DejaVuSans-Bold-65" transform="translate(364.257812 0)"/>
       <use xlink:href="#DejaVuSans-Bold-61" transform="translate(432.080078 0)"/>
       <use xlink:href="#DejaVuSans-Bold-6e" transform="translate(499.560547 0)"/>
       <use xlink:href="#DejaVuSans-Bold-5f" transform="translate(570.751953 0)"/>
       <use xlink:href="#DejaVuSans-Bold-69" transform="translate(620.751953 0)"/>
       <use xlink:href="#DejaVuSans-Bold-6e" transform="translate(655.029297 0)"/>
       <use xlink:href="#DejaVuSans-Bold-74" transform="translate(726.220703 0)"/>
       <use xlink:href="#DejaVuSans-Bold-65" transform="translate(774.023438 0)"/>
       <use xlink:href="#DejaVuSans-Bold-6e" transform="translate(841.845703 0)"/>
       <use xlink:href="#DejaVuSans-Bold-73" transform="translate(913.037109 0)"/>
       <use xlink:href="#DejaVuSans-Bold-69" transform="translate(972.558594 0)"/>
       <use xlink:href="#DejaVuSans-Bold-74" transform="translate(1006.835938 0)"/>
       <use xlink:href="#DejaVuSans-Bold-79" transform="translate(1054.638672 0)"/>
      </g>
     </g>
    </g>
    <g id="xtick_8">
     <g id="line2d_8">
      <g>
       <use xlink:href="#ma7f27650e3" x="639.66658" y="435.75739" style="stroke: #000000; stroke-width: 0.8"/>
      </g>
     </g>
     <g id="text_8">
      <!-- img_max_intensity -->
      <g transform="translate(548.968203 537.902585) rotate(-45) scale(0.12 -0.12)">
       <defs>
        <path id="DejaVuSans-Bold-78" d="M 1422 1791 
L 159 3500 
L 1344 3500 
L 2059 2463 
L 2784 3500 
L 3969 3500 
L 2706 1797 
L 4031 0 
L 2847 0 
L 2059 1106 
L 1281 0 
L 97 0 
L 1422 1791 
z
" transform="scale(0.015625)"/>
       </defs>
       <use xlink:href="#DejaVuSans-Bold-69"/>
       <use xlink:href="#DejaVuSans-Bold-6d" transform="translate(34.277344 0)"/>
       <use xlink:href="#DejaVuSans-Bold-67" transform="translate(138.476562 0)"/>
       <use xlink:href="#DejaVuSans-Bold-5f" transform="translate(210.058594 0)"/>
       <use xlink:href="#DejaVuSans-Bold-6d" transform="translate(260.058594 0)"/>
       <use xlink:href="#DejaVuSans-Bold-61" transform="translate(364.257812 0)"/>
       <use xlink:href="#DejaVuSans-Bold-78" transform="translate(431.738281 0)"/>
       <use xlink:href="#DejaVuSans-Bold-5f" transform="translate(496.240234 0)"/>
       <use xlink:href="#DejaVuSans-Bold-69" transform="translate(546.240234 0)"/>
       <use xlink:href="#DejaVuSans-Bold-6e" transform="translate(580.517578 0)"/>
       <use xlink:href="#DejaVuSans-Bold-74" transform="translate(651.708984 0)"/>
       <use xlink:href="#DejaVuSans-Bold-65" transform="translate(699.511719 0)"/>
       <use xlink:href="#DejaVuSans-Bold-6e" transform="translate(767.333984 0)"/>
       <use xlink:href="#DejaVuSans-Bold-73" transform="translate(838.525391 0)"/>
       <use xlink:href="#DejaVuSans-Bold-69" transform="translate(898.046875 0)"/>
       <use xlink:href="#DejaVuSans-Bold-74" transform="translate(932.324219 0)"/>
       <use xlink:href="#DejaVuSans-Bold-79" transform="translate(980.126953 0)"/>
      </g>
     </g>
    </g>
   </g>
   <g id="matplotlib.axis_2">
    <g id="ytick_1">
     <g id="line2d_9">
      <defs>
       <path id="m31527dabc4" d="M 0 0 
L -3.5 0 
" style="stroke: #000000; stroke-width: 0.8"/>
      </defs>
      <g>
       <use xlink:href="#m31527dabc4" x="68.213363" y="435.75739" style="stroke: #000000; stroke-width: 0.8"/>
      </g>
     </g>
     <g id="text_9">
      <!-- 0.00 -->
      <g transform="translate(36.541488 439.556609) scale(0.1 -0.1)">
       <defs>
        <path id="DejaVuSans-Bold-30" d="M 2944 2338 
Q 2944 3213 2780 3570 
Q 2616 3928 2228 3928 
Q 1841 3928 1675 3570 
Q 1509 3213 1509 2338 
Q 1509 1453 1675 1090 
Q 1841 728 2228 728 
Q 2613 728 2778 1090 
Q 2944 1453 2944 2338 
z
M 4147 2328 
Q 4147 1169 3647 539 
Q 3147 -91 2228 -91 
Q 1306 -91 806 539 
Q 306 1169 306 2328 
Q 306 3491 806 4120 
Q 1306 4750 2228 4750 
Q 3147 4750 3647 4120 
Q 4147 3491 4147 2328 
z
" transform="scale(0.015625)"/>
        <path id="DejaVuSans-Bold-2e" d="M 653 1209 
L 1778 1209 
L 1778 0 
L 653 0 
L 653 1209 
z
" transform="scale(0.015625)"/>
       </defs>
       <use xlink:href="#DejaVuSans-Bold-30"/>
       <use xlink:href="#DejaVuSans-Bold-2e" transform="translate(69.580078 0)"/>
       <use xlink:href="#DejaVuSans-Bold-30" transform="translate(107.568359 0)"/>
       <use xlink:href="#DejaVuSans-Bold-30" transform="translate(177.148438 0)"/>
      </g>
     </g>
    </g>
    <g id="ytick_2">
     <g id="line2d_10">
      <g>
       <use xlink:href="#m31527dabc4" x="68.213363" y="359.932295" style="stroke: #000000; stroke-width: 0.8"/>
      </g>
     </g>
     <g id="text_10">
      <!-- 0.05 -->
      <g transform="translate(36.541488 363.731514) scale(0.1 -0.1)">
       <defs>
        <path id="DejaVuSans-Bold-35" d="M 678 4666 
L 3669 4666 
L 3669 3781 
L 1638 3781 
L 1638 3059 
Q 1775 3097 1914 3117 
Q 2053 3138 2203 3138 
Q 3056 3138 3531 2711 
Q 4006 2284 4006 1522 
Q 4006 766 3489 337 
Q 2972 -91 2053 -91 
Q 1656 -91 1267 -14 
Q 878 63 494 219 
L 494 1166 
Q 875 947 1217 837 
Q 1559 728 1863 728 
Q 2300 728 2551 942 
Q 2803 1156 2803 1522 
Q 2803 1891 2551 2103 
Q 2300 2316 1863 2316 
Q 1603 2316 1309 2248 
Q 1016 2181 678 2041 
L 678 4666 
z
" transform="scale(0.015625)"/>
       </defs>
       <use xlink:href="#DejaVuSans-Bold-30"/>
       <use xlink:href="#DejaVuSans-Bold-2e" transform="translate(69.580078 0)"/>
       <use xlink:href="#DejaVuSans-Bold-30" transform="translate(107.568359 0)"/>
       <use xlink:href="#DejaVuSans-Bold-35" transform="translate(177.148438 0)"/>
      </g>
     </g>
    </g>
    <g id="ytick_3">
     <g id="line2d_11">
      <g>
       <use xlink:href="#m31527dabc4" x="68.213363" y="284.107201" style="stroke: #000000; stroke-width: 0.8"/>
      </g>
     </g>
     <g id="text_11">
      <!-- 0.10 -->
      <g transform="translate(36.541488 287.906419) scale(0.1 -0.1)">
       <defs>
        <path id="DejaVuSans-Bold-31" d="M 750 831 
L 1813 831 
L 1813 3847 
L 722 3622 
L 722 4441 
L 1806 4666 
L 2950 4666 
L 2950 831 
L 4013 831 
L 4013 0 
L 750 0 
L 750 831 
z
" transform="scale(0.015625)"/>
       </defs>
       <use xlink:href="#DejaVuSans-Bold-30"/>
       <use xlink:href="#DejaVuSans-Bold-2e" transform="translate(69.580078 0)"/>
       <use xlink:href="#DejaVuSans-Bold-31" transform="translate(107.568359 0)"/>
       <use xlink:href="#DejaVuSans-Bold-30" transform="translate(177.148438 0)"/>
      </g>
     </g>
    </g>
    <g id="ytick_4">
     <g id="line2d_12">
      <g>
       <use xlink:href="#m31527dabc4" x="68.213363" y="208.282106" style="stroke: #000000; stroke-width: 0.8"/>
      </g>
     </g>
     <g id="text_12">
      <!-- 0.15 -->
      <g transform="translate(36.541488 212.081325) scale(0.1 -0.1)">
       <use xlink:href="#DejaVuSans-Bold-30"/>
       <use xlink:href="#DejaVuSans-Bold-2e" transform="translate(69.580078 0)"/>
       <use xlink:href="#DejaVuSans-Bold-31" transform="translate(107.568359 0)"/>
       <use xlink:href="#DejaVuSans-Bold-35" transform="translate(177.148438 0)"/>
      </g>
     </g>
    </g>
    <g id="ytick_5">
     <g id="line2d_13">
      <g>
       <use xlink:href="#m31527dabc4" x="68.213363" y="132.457012" style="stroke: #000000; stroke-width: 0.8"/>
      </g>
     </g>
     <g id="text_13">
      <!-- 0.20 -->
      <g transform="translate(36.541488 136.25623) scale(0.1 -0.1)">
       <defs>
        <path id="DejaVuSans-Bold-32" d="M 1844 884 
L 3897 884 
L 3897 0 
L 506 0 
L 506 884 
L 2209 2388 
Q 2438 2594 2547 2791 
Q 2656 2988 2656 3200 
Q 2656 3528 2436 3728 
Q 2216 3928 1850 3928 
Q 1569 3928 1234 3808 
Q 900 3688 519 3450 
L 519 4475 
Q 925 4609 1322 4679 
Q 1719 4750 2100 4750 
Q 2938 4750 3402 4381 
Q 3866 4013 3866 3353 
Q 3866 2972 3669 2642 
Q 3472 2313 2841 1759 
L 1844 884 
z
" transform="scale(0.015625)"/>
       </defs>
       <use xlink:href="#DejaVuSans-Bold-30"/>
       <use xlink:href="#DejaVuSans-Bold-2e" transform="translate(69.580078 0)"/>
       <use xlink:href="#DejaVuSans-Bold-32" transform="translate(107.568359 0)"/>
       <use xlink:href="#DejaVuSans-Bold-30" transform="translate(177.148438 0)"/>
      </g>
     </g>
    </g>
    <g id="ytick_6">
     <g id="line2d_14">
      <g>
       <use xlink:href="#m31527dabc4" x="68.213363" y="56.631917" style="stroke: #000000; stroke-width: 0.8"/>
      </g>
     </g>
     <g id="text_14">
      <!-- 0.25 -->
      <g transform="translate(36.541488 60.431136) scale(0.1 -0.1)">
       <use xlink:href="#DejaVuSans-Bold-30"/>
       <use xlink:href="#DejaVuSans-Bold-2e" transform="translate(69.580078 0)"/>
       <use xlink:href="#DejaVuSans-Bold-32" transform="translate(107.568359 0)"/>
       <use xlink:href="#DejaVuSans-Bold-35" transform="translate(177.148438 0)"/>
      </g>
     </g>
    </g>
    <g id="text_15">
     <!-- Normalized Attributions -->
     <g transform="translate(29.629926 327.622914) rotate(-90) scale(0.14 -0.14)">
      <defs>
       <path id="DejaVuSans-Bold-4e" d="M 588 4666 
L 1931 4666 
L 3628 1466 
L 3628 4666 
L 4769 4666 
L 4769 0 
L 3425 0 
L 1728 3200 
L 1728 0 
L 588 0 
L 588 4666 
z
" transform="scale(0.015625)"/>
       <path id="DejaVuSans-Bold-6c" d="M 538 4863 
L 1656 4863 
L 1656 0 
L 538 0 
L 538 4863 
z
" transform="scale(0.015625)"/>
       <path id="DejaVuSans-Bold-7a" d="M 366 3500 
L 3419 3500 
L 3419 2719 
L 1575 800 
L 3419 800 
L 3419 0 
L 288 0 
L 288 781 
L 2131 2700 
L 366 2700 
L 366 3500 
z
" transform="scale(0.015625)"/>
       <path id="DejaVuSans-Bold-20" transform="scale(0.015625)"/>
       <path id="DejaVuSans-Bold-41" d="M 3419 850 
L 1538 850 
L 1241 0 
L 31 0 
L 1759 4666 
L 3194 4666 
L 4922 0 
L 3713 0 
L 3419 850 
z
M 1838 1716 
L 3116 1716 
L 2478 3572 
L 1838 1716 
z
" transform="scale(0.015625)"/>
       <path id="DejaVuSans-Bold-62" d="M 2400 722 
Q 2759 722 2948 984 
Q 3138 1247 3138 1747 
Q 3138 2247 2948 2509 
Q 2759 2772 2400 2772 
Q 2041 2772 1848 2508 
Q 1656 2244 1656 1747 
Q 1656 1250 1848 986 
Q 2041 722 2400 722 
z
M 1656 2988 
Q 1888 3294 2169 3439 
Q 2450 3584 2816 3584 
Q 3463 3584 3878 3070 
Q 4294 2556 4294 1747 
Q 4294 938 3878 423 
Q 3463 -91 2816 -91 
Q 2450 -91 2169 54 
Q 1888 200 1656 506 
L 1656 0 
L 538 0 
L 538 4863 
L 1656 4863 
L 1656 2988 
z
" transform="scale(0.015625)"/>
      </defs>
      <use xlink:href="#DejaVuSans-Bold-4e"/>
      <use xlink:href="#DejaVuSans-Bold-6f" transform="translate(83.691406 0)"/>
      <use xlink:href="#DejaVuSans-Bold-72" transform="translate(152.392578 0)"/>
      <use xlink:href="#DejaVuSans-Bold-6d" transform="translate(201.708984 0)"/>
      <use xlink:href="#DejaVuSans-Bold-61" transform="translate(305.908203 0)"/>
      <use xlink:href="#DejaVuSans-Bold-6c" transform="translate(373.388672 0)"/>
      <use xlink:href="#DejaVuSans-Bold-69" transform="translate(407.666016 0)"/>
      <use xlink:href="#DejaVuSans-Bold-7a" transform="translate(441.943359 0)"/>
      <use xlink:href="#DejaVuSans-Bold-65" transform="translate(500.146484 0)"/>
      <use xlink:href="#DejaVuSans-Bold-64" transform="translate(567.96875 0)"/>
      <use xlink:href="#DejaVuSans-Bold-20" transform="translate(639.550781 0)"/>
      <use xlink:href="#DejaVuSans-Bold-41" transform="translate(674.365234 0)"/>
      <use xlink:href="#DejaVuSans-Bold-74" transform="translate(751.757812 0)"/>
      <use xlink:href="#DejaVuSans-Bold-74" transform="translate(799.560547 0)"/>
      <use xlink:href="#DejaVuSans-Bold-72" transform="translate(847.363281 0)"/>
      <use xlink:href="#DejaVuSans-Bold-69" transform="translate(896.679688 0)"/>
      <use xlink:href="#DejaVuSans-Bold-62" transform="translate(930.957031 0)"/>
      <use xlink:href="#DejaVuSans-Bold-75" transform="translate(1002.539062 0)"/>
      <use xlink:href="#DejaVuSans-Bold-74" transform="translate(1073.730469 0)"/>
      <use xlink:href="#DejaVuSans-Bold-69" transform="translate(1121.533203 0)"/>
      <use xlink:href="#DejaVuSans-Bold-6f" transform="translate(1155.810547 0)"/>
      <use xlink:href="#DejaVuSans-Bold-6e" transform="translate(1224.511719 0)"/>
      <use xlink:href="#DejaVuSans-Bold-73" transform="translate(1295.703125 0)"/>
     </g>
    </g>
   </g>
   <g id="patch_27">
    <path d="M 68.213363 435.75739 
L 68.213363 29.76 
" style="fill: none; stroke: #000000; stroke-width: 0.8; stroke-linejoin: miter; stroke-linecap: square"/>
   </g>
   <g id="patch_28">
    <path d="M 690.264 435.75739 
L 690.264 29.76 
" style="fill: none; stroke: #000000; stroke-width: 0.8; stroke-linejoin: miter; stroke-linecap: square"/>
   </g>
   <g id="patch_29">
    <path d="M 68.213363 435.75739 
L 690.264 435.75739 
" style="fill: none; stroke: #000000; stroke-width: 0.8; stroke-linejoin: miter; stroke-linecap: square"/>
   </g>
   <g id="patch_30">
    <path d="M 68.213363 29.76 
L 690.264 29.76 
" style="fill: none; stroke: #000000; stroke-width: 0.8; stroke-linejoin: miter; stroke-linecap: square"/>
   </g>
   <g id="text_16">
    <!-- Top 8 Feature Importances, o1 Base MLP -->
    <g transform="translate(195.447432 23.76) scale(0.16 -0.16)">
     <defs>
      <path id="DejaVuSans-Bold-54" d="M 31 4666 
L 4331 4666 
L 4331 3756 
L 2784 3756 
L 2784 0 
L 1581 0 
L 1581 3756 
L 31 3756 
L 31 4666 
z
" transform="scale(0.015625)"/>
      <path id="DejaVuSans-Bold-70" d="M 1656 506 
L 1656 -1331 
L 538 -1331 
L 538 3500 
L 1656 3500 
L 1656 2988 
Q 1888 3294 2169 3439 
Q 2450 3584 2816 3584 
Q 3463 3584 3878 3070 
Q 4294 2556 4294 1747 
Q 4294 938 3878 423 
Q 3463 -91 2816 -91 
Q 2450 -91 2169 54 
Q 1888 200 1656 506 
z
M 2400 2772 
Q 2041 2772 1848 2508 
Q 1656 2244 1656 1747 
Q 1656 1250 1848 986 
Q 2041 722 2400 722 
Q 2759 722 2948 984 
Q 3138 1247 3138 1747 
Q 3138 2247 2948 2509 
Q 2759 2772 2400 2772 
z
" transform="scale(0.015625)"/>
      <path id="DejaVuSans-Bold-38" d="M 2228 2088 
Q 1891 2088 1709 1903 
Q 1528 1719 1528 1375 
Q 1528 1031 1709 848 
Q 1891 666 2228 666 
Q 2563 666 2741 848 
Q 2919 1031 2919 1375 
Q 2919 1722 2741 1905 
Q 2563 2088 2228 2088 
z
M 1350 2484 
Q 925 2613 709 2878 
Q 494 3144 494 3541 
Q 494 4131 934 4440 
Q 1375 4750 2228 4750 
Q 3075 4750 3515 4442 
Q 3956 4134 3956 3541 
Q 3956 3144 3739 2878 
Q 3522 2613 3097 2484 
Q 3572 2353 3814 2058 
Q 4056 1763 4056 1313 
Q 4056 619 3595 264 
Q 3134 -91 2228 -91 
Q 1319 -91 855 264 
Q 391 619 391 1313 
Q 391 1763 633 2058 
Q 875 2353 1350 2484 
z
M 1631 3419 
Q 1631 3141 1786 2991 
Q 1941 2841 2228 2841 
Q 2509 2841 2662 2991 
Q 2816 3141 2816 3419 
Q 2816 3697 2662 3845 
Q 2509 3994 2228 3994 
Q 1941 3994 1786 3844 
Q 1631 3694 1631 3419 
z
" transform="scale(0.015625)"/>
      <path id="DejaVuSans-Bold-46" d="M 588 4666 
L 3834 4666 
L 3834 3756 
L 1791 3756 
L 1791 2888 
L 3713 2888 
L 3713 1978 
L 1791 1978 
L 1791 0 
L 588 0 
L 588 4666 
z
" transform="scale(0.015625)"/>
      <path id="DejaVuSans-Bold-49" d="M 588 4666 
L 1791 4666 
L 1791 0 
L 588 0 
L 588 4666 
z
" transform="scale(0.015625)"/>
      <path id="DejaVuSans-Bold-2c" d="M 653 1209 
L 1778 1209 
L 1778 256 
L 1006 -909 
L 341 -909 
L 653 256 
L 653 1209 
z
" transform="scale(0.015625)"/>
      <path id="DejaVuSans-Bold-42" d="M 2456 2859 
Q 2741 2859 2887 2984 
Q 3034 3109 3034 3353 
Q 3034 3594 2887 3720 
Q 2741 3847 2456 3847 
L 1791 3847 
L 1791 2859 
L 2456 2859 
z
M 2497 819 
Q 2859 819 3042 972 
Q 3225 1125 3225 1434 
Q 3225 1738 3044 1889 
Q 2863 2041 2497 2041 
L 1791 2041 
L 1791 819 
L 2497 819 
z
M 3616 2497 
Q 4003 2384 4215 2081 
Q 4428 1778 4428 1338 
Q 4428 663 3972 331 
Q 3516 0 2584 0 
L 588 0 
L 588 4666 
L 2394 4666 
Q 3366 4666 3802 4372 
Q 4238 4078 4238 3431 
Q 4238 3091 4078 2852 
Q 3919 2613 3616 2497 
z
" transform="scale(0.015625)"/>
      <path id="DejaVuSans-Bold-4d" d="M 588 4666 
L 2119 4666 
L 3181 2169 
L 4250 4666 
L 5778 4666 
L 5778 0 
L 4641 0 
L 4641 3413 
L 3566 897 
L 2803 897 
L 1728 3413 
L 1728 0 
L 588 0 
L 588 4666 
z
" transform="scale(0.015625)"/>
      <path id="DejaVuSans-Bold-4c" d="M 588 4666 
L 1791 4666 
L 1791 909 
L 3903 909 
L 3903 0 
L 588 0 
L 588 4666 
z
" transform="scale(0.015625)"/>
      <path id="DejaVuSans-Bold-50" d="M 588 4666 
L 2584 4666 
Q 3475 4666 3951 4270 
Q 4428 3875 4428 3144 
Q 4428 2409 3951 2014 
Q 3475 1619 2584 1619 
L 1791 1619 
L 1791 0 
L 588 0 
L 588 4666 
z
M 1791 3794 
L 1791 2491 
L 2456 2491 
Q 2806 2491 2997 2661 
Q 3188 2831 3188 3144 
Q 3188 3456 2997 3625 
Q 2806 3794 2456 3794 
L 1791 3794 
z
" transform="scale(0.015625)"/>
     </defs>
     <use xlink:href="#DejaVuSans-Bold-54"/>
     <use xlink:href="#DejaVuSans-Bold-6f" transform="translate(54.962891 0)"/>
     <use xlink:href="#DejaVuSans-Bold-70" transform="translate(123.664062 0)"/>
     <use xlink:href="#DejaVuSans-Bold-20" transform="translate(195.246094 0)"/>
     <use xlink:href="#DejaVuSans-Bold-38" transform="translate(230.060547 0)"/>
     <use xlink:href="#DejaVuSans-Bold-20" transform="translate(299.640625 0)"/>
     <use xlink:href="#DejaVuSans-Bold-46" transform="translate(334.455078 0)"/>
     <use xlink:href="#DejaVuSans-Bold-65" transform="translate(398.765625 0)"/>
     <use xlink:href="#DejaVuSans-Bold-61" transform="translate(466.587891 0)"/>
     <use xlink:href="#DejaVuSans-Bold-74" transform="translate(534.068359 0)"/>
     <use xlink:href="#DejaVuSans-Bold-75" transform="translate(581.871094 0)"/>
     <use xlink:href="#DejaVuSans-Bold-72" transform="translate(653.0625 0)"/>
     <use xlink:href="#DejaVuSans-Bold-65" transform="translate(702.378906 0)"/>
     <use xlink:href="#DejaVuSans-Bold-20" transform="translate(770.201172 0)"/>
     <use xlink:href="#DejaVuSans-Bold-49" transform="translate(805.015625 0)"/>
     <use xlink:href="#DejaVuSans-Bold-6d" transform="translate(842.222656 0)"/>
     <use xlink:href="#DejaVuSans-Bold-70" transform="translate(946.421875 0)"/>
     <use xlink:href="#DejaVuSans-Bold-6f" transform="translate(1018.003906 0)"/>
     <use xlink:href="#DejaVuSans-Bold-72" transform="translate(1086.705078 0)"/>
     <use xlink:href="#DejaVuSans-Bold-74" transform="translate(1136.021484 0)"/>
     <use xlink:href="#DejaVuSans-Bold-61" transform="translate(1183.824219 0)"/>
     <use xlink:href="#DejaVuSans-Bold-6e" transform="translate(1251.304688 0)"/>
     <use xlink:href="#DejaVuSans-Bold-63" transform="translate(1322.496094 0)"/>
     <use xlink:href="#DejaVuSans-Bold-65" transform="translate(1381.773438 0)"/>
     <use xlink:href="#DejaVuSans-Bold-73" transform="translate(1449.595703 0)"/>
     <use xlink:href="#DejaVuSans-Bold-2c" transform="translate(1509.117188 0)"/>
     <use xlink:href="#DejaVuSans-Bold-20" transform="translate(1547.105469 0)"/>
     <use xlink:href="#DejaVuSans-Bold-6f" transform="translate(1581.919922 0)"/>
     <use xlink:href="#DejaVuSans-Bold-31" transform="translate(1650.621094 0)"/>
     <use xlink:href="#DejaVuSans-Bold-20" transform="translate(1720.201172 0)"/>
     <use xlink:href="#DejaVuSans-Bold-42" transform="translate(1755.015625 0)"/>
     <use xlink:href="#DejaVuSans-Bold-61" transform="translate(1831.236328 0)"/>
     <use xlink:href="#DejaVuSans-Bold-73" transform="translate(1898.716797 0)"/>
     <use xlink:href="#DejaVuSans-Bold-65" transform="translate(1958.238281 0)"/>
     <use xlink:href="#DejaVuSans-Bold-20" transform="translate(2026.060547 0)"/>
     <use xlink:href="#DejaVuSans-Bold-4d" transform="translate(2060.875 0)"/>
     <use xlink:href="#DejaVuSans-Bold-4c" transform="translate(2160.386719 0)"/>
     <use xlink:href="#DejaVuSans-Bold-50" transform="translate(2224.107422 0)"/>
    </g>
   </g>
   <g id="legend_1">
    <g id="patch_31">
     <path d="M 698.884506 86.20125 
L 850.476381 86.20125 
Q 852.876381 86.20125 852.876381 83.80125 
L 852.876381 32.16 
Q 852.876381 29.76 850.476381 29.76 
L 698.884506 29.76 
Q 696.484506 29.76 696.484506 32.16 
L 696.484506 83.80125 
Q 696.484506 86.20125 698.884506 86.20125 
z
" style="fill: #ffffff; opacity: 0.8; stroke: #cccccc; stroke-linejoin: miter"/>
    </g>
    <g id="patch_32">
     <path d="M 701.284506 43.678125 
L 725.284506 43.678125 
L 725.284506 35.278125 
L 701.284506 35.278125 
z
" style="fill: #1f77b4"/>
    </g>
    <g id="text_17">
     <!-- DeepLift -->
     <g transform="translate(734.884506 43.678125) scale(0.12 -0.12)">
      <defs>
       <path id="DejaVuSans-Bold-44" d="M 1791 3756 
L 1791 909 
L 2222 909 
Q 2959 909 3348 1275 
Q 3738 1641 3738 2338 
Q 3738 3031 3350 3393 
Q 2963 3756 2222 3756 
L 1791 3756 
z
M 588 4666 
L 1856 4666 
Q 2919 4666 3439 4514 
Q 3959 4363 4331 4000 
Q 4659 3684 4818 3271 
Q 4978 2859 4978 2338 
Q 4978 1809 4818 1395 
Q 4659 981 4331 666 
Q 3956 303 3431 151 
Q 2906 0 1856 0 
L 588 0 
L 588 4666 
z
" transform="scale(0.015625)"/>
       <path id="DejaVuSans-Bold-66" d="M 2841 4863 
L 2841 4128 
L 2222 4128 
Q 1984 4128 1890 4042 
Q 1797 3956 1797 3744 
L 1797 3500 
L 2753 3500 
L 2753 2700 
L 1797 2700 
L 1797 0 
L 678 0 
L 678 2700 
L 122 2700 
L 122 3500 
L 678 3500 
L 678 3744 
Q 678 4316 997 4589 
Q 1316 4863 1984 4863 
L 2841 4863 
z
" transform="scale(0.015625)"/>
      </defs>
      <use xlink:href="#DejaVuSans-Bold-44"/>
      <use xlink:href="#DejaVuSans-Bold-65" transform="translate(83.007812 0)"/>
      <use xlink:href="#DejaVuSans-Bold-65" transform="translate(150.830078 0)"/>
      <use xlink:href="#DejaVuSans-Bold-70" transform="translate(218.652344 0)"/>
      <use xlink:href="#DejaVuSans-Bold-4c" transform="translate(290.234375 0)"/>
      <use xlink:href="#DejaVuSans-Bold-69" transform="translate(353.955078 0)"/>
      <use xlink:href="#DejaVuSans-Bold-66" transform="translate(388.232422 0)"/>
      <use xlink:href="#DejaVuSans-Bold-74" transform="translate(431.738281 0)"/>
     </g>
    </g>
    <g id="patch_33">
     <path d="M 701.284506 61.291875 
L 725.284506 61.291875 
L 725.284506 52.891875 
L 701.284506 52.891875 
z
" style="fill: #ff7f0e"/>
    </g>
    <g id="text_18">
     <!-- GradientShap -->
     <g transform="translate(734.884506 61.291875) scale(0.12 -0.12)">
      <defs>
       <path id="DejaVuSans-Bold-47" d="M 4781 347 
Q 4331 128 3847 18 
Q 3363 -91 2847 -91 
Q 1681 -91 1000 561 
Q 319 1213 319 2328 
Q 319 3456 1012 4103 
Q 1706 4750 2913 4750 
Q 3378 4750 3804 4662 
Q 4231 4575 4609 4403 
L 4609 3438 
Q 4219 3659 3833 3768 
Q 3447 3878 3059 3878 
Q 2341 3878 1952 3476 
Q 1563 3075 1563 2328 
Q 1563 1588 1938 1184 
Q 2313 781 3003 781 
Q 3191 781 3352 804 
Q 3513 828 3641 878 
L 3641 1784 
L 2906 1784 
L 2906 2591 
L 4781 2591 
L 4781 347 
z
" transform="scale(0.015625)"/>
       <path id="DejaVuSans-Bold-53" d="M 3834 4519 
L 3834 3531 
Q 3450 3703 3084 3790 
Q 2719 3878 2394 3878 
Q 1963 3878 1756 3759 
Q 1550 3641 1550 3391 
Q 1550 3203 1689 3098 
Q 1828 2994 2194 2919 
L 2706 2816 
Q 3484 2659 3812 2340 
Q 4141 2022 4141 1434 
Q 4141 663 3683 286 
Q 3225 -91 2284 -91 
Q 1841 -91 1394 -6 
Q 947 78 500 244 
L 500 1259 
Q 947 1022 1364 901 
Q 1781 781 2169 781 
Q 2563 781 2772 912 
Q 2981 1044 2981 1288 
Q 2981 1506 2839 1625 
Q 2697 1744 2272 1838 
L 1806 1941 
Q 1106 2091 782 2419 
Q 459 2747 459 3303 
Q 459 4000 909 4375 
Q 1359 4750 2203 4750 
Q 2588 4750 2994 4692 
Q 3400 4634 3834 4519 
z
" transform="scale(0.015625)"/>
       <path id="DejaVuSans-Bold-68" d="M 4056 2131 
L 4056 0 
L 2931 0 
L 2931 347 
L 2931 1625 
Q 2931 2084 2911 2256 
Q 2891 2428 2841 2509 
Q 2775 2619 2662 2680 
Q 2550 2741 2406 2741 
Q 2056 2741 1856 2470 
Q 1656 2200 1656 1722 
L 1656 0 
L 538 0 
L 538 4863 
L 1656 4863 
L 1656 2988 
Q 1909 3294 2193 3439 
Q 2478 3584 2822 3584 
Q 3428 3584 3742 3212 
Q 4056 2841 4056 2131 
z
" transform="scale(0.015625)"/>
      </defs>
      <use xlink:href="#DejaVuSans-Bold-47"/>
      <use xlink:href="#DejaVuSans-Bold-72" transform="translate(82.080078 0)"/>
      <use xlink:href="#DejaVuSans-Bold-61" transform="translate(131.396484 0)"/>
      <use xlink:href="#DejaVuSans-Bold-64" transform="translate(198.876953 0)"/>
      <use xlink:href="#DejaVuSans-Bold-69" transform="translate(270.458984 0)"/>
      <use xlink:href="#DejaVuSans-Bold-65" transform="translate(304.736328 0)"/>
      <use xlink:href="#DejaVuSans-Bold-6e" transform="translate(372.558594 0)"/>
      <use xlink:href="#DejaVuSans-Bold-74" transform="translate(443.75 0)"/>
      <use xlink:href="#DejaVuSans-Bold-53" transform="translate(491.552734 0)"/>
      <use xlink:href="#DejaVuSans-Bold-68" transform="translate(563.574219 0)"/>
      <use xlink:href="#DejaVuSans-Bold-61" transform="translate(634.765625 0)"/>
      <use xlink:href="#DejaVuSans-Bold-70" transform="translate(702.246094 0)"/>
     </g>
    </g>
    <g id="patch_34">
     <path d="M 701.284506 78.905625 
L 725.284506 78.905625 
L 725.284506 70.505625 
L 701.284506 70.505625 
z
" style="fill: #2ca02c"/>
    </g>
    <g id="text_19">
     <!-- Feature Ablation -->
     <g transform="translate(734.884506 78.905625) scale(0.12 -0.12)">
      <use xlink:href="#DejaVuSans-Bold-46"/>
      <use xlink:href="#DejaVuSans-Bold-65" transform="translate(64.310547 0)"/>
      <use xlink:href="#DejaVuSans-Bold-61" transform="translate(132.132812 0)"/>
      <use xlink:href="#DejaVuSans-Bold-74" transform="translate(199.613281 0)"/>
      <use xlink:href="#DejaVuSans-Bold-75" transform="translate(247.416016 0)"/>
      <use xlink:href="#DejaVuSans-Bold-72" transform="translate(318.607422 0)"/>
      <use xlink:href="#DejaVuSans-Bold-65" transform="translate(367.923828 0)"/>
      <use xlink:href="#DejaVuSans-Bold-20" transform="translate(435.746094 0)"/>
      <use xlink:href="#DejaVuSans-Bold-41" transform="translate(470.560547 0)"/>
      <use xlink:href="#DejaVuSans-Bold-62" transform="translate(547.953125 0)"/>
      <use xlink:href="#DejaVuSans-Bold-6c" transform="translate(619.535156 0)"/>
      <use xlink:href="#DejaVuSans-Bold-61" transform="translate(653.8125 0)"/>
      <use xlink:href="#DejaVuSans-Bold-74" transform="translate(721.292969 0)"/>
      <use xlink:href="#DejaVuSans-Bold-69" transform="translate(769.095703 0)"/>
      <use xlink:href="#DejaVuSans-Bold-6f" transform="translate(803.373047 0)"/>
      <use xlink:href="#DejaVuSans-Bold-6e" transform="translate(872.074219 0)"/>
     </g>
    </g>
   </g>
  </g>
 </g>
 <defs>
  <clipPath id="pd058864a40">
   <rect x="68.213363" y="29.76" width="622.050637" height="405.99739"/>
  </clipPath>
 </defs>
</svg>
